<svg xmlns="http://www.w3.org/2000/svg" width="440.83" height="67.622" viewBox="0 0 440.83 67.622">
  <path id="Path_45100" data-name="Path 45100" d="M-175.435-57.59a.738.738,0,0,1-.195.975.883.883,0,0,0-.325.975q-.13,0,.26-.39.26.13.065.26t-.065.39q-.26,0-.26-.13t-.26.13a.23.23,0,0,0,.26.26q.26,0,.13.26-.52,0-.65.65a1.555,1.555,0,0,0,0,.91q.26,0,.13-.26a.257.257,0,0,1,.13-.39q.26.26.065.845a2.168,2.168,0,0,1-.455.845.429.429,0,0,1,0-.455.8.8,0,0,0,.13-.455q-.78.39-.455.91t-.325.91q-.13.26.065.26a.441.441,0,0,1,.325.13q-.13.26-.65.26a2.541,2.541,0,0,1,.195.52.307.307,0,0,0,.325.26.966.966,0,0,0-.26.715q0,.455-.52.455a.437.437,0,0,1,.2-.39q.195-.13.065-.52a1.681,1.681,0,0,0-.585,1.3,5.914,5.914,0,0,0,.065,1.56,1.513,1.513,0,0,0-.39.26q-.13.13-.39,0a13.553,13.553,0,0,1-.585,2.275l-.845,2.535a2.738,2.738,0,0,1,.455.065,3.652,3.652,0,0,0,.715.065,3.6,3.6,0,0,1,1.3-.585,1.47,1.47,0,0,1,1.17.065q.52-.26,1.235-.585a1.143,1.143,0,0,1,1.235.065q.91-.26,2.47-.65a6.492,6.492,0,0,1,2.86-.13.115.115,0,0,0,.13.13q-.13.39.39.325t.39-.325h-.78q0-.26-.065-.26t-.065-.26q.65-.26.845,0t.845,0q.13.39-.2.26t-.195.26q.26,0,1.04-.065a8.339,8.339,0,0,0,1.3-.195q0-.26-.065-.26t-.065-.26a.626.626,0,0,1,.455.52.7.7,0,0,1-.195.65,4.12,4.12,0,0,0-1.82-.13,2.527,2.527,0,0,0-1.69.91q.26.26.39-.13t.39-.26v.39q.26.13.195-.26t.325-.26q0,.13-.065.13t-.065.26a4.84,4.84,0,0,0,2.275-.325,2.158,2.158,0,0,1,2.015.065,2.261,2.261,0,0,1-1.235.195,2.208,2.208,0,0,0-1.365.325q.13.26.2.065t.325-.065a1.5,1.5,0,0,1-.52,1.04q.39.26.585.13a2.516,2.516,0,0,1,.715-.26q-.26-.26-.13-.39t-.26-.13q.13-.39.39-.13t.39-.26a.891.891,0,0,1-.13,1.04q-.39.39.39.78.26,0,.065-.26t.325-.13a.23.23,0,0,0,.26.26.23.23,0,0,0-.26-.26q0-.13.39-.13.13-.26-.065-.325t.065-.325l.39.39q.26.26.26-.26.26,0,.26.52a1.35,1.35,0,0,0,1.04-.13.65.65,0,0,1,.78,0,2,2,0,0,1-1.235.39,1.3,1.3,0,0,0-1.1.52.208.208,0,0,1,.13-.195.208.208,0,0,0,.13-.195q-.65.13-1.56.39a5.827,5.827,0,0,1-1.56.26v.52a18.794,18.794,0,0,0,1.885-.325,2.949,2.949,0,0,1,1.625.065,2.3,2.3,0,0,0,.715-.39.556.556,0,0,1,.715,0,2.184,2.184,0,0,1-2.015.65,1.769,1.769,0,0,0-1.885.78,3.478,3.478,0,0,0-1.3.26,1.008,1.008,0,0,1-1.17-.26q-.26.13-.26.325t-.26.325a8.269,8.269,0,0,0-2.21.325q-1.17.325-2.21.585.26.52.455.195a.447.447,0,0,1,.585-.195q-.13.52-.845.39t-.845.39a.65.65,0,0,0,.78,0,1.35,1.35,0,0,1,1.04-.13,12.352,12.352,0,0,1-4.81,1.04,2.848,2.848,0,0,1-1.885.65,3.989,3.989,0,0,0-2.015.52q-.26.13-.065.455t-.455.065a.115.115,0,0,1,.13-.13.115.115,0,0,0,.13-.13q0-.26-.195-.13a.632.632,0,0,1-.325.13.23.23,0,0,0,.26.26v.39q-.39,0-.39-.13-.13,0-.13.39a4.457,4.457,0,0,1-.845-.065,1.388,1.388,0,0,0-.715.065q0-.13.065-.13t.065-.26a.585.585,0,0,0-.52.195.437.437,0,0,1-.39.195,1.59,1.59,0,0,1-.26,1.235,2.4,2.4,0,0,0-.39,1.365q-.13,0-.13-.065t-.13-.065q-.26.13-.13.52a2.454,2.454,0,0,1,.13.78.208.208,0,0,0-.195.13q-.065.13-.325,0-.26.39-.065.455t.2.455q-.13,0-.13.065t-.26.065q-.13.26,0,.325t.13.325a.265.265,0,0,0-.2.065.265.265,0,0,1-.195.065,18.718,18.718,0,0,1-1.04,3.9,18.283,18.283,0,0,0-1.04,4.16.265.265,0,0,0-.195.065.265.265,0,0,1-.2.065,2.7,2.7,0,0,1,.13,1.04,1.589,1.589,0,0,1-.715.585q-.455.195-.2.845-.13,0-.13-.065t-.26-.065q.26.26-.13.78t0,.78a.739.739,0,0,0-.52.91.739.739,0,0,1-.52.91q-.13-.26.065-.39t.065-.39q-.26,0-.39.325t-.26-.325q-.26.26-.065.455a.36.36,0,0,1,.065.455q-.65-.26-.52.13a.363.363,0,0,1-.26.52q.13.26.325.065a.36.36,0,0,1,.455-.065q-.26.65-.585.52t-.585.52q.52.65,0,1.04a2.58,2.58,0,0,0-.78.91q-.13.39.195.455t.2.325q-.52-.13-.52.325t.26.585a.614.614,0,0,0-.52.65.875.875,0,0,1-.39.78q-.13-.65.13-.78t0-.78q.26-.13.2-.52a.7.7,0,0,1,.2-.65q-.65.13-.39,1.17a.23.23,0,0,0-.26.26q0,.26-.26.13a2.5,2.5,0,0,1-.13,2.08q-.52,1.04-.91,1.95-.26,0-.13-.39t-.13-.39a5.046,5.046,0,0,0-.26.65.589.589,0,0,0,.13.65q0,.26-.26.13a.257.257,0,0,1-.13-.39.875.875,0,0,0-.39.78.8.8,0,0,1-.26-.91q-.13-.26-.26.065a1.4,1.4,0,0,1-.26.455q-.39-.26-.195-.455t.065-.715q-.26.39-.455.325t-.325.325a1.323,1.323,0,0,1-.13-.975,2.363,2.363,0,0,0,0-1.105,112.944,112.944,0,0,1,2.08-12.545q1.3-5.655,2.99-12.025a.954.954,0,0,0-.91-.065,2.178,2.178,0,0,0-.78.455h.78q0,.26-.325.26a.466.466,0,0,0-.455.26.307.307,0,0,1-.325-.26q-.065-.26-.455-.13-.26.13-.065.325t-.065.325a1.573,1.573,0,0,0-.91.195,4.883,4.883,0,0,0-.52.455,2.529,2.529,0,0,0-.975-.065q-.455.065-.585.715a1.483,1.483,0,0,0-1.3.065,2.411,2.411,0,0,1-1.3.325q0-.13.065-.13t.065-.26q-.26,0-.325.13t-.325,0a.3.3,0,0,0,.195.325q.2.065-.065.325-.52,0-.325-.26t-.455-.13a.3.3,0,0,0,.2.325q.195.065.065.455a2.364,2.364,0,0,0-1.885.26,4.652,4.652,0,0,1-1.885.65q-.13.26-.26.26t-.26.26a5.445,5.445,0,0,0-2.795.65,3.047,3.047,0,0,1-2.275.39q-.26,0-.13.065t.13.325a1.589,1.589,0,0,0-1.17.39,3.751,3.751,0,0,0-2.015.455,5.49,5.49,0,0,0-1.3,1.17q-.585.715-1.17,1.365a4.571,4.571,0,0,1-1.365,1.04q.13,1.04-1.04,1.3a15.872,15.872,0,0,0-2.47-1.1,2.577,2.577,0,0,1-1.69-1.885q-.39,0-.39.26a1.344,1.344,0,0,1-.585-.91.991.991,0,0,0-.715-.78,2.218,2.218,0,0,0,.39-1.365,1.846,1.846,0,0,1,.52-1.365q0-.26-.26-.13t-.39,0q-.13-.26.065-.26t.2-.26a2.037,2.037,0,0,0-.52-.39,2.037,2.037,0,0,1-.52-.39.6.6,0,0,1,.65-.39q0-.26-.39-.26a1.362,1.362,0,0,1,.91-.845,1.8,1.8,0,0,0,1.04-.845,1.131,1.131,0,0,0,1.17-.13,1.9,1.9,0,0,1,1.17-.39q4.94-6.5,9.945-12.87a124.305,124.305,0,0,1,10.855-12.09q4.03-4.03,8.125-7.995a35.633,35.633,0,0,1,9.555-6.565,1.757,1.757,0,0,1,1.625.52,3.112,3.112,0,0,0,1.5.91,4.855,4.855,0,0,0,1.625,1.625,3.749,3.749,0,0,1,1.5,1.755,1.148,1.148,0,0,1,.975.975,1.257,1.257,0,0,1-.455,1.365q.26.26.325,0t.325-.13a.974.974,0,0,0-.13.845,4.288,4.288,0,0,0,.26.715,1.028,1.028,0,0,0-.65-.13q-.26.26,0,.455t0,.455q-.26.13-.26-.13a.53.53,0,0,1,.13-.39q-.39-.13-.39.26v.65q.39-.39.52,0a.589.589,0,0,1-.13.65q-.39,0-.26-.13t-.13-.39q-.26.13-.13.585a1,1,0,0,1,0,.715.115.115,0,0,0,.13-.13Zm-.13-5.46h.26v-.26h-.26Zm.52,1.04a.689.689,0,0,1,0-.585q.13-.325-.26-.195a1.154,1.154,0,0,0-.13.52Q-175.435-62.01-175.045-62.01Zm-.13,1.69q.26.26.325-.195t-.195-.455A1.028,1.028,0,0,0-175.175-60.32Zm-10.01,2.99q-.26,0-.26.13Q-185.185-57.2-185.185-57.33Zm9.49.52a.53.53,0,0,0,.13-.39q0-.26-.26-.13Q-175.825-56.81-175.695-56.81Zm-18.85,19.37q-.13.39.065.195t-.065-.195a7.78,7.78,0,0,1,2.34-.715A8.685,8.685,0,0,0-189.6-39q1.43-4.55,2.73-8.71t2.73-9.1a45.107,45.107,0,0,0-5.785,5.135q-2.795,2.925-5.525,5.655-2.73,2.86-5.33,5.85t-4.94,6.24q2.86-.91,5.525-1.82T-194.545-37.44Zm8.32-19.11q-.26,0-.26.13Q-186.225-56.42-186.225-56.55Zm-1.69,2.08a.345.345,0,0,0,.39-.39q-.26-.13-.26.065A.441.441,0,0,1-187.915-54.47Zm10.79.52q.26,0,.455-.455t-.195-.455a.437.437,0,0,1-.2.39Q-177.255-54.34-177.125-53.95Zm-13.13,1.69q.26.13.52-.52A.46.46,0,0,0-190.255-52.26Zm-6.76.65q.13.26.195-.065T-197.015-51.61Zm5.72.39q.13.26.2-.065T-191.295-51.22Zm-.65.52q.39,0,.39-.26Q-191.945-50.96-191.945-50.7Zm13.65.26h.26v-.26h-.26Zm-14.95.39a.257.257,0,0,0,.39-.13q.13-.26-.13-.26,0,.26-.13.26A.115.115,0,0,0-193.245-50.05Zm-.52.52q.26.39.195.065T-193.765-49.53Zm-.13.78q.39,0,.39-.26h-.26q0,.13-.065.13T-193.895-48.75Zm-1.3,1.17Zm15.86.52q.13.39.13,0T-179.335-47.06Zm-17.03.39q0-.26.325-.13t.065-.26a.36.36,0,0,0-.455.065Q-196.625-46.8-196.365-46.67Zm17.81-.26q.13.39.13,0T-178.555-46.93Zm-18.33.91q.13-.39.325-.26a.8.8,0,0,0,.455.13q0-.52-.52-.325T-196.885-46.02Zm17.29.13q.13.39.13,0T-179.6-45.89Zm0,.52h.26v-.26h-.26Zm-17.55.13q.39,0,.39-.26Q-197.145-45.5-197.145-45.24Zm15.47,0q.13.39.13,0T-181.675-45.24Zm1.69.52q0-.13.195-.13t.065-.26a.257.257,0,0,0-.39.13Q-180.245-44.72-179.985-44.72Zm-18.33.78a.781.781,0,0,0-.52.52.46.46,0,0,0,.52-.52h.26v-.26A.23.23,0,0,0-198.315-43.94Zm18.07-.13q.13.39.13,0T-180.245-44.07Zm.26.65h.26v-.26h-.26Zm-23.79.39q.13.39.13,0T-203.775-43.03Zm33.8.26a.475.475,0,0,0,.585-.13q.195-.26.455,0,0-.39-.52-.26T-169.975-42.77Zm-1.43-.26q-.26,0-.26.13Q-171.405-42.9-171.4-43.03Zm.39.26q-.13.39.39.26t.52-.39a1.44,1.44,0,0,0-.455.065A1.44,1.44,0,0,1-171.015-42.77Zm-.91.26q.26,0,.26.065t.26.065q.13-.26-.195-.325T-171.925-42.51Zm3.38.13q0-.13-.26-.39Q-169.065-42.25-168.545-42.38Zm-6.5-.13q-.13,0-.13-.065t-.13-.065q-.26.26-.065.325T-175.045-42.51Zm1.82.26a.115.115,0,0,1,.13.13.115.115,0,0,0,.13.13,1.735,1.735,0,0,0,.455-.325q.2-.195.455.065,0-.65-.52-.325A2.027,2.027,0,0,1-173.225-42.25Zm2.99.39h.65q0-.65-.26-.65Q-169.975-42.51-170.235-41.86Zm1.04-.52q.13.39.13,0T-169.195-42.38Zm-31.33.39a.208.208,0,0,1,.13-.195q.13-.065-.13-.2a.208.208,0,0,1-.13.2Q-200.785-42.12-200.525-41.99Zm29.51.39q.26-.26.65,0a1,1,0,0,1-.13-.39.375.375,0,0,0-.13-.26q.13.52-.26.39T-171.015-41.6Zm-3.12-.26h.26v-.26h-.26Zm5.07,0h.26v-.26h-.26Zm1.69.52a1.253,1.253,0,0,1,1.82,0,1.482,1.482,0,0,0-.52-.78,2.524,2.524,0,0,1-.78.195q-.52.065-.91.13a.741.741,0,0,0-.52.26q-.13.2.13.585l.39-.39q0,.26.195.26T-167.375-41.34Zm-13.52-.52q.13.26.2-.065T-180.895-41.86Zm2.86,0q.13.39.13,0T-178.035-41.86Zm5.85.26q.26-.26.325,0t.325.13q0-.39-.455-.455T-172.185-41.6Zm-9.36-.13q.13.39.13,0T-181.545-41.73Zm6.11,0q.13.39.13,0T-175.435-41.73Zm2.47,0q0,.65.52.65a.592.592,0,0,1-.065-.455q.065-.2-.195-.325Q-172.7-41.73-172.965-41.73Zm-27.56.13Zm24.18,0q.13.39.13,0T-176.345-41.6Zm.39.13h.26v-.26h-.26Zm-4.94.13q.39,0,.39-.26Q-180.895-41.6-180.895-41.34Zm11.96.65a1.29,1.29,0,0,1-.13-.585q0-.325-.39-.325a.808.808,0,0,1,.26.585Q-169.195-40.69-168.935-40.69Zm-7.93-.65q.26.39.195.065T-176.865-41.34Zm6.63,0q.13.39.13,0T-170.235-41.34Zm4.42.52a.592.592,0,0,1-.325-.325.592.592,0,0,0-.325-.325,1.166,1.166,0,0,0,.2.585Q-166.075-40.56-165.815-40.82Zm-7.67-.39q0,.26.195.065T-173.485-41.21Zm6.76,0q.13.39.13,0T-166.725-41.21Zm-7.28.13q.13.39.13,0T-174-41.08Zm3.12.13h.39q0-.26-.39-.26Zm2.08-.13q.13.39.13,0T-168.8-41.08Zm-9.75.13q.13.26.2-.065T-178.555-40.95Zm8.71.39q.39,0,.39-.52-.26-.13-.2.13A.316.316,0,0,1-169.845-40.56Zm2.34.13a.864.864,0,0,0,.52-.195q.26-.2,0-.455,0,.26-.325.26T-167.5-40.43Zm-8.84-.13a.115.115,0,0,1,.13-.13.23.23,0,0,0-.26-.26Q-176.475-40.56-176.345-40.56Zm9.75-.26q.13.39.13,0T-166.595-40.82Zm-12.74.13q.13.39.13,0T-179.335-40.69Zm8.06,0Zm-30.81.26h.26v-.26h-.26Zm.65-.13q.26.39.2.065T-201.435-40.56Zm23.53,0q.13.39.13,0T-177.9-40.56Zm7.02.13h.39q0-.26-.39-.26Zm.78-.13a.115.115,0,0,0-.13-.13.115.115,0,0,0-.13.13.208.208,0,0,1,.2.13Q-170.105-40.3-170.1-40.56Zm2.21,0q-.39,0-.39.26Q-167.895-40.3-167.895-40.56Zm1.17.13q.13.39.13,0T-166.725-40.43Zm1.3.13h.26v-.26h-.26Zm-36.92,0Zm30.94,0q0-.13-.195-.13t-.2.13q-.13.26.2.26T-171.4-40.3Zm-.91.13q.13.39.13,0T-172.315-40.17Zm2.47,0q0,.26.13.26a.115.115,0,0,1,.13-.13.115.115,0,0,0,.13-.13Zm5.07,0q.13.39.13,0T-164.775-40.17Zm-13.52.13q.13.39.13,0T-178.295-40.04Zm12.48,0q.13.26.2-.065T-165.815-40.04Zm.65,0q.13.39.13,0T-165.165-40.04Zm-5.85.26h.26v-.26h-.26Zm3.9.13q0-.26.325-.13t.065-.26a.36.36,0,0,0-.455.065Q-167.375-39.78-167.115-39.65Zm-11.31-.13q-.39-.26-.325,0T-178.425-39.78Zm6.5.13Zm2.86.13q-.13.65,0,.13T-169.065-39.52Zm2.47.39a.5.5,0,0,0,.585.13q.325-.13.325-.39a.5.5,0,0,0-.585-.13Q-166.595-39.39-166.595-39.13Zm-7.93-.13V-39q.26.26.325-.065t-.195-.325A.115.115,0,0,1-174.525-39.26Zm6.63.13a1.019,1.019,0,0,1-.26.2,1.019,1.019,0,0,0-.26.195q.26.26.455.13T-167.895-39.13Zm-1.04.13q.13.39.13,0T-168.935-39Zm-7.28.26v.26h.26a.115.115,0,0,1,.13-.13v-.26h-.26A.115.115,0,0,1-176.215-38.74Zm5.98.26a.538.538,0,0,0,.585-.065q.2-.2-.195-.325,0,.26-.325.195T-170.235-38.48Zm-5.46-.13q.13.39.13,0T-175.695-38.61Zm3.77.13h.26v-.26h-.26Zm3.12-.13Zm3.77-.13h-.52q-.26.52.13.39T-165.035-38.74Zm-11.96.26q.13.39.13,0T-176.995-38.48Zm5.59.26q.65,0,.65-.39A.6.6,0,0,0-171.4-38.22Zm-7.8,0v.26h.26q.26-.26-.13-.39A.115.115,0,0,1-179.2-38.22Zm1.04.13h.26v-.26h-.26Zm-25.48.65-.39-.78v.585Q-204.035-37.31-203.645-37.44Zm29.64-.78q-.13.65.13.39T-174-38.22Zm1.43.52a.441.441,0,0,0,.13-.325q0-.2-.26-.2Q-172.7-37.7-172.575-37.7Zm-7.15-.26q.13.39.13,0T-179.725-37.96Zm2.08.13v.26h.26q.26-.26-.13-.39A.115.115,0,0,1-177.645-37.83Zm3.77.52a2.32,2.32,0,0,1,.585-.195.4.4,0,0,0,.325-.455,4.288,4.288,0,0,1-.715.26Q-174.135-37.57-173.875-37.31Zm-30.55,0a.53.53,0,0,0,.13-.39q0-.26-.26-.13Q-204.555-37.31-204.425-37.31Zm23.14-.13q.26.39.195.065T-181.285-37.44Zm6.37.26h.26v-.26h-.26Zm-29.51.13q.13,0,.13.065t.13.065q0-.13.065-.13t.065-.13q-.13,0-.13-.065t-.13-.065q0,.13-.065.13T-204.425-37.05Zm30.03.65q0,.65.195.52t.325.26a.515.515,0,0,1,.65-.065.515.515,0,0,0,.65-.065q-.39-.65.065-.585t.455-.455a1.934,1.934,0,0,0-.975.195,1.626,1.626,0,0,1-.845.195q0-.52-.13-.52a.36.36,0,0,0-.065.52Q-173.875-36.14-174.395-36.4Zm-30.81,0a1.154,1.154,0,0,1,.52-.13.416.416,0,0,0,.39-.26Q-205.2-36.79-205.2-36.4Zm30.42.39h.26v-.26h-.26Zm.13.39h.26v-.26h-.26Zm-2.73.13q.13.39.13,0T-177.385-35.49Zm1.17.52v-.26q0-.26-.13-.26,0,.13-.39.13a.23.23,0,0,0-.26-.26q0,.39.26.455A2.54,2.54,0,0,1-176.215-34.97Zm-1.82.52q.26.26.39-.325t-.26-.455q.13.26-.065.39T-178.035-34.45Zm.78-.26a.208.208,0,0,1,.13-.195.208.208,0,0,0,.13-.2.257.257,0,0,0-.39.13Q-177.515-34.71-177.255-34.71Zm-3.38,0q.13.39.13,0T-180.635-34.71Zm.78.65q0-.13-.26-.39Q-180.115-34.06-179.855-34.06Zm-1.04.26q.39.39.65-.26a.208.208,0,0,1-.195-.13.208.208,0,0,0-.2-.13q0,.26-.195.26T-180.895-33.8Zm-25.35-.39q-.26,0-.26.13Q-206.245-34.06-206.245-34.19Zm24.31.39q.13.39.13,0T-181.935-33.8Zm.52.65q.65,0,.65-.26-.13-.26-.325-.13A.981.981,0,0,0-181.415-33.15Zm1.04-.39q-.26,0-.26.13Q-180.375-33.41-180.375-33.54ZM-194.8-32.5a.115.115,0,0,0-.13-.13.115.115,0,0,0-.13.13.208.208,0,0,1,.195.13Q-194.8-32.24-194.8-32.5Zm-4.68.39q.13.39.13,0T-199.485-32.11Zm4.16.52q-.26,0-.26.13Q-195.325-31.46-195.325-31.59Zm0,2.6q.65,0,.52-.26Q-195.325-29.25-195.325-28.99Zm-.65.26q.39,0,.39-.26Q-195.975-28.99-195.975-28.73Zm-2.86,0q.13.39.13,0T-198.835-28.73Zm2.21.13q.13.39.13,0T-196.625-28.6Zm-.78.26h-.26a.115.115,0,0,0-.13.13q-.26.26.2.195T-197.4-28.34Zm-2.73.26q.13.39.13,0T-200.135-28.08Zm1.43.26h.52q.26,0,.13-.26h-.65Zm-.78.13q.13.39.13,0T-199.485-27.69Zm-.52.13q-.13.65,0,.13T-200-27.56Zm-1.82.91a.208.208,0,0,1,.13-.195q.13-.065-.13-.2a.208.208,0,0,1-.13.2Q-202.085-26.78-201.825-26.65Zm-1.43.39a.36.36,0,0,0,.455-.065q.195-.195-.065-.325,0,.26-.2.195T-203.255-26.26Zm-2.21.65h-.26a.115.115,0,0,0-.13.13q-.13.39.26.26T-205.465-25.61Zm-.52.13h-.26a.115.115,0,0,0-.13.13q-.13.39.26.26T-205.985-25.48Zm-1.95.91q.39,0,.39-.26Q-207.935-24.83-207.935-24.57Zm21.19,4.55a.115.115,0,0,0-.13-.13.115.115,0,0,0-.13.13.208.208,0,0,1,.195.13Q-186.745-19.76-186.745-20.02Zm-.78,1.3q.13.26.2-.065T-187.525-18.72Zm-.13.52a.208.208,0,0,1,.2.13q.065.13.325,0,.13-.26-.195-.325T-187.655-18.2Zm-2.08,2.47q0,.26.13.26a.115.115,0,0,1,.13-.13q0,.39.13.39,0-.26.195-.2t.2-.195q-.26.13-.325,0a.7.7,0,0,0-.325-.26A.115.115,0,0,1-189.735-15.73Zm-2.6,6.63.26-.52q-.26-.13-.39.195T-192.335-9.1Zm-2.99,4.55a3.5,3.5,0,0,1,.2-1.1,1.19,1.19,0,0,0,.065-.845,2.263,2.263,0,0,0-.455.975Q-195.715-4.81-195.325-4.55Zm1.82-1.3q.13.39.13,0T-193.5-5.85Zm-2.47,2.08q.26-.13.26.13t.26.13a.429.429,0,0,1,0-.455q.13-.2-.13-.455a1.5,1.5,0,0,1-.2.325A1.505,1.505,0,0,0-195.975-3.77Zm20.54-53.82q0-.39.26-.39v.26a.115.115,0,0,0-.13.13Zm-.65,2.99q.39.26.065.26T-176.085-54.6Zm-1.82,6.63q.13-.39.13,0T-177.9-47.97Zm-.65,2.47q.26.13.065.52t-.455.26a.816.816,0,0,0,.195-.325A3.567,3.567,0,0,1-178.555-45.5Zm13.13,1.17q-.13.26-.65.26Q-166.075-44.33-165.425-44.33Zm-1.43.39q.13-.39.13,0T-166.855-43.94Zm5.33-.13q.13.26-.065.26t-.195.13q-.26,0-.13-.26A.257.257,0,0,1-161.525-44.07Zm-.91.26a1.721,1.721,0,0,1-.975.26h-1.235a.974.974,0,0,1,.975-.325Q-162.955-43.81-162.435-43.81Zm-4.03.13q.13-.39.13,0T-166.465-43.68Zm8.58.13h.26v.26h-.26Zm-1.04.13h.26q0,.26-.39.26,0-.13.065-.13T-158.925-43.42Zm-.91.13q.39,0,.39.26h-.39Zm-4.55.26q.13-.39.13,0T-164.385-43.03Zm3.64-.13q0,.26-.325.26a1.29,1.29,0,0,0-.585.13q0-.26.325-.26A1.29,1.29,0,0,0-160.745-43.16Zm.78,0q0,.26-.39.26Q-160.355-43.16-159.965-43.16Zm-1.95.26q-.13.26-.325.26a1.047,1.047,0,0,0-.455.13q0,.52.26.52a.416.416,0,0,1-.39.26.749.749,0,0,0-.52.26.36.36,0,0,1-.065-.52.475.475,0,0,1,.585-.13q-.26-.52.13-.78A.65.65,0,0,1-161.915-42.9Zm.13.52q.26-.39.195-.065T-161.785-42.38Zm4.03.39q.13-.39.13,0T-157.755-41.99Zm-4.16,0q.39,0,.39.26h-.39Zm-5.46.65a.23.23,0,0,1-.26-.26A.23.23,0,0,1-167.375-41.34Zm2.34-.26q.26,0,.195.325t-.325.065v-.26A.115.115,0,0,0-165.035-41.6Zm6.89.39q0,.39-.52.39Q-158.665-41.73-158.145-41.21Zm-5.07,0q.13.26-.195.26t-.325.26q-.26-.26,0-.39A1.154,1.154,0,0,1-163.215-41.21Zm5.46.13q0-.13.26-.13Q-157.495-41.08-157.755-41.08Zm-1.17.39a.753.753,0,0,0-.52-.13q.13-.26.325-.26T-158.925-40.69Zm-1.04,0q.26-.39.2-.065T-159.965-40.69Zm.52.65Zm.65-.13h.26q0,.26-.39.26,0-.13.065-.13T-158.795-40.17Zm-3.38,1.56a1.286,1.286,0,0,0-.91.065,1.617,1.617,0,0,1-1.04.065,6.035,6.035,0,0,1,1.04-.325Q-162.3-39-162.175-38.61Zm-3.77,1.04q.13-.39.13,0T-165.945-37.57Zm-1.82.52q-.26,0-.26-.39Q-167.765-37.44-167.765-37.05Zm3.25-.39a1.041,1.041,0,0,1-.78.455,8.378,8.378,0,0,1-1.04.065A8.061,8.061,0,0,1-164.515-37.44Zm-3.25.39a.749.749,0,0,0,.52.26,6.9,6.9,0,0,1-1.43.39q-.78.13-1.69.26-.13-.26,0-.325t.13-.325q.26-.13.195.13a.316.316,0,0,0,.2.39.592.592,0,0,0,.325-.325,1.28,1.28,0,0,1,.325-.455q.26.52.39.26a2.037,2.037,0,0,1,.39-.52q.26.13.065.325a.532.532,0,0,0-.2.325A.632.632,0,0,0-167.765-37.05Zm-5.2.78q0,.26-.195.195t-.2.2q-.26-.13-.065-.26A.8.8,0,0,1-172.965-36.27Zm1.82.78q-.39.39-.585.13T-171.145-35.49Zm-1.56.26a.749.749,0,0,1-.52.26Q-173.225-35.23-172.7-35.23Zm-1.43.26q.26.26-.13.26T-174.135-34.97Zm-2.08.52h.26q0,.26-.39.26,0-.13.065-.13T-176.215-34.45Zm-16.12,4.68q.13.26-.52.26Q-192.855-29.77-192.335-29.77Zm1.69,18.33q.26,0,.195.455t-.325.195A1.028,1.028,0,0,1-190.645-11.44Zm-6.11,8.19h.26v.26h-.26Zm1.04,1.04q.39,0,.325.52a1.255,1.255,0,0,1-.2.65,2.54,2.54,0,0,1-.2-.52A1.186,1.186,0,0,1-195.715-2.21Zm.65,0h.26v.26h-.26Zm57.07-52.65a3,3,0,0,0,0-1.755,10.778,10.778,0,0,0-.78-1.625,31.817,31.817,0,0,0-8.775,5.785,60.847,60.847,0,0,0-6.825,7.475q-.52.65-.975,1.235t-.975,1.235a8.976,8.976,0,0,0-1.04,1.885,8.976,8.976,0,0,1-1.04,1.885,4.26,4.26,0,0,1-.52.65l-.52.52a52.716,52.716,0,0,0-2.795,5.655q-1.235,2.925-2.535,5.785.26.26.065.455a.36.36,0,0,0-.065.455,1.019,1.019,0,0,0-.2.26,1.018,1.018,0,0,1-.195.26,11.759,11.759,0,0,1-.52,2.73,7.836,7.836,0,0,0-.26,2.99,8.9,8.9,0,0,0,3.185-1.04q1.365-.78,2.795-1.43A172.34,172.34,0,0,0-143.91-34.645q7.475-6.955,15.665-13.195.52.26.715,0t.585,0q.26.65,0,.715a1.15,1.15,0,0,0-.52.325q.39.26.585-.065a.638.638,0,0,1,.585-.325.6.6,0,0,1-.39.65.827.827,0,0,0-.52.65.585.585,0,0,0,.195.52.981.981,0,0,1,.325.39,2.467,2.467,0,0,1-.91,1.495,1.848,1.848,0,0,0-.65,1.625q-.13.26-.325.26a1.047,1.047,0,0,0-.455.13q0,.52.39.26a3.6,3.6,0,0,1-1.04,1.43q-.65.52-1.43,1.04a1.191,1.191,0,0,1-.585,1.495,9.9,9.9,0,0,0-1.5.975,7.135,7.135,0,0,0,.39.91.764.764,0,0,1-.65.39q0-.26.13-.26t.13-.26a.922.922,0,0,0-.65.91,1.175,1.175,0,0,1-.65,1.04q0,.26.13.195t.13.065q.65.26.26-.39a.257.257,0,0,1,.13.39,1,1,0,0,0-.13.39q-.26.13-.325-.065a.3.3,0,0,0-.325-.195q.26.65,0,.91a1.648,1.648,0,0,0-.39.78q-.65-.52-1.04-.13a.316.316,0,0,0,.39.195q.26-.065.26.065a14.781,14.781,0,0,1-2.99,2.925,9.357,9.357,0,0,0-2.86,3.575q-.78-.13-.715.195a.619.619,0,0,1-.2.585q-.26.26-.325.13a.7.7,0,0,0-.325-.26q-.26.52.13.52a1.253,1.253,0,0,1-.65.52q-.39.13-.26.78-2.08,1.69-4.1,3.445a48.939,48.939,0,0,1-4.16,3.25,28.157,28.157,0,0,1-4.615,2.6,19.465,19.465,0,0,1-5.46,1.495q-1.17.65-3.51-.26a12.032,12.032,0,0,1-3.77-2.21q-.52-.39-1.1-.845a10.543,10.543,0,0,1-.975-.845,4,4,0,0,1-.65-.845,1.2,1.2,0,0,0-.78-.585.524.524,0,0,0-.26-.52,2.037,2.037,0,0,1-.52-.39,10.4,10.4,0,0,1-1.04-6.7A46.374,46.374,0,0,1-172.7-31.2v-.65a74.672,74.672,0,0,1,13.78-22.1.8.8,0,0,1,.13-.455.8.8,0,0,0,.13-.455,5.769,5.769,0,0,0,2.08-1.69,6.722,6.722,0,0,1,1.82-1.69v-.52a1.631,1.631,0,0,0,1.43-.78q1.43-1.43,2.795-2.665a24.426,24.426,0,0,1,3.185-2.4,11.4,11.4,0,0,1,1.82-.845,7.466,7.466,0,0,0,1.82-.975,1.855,1.855,0,0,0,1.105-.065q.455-.195.975-.455a1.3,1.3,0,0,0,1.3.26,7.364,7.364,0,0,1,1.17.585,1.483,1.483,0,0,0,1.3.065q-.13.39.13.455t.13.455q.39.26.65.065t.65.065q.26.26.13.39t.13.26a5.17,5.17,0,0,1,1.69,1.3,5.17,5.17,0,0,0,1.69,1.3,16.458,16.458,0,0,1-1.1,4.29,5.847,5.847,0,0,1-2.4,2.99q-.26,0-.26-.325a.466.466,0,0,0-.26-.455.373.373,0,0,0-.2.455q.065.325-.325.195a2.137,2.137,0,0,0-.065-.52.54.54,0,0,1,.2-.52q-.52,0-.585.325A.608.608,0,0,1-137.995-54.86Zm10.27,10.01q-.13.65.39.325t.13-.585Q-127.2-44.72-127.725-44.85Zm-.78,2.6q-.52-.26-.39.065T-128.5-42.25Zm-4.03,5.07q-.26.26-.26.13Q-132.535-37.05-132.535-37.18Zm-.91,1.17q.13.39.13,0T-133.445-36.01Zm-1.04,1.43v.26h.26a.115.115,0,0,1,.13-.13v-.26h-.26Q-134.355-34.45-134.485-34.58Zm-.65,1.69q.13-.26.26-.26t.13-.26a.624.624,0,0,0-.455.195Q-135.395-33.02-135.135-32.89Zm.26.39h-.39a.23.23,0,0,0,.26.26Q-134.745-32.24-134.875-32.5Zm-2.73,2.86q0-.39-.78-.65.13.39.325.455A3.566,3.566,0,0,1-137.6-29.64Zm-.39-25.22q0,.26-.065.195T-137.995-54.86Zm6.11,18.46a.307.307,0,0,1-.26.325.54.54,0,0,1-.52-.195q.13-.26.325-.13A.429.429,0,0,0-131.885-36.4Zm-8.71,10.66q.13-.39.13,0T-140.6-25.74Zm47.32-29.12a3,3,0,0,0,0-1.755,10.778,10.778,0,0,0-.78-1.625,31.817,31.817,0,0,0-8.775,5.785,60.847,60.847,0,0,0-6.825,7.475q-.52.65-.975,1.235t-.975,1.235a8.976,8.976,0,0,0-1.04,1.885,8.976,8.976,0,0,1-1.04,1.885,4.26,4.26,0,0,1-.52.65l-.52.52a52.714,52.714,0,0,0-2.795,5.655q-1.235,2.925-2.535,5.785.26.26.065.455a.36.36,0,0,0-.065.455,1.019,1.019,0,0,0-.195.26,1.019,1.019,0,0,1-.195.26,11.758,11.758,0,0,1-.52,2.73,7.836,7.836,0,0,0-.26,2.99,8.9,8.9,0,0,0,3.185-1.04q1.365-.78,2.795-1.43A172.339,172.339,0,0,0-99.19-34.645Q-91.715-41.6-83.525-47.84q.52.26.715,0t.585,0q.26.65,0,.715a1.15,1.15,0,0,0-.52.325q.39.26.585-.065a.638.638,0,0,1,.585-.325.6.6,0,0,1-.39.65.827.827,0,0,0-.52.65.585.585,0,0,0,.195.52.981.981,0,0,1,.325.39,2.467,2.467,0,0,1-.91,1.495,1.848,1.848,0,0,0-.65,1.625q-.13.26-.325.26a1.047,1.047,0,0,0-.455.13q0,.52.39.26a3.6,3.6,0,0,1-1.04,1.43q-.65.52-1.43,1.04a1.191,1.191,0,0,1-.585,1.495,9.9,9.9,0,0,0-1.5.975,7.134,7.134,0,0,0,.39.91.764.764,0,0,1-.65.39q0-.26.13-.26t.13-.26a.922.922,0,0,0-.65.91,1.175,1.175,0,0,1-.65,1.04q0,.26.13.195t.13.065q.65.26.26-.39a.257.257,0,0,1,.13.39,1,1,0,0,0-.13.39q-.26.13-.325-.065a.3.3,0,0,0-.325-.195q.26.65,0,.91a1.648,1.648,0,0,0-.39.78q-.65-.52-1.04-.13a.316.316,0,0,0,.39.195q.26-.065.26.065a14.78,14.78,0,0,1-2.99,2.925,9.357,9.357,0,0,0-2.86,3.575q-.78-.13-.715.195a.619.619,0,0,1-.195.585q-.26.26-.325.13a.7.7,0,0,0-.325-.26q-.26.52.13.52a1.253,1.253,0,0,1-.65.52q-.39.13-.26.78-2.08,1.69-4.1,3.445a48.939,48.939,0,0,1-4.16,3.25,28.157,28.157,0,0,1-4.615,2.6,19.465,19.465,0,0,1-5.46,1.495q-1.17.65-3.51-.26a12.032,12.032,0,0,1-3.77-2.21q-.52-.39-1.105-.845a10.543,10.543,0,0,1-.975-.845,4,4,0,0,1-.65-.845,1.2,1.2,0,0,0-.78-.585.524.524,0,0,0-.26-.52,2.037,2.037,0,0,1-.52-.39,10.4,10.4,0,0,1-1.04-6.7,46.375,46.375,0,0,1,1.82-6.435v-.65a74.673,74.673,0,0,1,13.78-22.1.8.8,0,0,1,.13-.455.8.8,0,0,0,.13-.455,5.769,5.769,0,0,0,2.08-1.69,6.722,6.722,0,0,1,1.82-1.69v-.52a1.631,1.631,0,0,0,1.43-.78q1.43-1.43,2.795-2.665a24.426,24.426,0,0,1,3.185-2.4,11.4,11.4,0,0,1,1.82-.845,7.466,7.466,0,0,0,1.82-.975A1.855,1.855,0,0,0-97.89-66.5q.455-.195.975-.455a1.3,1.3,0,0,0,1.3.26,7.365,7.365,0,0,1,1.17.585,1.483,1.483,0,0,0,1.3.065q-.13.39.13.455t.13.455q.39.26.65.065t.65.065q.26.26.13.39t.13.26a5.17,5.17,0,0,1,1.69,1.3,5.17,5.17,0,0,0,1.69,1.3,16.458,16.458,0,0,1-1.1,4.29,5.847,5.847,0,0,1-2.4,2.99q-.26,0-.26-.325a.466.466,0,0,0-.26-.455.373.373,0,0,0-.2.455q.065.325-.325.195a2.137,2.137,0,0,0-.065-.52.54.54,0,0,1,.2-.52q-.52,0-.585.325A.608.608,0,0,1-93.275-54.86ZM-83-44.85q-.13.65.39.325t.13-.585Q-82.485-44.72-83-44.85Zm-.78,2.6q-.52-.26-.39.065T-83.785-42.25Zm-4.03,5.07q-.26.26-.26.13Q-87.815-37.05-87.815-37.18Zm-.91,1.17q.13.39.13,0T-88.725-36.01Zm-1.04,1.43v.26h.26a.115.115,0,0,1,.13-.13v-.26h-.26Q-89.635-34.45-89.765-34.58Zm-.65,1.69q.13-.26.26-.26t.13-.26a.624.624,0,0,0-.455.195Q-90.675-33.02-90.415-32.89Zm.26.39h-.39a.23.23,0,0,0,.26.26Q-90.025-32.24-90.155-32.5Zm-2.73,2.86q0-.39-.78-.65.13.39.325.455A3.566,3.566,0,0,1-92.885-29.64Zm-.39-25.22q0,.26-.065.195T-93.275-54.86Zm6.11,18.46a.307.307,0,0,1-.26.325.54.54,0,0,1-.52-.195q.13-.26.325-.13A.429.429,0,0,0-87.165-36.4Zm-8.71,10.66q.13-.39.13,0T-95.875-25.74Zm55.12-22.1a.875.875,0,0,0,.78-.39q-.13-.13-.455,0t-.325.39h-.39q.65-.52,1.235-.975a8.167,8.167,0,0,1,1.365-.845.429.429,0,0,1,0-.455,1.064,1.064,0,0,0,.13-.585A10.235,10.235,0,0,0-35.49-53.1a36.134,36.134,0,0,0,2.275-3.185,2.438,2.438,0,0,0-1.105-.26h-1.235a.23.23,0,0,1-.26-.26q-2.99.26-5.85.585a58.8,58.8,0,0,0-5.85.975,1.059,1.059,0,0,1-.78.26,1.059,1.059,0,0,0-.78.26,56.418,56.418,0,0,0-10.4,3.12,18.4,18.4,0,0,0-2.665.845,11.192,11.192,0,0,0-2.4,1.235,6.456,6.456,0,0,0,.715,1.3,1.649,1.649,0,0,1,.325,1.3q-1.82,2.08-3.77,3.965T-71.045-39a.36.36,0,0,0,.52.065.562.562,0,0,0,.26-.455q4.03-.78,6.89-1.17t6.24-.78a36.2,36.2,0,0,1,4.225-.26,11.316,11.316,0,0,1,3.835.65q.26.13.195-.065t.195-.325q.39,0,.2.195a.36.36,0,0,0-.065.455q.65,0,1.495.065a12.637,12.637,0,0,1,1.495.195q0,.52-.39.26a2.536,2.536,0,0,0,1.365.585,5.465,5.465,0,0,1,1.625.455q-.13.39.325.78a2.379,2.379,0,0,0,.975.52,4.833,4.833,0,0,1,.13,1.17.922.922,0,0,0,.65.91q-.26.52,0,.78a.776.776,0,0,1,.13.78q-.52-.26-.52.78a53.619,53.619,0,0,0-16.445.195A156.188,156.188,0,0,0-73.385-29.77a5.238,5.238,0,0,1-.52,1.56q0,.26.39,0t.26.13q-.52.13-.39.39l.26.52a19.123,19.123,0,0,1-4.225,2.34,37.81,37.81,0,0,1-4.875,1.56.592.592,0,0,0-.065.455q.065.2-.2.325a1.934,1.934,0,0,0-.975.195,1.392,1.392,0,0,1-.975.065,1.765,1.765,0,0,0-1.1-1.235,2.169,2.169,0,0,1-1.235-1.365,1.683,1.683,0,0,0-.26-1.17,1.7,1.7,0,0,1-.13-1.43,2.019,2.019,0,0,1-.39-2.08q.39-1.17.65-2.21a138.481,138.481,0,0,1,9.49-11.44,3.415,3.415,0,0,1-.52-.325,2.277,2.277,0,0,0-.65-.325,8.735,8.735,0,0,1-.455-2.21,6.207,6.207,0,0,0-.715-2.34,2.657,2.657,0,0,0,.13-.845.793.793,0,0,0-.52-.715,3.244,3.244,0,0,1,.715-1.1,3.11,3.11,0,0,0,.715-1.365A141.838,141.838,0,0,1-59.6-60.97a82.269,82.269,0,0,1,20.8-4.42.7.7,0,0,1,.325.26q.065.13.325.13a1.515,1.515,0,0,1,1.235-.325A2.656,2.656,0,0,1-35.685-65q.26-.13.26-.195t.26-.195a.23.23,0,0,1,.26.26q0,.26.26.13a4.651,4.651,0,0,1,2.4.325,4.218,4.218,0,0,0,1.755.455.524.524,0,0,1,.26.52,4.028,4.028,0,0,1,2.145,1.69,8.687,8.687,0,0,1,1.04,2.535,15.169,15.169,0,0,1,.39,2.86q.065,1.495.2,2.665a1.312,1.312,0,0,1-.585,1.17,1.2,1.2,0,0,0-.585,1.04h-.39a4.109,4.109,0,0,1-1.625,1.365,4.63,4.63,0,0,0-1.625,1.235,18.38,18.38,0,0,0-2.535.78q-1.365.52-2.4,1.04a2.123,2.123,0,0,0-1.885.455,4.292,4.292,0,0,1-2.015.845.711.711,0,0,1,.585-.325q.455-.065.325-.715-.26-.26-.455.13t-.845.13a1.28,1.28,0,0,1,.455-.325,1.28,1.28,0,0,0,.455-.325,4.508,4.508,0,0,0-1.82.91,4.508,4.508,0,0,1-1.82.91,1.765,1.765,0,0,1,1.1-1.235A3.158,3.158,0,0,0-40.755-47.84Zm2.08-17.29q-.26.26-.26.13Q-38.675-65-38.675-65.13Zm-.65,16.38q-.39-.13-.195.065t.195-.065q.26,0,.13-.065T-39.325-48.75Zm.26,1.82q.65,0,.65-.52h-.39A.749.749,0,0,1-39.065-46.93Zm.26-3.12q.13.39-.065.325t-.325.195q-.26-.13-.065-.325A.624.624,0,0,1-38.8-50.05Zm-.65.52q0,.52-.52.26Zm-1.69,1.69a21.3,21.3,0,0,1-2.4,1.625,16.689,16.689,0,0,1-2.665,1.235q1.17-.78,2.4-1.495T-41.145-47.84Zm1.56,1.04q.13-.39.13,0T-39.585-46.8Zm-2.08,1.04a3.151,3.151,0,0,0-.39.455q-.13.2-.65.065a3.361,3.361,0,0,1,.91-.845,7.364,7.364,0,0,1,1.17-.585q0,.52-.39.585A1.164,1.164,0,0,0-41.665-45.76Zm-5.46,2.21A4.63,4.63,0,0,1-45.5-44.785q.975-.455,2.015-.975a2.906,2.906,0,0,1-1.56,1.3A21.651,21.651,0,0,0-47.125-43.55Zm5.46-2.21.26.26h-.26Zm1.3.13a27.407,27.407,0,0,1-2.6,1.69,9.28,9.28,0,0,1-2.99,1.17,1.243,1.243,0,0,1,.715-.52,1.161,1.161,0,0,0,.715-.65,1.184,1.184,0,0,0,.91-.13,6.83,6.83,0,0,0,1.04-.65,5.685,5.685,0,0,1,1.1-.65A2.727,2.727,0,0,1-40.365-45.63Zm-2.86.39q.39,0,.39.26h-.39Zm-2.99.26a2.44,2.44,0,0,1-.975.78q-.585.26-1.235.52a2.44,2.44,0,0,1,.975-.78Q-46.865-44.72-46.215-44.98Zm1.04,1.04a1.559,1.559,0,0,1,.78-.585,4.458,4.458,0,0,0,.91-.455,1.161,1.161,0,0,1-.715.65A5.707,5.707,0,0,0-45.175-43.94Zm0,0q0,.39-.195.195T-45.175-43.94Zm-2.47.52q-.26,0-.065-.2T-47.645-43.42Zm.52-.13q0,.13-.39.13,0-.13.065-.13t.065-.13q.13,0,.13.065T-47.125-43.55Zm-.52.13h.13a.265.265,0,0,1-.065.195Q-47.645-43.16-47.645-43.42Zm-.13.13a.3.3,0,0,1-.195.325.816.816,0,0,0-.325.195q-.26-.13,0-.26Zm1.69.65a.626.626,0,0,1-.52.455,1.164,1.164,0,0,0-.65.325q-.26-.26.325-.455A7.087,7.087,0,0,0-46.085-42.64Zm19.37,15.73a4.313,4.313,0,0,1-.455.91,5.346,5.346,0,0,0-.455.78,8.376,8.376,0,0,0-1.04.065.978.978,0,0,0-.78.585v-.65q-.39.26-.325.585t-.325.585a4.91,4.91,0,0,1-2.47.13,2.269,2.269,0,0,0-1.95.39q-.26.13-.26-.065a.441.441,0,0,0-.13-.325q-.26.26-.195.455t-.195.455q-.52.26-.585-.065a1.133,1.133,0,0,0-.325-.585q-.26-.13-.195.195a.493.493,0,0,1-.065.455.325.325,0,0,1-.52,0q-.26-.26-.26.13a.257.257,0,0,1-.39-.13.85.85,0,0,0-.39-.39q-.39-.13-.325.26t-.325.26q.26-.39-.065-.52a.689.689,0,0,0-.585,0q-.13.39.13.325t.13.195q-.26-.26-.845.13t-.585-.52q-.26.13-.26.65-.65-.26-.52.065t-.26.325a2.223,2.223,0,0,0-.39-1.04q-.26.13-.065.39t-.065.39a.36.36,0,0,0-.52-.065.912.912,0,0,1-.78.065l.26.26q-.26.39-.39,0t-.39-.26q-.26.13-.065.325T-44-21.84q-.26,0-.26-.195t-.26-.325a.375.375,0,0,1-.26.13.54.54,0,0,0-.195.52.54.54,0,0,1-.195.52q-1.43.26-2.665.39a13.88,13.88,0,0,0-2.535.52q-.26,0-.13.26t0,.39q-.65-.39-1.69.26t-1.56-.13a.53.53,0,0,0-.13.39,1.992,1.992,0,0,0-1.365.26q-.715.39-1.235.65a22.831,22.831,0,0,0-5.2,1.3,22.831,22.831,0,0,1-5.2,1.3,4.249,4.249,0,0,0-.455.26,4.249,4.249,0,0,1-.455.26A30.819,30.819,0,0,0-74.815-13q-1.69.52-3.575.975a9.264,9.264,0,0,0-3.315,1.5,1.186,1.186,0,0,0-.65-.065q-.26.065-.65.2a.375.375,0,0,0-.13-.26,1.512,1.512,0,0,0-.39.26q-.13.13-.65,0a19.279,19.279,0,0,1-.91-2.535,7.655,7.655,0,0,1-.13-3.185q.26,0,.26.065t.13.065q-.39-.91.585-1.105a2.248,2.248,0,0,0,1.495-.975q0-.26-.195,0T-83-18.33q6.24-2.21,13.065-4.355A87.886,87.886,0,0,1-55.575-25.87a.7.7,0,0,1,.65-.195.624.624,0,0,0,.65-.325q.26,0,.26.13t.26.13q2.86-.39,6.37-.78t7.15-.585q3.64-.195,7.15-.065A45.112,45.112,0,0,1-26.715-26.91Zm-1.3.65h.26v-.26h-.26Zm-17.55,4.81a.115.115,0,0,1,.13-.13.23.23,0,0,0-.26-.26Q-45.695-21.45-45.565-21.45Zm.91-.39a.115.115,0,0,1,.13-.13.115.115,0,0,1,.13.13q0,.26-.065.13A.208.208,0,0,0-44.655-21.84Zm26.26,5.07a4.064,4.064,0,0,0-2.21,1.04h-.13q0,.13.065.13t.065-.13q.26,0,.26-.13.26.39-.325.52t-.715.39a.939.939,0,0,1-.78-.325.7.7,0,0,0-.78-.2q0,.39.065.2t.325-.065q.13.39-.195.39t-.195.26q-.52-.13-.52.13a1.154,1.154,0,0,1-.13.52q-.39-.65-.975-.065a.829.829,0,0,1-1.235.065q.26.52,0,.585a.582.582,0,0,0-.39.325h-.26a.115.115,0,0,0,.13.13.115.115,0,0,0,.13-.13.53.53,0,0,1,.39.13,7.266,7.266,0,0,1-.78.455,4.45,4.45,0,0,1-.91.325q.13-.39-.065-.2t.065.2a.964.964,0,0,1-.65.455,1.476,1.476,0,0,0-.78.455q-.26-.26.065-.39t.325-.39q-.39-.13-.78.455a1.075,1.075,0,0,1-1.17.455q-.13.26.13.325t0,.195a3.817,3.817,0,0,0-1.43.26q0,.26.065.26t.065.26q-.26,0-.26.065t-.26.065q-.26,0-.26-.39a1.133,1.133,0,0,1-.585.325.4.4,0,0,0-.325.455q-.52-.26-.715,0a.685.685,0,0,1-.585.26.838.838,0,0,1,.39-.52,2.037,2.037,0,0,0,.52-.39.764.764,0,0,0,.65-.39q0-.26-.26,0l-.39.39a2.527,2.527,0,0,0-1.3.52q-.13.26.13.325t0,.325q-.26-.13-.26-.26t-.26.13q-.26.13-.065.195t.065.325a1,1,0,0,1-.39.13.375.375,0,0,0-.26.13q-.26.13-.26-.13a.23.23,0,0,0-.26-.26,1.563,1.563,0,0,0-1.04,1.04,4.833,4.833,0,0,0-1.17.13,2.657,2.657,0,0,1-1.17,0q0,.91-1.17.91v.65q-.39-.52-.65-.065a.844.844,0,0,1-.78.455q-.13-.52.325-.39t.325-.39q.39.13.195-.065t-.195.065a3.567,3.567,0,0,1-.455.2,3.566,3.566,0,0,0-.455.195l-.39-.39a.345.345,0,0,0,.39.39q0,.39.13.39a3.567,3.567,0,0,0-.2.455q-.065.2-.455.065.26-.52.065-.715a1.009,1.009,0,0,1-.195-.715q-.39-.13-.52,0a.53.53,0,0,1-.39.13.36.36,0,0,1-.065.455.36.36,0,0,0-.065.455q-.39-.52-.715,0a1.43,1.43,0,0,1-.715.65q-.39-.13-.195-.26a2.13,2.13,0,0,0,.325-.26q-.26-.26-.52.13-.26-.13-.065-.26t-.065-.26a4.26,4.26,0,0,0-.65.52,1.787,1.787,0,0,1-.91.39.524.524,0,0,1,.26-.52.85.85,0,0,0,.39-.39q-.26-.26-.39.13a.363.363,0,0,1-.52.26v-.65q-.26,0-.26.65a.514.514,0,0,1-.325-.065q-.065-.065-.195.195-.39-.26-.065-.325a.894.894,0,0,0,.455-.2q-.13-.26-.26-.065t-.39.065q.65-.65,1.17-1.235A3,3,0,0,1-46.6-7.67a.524.524,0,0,1,.26-.52.524.524,0,0,0,.26-.52,2.389,2.389,0,0,0,1.625-.845,3.857,3.857,0,0,1,1.5-1.1q-.26-.52-.78,0t-.78,0q-.26,0-.065.13t.065.39q-.13,0-.13-.065t-.26-.065a.8.8,0,0,1-.13.455.429.429,0,0,0,0,.455,3.028,3.028,0,0,0-2.21.65.592.592,0,0,1,.325-.325q.2-.065.195-.455a2.5,2.5,0,0,0-.975,1.04,2.5,2.5,0,0,1-.975,1.04q-.52,0-.195-.2t.195-.455q-.65.26-.585.585a.619.619,0,0,1-.195.585h-.26q0-.39-.26-.2t-.39-.2A1.4,1.4,0,0,1-49.595-8a1.039,1.039,0,0,0,.65-.845,130.345,130.345,0,0,1,23.53-13.325Q-12.8-27.69.585-32.5a15.977,15.977,0,0,0,3.055-.91q1.625-.65,3.315-1.3a2.9,2.9,0,0,1-1.04-.39,1.091,1.091,0,0,0-1.04,0q-.26-.65-1.43-.455t-1.56-.455A3.2,3.2,0,0,1-.13-36.14a3.2,3.2,0,0,0-2.015-.13q-.13-.39-.39-.325t-.26-.195a4.169,4.169,0,0,1-1.5,0,6.816,6.816,0,0,0-1.625-.13,6.871,6.871,0,0,0-3.055-.845,7.757,7.757,0,0,1-3.185-.845q-.26-.13-.325,0t-.325.13a6.658,6.658,0,0,0-2.8-.845,3.474,3.474,0,0,1-2.535-1.235q-.39,0-.39.13a9.075,9.075,0,0,1-2.99-3.9q-1.04-2.47-2.21-4.68a1.3,1.3,0,0,0,.195-.91,2.06,2.06,0,0,1,.065-.91,22.444,22.444,0,0,1,7.6-5.135q4.485-1.885,8.645-3.7,3.38-1.04,6.37-1.69t5.85-1.43a16.754,16.754,0,0,0,2.08-.13q1.04-.13,2.47-.39a3.015,3.015,0,0,0,1.04.065,6.605,6.605,0,0,1,1.04-.065,1.047,1.047,0,0,0,.455.13,1.047,1.047,0,0,1,.455.13,2.221,2.221,0,0,1,1.885.325,5.947,5.947,0,0,0,1.755.845,4.268,4.268,0,0,1,1.17,1.495,12.139,12.139,0,0,1,.65,1.755l.52,1.82a4.6,4.6,0,0,0,.91,1.69,1.105,1.105,0,0,0,0,1.04.721.721,0,0,1-.13.91q-.65.13-.78-.26t-.78-.13a8.06,8.06,0,0,0-3.185-1.17,16.864,16.864,0,0,0-3.64-.13,26.294,26.294,0,0,0-3.7.52q-1.82.39-3.51.65a56.488,56.488,0,0,0-9.62,2.665,67.061,67.061,0,0,0-8.71,3.965,6.583,6.583,0,0,0,2.275.65q1.235.13,2.535.39,3.38.65,7.15,1.3t7.15,1.3a19.476,19.476,0,0,1,4.55.845,14.445,14.445,0,0,0,4.16.715,1.64,1.64,0,0,0,1.69.52,4.937,4.937,0,0,1,2.73,1.755,19.106,19.106,0,0,1,1.69,2.8v.65q.52,1.04.975,1.82a5.1,5.1,0,0,1,.455,2.47,26.048,26.048,0,0,1-8,3.965A88.223,88.223,0,0,0,3.965-24.7a47.875,47.875,0,0,0-5.2,1.625q-2.6.975-4.94,1.625a.959.959,0,0,1-.91.455q-.52-.065-.78.585-.26-.13-.39.065t-.39-.065A17,17,0,0,1-13-18.46a15.289,15.289,0,0,0-4.1,1.82Q-17.875-17.16-18.395-16.77Zm.26-7.41q.13.39.13,0T-18.135-24.18Zm-.26.65q.13.39.13,0T-18.395-23.53Zm15.08.65q.13.26.195-.065T-3.315-22.88Zm-5.98,1.69a5.593,5.593,0,0,0,1.04-.13.89.89,0,0,0,.78-.65,5.707,5.707,0,0,1-.975.39A3,3,0,0,0-9.295-21.19Zm2.08-.13q.65,0,.52-.26A.749.749,0,0,0-7.215-21.32Zm-.78.26A.265.265,0,0,1-7.8-21a.514.514,0,0,0,.325.065.307.307,0,0,0-.26-.325Q-7.995-21.32-7.995-21.06Zm-16.77.26q-.13,0-.13-.065t-.26-.065q-.26.26.065.325T-24.765-20.8Zm15.73.13q.13.26.195-.065T-9.035-20.67Zm-6.5.39Zm2.99.52q-.26.13-.13.13a.115.115,0,0,0,.13-.13,2.277,2.277,0,0,1,.715-.13q.325,0,.325-.52A1.955,1.955,0,0,0-12.545-19.76Zm-.91.39h-.26q0,.13-.065.13t-.065.13q.26-.13.325.13t.325,0q.52.13.325-.065t-.325.065q-.26,0-.26-.39.13,0,.52-.39Q-13.455-19.76-13.455-19.37Zm-15.99.65q-.26,0-.26.13Q-29.445-18.59-29.445-18.72Zm15.47.26h.26v-.26h-.26Zm-2.21,0v.26h.39v-.39h-.26A.115.115,0,0,1-16.185-18.46Zm-4.29.13v.26h.26a.115.115,0,0,1,.13-.13v-.26h-.26A.115.115,0,0,1-20.475-18.33Zm2.86.52a1.648,1.648,0,0,1-.78.39q-.52.13-.26.39a.882.882,0,0,1,.65-.26q.39,0,.39-.52.39.39.65-.26Q-17.615-18.07-17.615-17.81Zm1.17.13q.13.39.13,0T-16.445-17.68Zm-.65.39q-.39,0-.39.13Q-17.095-17.16-17.095-17.29Zm-15.86.78q.39,0,.39-.26h-.26q0,.13-.065.13T-32.955-16.51Zm-1.82.65q.39,0,.39-.26h-.26q0,.13-.065.13T-34.775-15.86Zm12.48.26a.466.466,0,0,0,.52-.065q.26-.2,0-.325,0,.26-.39.13T-22.295-15.6Zm-3.12,1.43q.78,0,.78-.52A.833.833,0,0,0-25.415-14.17Zm-12.35.52h.26v-.26h-.26Zm11.31.13a.208.208,0,0,1,.13-.195q.13-.065-.13-.195a.208.208,0,0,1-.13.195Q-26.715-13.65-26.455-13.52Zm-1.69.65a1.059,1.059,0,0,0,.78-.26,1.154,1.154,0,0,0-.52-.13Q-28.145-13.26-28.145-12.87Zm-11.96.26q.26.26.65-.13Q-39.845-13.13-40.1-12.61Zm8.97,0h.26v-.26h-.26Zm2.21,0v.26q.26.26.325-.065t-.195-.325A.115.115,0,0,1-28.925-12.61Zm-4.16.39a.115.115,0,0,1,.13.13.115.115,0,0,0,.13.13.441.441,0,0,1,.325-.13.713.713,0,0,0,.455-.26Q-32.825-12.61-33.085-12.22Zm-7.15-.13q-.26,0-.26.13Q-40.235-12.22-40.235-12.35Zm10.27.39q.52,0,.52-.13a.441.441,0,0,0-.325-.13Q-29.965-12.22-29.965-11.96Zm-12.09,0q0,.26.13.26t-.13.26q.39.13.52,0l.39-.39Q-41.795-12.22-42.055-11.96Zm8.32.52h.26v-.26h-.26Zm-8.71.65q.13-.52-.195-.585a2.32,2.32,0,0,1-.585-.2A.689.689,0,0,0-42.445-10.79Zm5.46.65a.85.85,0,0,0,.39-.39q.13-.26.52,0,0-.65-.26-.65a1.472,1.472,0,0,1-.52.52Q-37.245-10.4-36.985-10.14Zm4.94-.78q-.39,0-.39.26.39,0,.39-.26.65,0,.52-.26Q-32.045-11.18-32.045-10.92Zm-1.17,0q-.26,0-.26.13Q-33.215-10.79-33.215-10.92Zm-2.47.65a.208.208,0,0,1,.13-.195q.13-.065-.13-.195a.208.208,0,0,1-.13.195Q-35.945-10.4-35.685-10.27Zm-.26.39q0-.39-.26-.39Q-36.2-9.88-35.945-9.88Zm-2.6.78v.26h.39v-.39h-.26A.115.115,0,0,1-38.545-9.1Zm-1.3,1.17q.39,0,.325-.325t.455-.065q0-.26.065-.26t.065-.26h-.52a.416.416,0,0,1-.26.39Q-39.975-8.32-39.845-7.93Zm1.17-.39q.13.39.13,0T-38.675-8.32Zm-1.69.65a.882.882,0,0,1-.65.26.345.345,0,0,0-.39.39,2.137,2.137,0,0,1,.52.065.54.54,0,0,0,.52-.2v-.52q.26,0,.325-.325t-.195-.325A1.028,1.028,0,0,0-40.365-7.67Zm-5.33-.39v.26h.39v-.39h-.26A.115.115,0,0,1-45.695-8.06Zm7.54-.13q-.26,0-.26.13Q-38.155-8.06-38.155-8.19Zm-.39.39q-.65,0-.455.195T-38.545-7.8Zm-7.67.39q.13,0,.13.065t.13.065q0-.39-.26-.39Zm.91.52q0-.26.195-.2t.195-.2a.36.36,0,0,0-.455.065Q-45.565-7.02-45.3-6.89Zm-.39.39q.13.65-.65.65a.653.653,0,0,0,.715.52q.585,0,.585-.65h-.39a2.258,2.258,0,0,1,.715-.455A1.434,1.434,0,0,0-44-7.15q-.13,0-.13-.065t-.26-.065A1.2,1.2,0,0,1-45.695-6.5Zm3.77-.52q-.13.65.26.26t-.26-.26q-.13-.26-.325-.26t-.2.39q.26,0,.26-.065T-41.925-7.02Zm-.78.78q.39,0,.39-.26Q-42.835-6.5-42.7-6.24Zm-5.33.65q.39,0,.455-.26a.582.582,0,0,1,.325-.39q-.26.13-.39,0a.53.53,0,0,0-.39-.13.864.864,0,0,1-.065.455Q-48.165-5.85-48.035-5.59Zm.91-.13q.39,0,.39-.26h-.26q0,.13-.065.13T-47.125-5.72Zm28.73-11.05a.441.441,0,0,0,.325.13q.195,0,.065.26Q-18.655-16.12-18.395-16.77Zm-1.43.65h.78l-.78.39Zm-3.12,1.43h.26q0,.26-.65.52,0-.26.195-.26T-22.945-14.69ZM-25.8-13a.115.115,0,0,1,.13-.13A.115.115,0,0,1-25.8-13Zm-6.76,3.25q0,.39-.52.39Q-33.085-9.75-32.565-9.75ZM-46.6-8.58q0,.26-.52.26Q-47.125-8.58-46.6-8.58Zm-1.04.52Zm10.53,0h.26v.39h-.39v-.26A.115.115,0,0,0-37.115-8.06Zm-13.91,2.21v-.39a.638.638,0,0,0-.585.325q-.2.325-.455.065a4.676,4.676,0,0,0,.715-.585A3.221,3.221,0,0,1-50.5-7.02a.882.882,0,0,0-.26.65A.524.524,0,0,1-51.025-5.85Zm11.44-1.04q-.26.39-.26.065T-39.585-6.89Zm-10.14,0a.115.115,0,0,1-.13.13Q-49.985-6.76-49.725-6.89Zm-.78.52a.115.115,0,0,1,.13-.13.115.115,0,0,1,.13.13Zm-.52.52q.13.39-.065.2T-51.025-5.85Zm1.43.26q.26.13.13.2a.208.208,0,0,0-.13.2q-.26-.13-.13-.2A.208.208,0,0,0-49.595-5.59Zm.78.65q0,.26-.39.26Q-49.2-4.94-48.815-4.94Zm3.51,0q.26,0,.26.39h-.39a.265.265,0,0,1,.065-.195A.265.265,0,0,0-45.3-4.94Zm.52.26q.13-.39.13,0T-44.785-4.68Zm-4.68.26q.13-.39.13,0T-49.465-4.42Zm.65,0q.26,0,.26.2a.441.441,0,0,1-.13.325q-.26-.13-.195-.2A.514.514,0,0,0-48.815-4.42Zm-1.56.78q0-.13.26-.13Q-50.115-3.64-50.375-3.64Zm88.4-15.6q0-.39-.13-.325l-.39.195q.13.26.2.2a.514.514,0,0,1,.325-.065,4.439,4.439,0,0,1-1.95.585A5.38,5.38,0,0,0,34-18.07v-.39q.26,0,.13-.065T34-18.46a2.044,2.044,0,0,1-1.95.39q-1.3-.26-2.34-.52a.115.115,0,0,0-.13.13.115.115,0,0,0,.13.13q-1.3-.65-3.315-1.69a8.557,8.557,0,0,1-3.185-2.73q.39-.13.26-.455a1.732,1.732,0,0,0-.39-.585q-.13.39-.26.325t-.52.195q.13-.39.195-.65t-.585,0a.7.7,0,0,1,.26-.325q.13-.065.13-.325a3.324,3.324,0,0,1-1.56-2.73,3.434,3.434,0,0,0,.065-2.21,4.8,4.8,0,0,1-.065-2.34q.13,0,.13.39a1.548,1.548,0,0,0,.52-1.69q.26,0,.195-.2t.195-.325a13.942,13.942,0,0,1,1.17-5.4q1.17-2.795,2.21-5.395a3.573,3.573,0,0,1-.325,1.495q-.325.715-.715,1.43a10.436,10.436,0,0,0-.65,1.43,1.856,1.856,0,0,0,0,1.365.8.8,0,0,0,.195-.715q-.065-.455.585-.325a2.379,2.379,0,0,1,0-1.105.9.9,0,0,1,.78-.715,1.009,1.009,0,0,1-.195.715,1.009,1.009,0,0,0-.195.715q.91-.26.65-1.43h-.26v-.65q.26,0,.26-.13t.26-.26q0-.26-.13-.325t-.13-.325l.52.26q.13.26,0,.26t-.13.26q-.65.26-.26.65.52,0,.26-.65.26,0,.26-.2a1.047,1.047,0,0,1,.13-.455q-.65-.65-.065-1.1a1.622,1.622,0,0,0,.585-1.365q.39.39.195.585a1.009,1.009,0,0,0-.195.715.875.875,0,0,0-.39.78q.39-.13.39-.78a2.037,2.037,0,0,0,.39-.52,2.037,2.037,0,0,1,.39-.52q-.13-.26-.195-.065t-.325-.065a.977.977,0,0,1,.325-.52q.195-.13-.065-.65a2.037,2.037,0,0,1,.52-.39q.26-.13.13-.78h.52q-.26-.78.585-1.04a1.045,1.045,0,0,0,.715-1.3,2.034,2.034,0,0,0,1.3-.975q.39-.715.78-1.365a.819.819,0,0,0,.845-.455,5.241,5.241,0,0,1,.455-.845q1.04,0,1.04-.78a17.963,17.963,0,0,1,3.315-1.625,11.328,11.328,0,0,1,3.835-.585q.26.39.52.26a2.277,2.277,0,0,0,.65-.325,4.881,4.881,0,0,0,.52-.455q-.39-.13,0-.78a.524.524,0,0,1,.26.52.524.524,0,0,0,.52-.26.416.416,0,0,1,.39-.26q.13-.26,0-.39t0-.39a.823.823,0,0,0,.715-.065.823.823,0,0,1,.715-.065.53.53,0,0,1-.13.39q.91.13.455-.39t-.195-.78q.39,0,.26.39.65,0,.65-.26,0-.13-.52-.13a1.785,1.785,0,0,1,1.56-.39q1.04.13,1.04-.65a1.238,1.238,0,0,0,1.105,0,.569.569,0,0,1,.845.26q.39-.13.26-.26t.13-.39a1.848,1.848,0,0,1,1.04.26,1.091,1.091,0,0,0,1.04,0q0,.39.26.39a1.249,1.249,0,0,1,1.3.195,1.9,1.9,0,0,0,1.3.455v.39q1.17.65,2.275,1.3A7.394,7.394,0,0,1,60-56.68a5.611,5.611,0,0,1,2.08,1.365q.78.845,1.56,1.625a6.4,6.4,0,0,1,.26,3.12,15.238,15.238,0,0,1-.845,3.055,19.96,19.96,0,0,1-1.3,2.73q-.715,1.235-1.235,2.275a1.215,1.215,0,0,0-.78.975,1.229,1.229,0,0,1-.91.975q.13.39.26.26l-.195.39q-.065.13-.455,0,0,1.69-1.3,1.95.26.52-.13.585t-.26.585h-.13a.115.115,0,0,1-.13-.13,11.454,11.454,0,0,1-1.56,2.275,11.454,11.454,0,0,0-1.56,2.275.375.375,0,0,1-.26.13,1,1,0,0,0-.39.13,7.3,7.3,0,0,1-2.4,3.38,11.631,11.631,0,0,0-2.8,3.25q-.91-.26-1.17,1.04a.375.375,0,0,1-.13-.26,4.057,4.057,0,0,1-1.235,1.04,2.844,2.844,0,0,0-1.105,1.04,1.076,1.076,0,0,0-.91.195,1.074,1.074,0,0,0-.52.975q-.52-.13-.585.065t-.455-.065q-.26.13-.065.325t.065.325q-.26.26-.78-.13a.723.723,0,0,0-.39.585,1.29,1.29,0,0,1-.13.585q-.26,0-.13-.26a.838.838,0,0,0,0-.65q-.52.13-.39.52a.589.589,0,0,1-.13.65,4.456,4.456,0,0,1-.845-.065Q38.285-19.63,38.025-19.24Zm10.4-40.56q0,.13-.13.065t-.13.065Q48.425-59.67,48.425-59.8Zm-5.07,2.86q0,.13-.13.065t-.13.065Q43.355-56.81,43.355-56.94Zm-2.73,8.32q-.13-.26-.26-.585a6.746,6.746,0,0,1-.26-.845A10.578,10.578,0,0,0,36.6-46.8a30.006,30.006,0,0,1-2.99,3.77v.65a6.469,6.469,0,0,0-1.56,2.73,12.781,12.781,0,0,1-1.43,3.12.968.968,0,0,1,0,.715,1.064,1.064,0,0,0-.13.585.416.416,0,0,0-.26.39.416.416,0,0,1-.26.39q-.26,1.95-.455,3.835a20.854,20.854,0,0,1-.585,3.315,1.116,1.116,0,0,1,.39,1.17,2.624,2.624,0,0,0,.13,1.43,16.883,16.883,0,0,0,4.875-1.95,22.15,22.15,0,0,0,3.9-2.99q1.755-1.69,3.315-3.51t3.25-3.64q.13-.13,0-.195t0-.195a4.63,4.63,0,0,0,1.1-1.3A4.63,4.63,0,0,1,47-39.78a21.777,21.777,0,0,1,2.145-3.445q1.235-1.625,2.4-3.38a28.057,28.057,0,0,0,2.08-3.7,14.01,14.01,0,0,0,1.17-4.55,5.3,5.3,0,0,0-4.1-.195,7.267,7.267,0,0,0-3.315,1.885,9.121,9.121,0,0,0-4.29,4.55.721.721,0,0,0-.91.13l-.65.65q-.26-.52,0-.585t0-.585A7.133,7.133,0,0,1,40.625-48.62Zm-6.89-4.81q.26-.26,0-.39Zm-.65.52h.26a.115.115,0,0,1,.13-.13q.13,0,0-.26h-.39Zm-2.34,2.86a.416.416,0,0,0-.26-.39Q30.485-49.92,30.745-50.05Zm9.75.52h.26v-.26H40.5Zm.52.13q.26.39.26.065T41.015-49.4Zm-13.39,2.99v.26h.39v-.39h-.26A.115.115,0,0,1,27.625-46.41Zm33.8.91q0,.13-.13.065t-.13.065Q61.425-45.37,61.425-45.5Zm-1.17,1.95q.26.39.26,0T60.255-43.55Zm-1.04,1.69q.26,0,.52-.39t-.26-.39q.13.26-.065.39A.437.437,0,0,0,59.215-41.86Zm-1.95,0q.26-.26,0-.39Zm-.78,1.04q.26.39.26,0T56.485-40.82Zm1.69.39q.26.39.26,0T58.175-40.43Zm-34.45,1.17V-39q.26.26.325-.065t-.195-.325A.115.115,0,0,1,23.725-39.26Zm33.28.52q.39,0,.39-.26Q57.265-39,57.005-38.74ZM22.3-33.28a4.242,4.242,0,0,1,.455-2.795,3.171,3.171,0,0,0,.325-2.535,16.733,16.733,0,0,1-.845,2.8A2.72,2.72,0,0,0,22.3-33.28Zm30.94-4.94q-.26.39.065.065T53.235-38.22Zm-29.64.91a.548.548,0,0,0,.455-.325q.195-.325-.195-.455a.257.257,0,0,1-.13.39A.257.257,0,0,0,23.6-37.31Zm29.25-.39q0,.13-.13.065t-.13.065Q52.845-37.57,52.845-37.7Zm3.64.52a.416.416,0,0,0-.26-.39Q56.225-37.05,56.485-37.18Zm-3.12.65q.26.39.26,0T53.365-36.53Zm-30.16.78h.26v-.26h-.26Zm30.42.26q0,.13-.13.065t-.13.065Q53.625-35.36,53.625-35.49Zm.91.26h.39q.13-.26-.39-.26Zm-31.85.26q.26.39.26,0T22.685-34.97Zm31.07.91q.26.39.26,0T53.755-34.06Zm-32.11,2.08q.26,0,.39-.455a.679.679,0,0,0-.13-.715,2.137,2.137,0,0,1-.065.52Q21.775-32.37,21.645-31.98Zm.65-1.04q.26.39.26,0T22.3-33.02Zm29.64.78q.26.39.26,0T51.935-32.24Zm-1.17.78h.26v-.26h-.26Zm1.04,0q0-.26-.26,0,.26,0,.26.13Zm-30.94.65q.39.13.39-.52Q20.865-31.33,20.865-30.81Zm28.6.39q0-.26.195-.26t.065-.26a.416.416,0,0,0-.39.26Q49.205-30.42,49.465-30.42Zm.39,0q0,.13-.13.065t-.13.065Q49.855-30.29,49.855-30.42Zm-1.43.13q0,.13-.13.065t-.13.065Q48.425-30.16,48.425-30.29Zm2.47,0q0,.13-.13.065t-.13.065Q50.9-30.16,50.9-30.29Zm-2.08.39q.26.39.26,0T48.815-29.9Zm-.65,1.3q.26.39.26,0T48.165-28.6ZM47-27.04q.39-.13-.13-.65a.429.429,0,0,1,0,.455Q46.735-27.04,47-27.04Zm-25.48,0h.26v-.26h-.26Zm23.53,1.69q0-.26-.26,0,.26,0,.26.13ZM24.765-22.1q.26.39.26.065T24.765-22.1Zm14.17,2.34h.26v-.26h-.26Zm-10.27.39q.26.39.26,0T28.665-19.37Zm4.16,0q.26.39.26,0T32.825-19.37Zm14.56-41.21q.26-.39.26,0T47.385-60.58Zm-4.16,2.47q.26-.39.26,0T43.225-58.11Zm-1.43.39q.65.26.13.52A.425.425,0,0,1,41.8-57.72Zm-1.17,9.1q.65.26,0,.52Zm-13.39.78q.26-.39.26,0T27.235-47.84Zm-1.3,1.82h.26v.26h-.26Zm-.52,1.17h.26v.26h-.26Zm-3.77,8.45q.26-.39.26,0T21.645-36.4Zm-.13.39q.26-.26.13.26T21.515-36.01Zm-.13.91q.26-.39.26,0T21.385-35.1ZM21-32.89q.26.26.065.39T21-32.11q-.26,0-.13-.325A1.49,1.49,0,0,0,21-32.89Zm-.52,4.81q0-.13.13-.065t.13-.065Q20.735-28.08,20.475-28.08Zm22.36,6.11h.26v.26h-.26Zm55.25,2.86q.52-.26.585-.13t.455.26q.26-.52-.065-.455t-.325-.195q.52,0,.52-.13L99-20.02q-.26,0-.26.39l-.26.26a2.889,2.889,0,0,0-.91-.39,1.648,1.648,0,0,1-.78-.39q-.13,0-.065.195t-.195.325a.53.53,0,0,1-.39-.13.53.53,0,0,0-.39-.13q0-.26.13-.325t0-.195q-.13-.39-.195,0t-.325.26q-.13-.26,0-.26t0-.26a.514.514,0,0,1-.325-.065.514.514,0,0,0-.325-.065h-.13v.26q-.13,0-.13.065t-.26.065a.648.648,0,0,0,.13-.65q0,.13-.195.195t-.195-.325a1.028,1.028,0,0,1-.65-.13q-.39,0,0,.39H92.5a.53.53,0,0,1,.13-.39q.13-.13,0-.39-.26-.13-.26.195a.466.466,0,0,1-.26.455.345.345,0,0,1-.39-.39q-.13,0-.065.13t-.2.26q0-.26-.065-.26t-.065-.13a2.352,2.352,0,0,1-1.69-.325,3.182,3.182,0,0,0-2.08-.325,4.555,4.555,0,0,0-1.5-.65q-1.235-.39-1.625.13-.13.13-.39,0a1.154,1.154,0,0,0-.52-.13q.13-.39.26-.325l.39.195a1,1,0,0,0-.715-.455q-.455-.065-1.105-.195,0,.39.325.325a.886.886,0,0,1,.585.065q-.26.52-1.3.13a3.129,3.129,0,0,1-1.43-.91,1.28,1.28,0,0,1-.455.325,1.1,1.1,0,0,0-.455.455,4.224,4.224,0,0,1-1.04-.325,1.273,1.273,0,0,0-1.04.065.462.462,0,0,1-.065-.39q.065-.13-.195-.39a.53.53,0,0,0-.13.39q0,.26-.52.26v-.39q.52,0,.13-.39l-.13.39a.375.375,0,0,0-.26.13q-.13-.26-.585-.26t-.455-.39q-.26.52-.52.26a.985.985,0,0,0-.91-.13l.26.26q-.52.26-.52-.065a.466.466,0,0,0-.26-.455q-.52-.13-.325.13t-.195.26v-.52q-.26-.26-.26.39a.307.307,0,0,1-.325-.26q-.065-.26-.455-.26-.13.39-.65.26a1.16,1.16,0,0,0-.26.845.883.883,0,0,1-.65.845q0-.26-.065-.195a.265.265,0,0,0-.065.195v.13a8.228,8.228,0,0,0-.78,1.82,1.944,1.944,0,0,1-1.17,1.3q0,.26.26,0t.13.26q-.26-.13-.39,0a1.512,1.512,0,0,1-.39.26.687.687,0,0,1,.39.845q-.13.585-.91.325a1.164,1.164,0,0,0-.325.65.964.964,0,0,1-.455.65q-.26-.26.065-.325t.065-.325a.307.307,0,0,0-.325.26,1.15,1.15,0,0,1-.325.52,1.018,1.018,0,0,1-.195-.26q-.065-.13-.325-.13-.13,0-.065.065t-.195.195a1,1,0,0,0,.39.13,1,1,0,0,1,.39.13.566.566,0,0,1-.13.78,1.154,1.154,0,0,1-.13-.52q0-.26-.52-.13a1.732,1.732,0,0,1,.39.585q.13.325-.26.585.13.39.455.13t.195.26a.429.429,0,0,0-.455,0q-.195.13-.455-.13-.13,0-.13.195t-.26.195v-.39q-.13-.13-.195.13t.195.26q.13.52-.26.26t-.39.39q.13.26.26,0t.39,0a.658.658,0,0,1-.585.455,1,1,0,0,0-.715.455.53.53,0,0,1,.13-.39q.13-.13,0-.39a.6.6,0,0,0-.39.65.614.614,0,0,1-.52.65q.13-.39.26-.715a1.6,1.6,0,0,0,.13-.585,6.534,6.534,0,0,0-.91,1.69,8.843,8.843,0,0,1-.91,1.82q-.52-.13-.26-.585a.779.779,0,0,0,.13-.715,1.85,1.85,0,0,1-.39.325,1.352,1.352,0,0,1-.52.065.416.416,0,0,0,.39.26q.26,0,0,.65-.26.13-.195-.195t-.195-.195a2.31,2.31,0,0,0-.195.65.941.941,0,0,1-.585.65q.13-.39,0-.455a.7.7,0,0,1-.26-.325.893.893,0,0,0-.2.78q.065.52-.585.52-.13-.52.195-.585T58.7-9.62a.506.506,0,0,0-.52.325q-.13.325-.78.325a1.632,1.632,0,0,0,.39-.65q.13-.39-.52-.26a34.994,34.994,0,0,1,2.8-9.425q2.015-4.355,3.445-8.385-1.04-1.95-1.95-3.575a24.709,24.709,0,0,1-1.69-3.835,7.9,7.9,0,0,1,3.445-2.015q2.015-.585,3.835-1.235.52-.78.975-1.56t.845-1.43a2.085,2.085,0,0,1-.91-1.235,1.574,1.574,0,0,0-1.04-1.105q-.52-1.3-1.17-2.665a3.45,3.45,0,0,1,0-2.925,13.3,13.3,0,0,1,3.575-4.485q2.4-2.015,3.965-3.575a18.42,18.42,0,0,0,2.6-1.43,6.844,6.844,0,0,1,2.47-1.04.506.506,0,0,0,.52-.325q.13-.325.39.065a17.441,17.441,0,0,1,3.64-1.69,22.317,22.317,0,0,1,3.64-.91.375.375,0,0,0,.13-.26q4.42-.78,8.9-1.5a24.285,24.285,0,0,1,9.165.325v.39q.26-.26.455-.195a1.44,1.44,0,0,0,.455.065v.26a6.27,6.27,0,0,1,2.795,1.365,7.228,7.228,0,0,1,1.755,2.34,19.476,19.476,0,0,1,1.1,2.925q.455,1.56.975,3.25.26,3.25-1.69,4.42a21.8,21.8,0,0,1-3.705,3.835,20.4,20.4,0,0,1-5.005,3.055,103.977,103.977,0,0,1-12.22,5.525q-6.37,2.405-13,4.615A34.3,34.3,0,0,0,81.705-31a43.891,43.891,0,0,1,4.81,1.1.855.855,0,0,0,.65.195q.26-.065.39.455.52-.26.39-.26,4.29,1.43,9.165,2.925a27.5,27.5,0,0,1,8.645,4.355q.13.26.26.065t.26.065q.39.13,0,.52.39-.13.26-.26.26,0,.26.13t-.26.26a1.092,1.092,0,0,1,.715.455,1.879,1.879,0,0,0,.585.585q0,.13-.325,0a.822.822,0,0,1-.455-.39q-.26,0-.2.325t.325.325a.721.721,0,0,1-.91.13q.13.26,0,.39a.753.753,0,0,0-.13.52q-.26-.13-.13-.455a.689.689,0,0,0,0-.585q-.13.39-.325.13t-.455,0a1.28,1.28,0,0,0,.455.325q.2.065.065.715a.85.85,0,0,1-.39-.39q-.13-.26-.65-.13a1.256,1.256,0,0,1,.195.65,1.791,1.791,0,0,1-.195,1.04q-.26,0-.13-.455t-.13-.325q-.26-.13-.13.13a.553.553,0,0,1,0,.52q-.65-.13-.65-.39t-.39-.52q-.26,0,0,.13t0,.39a.23.23,0,0,1-.26-.26.23.23,0,0,0-.26-.26q-.26-.26-.26.39a7.1,7.1,0,0,0-1.495-.78q-.715-.26-1.625-.52.26.26.13.455l-.39.585a4.25,4.25,0,0,1-.455-.26.674.674,0,0,0-.585,0Zm-3.51-36.66q0,.39-.13.39a55.782,55.782,0,0,0-10.92,2.6,1.467,1.467,0,0,1,.13,1.04,29.849,29.849,0,0,1-2.08,4.745q-1.3,2.4-2.47,4.875,6.63-2.47,12.935-5.005a56.668,56.668,0,0,0,11.635-6.305,1.593,1.593,0,0,1,.845-.91,1.023,1.023,0,0,0,.585-1.04,3.84,3.84,0,0,0-2.34-.325,3.8,3.8,0,0,1-2.47-.455,2.82,2.82,0,0,1-1.43.39,2.4,2.4,0,0,1-1.82-.39q-.13.65-1.1.585A6.207,6.207,0,0,1,94.575-55.77Zm2.73,15.08q0-.13-.26.13A.375.375,0,0,1,97.305-40.69Zm-13.13,4.94q.26.39.26,0T84.175-35.75Zm-6.5,2.73q.26.39.26,0T77.675-33.02Zm6.5,3.25q.26.39.26,0T84.175-29.77Zm10.27,2.86q-.26.26.065,0T94.445-26.91Zm-16.51,1.95q-.26.26.065,0T77.935-24.96Zm-3.51.26q.26.39.26,0T74.425-24.7Zm3.25.26q0-.52-.26,0Q77.675-24.57,77.675-24.44Zm5.98.13q.26.26.26-.065T83.655-24.31Zm-5.85.39q.13.26.325.065t-.325-.065v-.26h-.26Zm3.38.26q.26-.26-.13-.325t-.39.195q.26-.13.325,0A.208.208,0,0,0,81.185-23.66Zm2.21-.26q0-.13-.26.13A.375.375,0,0,1,83.4-23.92Zm.52.13q-.39-.39-.325-.065T83.915-23.79Zm-5.2.13q.26.26.26-.065T78.715-23.66Zm2.86,0q.26.39.26,0T81.575-23.66Zm-2.34.13q.26.26.26-.065T79.235-23.53Zm2.6.13h.26v-.26h-.26Zm2.6,0h.39q.26-.52-.39-.26Zm.78.13h.26v-.26h-.26Zm2.34,0q.26.39.26,0T87.555-23.27Zm.52.78h.26v-.26h-.26Zm16.77.13q.26.39.26,0T104.845-22.36Zm-13.91.39q-.13.52.195.26T90.935-21.97Zm.52.39h.26v-.26h-.26Zm1.56,0h.26v-.26h-.26Zm.39,0h.26v-.26h-.26Zm.78.13q.26,0,.26.13,0-.52-.26-.39Zm10.14.13h.26v-.26h-.26Zm-9.23.13q.26.26.26-.065T95.1-21.19Zm.78.13q0-.13-.26.13A.375.375,0,0,1,95.875-21.06Zm-27.43.65a.562.562,0,0,0,.455-.26q.195-.26-.195-.26,0,.26-.13.26T68.445-20.41Zm27.82-.39q0-.13-.26.13A.375.375,0,0,1,96.265-20.8Zm.26.13q.26.26.26-.065T96.525-20.67Zm5.2-.13q0-.13-.26.13A.375.375,0,0,1,101.725-20.8Zm-4.29.52q.13-.52-.39-.39,0,.26.2.26T97.435-20.28Zm.52.26q.13-.52-.26-.52A.749.749,0,0,0,97.955-20.02Zm5.33.26a1.512,1.512,0,0,1,.26-.39.375.375,0,0,0,.13-.26.334.334,0,0,0-.455.13A.36.36,0,0,0,103.285-19.76Zm-35.62-.39q.26.39.26,0T67.665-20.15Zm28.47,0q.26.39.26,0T96.135-20.15Zm5.46,0q.26.39.26,0T101.6-20.15Zm-3.38.26q.26.39.26,0T98.215-19.89Zm5.46.13a.562.562,0,0,1,.455.26q.195.26.325-.13-.26,0-.39-.325T103.675-19.76Zm1.17-.13q-.26.26.065,0T104.845-19.89Zm-2.47.26q.26.39.26,0T102.375-19.63Zm.78.13q.26.39.26,0T103.155-19.5Zm.39.26q.26.26.26-.065T103.545-19.24Zm-1.56.26q.26.39.26,0T101.985-18.98Zm2.08.13q.52,0,.39-.26h-.26A.375.375,0,0,1,104.065-18.85Zm-36.66.65q.52,0,.52-.26Q67.665-18.59,67.405-18.2ZM65.2-15.6q.13-.52-.39-.39A.345.345,0,0,0,65.2-15.6Zm-5.46,4.94q-.39-.13-.52,0t-.52,0q0,.39.585.325T59.735-10.66Zm20.41-12.48q.26-.26.26-.13Zm.39.13q.26-.52.26,0Q80.8-23.14,80.535-23.01Zm1.04.26q-.26-.13-.065-.325T81.575-22.75Zm-11.44,0v-.13h.13A.115.115,0,0,1,70.135-22.75Zm11.44,0q.26-.13.195,0T81.575-22.75Zm4.16.39a.905.905,0,0,0-.39.065.813.813,0,0,1-.52-.065.608.608,0,0,1,.455-.325.373.373,0,0,1,.455.2Zm-1.95.13q0-.26.325-.195t.065.325a.115.115,0,0,0-.13-.13Zm1.95-.13h.52q.26,0,0,.26,0-.26-.195-.195A.294.294,0,0,1,85.735-22.36Zm.78.26q0-.26.325-.195t.065.325a.115.115,0,0,0-.13-.13Zm1.04,0q.13.39-.065.195T87.555-22.1Zm-1.95.26q.26-.52.26,0Q85.865-21.97,85.605-21.84Zm2.21.13q.26-.26.26-.13Zm.52,0q.26-.39.26,0T88.335-21.71Zm.52.13q.26-.39.26,0T88.855-21.58Zm2.6.52a.375.375,0,0,0,.26.13q.13,0,0,.26a.425.425,0,0,0-.52-.13l.13-.26Zm.52.39q.26-.52.26,0Q92.235-20.8,91.975-20.67Zm1.56-.13h.26v.26h-.26Zm1.04.26q.39.13.13.325T94.575-20.54Zm-1.56.26q.26-.26.26-.13Zm4.03.52q0,.52-.195.26T97.045-19.76Zm9.36.13q.26-.13.26.39,0-.13-.26-.13Zm-9.23.26q.26-.26.26-.13Zm.65.13q-.39.13-.195-.065T97.825-19.24Zm0,0q.26,0,.26.13T97.825-19.24Zm1.82,0q.26-.13.325,0t.325.13a.375.375,0,0,1-.13.26.753.753,0,0,0-.13.52q-.26-.26-.195-.455T99.645-19.24Zm5.72.91q-.26,0-.325-.325a.493.493,0,0,1,.065-.455Q105.755-18.72,105.365-18.33Zm-4.81-.52q.13-.26.26-.195a.208.208,0,0,1,.13.195q.13.26-.13.26A.23.23,0,0,1,100.555-18.85Zm.52.13q.39.26.065.26T101.075-18.72Zm4.29.39q.52,0,.195.325T105.365-18.33Zm-37.96.91q.26-.26.26-.13Zm-.26.26h.26v.26h-.26Zm-.26,1.04q.26-.39.26-.065T66.885-16.12Zm-3.51,3.25q.13.13,0,.2t-.13.325q-.13,0-.13-.26a.375.375,0,0,1,.13-.26Zm-.91.91h.26v.26h-.26Zm41.47-2.73h.13a.36.36,0,0,0,.065-.52.466.466,0,0,1-.065-.52q-.26,0-.26.195t-.26.065a.437.437,0,0,0,.195.39.437.437,0,0,1,.195.39q-.65,0-.455.455t-.585.325q0,1.3-.78,1.56a6.687,6.687,0,0,1,1.17-3.12q-.13-.26-.325-.065a.532.532,0,0,0-.195.325,2.536,2.536,0,0,1,.91-1.69q-.13-.26-.26-.065t-.26-.065q.52-1.04,1.105-2.145a9.037,9.037,0,0,0,.845-2.275q.65-.26.65-.39-.26-.39-.39-.39-.26,0-.13.325t-.26.2a.721.721,0,0,1,.13-.91q.39-.39.65-.13a1.213,1.213,0,0,1,.91-.91q-.26-.26,0-.91-.26-.26-.325.26t-.325.52q-.39.13-.26-.195t-.13-.2a2.178,2.178,0,0,0-.455.78,1.559,1.559,0,0,1-.585.78,9.281,9.281,0,0,1,.78-2.34.965.965,0,0,0,.65-.975.965.965,0,0,1,.65-.975v.52q.26,0,.26-.52-.39-.13-.26-.39t-.52,0a1.364,1.364,0,0,1,.2-.715q.195-.325.455-.065a.441.441,0,0,0,.13-.325q0-.195.26-.325a.648.648,0,0,1-.13-.65q.13-.26.325-.585a5.914,5.914,0,0,1,.455-.65.928.928,0,0,0,.13-.845,1.028,1.028,0,0,0,.65-.13v-.52q.39,0,.26-.195a.8.8,0,0,1-.13-.455h.39a.885.885,0,0,1,.065-.975,2.8,2.8,0,0,1,.715-.715,1.36,1.36,0,0,1,.39-1.5,1.2,1.2,0,0,0,.39-1.365,18.724,18.724,0,0,0,2.6-5.07,18.724,18.724,0,0,1,2.6-5.07q0-.26-.065-.26t-.065-.26A4.671,4.671,0,0,0,117-50.245a4.671,4.671,0,0,1,1.235-2.275q1.43-3.25,2.73-6.63a44.535,44.535,0,0,1,2.86-6.11,11.756,11.756,0,0,1,2.47,0q0,.52.65.65t.39.52a1.105,1.105,0,0,1,.91.325,1.105,1.105,0,0,0,.91.325,1.5,1.5,0,0,0,.585.975q.455.325.845.585v.65a3.544,3.544,0,0,0,1.56.91,1.049,1.049,0,0,1,.78,1.3,7.965,7.965,0,0,0-2.015,2.86q-.715,1.69-1.495,3.38-.26,0-.26-.065t-.26-.065q-.13.26,0,.325t.13.325q-.65,1.43-1.235,2.86a18.105,18.105,0,0,1-1.5,2.86.8.8,0,0,1,.195-.585.624.624,0,0,0,.2-.455,2.728,2.728,0,0,0-.91,1.365,10.592,10.592,0,0,1-.65,1.625q.52.13.65-.65a3.06,3.06,0,0,1,.39-1.17,2.125,2.125,0,0,1-.39,1.56q-.52.78-.91,1.43.39-.65.13-.91a2.328,2.328,0,0,0-.65,1.3,2.328,2.328,0,0,1-.65,1.3,5.043,5.043,0,0,1,.26.65q.13.39-.39.52a.753.753,0,0,1,.13-.52,12.107,12.107,0,0,0-2.34,4.29,15.1,15.1,0,0,1-2.21,4.42,20.879,20.879,0,0,1-2.015,4.68,20.879,20.879,0,0,0-2.015,4.68,3.122,3.122,0,0,0-1.04,1.69,3.547,3.547,0,0,1-.91,1.69,84.905,84.905,0,0,1,4.16-9.49q2.34-4.55,4.42-9.36a.23.23,0,0,0-.26-.26q-.26,0-.13-.26a1.065,1.065,0,0,0-.39.65q.13.26.195-.065t.325-.065l-.26.52-.26.52q-.26,0-.13-.26t0-.39a1.019,1.019,0,0,0-.195.26,1.018,1.018,0,0,1-.195.26,2.13,2.13,0,0,0,.325.26q.2.13-.065.39a.115.115,0,0,1-.13-.13.115.115,0,0,0-.13-.13q0,.13-.325.455t.195.325a4,4,0,0,0-.65.845,2.492,2.492,0,0,0-.26,1.235.635.635,0,0,0-.65.585,1.843,1.843,0,0,0,0,.975,1.791,1.791,0,0,0-.975.975,3.3,3.3,0,0,0-.325,1.365,16.905,16.905,0,0,0-1.43,2.275,9.213,9.213,0,0,0-.91,2.8,1.047,1.047,0,0,1-.455.13q-.195,0-.325.26a.7.7,0,0,1,.325-.975.82.82,0,0,0,.325-1.105q.65,0,.585-.52a2.06,2.06,0,0,1,.065-.91q0-.26-.13-.2a.212.212,0,0,1-.26-.065q-.26.13-.065.39a.864.864,0,0,1,.195.52q-.78,0-.78.585a1.721,1.721,0,0,1-.26.975.592.592,0,0,1-.325-.325q-.065-.195-.325.325-.26,0-.13-.26t0-.39a6.035,6.035,0,0,0-.715,1.3,11,11,0,0,1-.715,1.43.919.919,0,0,0,.78-.78A2.9,2.9,0,0,1,113.3-26a.532.532,0,0,1,.325.195q.195.2.195-.195.13,0,.13.52a1.354,1.354,0,0,0-.78.13q.26.39.065.585t.065.715h-.52a.732.732,0,0,1,.065.78,1.1,1.1,0,0,1-.455.52q.13-.78-.78-.39a.46.46,0,0,1,.195.65q-.195.39.325.52-.26.52-.585,1.1a1.16,1.16,0,0,1-1.105.585,3.826,3.826,0,0,1,.78-.975q.39-.325.26-1.235a5.093,5.093,0,0,0-.975,1.3,2.948,2.948,0,0,0-.195,1.69q-.26-.39-.39-.065t-.39.325a2.113,2.113,0,0,1,0,1.04q-.52-.13-.52.13t-.52.13a.3.3,0,0,0,.195.325q.195.065.065.455-.26,0-.325-.13t-.325.13q.52.13.325.455t-.325.585q-.52,0-.13-.195t.13-.455a.8.8,0,0,0-.52.585.974.974,0,0,0,.13.845q-.65,0-.78-.26-.26.13,0,.455a.7.7,0,0,0,.52.325,3.837,3.837,0,0,0-1.04,1.3,14.533,14.533,0,0,1-.91,1.56q-.26-.13-.065-.325a.36.36,0,0,0,.065-.455q-.26,0-.26.325t-.39.2a.265.265,0,0,1,.065-.2.514.514,0,0,0,.065-.325,7.244,7.244,0,0,0-1.43,2.34q-.39,0-.26-.325t-.39-.065a.764.764,0,0,1,.39-.65.414.414,0,0,0,.13-.65q-.39-.26-.455.065t-.325.325a9.173,9.173,0,0,1,.65-1.495A9.173,9.173,0,0,0,103.935-14.69Zm26-40.17h.26v-.26h-.26Zm0,.39q-.26,0-.26.13Q129.935-54.34,129.935-54.47Zm-1.69,3.51a2.515,2.515,0,0,0,.325-.455q.2-.325-.2-.325.26.26-.065.39T128.245-50.96Zm-.52.65q.26.13.26-.065a.441.441,0,0,1,.13-.325A.345.345,0,0,0,127.725-50.31Zm-1.04,2.08q.39,0,.65-.65t0-.78a1.059,1.059,0,0,1-.26.78A1.632,1.632,0,0,0,126.685-48.23Zm-1.17.91q0-.26.325-.325t.195-.455q-.13,0-.13-.065t-.26-.065q.26.39-.065.52T125.515-47.32Zm-.39.65q.26.13.26-.26t-.26-.13Zm-.65,1.3a.208.208,0,0,1,.195.13.208.208,0,0,0,.195.13.864.864,0,0,1,.195-.52.864.864,0,0,0,.195-.52.981.981,0,0,0-.39.325A3.151,3.151,0,0,1,124.475-45.37Zm-.78,1.56q.26.13.195-.13a.316.316,0,0,1,.195-.39q-.26-.13-.195.13A.316.316,0,0,1,123.7-43.81Zm.65-.26q-.26,0-.26.13Q124.345-43.94,124.345-44.07Zm-1.04,1.04q-.26,0-.26.13Q123.305-42.9,123.305-43.03Zm.26.39q.26.13.26-.26t-.26-.13Zm-.52,1.04a.592.592,0,0,0,.325-.325,3.565,3.565,0,0,1,.195-.455Q123.045-42.38,123.045-41.6Zm-.52.13q.26.13.39-.195t-.13-.325q0,.26-.195.26T122.525-41.47Zm.26.39h.26v-.26h-.26Zm-8.97.13q-.26,0-.26.13Q113.815-40.82,113.815-40.95Zm8.32,1.56a8.637,8.637,0,0,0,.65-1.56q-.39.13-.39.2t-.39-.2a.912.912,0,0,0,.065.78A.912.912,0,0,1,122.135-39.39Zm-.52.26a1.064,1.064,0,0,1,.13-.585,4.25,4.25,0,0,0,.26-.455q-.26,0-.65.52T121.615-39.13Zm-.91-.91q-.26.26.065.26T120.705-40.04Zm1.17,1.17a.115.115,0,0,1,.13-.13q0-.39-.26-.26Q121.745-38.87,121.875-38.87Zm-9.23.65q.13.39.13,0T112.645-38.22ZM112-36.79a.294.294,0,0,0,.065-.325.3.3,0,0,0-.325-.2A.749.749,0,0,0,112-36.79Zm6.37.26h.26v-.26h-.26Zm.65-.13v.26h.26a.115.115,0,0,1,.13-.13v-.26h-.26A.115.115,0,0,1,119.015-36.66Zm-6.11.39q.26.13.26-.065a.441.441,0,0,1,.13-.325q-.26-.13-.26.065A.441.441,0,0,1,112.905-36.27Zm-1.17.39q-.26,0-.26.13Q111.735-35.75,111.735-35.88Zm6.76.52h.26v-.26h-.26Zm-.13.13q-.52.39-.065.455T118.365-35.23Zm-.91.65q.26.13.26-.065a.441.441,0,0,1,.13-.325q-.26-.13-.26.065A.441.441,0,0,1,117.455-34.58Zm-6.5.13Zm6.89.13q.13.39.13,0T117.845-34.32Zm-7.28.91h.26v-.26h-.26Zm7.15.52a.208.208,0,0,1,.13-.195q.13-.065-.13-.2a.208.208,0,0,1-.13.2Q117.455-33.02,117.715-32.89Zm-1.3,1.95a1.028,1.028,0,0,1,.65.13.619.619,0,0,1-.195-.585,2.32,2.32,0,0,1,.195-.585,4.25,4.25,0,0,1,.26-.455q.13-.195-.13-.455a7.215,7.215,0,0,1-.455.975A3.17,3.17,0,0,0,116.415-30.94Zm-7.15-1.04q.39,0,.65-.78-.39,0-.39.26A.749.749,0,0,1,109.265-31.98Zm-.52,1.04a.466.466,0,0,0,.455.26q.325,0,.455-.39-.26-.26-.39,0t-.13,0a.53.53,0,0,1,.13-.39,1.513,1.513,0,0,0,.26-.39Q109.005-31.85,108.745-30.94Zm1.04-.78q.39.13.195-.065T109.785-31.72Zm6.89,1.17q-.26-.13-.26-.26t-.26,0a.257.257,0,0,0,.13.39A.257.257,0,0,0,116.675-30.55Zm-1.56.78a.416.416,0,0,0,.26-.39.416.416,0,0,1,.26-.39q-.13,0-.13-.065t-.26-.065a.429.429,0,0,1,0,.455A.8.8,0,0,0,115.115-29.77Zm-6.11-.39q.13.39.13,0T109.005-30.16Zm-.52.13q-.26,0-.26.13Q108.485-29.9,108.485-30.03Zm7.93.13q-.26,0-.26.13Q116.415-29.77,116.415-29.9Zm-1.43.39q.13.39.13,0T114.985-29.51Zm.39.52q.26-.13.26.13t.39.13a.713.713,0,0,1-.26-.455,1.047,1.047,0,0,0-.13-.455.3.3,0,0,1-.195.325Q115.245-29.25,115.375-28.99Zm-6.76-.39v.26q.26.13.325-.195t-.195-.195A.115.115,0,0,1,108.615-29.38Zm6.24.78a.514.514,0,0,1,.065-.325q.065-.065-.195-.2l-.195.39Q114.465-28.6,114.855-28.6Zm-6.63-.13a.115.115,0,0,1-.13-.13.115.115,0,0,0-.13-.13q-.26.13-.065.325T108.225-28.73Zm-.52.26q.13.39.13,0T107.705-28.47Zm6.11,1.3a3.568,3.568,0,0,0,.195-.455q.065-.195.455.065-.13-.39.13-.39t.13-.39a1.169,1.169,0,0,0-.91.455Q113.425-27.43,113.815-27.17Zm-6.37-.78Zm.39,0v.26q.26.13.325-.195t-.195-.195A.115.115,0,0,1,107.835-27.95Zm.65.91q.39,0,.39-.26Q108.355-27.3,108.485-27.04Zm-.91,0a1.1,1.1,0,0,0-.455.52q-.195.39.325.39-.13-.39,0-.52a.53.53,0,0,0,.13-.39q.39.13.195-.065T107.575-27.04Zm6.37.13h.26v-.26h-.26Zm-7.15,1.3h.26a.53.53,0,0,1,.13-.39q-.52,0-.52.13Q106.8-25.87,106.8-25.61Zm1.82.39q.26,0,.26-.13t.26-.26Q108.875-25.74,108.615-25.22Zm-2.34.26h.52a.46.46,0,0,0-.52-.52Zm-.39.65a.632.632,0,0,1,.13-.325q.13-.195-.13-.195a.375.375,0,0,0-.13.26Q105.755-24.31,105.885-24.31Zm2.21.52q0-.26.195-.26t.065-.26a.257.257,0,0,0-.39.13A.257.257,0,0,0,108.1-23.79Zm3.77.39q.39,0,.39-.52Q111.865-23.92,111.865-23.4Zm-4.42.52q.13.39.13,0T107.445-22.88Zm-.52,1.04h.26v-.26h-.26Zm-1.17.65q.13.39.13,0T105.755-21.19Zm.52,1.04q.39,0,.39-.26Q106.275-20.41,106.275-20.15Zm-2.08,1.56q.52-.26.52-.39A.51.51,0,0,0,104.2-18.59Zm.91.26h.39q0-.52-.26-.39a.265.265,0,0,1-.065.195A.265.265,0,0,0,105.105-18.33Zm4.03-.39q-.26,0-.26.13Q109.135-18.59,109.135-18.72Zm-5.07.39q-.13.65,0,.13T104.065-18.33Zm-.26,1.17q0-.26.195-.26t.065-.26a.257.257,0,0,0-.39.13A.257.257,0,0,0,103.805-17.16Zm2.99,1.04a.514.514,0,0,1,.065-.325q.065-.065-.195-.2Q106.665-16.12,106.8-16.12Zm-2.21.91q.39.26.39-.2t-.26-.325q0,.26-.065.26T104.585-15.21Zm1.43.39q.26.13.26-.26t-.26-.13Zm0,.26a.115.115,0,0,0-.13-.13.115.115,0,0,0-.13.13Zm-2.34,1.82a2.258,2.258,0,0,0,.455-.715.6.6,0,0,0-.065-.715q.13.39-.325.845T103.675-12.74Zm1.3-.13a.417.417,0,0,0,.455-.39q.065-.39.325.13,0-.13.195-.26t-.065-.26q-.39.39-.13-.13t-.26-.39q-.13.39-.26.715T104.975-12.87Zm-1.43,1.56q.13.26.195-.065T103.545-11.31Zm21.06-31.85q.39,0,.195.455t-.455.455a.437.437,0,0,1,.195-.39Q124.735-42.77,124.605-43.16Zm-.52,1.17h.26v.26h-.26Zm-.78,1.82q.13-.39.13,0T123.305-40.17Zm-.26.39q.26-.13.26.26a.115.115,0,0,0-.13.13Q123.045-39.39,123.045-39.78Zm-.52,1.43q0-.52.26-.39v.26a.115.115,0,0,0-.13.13Zm0,0q0,.26-.065.26t-.065.26q-.13,0-.13-.26a.375.375,0,0,1,.13-.26Zm-.65,1.3a.265.265,0,0,1,.065-.2.514.514,0,0,0,.065-.325q.26,0,.195.325T121.875-37.05Zm0,0q.13.39-.065.195T121.875-37.05Zm-.52,1.04q0-.26.195-.065T121.355-36.01Zm0,0q0,.65-.26.52a.294.294,0,0,0,.065-.325Q121.1-36.01,121.355-36.01Zm-.65,1.43Zm-1.56.78q.13-.39.13,0T119.145-33.8Zm-10.53,1.69a.115.115,0,0,1-.13-.13Q108.485-32.37,108.615-32.11Zm-2.73,5.07a.515.515,0,0,1,.065.65q-.195.39-.455.39a.864.864,0,0,1,.195-.52A.864.864,0,0,0,105.885-27.04Zm-.52,2.08q-.26,0-.26.195t-.26.065a7.133,7.133,0,0,1,.39-.91q.39-.13.195.13A.466.466,0,0,0,105.365-24.96Zm8.58.26q.13-.26.26-.065t.26.2l-.26.52-.26.52q-.39-.26,0-.585T113.945-24.7Zm-8.58,1.56q.26-.39.195-.065T105.365-23.14Zm-.78.52q.13.65-.26.26T104.585-22.62Zm8.45.13q-.26.39-.26.065T113.035-22.49Zm-.91.26q0-.13.26-.13Q112.385-22.23,112.125-22.23Zm-7.8.65q.39-.13.325.195t.195.325q0,.26-.78.26a.53.53,0,0,0,.13-.39A.53.53,0,0,1,104.325-21.58Zm7.54.78q.52-.52.26,0t-.39.13A.115.115,0,0,1,111.865-20.8Zm-1.04.65q.26,0,.26.065t.13.065a.307.307,0,0,1-.26.325q-.26.065-.13.585-.65-.13-.325-.455A.9.9,0,0,0,110.825-20.15Zm-7.41.65q.26-.13.195.195t-.325.195v-.26Zm6.76.65a.115.115,0,0,1-.13-.13Q110.045-19.11,110.175-18.85Zm0,0q.26,0,.26-.13.26.26,0,.715a.754.754,0,0,1-.65.455,4.249,4.249,0,0,1,.26-.455A1.064,1.064,0,0,0,110.175-18.85Zm-7.67,1.3q.26-1.04.78-1.17a2.278,2.278,0,0,1-.325.65A4.881,4.881,0,0,1,102.505-17.55Zm0,0q0,.65-.26.52A.749.749,0,0,1,102.505-17.55Zm7.67.39a.115.115,0,0,1,.13-.13.115.115,0,0,1,.13.13Zm-.91.65a.393.393,0,0,1,0,.585,3.409,3.409,0,0,0-.39.585q-.39-.39,0-.65T109.265-16.51Zm-.78,1.3h.26v.26h-.26Zm-6.89.52q.13-.39.13,0T101.6-14.69Zm5.85.39h.26v.26h-.26Zm-5.72,2.47q.26-.39.195-.065T101.725-11.83Zm.39.52q0-.13.26-.13Q102.375-11.31,102.115-11.31Zm.39.78h.26v.26h-.26Zm42.25-8.71q0-.39-.13-.325l-.39.195q.13.26.195.2a.514.514,0,0,1,.325-.065,4.439,4.439,0,0,1-1.95.585,5.38,5.38,0,0,0-2.08.585v-.39q.26,0,.13-.065t-.13.065a2.044,2.044,0,0,1-1.95.39q-1.3-.26-2.34-.52a.115.115,0,0,0-.13.13.115.115,0,0,0,.13.13q-1.3-.65-3.315-1.69a8.557,8.557,0,0,1-3.185-2.73q.39-.13.26-.455a1.731,1.731,0,0,0-.39-.585q-.13.39-.26.325t-.52.195q.13-.39.2-.65t-.585,0a.7.7,0,0,1,.26-.325q.13-.065.13-.325a3.324,3.324,0,0,1-1.56-2.73,3.434,3.434,0,0,0,.065-2.21,4.8,4.8,0,0,1-.065-2.34q.13,0,.13.39a1.548,1.548,0,0,0,.52-1.69q.26,0,.195-.2t.2-.325a13.942,13.942,0,0,1,1.17-5.4q1.17-2.795,2.21-5.395a3.573,3.573,0,0,1-.325,1.495q-.325.715-.715,1.43a10.438,10.438,0,0,0-.65,1.43,1.856,1.856,0,0,0,0,1.365.8.8,0,0,0,.2-.715q-.065-.455.585-.325a2.379,2.379,0,0,1,0-1.105.9.9,0,0,1,.78-.715,1.008,1.008,0,0,1-.2.715,1.009,1.009,0,0,0-.195.715q.91-.26.65-1.43h-.26v-.65q.26,0,.26-.13t.26-.26q0-.26-.13-.325t-.13-.325l.52.26q.13.26,0,.26t-.13.26q-.65.26-.26.65.52,0,.26-.65.26,0,.26-.2a1.047,1.047,0,0,1,.13-.455q-.65-.65-.065-1.1a1.622,1.622,0,0,0,.585-1.365q.39.39.195.585a1.009,1.009,0,0,0-.195.715.875.875,0,0,0-.39.78q.39-.13.39-.78a2.037,2.037,0,0,0,.39-.52,2.037,2.037,0,0,1,.39-.52q-.13-.26-.2-.065t-.325-.065a.977.977,0,0,1,.325-.52q.2-.13-.065-.65a2.037,2.037,0,0,1,.52-.39q.26-.13.13-.78h.52q-.26-.78.585-1.04a1.045,1.045,0,0,0,.715-1.3,2.034,2.034,0,0,0,1.3-.975q.39-.715.78-1.365a.819.819,0,0,0,.845-.455,5.241,5.241,0,0,1,.455-.845q1.04,0,1.04-.78a17.963,17.963,0,0,1,3.315-1.625,11.328,11.328,0,0,1,3.835-.585q.26.39.52.26a2.277,2.277,0,0,0,.65-.325,4.883,4.883,0,0,0,.52-.455q-.39-.13,0-.78a.524.524,0,0,1,.26.52.524.524,0,0,0,.52-.26.416.416,0,0,1,.39-.26q.13-.26,0-.39t0-.39a.823.823,0,0,0,.715-.065.823.823,0,0,1,.715-.065.53.53,0,0,1-.13.39q.91.13.455-.39t-.195-.78q.39,0,.26.39.65,0,.65-.26,0-.13-.52-.13a1.785,1.785,0,0,1,1.56-.39q1.04.13,1.04-.65a1.238,1.238,0,0,0,1.1,0,.569.569,0,0,1,.845.26q.39-.13.26-.26t.13-.39a1.848,1.848,0,0,1,1.04.26,1.091,1.091,0,0,0,1.04,0q0,.39.26.39a1.249,1.249,0,0,1,1.3.195,1.9,1.9,0,0,0,1.3.455v.39q1.17.65,2.275,1.3a7.394,7.394,0,0,1,1.885,1.56,5.611,5.611,0,0,1,2.08,1.365q.78.845,1.56,1.625a6.4,6.4,0,0,1,.26,3.12,15.238,15.238,0,0,1-.845,3.055,19.96,19.96,0,0,1-1.3,2.73q-.715,1.235-1.235,2.275a1.215,1.215,0,0,0-.78.975,1.229,1.229,0,0,1-.91.975q.13.39.26.26l-.2.39q-.065.13-.455,0,0,1.69-1.3,1.95.26.52-.13.585t-.26.585h-.13a.115.115,0,0,1-.13-.13,11.454,11.454,0,0,1-1.56,2.275,11.454,11.454,0,0,0-1.56,2.275.375.375,0,0,1-.26.13,1,1,0,0,0-.39.13,7.3,7.3,0,0,1-2.4,3.38,11.631,11.631,0,0,0-2.795,3.25q-.91-.26-1.17,1.04a.375.375,0,0,1-.13-.26,4.057,4.057,0,0,1-1.235,1.04,2.844,2.844,0,0,0-1.1,1.04,1.076,1.076,0,0,0-.91.195,1.074,1.074,0,0,0-.52.975q-.52-.13-.585.065t-.455-.065q-.26.13-.065.325t.065.325q-.26.26-.78-.13a.723.723,0,0,0-.39.585,1.29,1.29,0,0,1-.13.585q-.26,0-.13-.26a.838.838,0,0,0,0-.65q-.52.13-.39.52a.589.589,0,0,1-.13.65,4.456,4.456,0,0,1-.845-.065Q145.015-19.63,144.755-19.24Zm10.4-40.56q0,.13-.13.065t-.13.065Q155.155-59.67,155.155-59.8Zm-5.07,2.86q0,.13-.13.065t-.13.065Q150.085-56.81,150.085-56.94Zm-2.73,8.32q-.13-.26-.26-.585a6.746,6.746,0,0,1-.26-.845,10.578,10.578,0,0,0-3.51,3.25,30.006,30.006,0,0,1-2.99,3.77v.65a6.469,6.469,0,0,0-1.56,2.73,12.78,12.78,0,0,1-1.43,3.12.968.968,0,0,1,0,.715,1.064,1.064,0,0,0-.13.585.416.416,0,0,0-.26.39.416.416,0,0,1-.26.39q-.26,1.95-.455,3.835a20.855,20.855,0,0,1-.585,3.315,1.116,1.116,0,0,1,.39,1.17,2.623,2.623,0,0,0,.13,1.43,16.883,16.883,0,0,0,4.875-1.95,22.151,22.151,0,0,0,3.9-2.99q1.755-1.69,3.315-3.51t3.25-3.64q.13-.13,0-.195t0-.195a4.63,4.63,0,0,0,1.1-1.3,4.63,4.63,0,0,1,1.105-1.3,21.776,21.776,0,0,1,2.145-3.445q1.235-1.625,2.4-3.38a28.059,28.059,0,0,0,2.08-3.7,14.009,14.009,0,0,0,1.17-4.55,5.3,5.3,0,0,0-4.1-.195,7.267,7.267,0,0,0-3.315,1.885,9.121,9.121,0,0,0-4.29,4.55.721.721,0,0,0-.91.13l-.65.65q-.26-.52,0-.585t0-.585A7.133,7.133,0,0,1,147.355-48.62Zm-6.89-4.81q.26-.26,0-.39Zm-.65.52h.26a.115.115,0,0,1,.13-.13q.13,0,0-.26h-.39Zm-2.34,2.86a.416.416,0,0,0-.26-.39Q137.215-49.92,137.475-50.05Zm9.75.52h.26v-.26h-.26Zm.52.13q.26.39.26.065T147.745-49.4Zm-13.39,2.99v.26h.39v-.39h-.26A.115.115,0,0,1,134.355-46.41Zm33.8.91q0,.13-.13.065t-.13.065Q168.155-45.37,168.155-45.5Zm-1.17,1.95q.26.39.26,0T166.985-43.55Zm-1.04,1.69q.26,0,.52-.39t-.26-.39q.13.26-.065.39A.437.437,0,0,0,165.945-41.86Zm-1.95,0q.26-.26,0-.39Zm-.78,1.04q.26.39.26,0T163.215-40.82Zm1.69.39q.26.39.26,0T164.9-40.43Zm-34.45,1.17V-39q.26.26.325-.065t-.2-.325A.115.115,0,0,1,130.455-39.26Zm33.28.52q.39,0,.39-.26Q163.995-39,163.735-38.74Zm-34.71,5.46a4.242,4.242,0,0,1,.455-2.795,3.171,3.171,0,0,0,.325-2.535,16.733,16.733,0,0,1-.845,2.8A2.72,2.72,0,0,0,129.025-33.28Zm30.94-4.94q-.26.39.065.065T159.965-38.22Zm-29.64.91a.548.548,0,0,0,.455-.325q.195-.325-.2-.455a.257.257,0,0,1-.13.39A.257.257,0,0,0,130.325-37.31Zm29.25-.39q0,.13-.13.065t-.13.065Q159.575-37.57,159.575-37.7Zm3.64.52a.416.416,0,0,0-.26-.39Q162.955-37.05,163.215-37.18Zm-3.12.65q.26.39.26,0T160.1-36.53Zm-30.16.78h.26v-.26h-.26Zm30.42.26q0,.13-.13.065t-.13.065Q160.355-35.36,160.355-35.49Zm.91.26h.39q.13-.26-.39-.26Zm-31.85.26q.26.39.26,0T129.415-34.97Zm31.07.91q.26.39.26,0T160.485-34.06Zm-32.11,2.08q.26,0,.39-.455a.679.679,0,0,0-.13-.715,2.137,2.137,0,0,1-.065.52Q128.505-32.37,128.375-31.98Zm.65-1.04q.26.39.26,0T129.025-33.02Zm29.64.78q.26.39.26,0T158.665-32.24Zm-1.17.78h.26v-.26h-.26Zm1.04,0q0-.26-.26,0,.26,0,.26.13Zm-30.94.65q.39.13.39-.52Q127.595-31.33,127.6-30.81Zm28.6.39q0-.26.2-.26t.065-.26a.416.416,0,0,0-.39.26Q155.935-30.42,156.195-30.42Zm.39,0q0,.13-.13.065t-.13.065Q156.585-30.29,156.585-30.42Zm-1.43.13q0,.13-.13.065t-.13.065Q155.155-30.16,155.155-30.29Zm2.47,0q0,.13-.13.065t-.13.065Q157.625-30.16,157.625-30.29Zm-2.08.39q.26.39.26,0T155.545-29.9Zm-.65,1.3q.26.39.26,0T154.895-28.6Zm-1.17,1.56q.39-.13-.13-.65a.429.429,0,0,1,0,.455Q153.465-27.04,153.725-27.04Zm-25.48,0h.26v-.26h-.26Zm23.53,1.69q0-.26-.26,0,.26,0,.26.13Zm-20.28,3.25q.26.39.26.065T131.495-22.1Zm14.17,2.34h.26v-.26h-.26Zm-10.27.39q.26.39.26,0T135.4-19.37Zm4.16,0q.26.39.26,0T139.555-19.37Zm14.56-41.21q.26-.39.26,0T154.115-60.58Zm-4.16,2.47q.26-.39.26,0T149.955-58.11Zm-1.43.39q.65.26.13.52A.425.425,0,0,1,148.525-57.72Zm-1.17,9.1q.65.26,0,.52Zm-13.39.78q.26-.39.26,0T133.965-47.84Zm-1.3,1.82h.26v.26h-.26Zm-.52,1.17h.26v.26h-.26Zm-3.77,8.45q.26-.39.26,0T128.375-36.4Zm-.13.39q.26-.26.13.26T128.245-36.01Zm-.13.91q.26-.39.26,0T128.115-35.1Zm-.39,2.21q.26.26.065.39t-.065.39q-.26,0-.13-.325A1.49,1.49,0,0,0,127.725-32.89Zm-.52,4.81q0-.13.13-.065t.13-.065Q127.465-28.08,127.205-28.08Zm22.36,6.11h.26v.26h-.26Zm27.17,5.2a4.064,4.064,0,0,0-2.21,1.04h-.13q0,.13.065.13t.065-.13q.26,0,.26-.13.26.39-.325.52t-.715.39a.939.939,0,0,1-.78-.325.7.7,0,0,0-.78-.2q0,.39.065.2t.325-.065q.13.39-.195.39t-.2.26q-.52-.13-.52.13a1.154,1.154,0,0,1-.13.52q-.39-.65-.975-.065a.829.829,0,0,1-1.235.065q.26.52,0,.585a.582.582,0,0,0-.39.325h-.26a.115.115,0,0,0,.13.13.115.115,0,0,0,.13-.13.53.53,0,0,1,.39.13,7.266,7.266,0,0,1-.78.455,4.45,4.45,0,0,1-.91.325q.13-.39-.065-.2t.065.2a.964.964,0,0,1-.65.455,1.476,1.476,0,0,0-.78.455q-.26-.26.065-.39t.325-.39q-.39-.13-.78.455a1.075,1.075,0,0,1-1.17.455q-.13.26.13.325t0,.195a3.817,3.817,0,0,0-1.43.26q0,.26.065.26t.065.26q-.26,0-.26.065t-.26.065q-.26,0-.26-.39a1.133,1.133,0,0,1-.585.325.4.4,0,0,0-.325.455q-.52-.26-.715,0a.685.685,0,0,1-.585.26.838.838,0,0,1,.39-.52,2.037,2.037,0,0,0,.52-.39.764.764,0,0,0,.65-.39q0-.26-.26,0l-.39.39a2.527,2.527,0,0,0-1.3.52q-.13.26.13.325t0,.325q-.26-.13-.26-.26t-.26.13q-.26.13-.065.195t.065.325a1,1,0,0,1-.39.13.375.375,0,0,0-.26.13q-.26.13-.26-.13a.23.23,0,0,0-.26-.26,1.563,1.563,0,0,0-1.04,1.04,4.833,4.833,0,0,0-1.17.13,2.657,2.657,0,0,1-1.17,0q0,.91-1.17.91v.65q-.39-.52-.65-.065a.844.844,0,0,1-.78.455q-.13-.52.325-.39t.325-.39q.39.13.195-.065t-.195.065a3.566,3.566,0,0,1-.455.2,3.566,3.566,0,0,0-.455.195l-.39-.39a.345.345,0,0,0,.39.39q0,.39.13.39a3.567,3.567,0,0,0-.2.455q-.065.2-.455.065.26-.52.065-.715a1.009,1.009,0,0,1-.195-.715q-.39-.13-.52,0a.53.53,0,0,1-.39.13.36.36,0,0,1-.065.455.36.36,0,0,0-.065.455q-.39-.52-.715,0a1.43,1.43,0,0,1-.715.65q-.39-.13-.2-.26a2.129,2.129,0,0,0,.325-.26q-.26-.26-.52.13-.26-.13-.065-.26t-.065-.26a4.26,4.26,0,0,0-.65.52,1.787,1.787,0,0,1-.91.39.524.524,0,0,1,.26-.52.85.85,0,0,0,.39-.39q-.26-.26-.39.13a.363.363,0,0,1-.52.26v-.65q-.26,0-.26.65a.514.514,0,0,1-.325-.065q-.065-.065-.2.195-.39-.26-.065-.325a.894.894,0,0,0,.455-.2q-.13-.26-.26-.065t-.39.065q.65-.65,1.17-1.235a3,3,0,0,1,1.56-.845.524.524,0,0,1,.26-.52.524.524,0,0,0,.26-.52,2.389,2.389,0,0,0,1.625-.845,3.857,3.857,0,0,1,1.5-1.1q-.26-.52-.78,0t-.78,0q-.26,0-.065.13t.065.39q-.13,0-.13-.065t-.26-.065a.8.8,0,0,1-.13.455.429.429,0,0,0,0,.455,3.028,3.028,0,0,0-2.21.65.592.592,0,0,1,.325-.325q.2-.065.2-.455a2.5,2.5,0,0,0-.975,1.04,2.5,2.5,0,0,1-.975,1.04q-.52,0-.2-.2t.2-.455q-.65.26-.585.585a.619.619,0,0,1-.195.585h-.26q0-.39-.26-.2t-.39-.2a1.4,1.4,0,0,1,.78-.715,1.039,1.039,0,0,0,.65-.845,130.345,130.345,0,0,1,23.53-13.325q12.61-5.525,26-10.335a15.977,15.977,0,0,0,3.055-.91q1.625-.65,3.315-1.3a2.9,2.9,0,0,1-1.04-.39,1.091,1.091,0,0,0-1.04,0q-.26-.65-1.43-.455t-1.56-.455A3.2,3.2,0,0,1,195-36.14a3.2,3.2,0,0,0-2.015-.13q-.13-.39-.39-.325t-.26-.195a4.169,4.169,0,0,1-1.5,0,6.816,6.816,0,0,0-1.625-.13,6.871,6.871,0,0,0-3.055-.845,7.757,7.757,0,0,1-3.185-.845q-.26-.13-.325,0t-.325.13a6.658,6.658,0,0,0-2.795-.845,3.474,3.474,0,0,1-2.535-1.235q-.39,0-.39.13a9.075,9.075,0,0,1-2.99-3.9q-1.04-2.47-2.21-4.68a1.3,1.3,0,0,0,.2-.91,2.06,2.06,0,0,1,.065-.91,22.444,22.444,0,0,1,7.605-5.135q4.485-1.885,8.645-3.7,3.38-1.04,6.37-1.69t5.85-1.43a16.754,16.754,0,0,0,2.08-.13q1.04-.13,2.47-.39a3.015,3.015,0,0,0,1.04.065,6.605,6.605,0,0,1,1.04-.065,1.047,1.047,0,0,0,.455.13,1.047,1.047,0,0,1,.455.13,2.221,2.221,0,0,1,1.885.325,5.947,5.947,0,0,0,1.755.845,4.268,4.268,0,0,1,1.17,1.495,12.14,12.14,0,0,1,.65,1.755l.52,1.82a4.6,4.6,0,0,0,.91,1.69,1.1,1.1,0,0,0,0,1.04.721.721,0,0,1-.13.91q-.65.13-.78-.26t-.78-.13a8.06,8.06,0,0,0-3.185-1.17,16.864,16.864,0,0,0-3.64-.13,26.294,26.294,0,0,0-3.705.52q-1.82.39-3.51.65a56.488,56.488,0,0,0-9.62,2.665,67.061,67.061,0,0,0-8.71,3.965,6.583,6.583,0,0,0,2.275.65q1.235.13,2.535.39,3.38.65,7.15,1.3t7.15,1.3a19.476,19.476,0,0,1,4.55.845,14.445,14.445,0,0,0,4.16.715,1.64,1.64,0,0,0,1.69.52,4.937,4.937,0,0,1,2.73,1.755,19.106,19.106,0,0,1,1.69,2.8v.65q.52,1.04.975,1.82a5.1,5.1,0,0,1,.455,2.47,26.048,26.048,0,0,1-8,3.965A88.223,88.223,0,0,0,199.1-24.7a47.874,47.874,0,0,0-5.2,1.625q-2.6.975-4.94,1.625a.959.959,0,0,1-.91.455q-.52-.065-.78.585-.26-.13-.39.065t-.39-.065a17,17,0,0,1-4.355,1.95,15.288,15.288,0,0,0-4.1,1.82Q177.255-17.16,176.735-16.77Zm.26-7.41q.13.39.13,0T176.995-24.18Zm-.26.65q.13.39.13,0T176.735-23.53Zm15.08.65q.13.26.195-.065T191.815-22.88Zm-5.98,1.69a5.593,5.593,0,0,0,1.04-.13.89.89,0,0,0,.78-.65,5.707,5.707,0,0,1-.975.39A3,3,0,0,0,185.835-21.19Zm2.08-.13q.65,0,.52-.26A.749.749,0,0,0,187.915-21.32Zm-.78.26a.265.265,0,0,1,.2.065.514.514,0,0,0,.325.065.307.307,0,0,0-.26-.325Q187.135-21.32,187.135-21.06Zm-16.77.26q-.13,0-.13-.065t-.26-.065q-.26.26.065.325T170.365-20.8Zm15.73.13q.13.26.2-.065T186.1-20.67Zm-6.5.39Zm2.99.52q-.26.13-.13.13a.115.115,0,0,0,.13-.13,2.277,2.277,0,0,1,.715-.13q.325,0,.325-.52A1.955,1.955,0,0,0,182.585-19.76Zm-.91.39h-.26q0,.13-.065.13t-.065.13q.26-.13.325.13t.325,0q.52.13.325-.065t-.325.065q-.26,0-.26-.39.13,0,.52-.39Q181.675-19.76,181.675-19.37Zm-15.99.65q-.26,0-.26.13Q165.685-18.59,165.685-18.72Zm15.47.26h.26v-.26h-.26Zm-2.21,0v.26h.39v-.39h-.26A.115.115,0,0,1,178.945-18.46Zm-4.29.13v.26h.26a.115.115,0,0,1,.13-.13v-.26h-.26A.115.115,0,0,1,174.655-18.33Zm2.86.52a1.648,1.648,0,0,1-.78.39q-.52.13-.26.39a.882.882,0,0,1,.65-.26q.39,0,.39-.52.39.39.65-.26Q177.515-18.07,177.515-17.81Zm1.17.13q.13.39.13,0T178.685-17.68Zm-.65.39q-.39,0-.39.13Q178.035-17.16,178.035-17.29Zm-15.86.78q.39,0,.39-.26h-.26q0,.13-.065.13T162.175-16.51Zm-1.82.65q.39,0,.39-.26h-.26q0,.13-.065.13T160.355-15.86Zm12.48.26a.466.466,0,0,0,.52-.065q.26-.2,0-.325,0,.26-.39.13T172.835-15.6Zm-3.12,1.43q.78,0,.78-.52A.833.833,0,0,0,169.715-14.17Zm-12.35.52h.26v-.26h-.26Zm11.31.13a.208.208,0,0,1,.13-.195q.13-.065-.13-.195a.208.208,0,0,1-.13.195Q168.415-13.65,168.675-13.52Zm-1.69.65a1.059,1.059,0,0,0,.78-.26,1.154,1.154,0,0,0-.52-.13Q166.985-13.26,166.985-12.87Zm-11.96.26q.26.26.65-.13Q155.285-13.13,155.025-12.61Zm8.97,0h.26v-.26h-.26Zm2.21,0v.26q.26.26.325-.065t-.195-.325A.115.115,0,0,1,166.205-12.61Zm-4.16.39a.115.115,0,0,1,.13.13.115.115,0,0,0,.13.13.441.441,0,0,1,.325-.13.713.713,0,0,0,.455-.26Q162.305-12.61,162.045-12.22Zm-7.15-.13q-.26,0-.26.13Q154.9-12.22,154.9-12.35Zm10.27.39q.52,0,.52-.13a.441.441,0,0,0-.325-.13Q165.165-12.22,165.165-11.96Zm-12.09,0q0,.26.13.26t-.13.26q.39.13.52,0l.39-.39Q153.335-12.22,153.075-11.96Zm8.32.52h.26v-.26h-.26Zm-8.71.65q.13-.52-.195-.585a2.32,2.32,0,0,1-.585-.2A.689.689,0,0,0,152.685-10.79Zm5.46.65a.85.85,0,0,0,.39-.39q.13-.26.52,0,0-.65-.26-.65a1.472,1.472,0,0,1-.52.52Q157.885-10.4,158.145-10.14Zm4.94-.78q-.39,0-.39.26.39,0,.39-.26.65,0,.52-.26Q163.085-11.18,163.085-10.92Zm-1.17,0q-.26,0-.26.13Q161.915-10.79,161.915-10.92Zm-2.47.65a.208.208,0,0,1,.13-.195q.13-.065-.13-.195a.208.208,0,0,1-.13.195Q159.185-10.4,159.445-10.27Zm-.26.39q0-.39-.26-.39Q158.925-9.88,159.185-9.88Zm-2.6.78v.26h.39v-.39h-.26A.115.115,0,0,1,156.585-9.1Zm-1.3,1.17q.39,0,.325-.325t.455-.065q0-.26.065-.26t.065-.26h-.52a.416.416,0,0,1-.26.39Q155.155-8.32,155.285-7.93Zm1.17-.39q.13.39.13,0T156.455-8.32Zm-1.69.65a.882.882,0,0,1-.65.26.345.345,0,0,0-.39.39,2.137,2.137,0,0,1,.52.065.54.54,0,0,0,.52-.2v-.52q.26,0,.325-.325T154.9-8.32A1.028,1.028,0,0,0,154.765-7.67Zm-5.33-.39v.26h.39v-.39h-.26A.115.115,0,0,1,149.435-8.06Zm7.54-.13q-.26,0-.26.13Q156.975-8.06,156.975-8.19Zm-.39.39q-.65,0-.455.195T156.585-7.8Zm-7.67.39q.13,0,.13.065t.13.065q0-.39-.26-.39Zm.91.52q0-.26.2-.2t.195-.2a.36.36,0,0,0-.455.065Q149.565-7.02,149.825-6.89Zm-.39.39q.13.65-.65.65a.653.653,0,0,0,.715.52q.585,0,.585-.65h-.39a2.258,2.258,0,0,1,.715-.455,1.434,1.434,0,0,0,.715-.715q-.13,0-.13-.065t-.26-.065A1.2,1.2,0,0,1,149.435-6.5Zm3.77-.52q-.13.65.26.26t-.26-.26q-.13-.26-.325-.26t-.2.39q.26,0,.26-.065T153.205-7.02Zm-.78.78q.39,0,.39-.26Q152.3-6.5,152.425-6.24Zm-5.33.65q.39,0,.455-.26a.582.582,0,0,1,.325-.39q-.26.13-.39,0a.53.53,0,0,0-.39-.13.864.864,0,0,1-.065.455Q146.965-5.85,147.1-5.59Zm.91-.13q.39,0,.39-.26h-.26q0,.13-.065.13T148.005-5.72Zm28.73-11.05a.441.441,0,0,0,.325.13q.2,0,.065.26Q176.475-16.12,176.735-16.77Zm-1.43.65h.78l-.78.39Zm-3.12,1.43h.26q0,.26-.65.52,0-.26.2-.26T172.185-14.69ZM169.325-13a.115.115,0,0,1,.13-.13A.115.115,0,0,1,169.325-13Zm-6.76,3.25q0,.39-.52.39Q162.045-9.75,162.565-9.75Zm-14.04,1.17q0,.26-.52.26Q148.005-8.58,148.525-8.58Zm-1.04.52Zm10.53,0h.26v.39h-.39v-.26A.115.115,0,0,0,158.015-8.06ZM144.1-5.85v-.39a.638.638,0,0,0-.585.325q-.2.325-.455.065a4.676,4.676,0,0,0,.715-.585,3.221,3.221,0,0,1,.845-.585.882.882,0,0,0-.26.65A.524.524,0,0,1,144.1-5.85Zm11.44-1.04q-.26.39-.26.065T155.545-6.89Zm-10.14,0a.115.115,0,0,1-.13.13Q145.145-6.76,145.4-6.89Zm-.78.52a.115.115,0,0,1,.13-.13.115.115,0,0,1,.13.13Zm-.52.52q.13.39-.065.2T144.1-5.85Zm1.43.26q.26.13.13.2a.208.208,0,0,0-.13.2q-.26-.13-.13-.2A.208.208,0,0,0,145.535-5.59Zm.78.65q0,.26-.39.26Q145.925-4.94,146.315-4.94Zm3.51,0q.26,0,.26.39h-.39a.265.265,0,0,1,.065-.195A.265.265,0,0,0,149.825-4.94Zm.52.26q.13-.39.13,0T150.345-4.68Zm-4.68.26q.13-.39.13,0T145.665-4.42Zm.65,0q.26,0,.26.2a.441.441,0,0,1-.13.325q-.26-.13-.2-.2A.514.514,0,0,0,146.315-4.42Zm-1.56.78q0-.13.26-.13Q145.015-3.64,144.755-3.64Z" transform="translate(224.965 68.662)" fill="#d2ccdf"/>
</svg>
