<svg xmlns="http://www.w3.org/2000/svg" xmlns:xlink="http://www.w3.org/1999/xlink" width="355.465" height="110.517" viewBox="0 0 355.465 110.517">
  <defs>
    <linearGradient id="linear-gradient" x1="0.039" y1="0.609" x2="1" y2="0.604" gradientUnits="objectBoundingBox">
      <stop offset="0" stop-color="#633093"/>
      <stop offset="1" stop-color="#1e73bb"/>
    </linearGradient>
  </defs>
  <g id="Group_11911" data-name="Group 11911" transform="translate(-262 -1266.755)">
    <path id="Path_44929" data-name="Path 44929" d="M-137.713-50.945a.653.653,0,0,1-.173.862.781.781,0,0,0-.287.862q-.115,0,.23-.345.23.115.057.23t-.057.345q-.23,0-.23-.115t-.23.115a.2.2,0,0,0,.23.23q.23,0,.115.23-.46,0-.575.575a1.376,1.376,0,0,0,0,.805q.23,0,.115-.23a.227.227,0,0,1,.115-.345q.23.23.057.748a1.918,1.918,0,0,1-.4.747.379.379,0,0,1,0-.4.709.709,0,0,0,.115-.4q-.69.345-.4.805t-.288.8q-.115.23.057.23a.39.39,0,0,1,.288.115q-.115.23-.575.23a2.246,2.246,0,0,1,.173.46.272.272,0,0,0,.288.23.855.855,0,0,0-.23.632q0,.4-.46.4a.387.387,0,0,1,.173-.345q.173-.115.057-.46a1.487,1.487,0,0,0-.518,1.15,5.233,5.233,0,0,0,.057,1.38,1.338,1.338,0,0,0-.345.23q-.115.115-.345,0a11.99,11.99,0,0,1-.518,2.013l-.747,2.243a2.423,2.423,0,0,1,.4.058,3.231,3.231,0,0,0,.632.057,3.181,3.181,0,0,1,1.15-.518,1.3,1.3,0,0,1,1.035.058q.46-.23,1.092-.518a1.011,1.011,0,0,1,1.092.057q.805-.23,2.185-.575a5.743,5.743,0,0,1,2.53-.115.1.1,0,0,0,.115.115q-.115.345.345.288t.345-.288h-.69q0-.23-.057-.23t-.057-.23q.575-.23.747,0t.747,0q.115.345-.173.23t-.173.23q.23,0,.92-.057a7.377,7.377,0,0,0,1.15-.173q0-.23-.057-.23t-.058-.23a.554.554,0,0,1,.4.46.622.622,0,0,1-.173.575,3.644,3.644,0,0,0-1.61-.115,2.236,2.236,0,0,0-1.5.805q.23.23.345-.115t.345-.23v.345q.23.115.173-.23t.288-.23q0,.115-.058.115t-.057.23a4.281,4.281,0,0,0,2.012-.287,1.909,1.909,0,0,1,1.783.057,2,2,0,0,1-1.092.172,1.953,1.953,0,0,0-1.208.288q.115.23.173.058t.288-.058a1.325,1.325,0,0,1-.46.92q.345.23.518.115a2.226,2.226,0,0,1,.633-.23q-.23-.23-.115-.345t-.23-.115q.115-.345.345-.115t.345-.23a.788.788,0,0,1-.115.92q-.345.345.345.69.23,0,.057-.23t.288-.115a.2.2,0,0,0,.23.23.2.2,0,0,0-.23-.23q0-.115.345-.115.115-.23-.058-.287t.058-.288l.345.345q.23.23.23-.23.23,0,.23.46a1.2,1.2,0,0,0,.92-.115.575.575,0,0,1,.69,0,1.769,1.769,0,0,1-1.092.345,1.15,1.15,0,0,0-.977.46.184.184,0,0,1,.115-.173.184.184,0,0,0,.115-.173q-.575.115-1.38.345a5.154,5.154,0,0,1-1.38.23v.46a16.624,16.624,0,0,0,1.667-.287,2.609,2.609,0,0,1,1.438.057,2.036,2.036,0,0,0,.632-.345.492.492,0,0,1,.632,0,1.932,1.932,0,0,1-1.783.575,1.565,1.565,0,0,0-1.667.69,3.076,3.076,0,0,0-1.15.23.892.892,0,0,1-1.035-.23q-.23.115-.23.288t-.23.287a7.315,7.315,0,0,0-1.955.287q-1.035.288-1.955.518.23.46.4.172a.4.4,0,0,1,.517-.172q-.115.46-.747.345t-.747.345a.575.575,0,0,0,.69,0,1.2,1.2,0,0,1,.92-.115,10.927,10.927,0,0,1-4.255.92,2.519,2.519,0,0,1-1.667.575,3.529,3.529,0,0,0-1.783.46q-.23.115-.057.4t-.4.057a.1.1,0,0,1,.115-.115.1.1,0,0,0,.115-.115q0-.23-.173-.115a.559.559,0,0,1-.288.115.2.2,0,0,0,.23.23v.345q-.345,0-.345-.115-.115,0-.115.345a3.942,3.942,0,0,1-.747-.058,1.228,1.228,0,0,0-.633.058q0-.115.058-.115t.057-.23a.518.518,0,0,0-.46.172.387.387,0,0,1-.345.173,1.406,1.406,0,0,1-.23,1.092,2.126,2.126,0,0,0-.345,1.208q-.115,0-.115-.058t-.115-.057q-.23.115-.115.46a2.17,2.17,0,0,1,.115.69.184.184,0,0,0-.173.115q-.057.115-.288,0-.23.345-.057.4t.173.4q-.115,0-.115.058t-.23.057q-.115.23,0,.288t.115.288a.234.234,0,0,0-.173.058.234.234,0,0,1-.173.057,16.559,16.559,0,0,1-.92,3.45,16.173,16.173,0,0,0-.92,3.68.234.234,0,0,0-.173.057.234.234,0,0,1-.173.058,2.392,2.392,0,0,1,.115.92,1.406,1.406,0,0,1-.632.517q-.4.172-.173.747-.115,0-.115-.057t-.23-.058q.23.23-.115.69t0,.69a.654.654,0,0,0-.46.805.654.654,0,0,1-.46.8q-.115-.23.057-.345t.058-.345q-.23,0-.345.288t-.23-.288q-.23.23-.058.4a.319.319,0,0,1,.058.4q-.575-.23-.46.115a.321.321,0,0,1-.23.46q.115.23.287.058a.319.319,0,0,1,.4-.058q-.23.575-.518.46t-.518.46q.46.575,0,.92a2.282,2.282,0,0,0-.69.805q-.115.345.173.4t.173.287q-.46-.115-.46.287t.23.518a.544.544,0,0,0-.46.575.774.774,0,0,1-.345.69q-.115-.575.115-.69t0-.69q.23-.115.173-.46a.622.622,0,0,1,.173-.575q-.575.115-.345,1.035a.2.2,0,0,0-.23.23q0,.23-.23.115a2.215,2.215,0,0,1-.115,1.84q-.46.92-.805,1.725-.23,0-.115-.345t-.115-.345a4.46,4.46,0,0,0-.23.575.521.521,0,0,0,.115.575q0,.23-.23.115a.227.227,0,0,1-.115-.345.774.774,0,0,0-.345.69.712.712,0,0,1-.23-.805q-.115-.23-.23.058a1.234,1.234,0,0,1-.23.4q-.345-.23-.173-.4t.057-.632q-.23.345-.4.287t-.288.287a1.17,1.17,0,0,1-.115-.862,2.09,2.09,0,0,0,0-.978,99.911,99.911,0,0,1,1.84-11.1q1.15-5,2.645-10.638a.844.844,0,0,0-.8-.057,1.927,1.927,0,0,0-.69.4h.69q0,.23-.288.23a.412.412,0,0,0-.4.23.272.272,0,0,1-.287-.23q-.058-.23-.4-.115-.23.115-.057.288t-.057.287a1.392,1.392,0,0,0-.805.173,4.318,4.318,0,0,0-.46.4,2.238,2.238,0,0,0-.863-.057q-.4.057-.518.632a1.312,1.312,0,0,0-1.15.057,2.132,2.132,0,0,1-1.15.288q0-.115.057-.115t.058-.23q-.23,0-.288.115t-.288,0a.266.266,0,0,0,.173.288q.173.057-.057.288-.46,0-.287-.23t-.4-.115a.266.266,0,0,0,.173.287q.173.058.057.4a2.091,2.091,0,0,0-1.667.23,4.115,4.115,0,0,1-1.667.575q-.115.23-.23.23t-.23.23a4.817,4.817,0,0,0-2.472.575,2.7,2.7,0,0,1-2.013.345q-.23,0-.115.057t.115.288a1.406,1.406,0,0,0-1.035.345,3.318,3.318,0,0,0-1.783.4,4.857,4.857,0,0,0-1.15,1.035q-.517.633-1.035,1.208a4.044,4.044,0,0,1-1.208.92q.115.92-.92,1.15a14.039,14.039,0,0,0-2.185-.977,2.28,2.28,0,0,1-1.5-1.667q-.345,0-.345.23a1.189,1.189,0,0,1-.517-.805.877.877,0,0,0-.633-.69,1.962,1.962,0,0,0,.345-1.207,1.633,1.633,0,0,1,.46-1.208q0-.23-.23-.115t-.345,0q-.115-.23.058-.23t.173-.23a1.8,1.8,0,0,0-.46-.345,1.8,1.8,0,0,1-.46-.345.531.531,0,0,1,.575-.345q0-.23-.345-.23a1.205,1.205,0,0,1,.8-.747,1.592,1.592,0,0,0,.92-.747,1,1,0,0,0,1.035-.115,1.682,1.682,0,0,1,1.035-.345q4.37-5.75,8.8-11.385a109.964,109.964,0,0,1,9.6-10.695q3.565-3.565,7.188-7.072a31.522,31.522,0,0,1,8.452-5.808,1.554,1.554,0,0,1,1.438.46,2.753,2.753,0,0,0,1.323.8,4.3,4.3,0,0,0,1.437,1.438,3.316,3.316,0,0,1,1.323,1.552,1.016,1.016,0,0,1,.863.862,1.112,1.112,0,0,1-.4,1.208q.23.23.288,0t.288-.115a.861.861,0,0,0-.115.748,3.8,3.8,0,0,0,.23.632.91.91,0,0,0-.575-.115q-.23.23,0,.4t0,.4q-.23.115-.23-.115a.469.469,0,0,1,.115-.345q-.345-.115-.345.23v.575q.345-.345.46,0a.521.521,0,0,1-.115.575q-.345,0-.23-.115t-.115-.345q-.23.115-.115.518a.883.883,0,0,1,0,.632.1.1,0,0,0,.115-.115Zm-.115-4.83h.23V-56h-.23Zm.46.92a.609.609,0,0,1,0-.518q.115-.287-.23-.173a1.021,1.021,0,0,0-.115.46Q-137.713-54.855-137.368-54.855Zm-.115,1.5q.23.23.288-.173t-.173-.4A.91.91,0,0,0-137.483-53.36Zm-8.855,2.645q-.23,0-.23.115Q-146.338-50.6-146.338-50.715Zm8.4.46a.469.469,0,0,0,.115-.345q0-.23-.23-.115Q-138.058-50.255-137.943-50.255ZM-154.618-33.12q-.115.345.058.172t-.058-.172a6.882,6.882,0,0,1,2.07-.633,7.683,7.683,0,0,0,2.3-.747q1.265-4.025,2.415-7.705t2.415-8.05a39.9,39.9,0,0,0-5.117,4.542q-2.472,2.588-4.887,5-2.415,2.53-4.715,5.175t-4.37,5.52q2.53-.805,4.887-1.61T-154.618-33.12Zm7.36-16.905q-.23,0-.23.115Q-147.257-49.91-147.258-50.025Zm-1.495,1.84a.3.3,0,0,0,.345-.345q-.23-.115-.23.057A.39.39,0,0,1-148.753-48.185Zm9.545.46q.23,0,.4-.4t-.173-.4a.387.387,0,0,1-.173.345Q-139.323-48.07-139.208-47.725Zm-11.615,1.495q.23.115.46-.46A.407.407,0,0,0-150.823-46.23Zm-5.98.575q.115.23.173-.057T-156.8-45.655Zm5.06.345q.115.23.173-.058T-151.743-45.31Zm-.575.46q.345,0,.345-.23Q-152.317-45.08-152.318-44.85Zm12.075.23h.23v-.23h-.23Zm-13.225.345a.227.227,0,0,0,.345-.115q.115-.23-.115-.23,0,.23-.115.23A.1.1,0,0,0-153.467-44.275Zm-.46.46q.23.345.173.058T-153.928-43.815Zm-.115.69q.345,0,.345-.23h-.23q0,.115-.057.115T-154.043-43.125Zm-1.15,1.035Zm14.03.46q.115.345.115,0T-141.163-41.63Zm-15.065.345q0-.23.288-.115t.057-.23a.319.319,0,0,0-.4.057Q-156.458-41.4-156.228-41.285Zm15.755-.23q.115.345.115,0T-140.473-41.515Zm-16.215.805q.115-.345.287-.23a.709.709,0,0,0,.4.115q0-.46-.46-.288T-156.687-40.71Zm15.295.115q.115.345.115,0T-141.393-40.595Zm0,.46h.23v-.23h-.23Zm-15.525.115q.345,0,.345-.23Q-156.918-40.25-156.918-40.02Zm13.685,0q.115.345.115,0T-143.232-40.02Zm1.495.46q0-.115.173-.115t.057-.23a.227.227,0,0,0-.345.115Q-141.967-39.56-141.738-39.56Zm-16.215.69a.691.691,0,0,0-.46.46.407.407,0,0,0,.46-.46h.23v-.23A.2.2,0,0,0-157.952-38.87Zm15.985-.115q.115.345.115,0T-141.967-38.985Zm.23.575h.23v-.23h-.23Zm-21.045.345q.115.345.115,0T-162.783-38.065Zm29.9.23a.42.42,0,0,0,.518-.115q.173-.23.4,0,0-.345-.46-.23T-132.883-37.835Zm-1.265-.23q-.23,0-.23.115Q-134.147-37.95-134.148-38.065Zm.345.23q-.115.345.345.23t.46-.345a1.274,1.274,0,0,0-.4.058A1.274,1.274,0,0,1-133.8-37.835Zm-.805.23q.23,0,.23.057t.23.057q.115-.23-.173-.287T-134.608-37.6Zm2.99.115q0-.115-.23-.345Q-132.078-37.375-131.618-37.49Zm-5.75-.115q-.115,0-.115-.057t-.115-.058q-.23.23-.057.287T-137.368-37.6Zm1.61.23a.1.1,0,0,1,.115.115.1.1,0,0,0,.115.115,1.535,1.535,0,0,0,.4-.288q.173-.172.4.058,0-.575-.46-.287A1.793,1.793,0,0,1-135.758-37.375Zm2.645.345h.575q0-.575-.23-.575Q-132.883-37.6-133.113-37.03Zm.92-.46q.115.345.115,0T-132.193-37.49Zm-27.715.345a.184.184,0,0,1,.115-.173q.115-.058-.115-.173a.184.184,0,0,1-.115.173Q-160.138-37.26-159.908-37.145Zm26.1.345q.23-.23.575,0a.883.883,0,0,1-.115-.345.331.331,0,0,0-.115-.23q.115.46-.23.345T-133.8-36.8Zm-2.76-.23h.23v-.23h-.23Zm4.485,0h.23v-.23h-.23Zm1.5.46a1.108,1.108,0,0,1,1.61,0,1.311,1.311,0,0,0-.46-.69,2.233,2.233,0,0,1-.69.173q-.46.058-.805.115a.655.655,0,0,0-.46.23q-.115.173.115.518l.345-.345q0,.23.173.23T-130.583-36.57Zm-11.96-.46q.115.23.173-.057T-142.543-37.03Zm2.53,0q.115.345.115,0T-140.013-37.03Zm5.175.23q.23-.23.288,0t.287.115q0-.345-.4-.4T-134.838-36.8Zm-8.28-.115q.115.345.115,0T-143.118-36.915Zm5.4,0q.115.345.115,0T-137.713-36.915Zm2.185,0q0,.575.46.575a.524.524,0,0,1-.057-.4q.057-.173-.173-.287Q-135.3-36.915-135.528-36.915Zm-24.38.115Zm21.39,0q.115.345.115,0T-138.518-36.8Zm.345.115h.23v-.23h-.23Zm-4.37.115q.345,0,.345-.23Q-142.543-36.8-142.543-36.57Zm10.58.575a1.141,1.141,0,0,1-.115-.518q0-.287-.345-.287a.715.715,0,0,1,.23.518Q-132.193-35.995-131.963-35.995Zm-7.015-.575q.23.345.173.057T-138.978-36.57Zm5.865,0q.115.345.115,0T-133.113-36.57Zm3.91.46a.524.524,0,0,1-.287-.287.524.524,0,0,0-.287-.288,1.031,1.031,0,0,0,.172.518Q-129.433-35.88-129.2-36.11Zm-6.785-.345q0,.23.173.058T-135.988-36.455Zm5.98,0q.115.345.115,0T-130.008-36.455Zm-6.44.115q.115.345.115,0T-136.448-36.34Zm2.76.115h.345q0-.23-.345-.23Zm1.84-.115q.115.345.115,0T-131.848-36.34Zm-8.625.115q.115.23.173-.057T-140.473-36.225Zm7.705.345q.345,0,.345-.46-.23-.115-.173.115A.279.279,0,0,1-132.768-35.88Zm2.07.115a.765.765,0,0,0,.46-.173q.23-.173,0-.4,0,.23-.288.23T-130.7-35.765Zm-7.82-.115a.1.1,0,0,1,.115-.115.2.2,0,0,0-.23-.23Q-138.633-35.88-138.518-35.88Zm8.625-.23q.115.345.115,0T-129.893-36.11Zm-11.27.115q.115.345.115,0T-141.163-35.995Zm7.13,0Zm-27.255.23h.23v-.23h-.23Zm.575-.115q.23.345.173.057T-160.713-35.88Zm20.815,0q.115.345.115,0T-139.9-35.88Zm6.21.115h.345q0-.23-.345-.23Zm.69-.115a.1.1,0,0,0-.115-.115.1.1,0,0,0-.115.115.184.184,0,0,1,.173.115Q-133-35.65-133-35.88Zm1.955,0q-.345,0-.345.23Q-131.043-35.65-131.043-35.88Zm1.035.115q.115.345.115,0T-130.008-35.765Zm1.15.115h.23v-.23h-.23Zm-32.66,0Zm27.37,0q0-.115-.173-.115t-.173.115q-.115.23.173.23T-134.148-35.65Zm-.8.115q.115.345.115,0T-134.952-35.535Zm2.185,0q0,.23.115.23a.1.1,0,0,1,.115-.115.1.1,0,0,0,.115-.115Zm4.485,0q.115.345.115,0T-128.283-35.535Zm-11.96.115q.115.345.115,0T-140.243-35.42Zm11.04,0q.115.23.173-.058T-129.2-35.42Zm.575,0q.115.345.115,0T-128.628-35.42Zm-5.175.23h.23v-.23h-.23Zm3.45.115q0-.23.288-.115t.057-.23a.319.319,0,0,0-.4.057Q-130.583-35.19-130.353-35.075Zm-10.005-.115q-.345-.23-.287,0T-140.358-35.19Zm5.75.115Zm2.53.115q-.115.575,0,.115T-132.078-34.96Zm2.185.345a.446.446,0,0,0,.518.115q.287-.115.287-.345a.446.446,0,0,0-.518-.115Q-129.893-34.845-129.893-34.615Zm-7.015-.115v.23q.23.23.287-.057t-.173-.288A.1.1,0,0,1-136.908-34.73Zm5.865.115a.9.9,0,0,1-.23.173.9.9,0,0,0-.23.172q.23.23.4.115T-131.043-34.615Zm-.92.115q.115.345.115,0T-131.963-34.5Zm-6.44.23v.23h.23a.1.1,0,0,1,.115-.115v-.23h-.23A.1.1,0,0,1-138.4-34.27Zm5.29.23a.476.476,0,0,0,.518-.057q.173-.173-.173-.287,0,.23-.288.172T-133.113-34.04Zm-4.83-.115q.115.345.115,0T-137.943-34.155Zm3.335.115h.23v-.23h-.23Zm2.76-.115Zm3.335-.115h-.46q-.23.46.115.345T-128.513-34.27Zm-10.58.23q.115.345.115,0T-139.092-34.04Zm4.945.23q.575,0,.575-.345A.531.531,0,0,0-134.148-33.81Zm-6.9,0v.23h.23q.23-.23-.115-.345A.1.1,0,0,1-141.048-33.81Zm.92.115h.23v-.23h-.23Zm-22.54.575-.345-.69v.518Q-163.013-33.005-162.668-33.12Zm26.22-.69q-.115.575.115.345T-136.448-33.81Zm1.265.46a.39.39,0,0,0,.115-.287q0-.173-.23-.173Q-135.3-33.35-135.182-33.35Zm-6.325-.23q.115.345.115,0T-141.508-33.58Zm1.84.115v.23h.23q.23-.23-.115-.345A.1.1,0,0,1-139.668-33.465Zm3.335.46a2.053,2.053,0,0,1,.518-.173.354.354,0,0,0,.287-.4,3.794,3.794,0,0,1-.632.23Q-136.562-33.235-136.333-33.005Zm-27.025,0a.469.469,0,0,0,.115-.345q0-.23-.23-.115Q-163.473-33-163.357-33.005Zm20.47-.115q.23.345.173.057T-142.888-33.12Zm5.635.23h.23v-.23h-.23Zm-26.1.115q.115,0,.115.057t.115.057q0-.115.057-.115t.057-.115q-.115,0-.115-.057t-.115-.057q0,.115-.057.115T-163.357-32.775Zm26.565.575q0,.575.173.46t.288.23a.456.456,0,0,1,.575-.058.456.456,0,0,0,.575-.057q-.345-.575.057-.518t.4-.4a1.71,1.71,0,0,0-.863.172,1.438,1.438,0,0,1-.747.173q0-.46-.115-.46a.318.318,0,0,0-.057.46Q-136.332-31.97-136.793-32.2Zm-27.255,0a1.021,1.021,0,0,1,.46-.115.368.368,0,0,0,.345-.23Q-164.048-32.545-164.048-32.2Zm26.91.345h.23v-.23h-.23Zm.115.345h.23v-.23h-.23Zm-2.415.115q.115.345.115,0T-139.437-31.4Zm1.035.46v-.23q0-.23-.115-.23,0,.115-.345.115a.2.2,0,0,0-.23-.23q0,.345.23.4A2.247,2.247,0,0,1-138.4-30.935Zm-1.61.46q.23.23.345-.288t-.23-.4q.115.23-.057.345T-140.013-30.475Zm.69-.23a.184.184,0,0,1,.115-.173.184.184,0,0,0,.115-.173.227.227,0,0,0-.345.115Q-139.553-30.7-139.323-30.7Zm-2.99,0q.115.345.115,0T-142.312-30.7Zm.69.575q0-.115-.23-.345Q-141.853-30.13-141.622-30.13Zm-.92.23q.345.345.575-.23a.184.184,0,0,1-.173-.115.184.184,0,0,0-.173-.115q0,.23-.173.23T-142.543-29.9Zm-22.425-.345q-.23,0-.23.115Q-164.968-30.13-164.967-30.245Zm21.5.345q.115.345.115,0T-143.463-29.9Zm.46.575q.575,0,.575-.23-.115-.23-.288-.115A.868.868,0,0,0-143-29.325Zm.92-.345q-.23,0-.23.115Q-142.082-29.555-142.083-29.67Zm-12.765.92a.1.1,0,0,0-.115-.115.1.1,0,0,0-.115.115.184.184,0,0,1,.173.115Q-154.848-28.52-154.848-28.75Zm-4.14.345q.115.345.115,0T-158.988-28.4Zm3.68.46q-.23,0-.23.115Q-155.308-27.83-155.308-27.945Zm0,2.3q.575,0,.46-.23Q-155.308-25.875-155.308-25.645Zm-.575.23q.345,0,.345-.23Q-155.882-25.645-155.883-25.415Zm-2.53,0q.115.345.115,0T-158.413-25.415Zm1.955.115q.115.345.115,0T-156.458-25.3Zm-.69.23h-.23a.1.1,0,0,0-.115.115q-.23.23.173.173T-157.148-25.07Zm-2.415.23q.115.345.115,0T-159.562-24.84Zm1.265.23h.46q.23,0,.115-.23h-.575Zm-.69.115q.115.345.115,0T-158.988-24.5Zm-.46.115q-.115.575,0,.115T-159.448-24.38Zm-1.61.805a.184.184,0,0,1,.115-.173q.115-.058-.115-.173a.184.184,0,0,1-.115.173Q-161.288-23.69-161.058-23.575Zm-1.265.345a.319.319,0,0,0,.4-.057q.173-.172-.058-.287,0,.23-.173.172T-162.323-23.23Zm-1.955.575h-.23a.1.1,0,0,0-.115.115q-.115.345.23.23T-164.278-22.655Zm-.46.115h-.23a.1.1,0,0,0-.115.115q-.115.345.23.23T-164.738-22.54Zm-1.725.805q.345,0,.345-.23Q-166.463-21.965-166.463-21.735Zm18.745,4.025a.1.1,0,0,0-.115-.115.1.1,0,0,0-.115.115.184.184,0,0,1,.173.115Q-147.717-17.48-147.717-17.71Zm-.69,1.15q.115.23.173-.058T-148.408-16.56Zm-.115.46a.184.184,0,0,1,.173.115q.057.115.288,0,.115-.23-.173-.287T-148.523-16.1Zm-1.84,2.185q0,.23.115.23a.1.1,0,0,1,.115-.115q0,.345.115.345,0-.23.173-.173t.173-.172q-.23.115-.288,0a.622.622,0,0,0-.287-.23A.1.1,0,0,1-150.363-13.915Zm-2.3,5.865.23-.46q-.23-.115-.345.173T-152.663-8.05Zm-2.645,4.025A3.1,3.1,0,0,1-155.135-5a1.053,1.053,0,0,0,.058-.747,2,2,0,0,0-.4.862Q-155.652-4.255-155.308-4.025Zm1.61-1.15q.115.345.115,0T-153.7-5.175Zm-2.185,1.84q.23-.115.23.115t.23.115a.379.379,0,0,1,0-.4q.115-.173-.115-.4a1.33,1.33,0,0,1-.173.288A1.331,1.331,0,0,0-155.883-3.335Zm18.17-47.61q0-.345.23-.345v.23a.1.1,0,0,0-.115.115Zm-.575,2.645q.345.23.057.23T-138.288-48.3Zm-1.61,5.865q.115-.345.115,0T-139.9-42.435Zm-.575,2.185q.23.115.057.46t-.4.23a.722.722,0,0,0,.173-.287A3.153,3.153,0,0,1-140.473-40.25Zm11.615,1.035q-.115.23-.575.23Q-129.433-39.215-128.857-39.215Zm-1.265.345q.115-.345.115,0T-130.122-38.87Zm4.715-.115q.115.23-.058.23t-.173.115q-.23,0-.115-.23A.227.227,0,0,1-125.408-38.985Zm-.805.23a1.522,1.522,0,0,1-.862.23h-1.093a.862.862,0,0,1,.863-.287Q-126.673-38.755-126.213-38.755Zm-3.565.115q.115-.345.115,0T-129.777-38.64Zm7.59.115h.23v.23h-.23Zm-.92.115h.23q0,.23-.345.23,0-.115.057-.115T-123.108-38.41Zm-.805.115q.345,0,.345.23h-.345Zm-4.025.23q.115-.345.115,0T-127.937-38.065Zm3.22-.115q0,.23-.287.23a1.141,1.141,0,0,0-.518.115q0-.23.288-.23A1.141,1.141,0,0,0-124.718-38.18Zm.69,0q0,.23-.345.23Q-124.373-38.18-124.028-38.18Zm-1.725.23q-.115.23-.288.23a.927.927,0,0,0-.4.115q0,.46.23.46a.368.368,0,0,1-.345.23.663.663,0,0,0-.46.23.318.318,0,0,1-.058-.46.42.42,0,0,1,.517-.115q-.23-.46.115-.69A.575.575,0,0,1-125.753-37.95Zm.115.46q.23-.345.173-.057T-125.638-37.49Zm3.565.345q.115-.345.115,0T-122.073-37.145Zm-3.68,0q.345,0,.345.23h-.345Zm-4.83.575a.2.2,0,0,1-.23-.23A.2.2,0,0,1-130.583-36.57Zm2.07-.23q.23,0,.173.287t-.287.057v-.23A.1.1,0,0,0-128.513-36.8Zm6.1.345q0,.345-.46.345Q-122.878-36.915-122.418-36.455Zm-4.485,0q.115.23-.173.23t-.287.23q-.23-.23,0-.345A1.021,1.021,0,0,1-126.9-36.455Zm4.83.115q0-.115.23-.115Q-121.842-36.34-122.073-36.34Zm-1.035.345a.666.666,0,0,0-.46-.115q.115-.23.287-.23T-123.108-35.995Zm-.92,0q.23-.345.172-.057T-124.028-35.995Zm.46.575Zm.575-.115h.23q0,.23-.345.23,0-.115.058-.115T-122.993-35.535Zm-2.99,1.38a1.137,1.137,0,0,0-.805.057,1.43,1.43,0,0,1-.92.057,5.338,5.338,0,0,1,.92-.287Q-126.1-34.5-125.983-34.155Zm-3.335.92q.115-.345.115,0T-129.318-33.235Zm-1.61.46q-.23,0-.23-.345Q-130.927-33.12-130.928-32.775Zm2.875-.345a.921.921,0,0,1-.69.4,7.41,7.41,0,0,1-.92.057A7.13,7.13,0,0,1-128.053-33.12Zm-2.875.345a.663.663,0,0,0,.46.23,6.1,6.1,0,0,1-1.265.345q-.69.115-1.495.23-.115-.23,0-.288t.115-.287q.23-.115.173.115a.279.279,0,0,0,.173.345.524.524,0,0,0,.287-.287,1.133,1.133,0,0,1,.288-.4q.23.46.345.23a1.8,1.8,0,0,1,.345-.46q.23.115.057.288a.471.471,0,0,0-.173.287A.559.559,0,0,0-130.928-32.775Zm-4.6.69q0,.23-.173.173t-.172.173q-.23-.115-.058-.23A.709.709,0,0,1-135.528-32.085Zm1.61.69q-.345.345-.517.115T-133.918-31.4Zm-1.38.23a.663.663,0,0,1-.46.23Q-135.758-31.165-135.3-31.165Zm-1.265.23q.23.23-.115.23T-136.562-30.935Zm-1.84.46h.23q0,.23-.345.23,0-.115.057-.115T-138.4-30.475Zm-14.26,4.14q.115.23-.46.23Q-153.122-26.335-152.663-26.335Zm1.495,16.215q.23,0,.173.4t-.287.172A.91.91,0,0,1-151.168-10.12Zm-5.4,7.245h.23v.23h-.23Zm.92.92q.345,0,.287.46a1.111,1.111,0,0,1-.173.575,2.248,2.248,0,0,1-.173-.46A1.049,1.049,0,0,1-155.652-1.955Zm.575,0h.23v.23h-.23Zm22.77-2.185q.23-.92.345-1.265a.227.227,0,0,0-.345.115,2.247,2.247,0,0,0-.173.46.853.853,0,0,1-.23.4q-.173.172-.518-.058.805-1.265,1.5-2.53a28.04,28.04,0,0,0,1.265-2.645,1.622,1.622,0,0,0-.518.517q-.287.4-.518.172.23-.575.575-.575a3.989,3.989,0,0,1,.978-2.53,4.19,4.19,0,0,0,1.092-2.07,1.532,1.532,0,0,0-.345.517.758.758,0,0,1-.575.4.861.861,0,0,1,.287-1.035.792.792,0,0,0,.058-1.15,1.6,1.6,0,0,0,.977-.8,6.756,6.756,0,0,1,.632-1.035,1.3,1.3,0,0,0-.115-.92q.345-.115.345-1.035a.622.622,0,0,0,.287-.23.622.622,0,0,1,.287-.23,3.624,3.624,0,0,1,.575-1.782,4.444,4.444,0,0,0,.69-1.552,13.247,13.247,0,0,0,2.243-3.8,15.03,15.03,0,0,1,2.128-3.8q.46-1.15.92-2.127a10.893,10.893,0,0,1,1.15-1.9v-.69a12.656,12.656,0,0,0,2.07-3.507,11.011,11.011,0,0,1,2.07-3.393,7.633,7.633,0,0,1,.978-2.645,13.705,13.705,0,0,0,1.207-2.645,2.477,2.477,0,0,0,1.265-1.38,19.155,19.155,0,0,1,.805-1.84q-.69.115-1.5.173a2.467,2.467,0,0,1-1.265-.173,3.071,3.071,0,0,1-2.185.46,3.35,3.35,0,0,0-2.07.23q0-.23-.115-.23l-.345.345a8.315,8.315,0,0,1-2.357.115,3.535,3.535,0,0,0-2.128.46,9.41,9.41,0,0,0-4.37.115,13.354,13.354,0,0,1-4.6.345,1.72,1.72,0,0,0-1.035-1.15q-.23-1.15-.46-2.415a7.015,7.015,0,0,1,0-2.53q0-.23-.115-.23t-.23-.23a1.6,1.6,0,0,1,.115-.69,1.037,1.037,0,0,0,0-.69q.345-.575.747-1.15a2.11,2.11,0,0,1,1.092-.8h1.61a5.143,5.143,0,0,0,2.242.92,13.419,13.419,0,0,0,2.818.173q1.495-.057,2.932-.173t2.7-.115q5.06-.46,9.832-1.208a46.516,46.516,0,0,1,9.488-.517,3.474,3.474,0,0,1,1.61-.4l1.725.172a4.611,4.611,0,0,1,1.38-.287,3.107,3.107,0,0,1,1.38.173q.575-.345.632-.173t.633.058q.115.23,0,.23t-.115.23q.23,0,.288-.288t.287.173a.659.659,0,0,1,.805-.345q.115.23,0,.287a.622.622,0,0,0-.23.288,1.048,1.048,0,0,1,.805-.115q.345.115.575-.46.345,0,.23.345a.521.521,0,0,0,.115.575,2.1,2.1,0,0,1,1.092.057,1.548,1.548,0,0,0,1.092-.057.649.649,0,0,1,.058.46q-.058.23.517.115a.784.784,0,0,1,.058.517q-.058.288.173.173t.057-.288q-.172-.173.057-.4a1.682,1.682,0,0,1,.575.057q.115.058.345-.172a3.2,3.2,0,0,0,1.38.23q.23.345,0,.4a.272.272,0,0,0-.23.288,1.248,1.248,0,0,0,.46-.23q.115-.115.345.115.115-.23,0-.345a.469.469,0,0,1-.115-.345q.46.115.46.92-.23.23-.287.115t-.4-.115q.23.345.46.345h.69a.417.417,0,0,0,.287-.517q-.058-.4.4-.288.115.23,0,.345a1.338,1.338,0,0,0-.23.345q.115.23.46.115t.345.115q.23,0,.173-.23a1.89,1.89,0,0,1-.058-.46q.345-.115.287.173a2.665,2.665,0,0,0-.057.517.78.78,0,0,1,.92.173,1.156,1.156,0,0,0,1.035.288q.115.23-.115.172a.279.279,0,0,0-.345.173q.23.23.4,0t.4,0q.345,0,.115-.173t0-.172a2.35,2.35,0,0,1,1.035,0,.784.784,0,0,1,.057.517q-.057.288.173.288t.115-.288q-.115-.288.23-.173a.967.967,0,0,0,.115.805,1.635,1.635,0,0,1,.23.92,1.223,1.223,0,0,1-.747.173,1.764,1.764,0,0,0-.747.057,1.869,1.869,0,0,1,0,.92q-.23,0-.23-.345a.3.3,0,0,0-.345-.345,1.419,1.419,0,0,1-1.035.69,8.735,8.735,0,0,1-1.437.115h-1.5a1.962,1.962,0,0,0-1.207.345q-.23.115-.23-.115a.663.663,0,0,0-.23-.46,4.552,4.552,0,0,1-1.667.575,13.478,13.478,0,0,1-1.783.115h-1.84a4.332,4.332,0,0,0-1.725.345q-.23.115-.287-.173t-.288-.287q-.345,0-.345.46a6.838,6.838,0,0,1-1.035-.057q-.345-.058-.69.4a1.858,1.858,0,0,0-1.552-.345,5.24,5.24,0,0,0-1.783.46,1.188,1.188,0,0,0-1.495-.115,3.169,3.169,0,0,1-1.84.345,19.661,19.661,0,0,0-1.955,3.795,23.274,23.274,0,0,1-1.955,3.91v.69q-1.15,1.955-2.185,4.083t-1.955,4.313q-.23-.115-.23.057t-.23.173v.575a12.375,12.375,0,0,0-1.035,1.437,5.766,5.766,0,0,0-.69,1.783q-1.15,1.955-2.243,3.91a41.46,41.46,0,0,0-2.012,4.14,4.3,4.3,0,0,0-1.035,1.782,2.937,2.937,0,0,1-1.265,1.667,1.758,1.758,0,0,1-.575,1.265,26,26,0,0,1-2.53,5.06,43.492,43.492,0,0,0-2.76,4.945,1.141,1.141,0,0,0-.4.345,1.141,1.141,0,0,1-.4.345q.23,1.035-.575,1.15a3.61,3.61,0,0,1-1.035,2.128,3.729,3.729,0,0,0-1.035,2.242.918.918,0,0,0-.518.4.966.966,0,0,1-.632.4q0,.115.23.23t-.115.23q-.23,0-.23-.345a4.535,4.535,0,0,0-.518,1.322,4.342,4.342,0,0,1-.632,1.438,22.421,22.421,0,0,0-1.668,1.61,14.594,14.594,0,0,0-1.437,1.84h-.69a1.657,1.657,0,0,0-.23-1.265.368.368,0,0,0-.345.23q-.115.23-.575.115.23-.575.4-.978a1.9,1.9,0,0,0-.057-1.207q.46-.92.92-1.783A3.742,3.742,0,0,0-133-1.725a2.8,2.8,0,0,0,.8-1.092A1.179,1.179,0,0,0-132.307-4.14Zm41.4-55.085a.524.524,0,0,0,.4.057q.172-.057.058-.287A.663.663,0,0,0-90.908-59.225Zm5.4.92q-.115.575.173.288T-85.5-58.305Zm-.805.23q-.23.23.058,0T-86.308-58.075Zm1.84.46q0-.23-.23,0Zm2.415,1.15a.387.387,0,0,1,.173-.345q.172-.115-.287-.115Q-81.938-56.465-82.053-56.465Zm1.61,0q.115-.23-.057-.23a.39.39,0,0,1-.288-.115A.3.3,0,0,0-80.443-56.465Zm1.725,0q.23.23.23-.057T-78.717-56.465Zm1.035.92q0-.115-.288-.172a.33.33,0,0,0-.4.172.79.79,0,0,0,.4.173Q-77.682-55.315-77.682-55.545Zm-3.68,1.5q-.115.575.173.287T-81.363-54.05Zm-42.665,29.21q-.23.23.058.23T-124.028-24.84Zm-4.14,9.2q.23,0,.115.115h.23q0-.345-.115-.345Zm-1.5,3.91.23.115q0-.345-.23-.345Zm-.46.46q.115.575-.058.747a1.31,1.31,0,0,0-.287.517q.575-.115.632-.517a2.849,2.849,0,0,1,.288-.863A1.28,1.28,0,0,0-130.122-11.27Zm-1.61,6.9q.115-.345-.23-.345Q-131.848-4.37-131.732-4.37Zm43.585-55.315q0,.23-.517.287a1.26,1.26,0,0,1-.862-.173q.115-.23.575-.288A1.147,1.147,0,0,1-88.148-59.685Zm4.715,1.61a.266.266,0,0,1,.287.173q.058.173-.173.287Q-83.663-57.845-83.433-58.075Zm6.21,2.07a.1.1,0,0,1,.115-.115h.115Q-76.993-56-77.223-56Zm-53.015,43.47a2.236,2.236,0,0,1-.46,1.15q-.345-.23-.058-.69T-130.238-12.535Zm-.8,1.495v.23q-.345.115-.23-.173T-131.042-11.04Zm-.92,2.415h.345a2.106,2.106,0,0,1-.46.977,3.242,3.242,0,0,0-.575,1.093q-.345-.46.173-.977A1.539,1.539,0,0,0-131.962-8.625Zm-.345,4.485a1.141,1.141,0,0,0-.115.517q0,.288-.46.288Q-132.883-4.14-132.307-4.14Zm-1.15.115q.345-.115.288.115a.729.729,0,0,1-.173.345Q-133.228-3.565-133.458-4.025Zm-.46,1.035a.2.2,0,0,1,.23.23l-.115.115q-.115,0-.057-.115A.188.188,0,0,0-133.917-2.99ZM-64.8-16.905q.46-.23.518-.115t.4.23q.23-.46-.057-.4t-.287-.173q.46,0,.46-.115l-.23-.23q-.23,0-.23.345l-.23.23a2.556,2.556,0,0,0-.805-.345,1.458,1.458,0,0,1-.69-.345q-.115,0-.058.173t-.173.288a.469.469,0,0,1-.345-.115.469.469,0,0,0-.345-.115q0-.23.115-.288t0-.173q-.115-.345-.173,0t-.287.23q-.115-.23,0-.23t0-.23a.455.455,0,0,1-.288-.058.455.455,0,0,0-.287-.057h-.115v.23q-.115,0-.115.058t-.23.057a.573.573,0,0,0,.115-.575q0,.115-.173.172t-.172-.288a.91.91,0,0,1-.575-.115q-.345,0,0,.345h-.69a.469.469,0,0,1,.115-.345q.115-.115,0-.345-.23-.115-.23.173a.412.412,0,0,1-.23.4.3.3,0,0,1-.345-.345q-.115,0-.058.115t-.173.23q0-.23-.058-.23t-.057-.115a2.081,2.081,0,0,1-1.5-.288,2.815,2.815,0,0,0-1.84-.288,4.029,4.029,0,0,0-1.323-.575q-1.092-.345-1.437.115-.115.115-.345,0a1.021,1.021,0,0,0-.46-.115q.115-.345.23-.287l.345.172a.88.88,0,0,0-.633-.4q-.4-.058-.977-.172,0,.345.287.287a.784.784,0,0,1,.517.057q-.23.46-1.15.115a2.768,2.768,0,0,1-1.265-.805,1.133,1.133,0,0,1-.4.288.973.973,0,0,0-.4.4,3.736,3.736,0,0,1-.92-.287,1.126,1.126,0,0,0-.92.057.408.408,0,0,1-.057-.345q.057-.115-.173-.345a.469.469,0,0,0-.115.345q0,.23-.46.23v-.345q.46,0,.115-.345l-.115.345a.331.331,0,0,0-.23.115q-.115-.23-.518-.23t-.4-.345q-.23.46-.46.23a.871.871,0,0,0-.805-.115l.23.23q-.46.23-.46-.058a.412.412,0,0,0-.23-.4q-.46-.115-.287.115t-.173.23v-.46q-.23-.23-.23.345a.272.272,0,0,1-.288-.23q-.057-.23-.4-.23-.115.345-.575.23a1.026,1.026,0,0,0-.23.747.781.781,0,0,1-.575.748q0-.23-.058-.172a.234.234,0,0,0-.058.172v.115a7.278,7.278,0,0,0-.69,1.61,1.72,1.72,0,0,1-1.035,1.15q0,.23.23,0t.115.23q-.23-.115-.345,0a1.338,1.338,0,0,1-.345.23.608.608,0,0,1,.345.748q-.115.517-.805.287a1.03,1.03,0,0,0-.287.575.853.853,0,0,1-.4.575q-.23-.23.058-.288t.058-.287a.272.272,0,0,0-.287.23,1.017,1.017,0,0,1-.288.46.9.9,0,0,1-.173-.23q-.057-.115-.287-.115-.115,0-.057.057t-.173.172a.883.883,0,0,0,.345.115.883.883,0,0,1,.345.115.5.5,0,0,1-.115.69,1.021,1.021,0,0,1-.115-.46q0-.23-.46-.115a1.532,1.532,0,0,1,.345.517q.115.287-.23.518.115.345.4.115t.173.23a.379.379,0,0,0-.4,0q-.172.115-.4-.115-.115,0-.115.172t-.23.172v-.345q-.115-.115-.173.115t.173.23q.115.46-.23.23t-.345.345q.115.23.23,0t.345,0a.582.582,0,0,1-.518.4.88.88,0,0,0-.632.4.469.469,0,0,1,.115-.345q.115-.115,0-.345a.531.531,0,0,0-.345.575.544.544,0,0,1-.46.575q.115-.345.23-.632a1.412,1.412,0,0,0,.115-.517,5.78,5.78,0,0,0-.805,1.495,7.823,7.823,0,0,1-.805,1.61q-.46-.115-.23-.517a.689.689,0,0,0,.115-.632,1.636,1.636,0,0,1-.345.287,1.2,1.2,0,0,1-.46.057.368.368,0,0,0,.345.23q.23,0,0,.575-.23.115-.173-.172t-.173-.172a2.043,2.043,0,0,0-.173.575.833.833,0,0,1-.518.575q.115-.345,0-.4a.622.622,0,0,1-.23-.287.79.79,0,0,0-.172.69q.057.46-.518.46-.115-.46.173-.518t.173-.287a.448.448,0,0,0-.46.287q-.115.288-.69.288a1.444,1.444,0,0,0,.345-.575q.115-.345-.46-.23a30.956,30.956,0,0,1,2.472-8.337q1.782-3.853,3.048-7.418-.92-1.725-1.725-3.163a21.858,21.858,0,0,1-1.5-3.392,6.988,6.988,0,0,1,3.048-1.782q1.782-.517,3.393-1.092.46-.69.862-1.38t.748-1.265a1.844,1.844,0,0,1-.805-1.092,1.392,1.392,0,0,0-.92-.978q-.46-1.15-1.035-2.358a3.052,3.052,0,0,1,0-2.587,11.77,11.77,0,0,1,3.162-3.968q2.128-1.782,3.507-3.162a16.3,16.3,0,0,0,2.3-1.265,6.055,6.055,0,0,1,2.185-.92.448.448,0,0,0,.46-.287q.115-.288.345.057a15.429,15.429,0,0,1,3.22-1.495,19.742,19.742,0,0,1,3.22-.805.331.331,0,0,0,.115-.23q3.91-.69,7.878-1.322a21.483,21.483,0,0,1,8.107.287v.345q.23-.23.4-.172a1.274,1.274,0,0,0,.4.057v.23a5.546,5.546,0,0,1,2.472,1.208,6.394,6.394,0,0,1,1.553,2.07,17.227,17.227,0,0,1,.977,2.588q.4,1.38.862,2.875.23,2.875-1.495,3.91a19.287,19.287,0,0,1-3.277,3.392,18.041,18.041,0,0,1-4.428,2.7A91.981,91.981,0,0,1-72.162-32.6q-5.635,2.127-11.5,4.082a30.345,30.345,0,0,0,4.37,1.093,38.827,38.827,0,0,1,4.255.977.756.756,0,0,0,.575.173q.23-.058.345.4.46-.23.345-.23,3.8,1.265,8.108,2.587a24.33,24.33,0,0,1,7.647,3.852q.115.23.23.058t.23.057q.345.115,0,.46.345-.115.23-.23.23,0,.23.115t-.23.23a.966.966,0,0,1,.632.4,1.662,1.662,0,0,0,.518.517q0,.115-.288,0a.727.727,0,0,1-.4-.345q-.23,0-.173.288t.287.287a.638.638,0,0,1-.805.115q.115.23,0,.345a.666.666,0,0,0-.115.46q-.23-.115-.115-.4a.609.609,0,0,0,0-.517q-.115.345-.287.115t-.4,0a1.132,1.132,0,0,0,.4.287q.173.058.057.633a.752.752,0,0,1-.345-.345q-.115-.23-.575-.115a1.111,1.111,0,0,1,.173.575,1.584,1.584,0,0,1-.173.92q-.23,0-.115-.4t-.115-.288q-.23-.115-.115.115a.489.489,0,0,1,0,.46q-.575-.115-.575-.345t-.345-.46q-.23,0,0,.115t0,.345a.2.2,0,0,1-.23-.23.2.2,0,0,0-.23-.23q-.23-.23-.23.345a6.279,6.279,0,0,0-1.322-.69q-.633-.23-1.438-.46.23.23.115.4l-.345.517a3.759,3.759,0,0,1-.4-.23.6.6,0,0,0-.518,0Zm-3.1-32.43q0,.345-.115.345a49.346,49.346,0,0,0-9.66,2.3,1.3,1.3,0,0,1,.115.92,26.405,26.405,0,0,1-1.84,4.2q-1.15,2.127-2.185,4.313,5.865-2.185,11.442-4.428a50.129,50.129,0,0,0,10.292-5.578,1.409,1.409,0,0,1,.747-.8.9.9,0,0,0,.518-.92,3.4,3.4,0,0,0-2.07-.287,3.359,3.359,0,0,1-2.185-.4,2.5,2.5,0,0,1-1.265.345,2.122,2.122,0,0,1-1.61-.345q-.115.575-.977.517A5.491,5.491,0,0,1-67.908-49.335Zm2.415,13.34q0-.115-.23.115A.331.331,0,0,1-65.493-35.995Zm-11.615,4.37q.23.345.23,0T-77.107-31.625Zm-5.75,2.415q.23.345.23,0T-82.857-29.21Zm5.75,2.875q.23.345.23,0T-77.107-26.335Zm9.085,2.53q-.23.23.057,0T-68.022-23.805ZM-82.628-22.08q-.23.23.058,0T-82.628-22.08Zm-3.1.23q.23.345.23,0T-85.732-21.85Zm2.875.23q0-.46-.23,0Q-82.857-21.735-82.857-21.62Zm5.29.115q.23.23.23-.057T-77.568-21.505Zm-5.175.345q.115.23.287.057t-.287-.057v-.23h-.23Zm2.99.23q.23-.23-.115-.287t-.345.172q.23-.115.287,0A.184.184,0,0,0-79.753-20.93Zm1.955-.23q0-.115-.23.115A.331.331,0,0,1-77.8-21.16Zm.46.115q-.345-.345-.287-.058T-77.338-21.045Zm-4.6.115q.23.23.23-.058T-81.937-20.93Zm2.53,0q.23.345.23,0T-79.408-20.93Zm-2.07.115q.23.23.23-.058T-81.478-20.815Zm2.3.115h.23v-.23h-.23Zm2.3,0h.345q.23-.46-.345-.23Zm.69.115h.23v-.23h-.23Zm2.07,0q.23.345.23,0T-74.118-20.585Zm.46.69h.23v-.23h-.23Zm14.835.115q.23.345.23,0T-58.823-19.78Zm-12.305.345q-.115.46.173.23T-71.128-19.435Zm.46.345h.23v-.23h-.23Zm1.38,0h.23v-.23h-.23Zm.345,0h.23v-.23h-.23Zm.69.115q.23,0,.23.115,0-.46-.23-.345Zm8.97.115h.23v-.23h-.23Zm-8.165.115q.23.23.23-.057T-67.448-18.745Zm.69.115q0-.115-.23.115A.331.331,0,0,1-66.757-18.63Zm-24.265.575a.5.5,0,0,0,.4-.23q.172-.23-.173-.23,0,.23-.115.23T-91.022-18.055Zm24.61-.345q0-.115-.23.115A.331.331,0,0,1-66.413-18.4Zm.23.115q.23.23.23-.058T-66.183-18.285Zm4.6-.115q0-.115-.23.115A.331.331,0,0,1-61.583-18.4Zm-3.8.46q.115-.46-.345-.345,0,.23.173.23T-65.378-17.94Zm.46.23q.115-.46-.23-.46A.663.663,0,0,0-64.918-17.71Zm4.715.23a1.338,1.338,0,0,1,.23-.345.331.331,0,0,0,.115-.23.3.3,0,0,0-.4.115A.318.318,0,0,0-60.2-17.48Zm-31.51-.345q.23.345.23,0T-91.713-17.825Zm25.185,0q.23.345.23,0T-66.528-17.825Zm4.83,0q.23.345.23,0T-61.7-17.825Zm-2.99.23q.23.345.23,0T-64.687-17.595Zm4.83.115a.5.5,0,0,1,.4.23q.173.23.287-.115-.23,0-.345-.288T-59.858-17.48Zm1.035-.115q-.23.23.058,0T-58.823-17.595Zm-2.185.23q.23.345.23,0T-61.008-17.365Zm.69.115q.23.345.23,0T-60.318-17.25Zm.345.23q.23.23.23-.057T-59.973-17.02Zm-1.38.23q.23.345.23,0T-61.353-16.79Zm1.84.115q.46,0,.345-.23h-.23A.331.331,0,0,1-59.513-16.675Zm-32.43.575q.46,0,.46-.23Q-91.713-16.445-91.943-16.1ZM-93.9-13.8q.115-.46-.345-.345A.3.3,0,0,0-93.9-13.8Zm-4.83,4.37q-.345-.115-.46,0t-.46,0q0,.345.517.288T-98.728-9.43Zm18.055-11.04q.23-.23.23-.115Zm.345.115q.23-.46.23,0Q-80.1-20.47-80.327-20.355Zm.92.23q-.23-.115-.058-.287T-79.408-20.125Zm-10.12,0v-.115h.115A.1.1,0,0,1-89.528-20.125Zm10.12,0q.23-.115.173,0T-79.408-20.125Zm3.68.345a.8.8,0,0,0-.345.058.719.719,0,0,1-.46-.058.538.538,0,0,1,.4-.288.33.33,0,0,1,.4.173Zm-1.725.115q0-.23.287-.172t.058.287a.1.1,0,0,0-.115-.115Zm1.725-.115h.46q.23,0,0,.23,0-.23-.173-.172A.26.26,0,0,1-75.728-19.78Zm.69.23q0-.23.288-.172t.057.288a.1.1,0,0,0-.115-.115Zm.92,0q.115.345-.058.173T-74.118-19.55Zm-1.725.23q.23-.46.23,0Q-75.613-19.435-75.842-19.32Zm1.955.115q.23-.23.23-.115Zm.46,0q.23-.345.23,0T-73.428-19.2Zm.46.115q.23-.345.23,0T-72.967-19.09Zm2.3.46a.331.331,0,0,0,.23.115q.115,0,0,.23a.376.376,0,0,0-.46-.115l.115-.23Zm.46.345q.23-.46.23,0Q-69.978-18.4-70.208-18.285Zm1.38-.115h.23v.23h-.23Zm.92.23q.345.115.115.288T-67.908-18.17Zm-1.38.23q.23-.23.23-.115Zm3.565.46q0,.46-.173.23T-65.723-17.48Zm8.28.115q.23-.115.23.345,0-.115-.23-.115Zm-8.165.23q.23-.23.23-.115Zm.575.115q-.345.115-.173-.057T-65.033-17.02Zm0,0q.23,0,.23.115T-65.033-17.02Zm1.61,0q.23-.115.287,0t.287.115a.331.331,0,0,1-.115.23.666.666,0,0,0-.115.46q-.23-.23-.172-.4T-63.423-17.02Zm5.06.805q-.23,0-.287-.288a.436.436,0,0,1,.057-.4Q-58.017-16.56-58.363-16.215Zm-4.255-.46q.115-.23.23-.173a.184.184,0,0,1,.115.173q.115.23-.115.23A.2.2,0,0,1-62.618-16.675Zm.46.115q.345.23.057.23T-62.158-16.56Zm3.795.345q.46,0,.173.287T-58.363-16.215Zm-33.58.8q.23-.23.23-.115Zm-.23.23h.23v.23h-.23Zm-.23.92q.23-.345.23-.057T-92.4-14.26Zm-3.1,2.875q.115.115,0,.173t-.115.287q-.115,0-.115-.23a.331.331,0,0,1,.115-.23Zm-.805.805h.23v.23h-.23Zm78.66-31.74a.774.774,0,0,0,.69-.345q-.115-.115-.4,0t-.288.345H-18q.575-.46,1.092-.862A7.224,7.224,0,0,1-15.7-43.93a.379.379,0,0,1,0-.4.941.941,0,0,0,.115-.517A9.054,9.054,0,0,0-13-46.977a31.965,31.965,0,0,0,2.013-2.818,2.157,2.157,0,0,0-.978-.23h-1.092a.2.2,0,0,1-.23-.23q-2.645.23-5.175.518a52.016,52.016,0,0,0-5.175.862.937.937,0,0,1-.69.23.937.937,0,0,0-.69.23,49.908,49.908,0,0,0-9.2,2.76,16.277,16.277,0,0,0-2.357.748A9.9,9.9,0,0,0-38.7-43.815a5.712,5.712,0,0,0,.633,1.15,1.459,1.459,0,0,1,.287,1.15q-1.61,1.84-3.335,3.507T-44.448-34.5a.318.318,0,0,0,.46.058.5.5,0,0,0,.23-.4q3.565-.69,6.1-1.035t5.52-.69a32.026,32.026,0,0,1,3.738-.23,10.01,10.01,0,0,1,3.392.575q.23.115.173-.057t.172-.288q.345,0,.173.173a.319.319,0,0,0-.058.4q.575,0,1.323.057a11.179,11.179,0,0,1,1.323.173q0,.46-.345.23a2.244,2.244,0,0,0,1.208.517,4.834,4.834,0,0,1,1.437.4q-.115.345.288.69a2.1,2.1,0,0,0,.862.46,4.275,4.275,0,0,1,.115,1.035.815.815,0,0,0,.575.805q-.23.46,0,.69a.686.686,0,0,1,.115.69q-.46-.23-.46.69a47.432,47.432,0,0,0-14.548.173,138.166,138.166,0,0,0-13.858,3.047,4.634,4.634,0,0,1-.46,1.38q0,.23.345,0t.23.115q-.46.115-.345.345l.23.46a16.916,16.916,0,0,1-3.737,2.07,33.447,33.447,0,0,1-4.312,1.38.524.524,0,0,0-.057.4q.058.172-.173.288a1.71,1.71,0,0,0-.862.172,1.232,1.232,0,0,1-.862.057,1.562,1.562,0,0,0-.978-1.092,1.918,1.918,0,0,1-1.092-1.208A1.489,1.489,0,0,0-58.823-23a1.5,1.5,0,0,1-.115-1.265,1.786,1.786,0,0,1-.345-1.84q.345-1.035.575-1.955a122.5,122.5,0,0,1,8.4-10.12,3.021,3.021,0,0,1-.46-.288,2.015,2.015,0,0,0-.575-.287,7.727,7.727,0,0,1-.4-1.955,5.491,5.491,0,0,0-.632-2.07,2.35,2.35,0,0,0,.115-.747.7.7,0,0,0-.46-.632,2.87,2.87,0,0,1,.632-.978,2.751,2.751,0,0,0,.632-1.208,125.471,125.471,0,0,1,17.135-7.59,72.776,72.776,0,0,1,18.4-3.91.622.622,0,0,1,.288.23q.057.115.287.115a1.34,1.34,0,0,1,1.092-.287,2.35,2.35,0,0,1,1.092.287q.23-.115.23-.173t.23-.173a.2.2,0,0,1,.23.23q0,.23.23.115a4.114,4.114,0,0,1,2.128.287,3.732,3.732,0,0,0,1.553.4.464.464,0,0,1,.23.46,3.563,3.563,0,0,1,1.9,1.5,7.685,7.685,0,0,1,.92,2.242,13.419,13.419,0,0,1,.345,2.53q.058,1.323.173,2.358A1.161,1.161,0,0,1-5.52-46.69a1.058,1.058,0,0,0-.518.92h-.345A3.635,3.635,0,0,1-7.82-44.562,4.1,4.1,0,0,0-9.258-43.47a16.259,16.259,0,0,0-2.243.69q-1.208.46-2.127.92a1.878,1.878,0,0,0-1.668.4,3.8,3.8,0,0,1-1.782.748A.629.629,0,0,1-16.56-41q.4-.058.287-.632-.23-.23-.4.115t-.748.115a1.133,1.133,0,0,1,.4-.287,1.133,1.133,0,0,0,.4-.288,3.988,3.988,0,0,0-1.61.805,3.988,3.988,0,0,1-1.61.805,1.562,1.562,0,0,1,.978-1.092A2.794,2.794,0,0,0-17.653-42.32Zm1.84-15.295q-.23.23-.23.115Q-15.813-57.5-15.813-57.615Zm-.575,14.49q-.345-.115-.172.057t.172-.057q.23,0,.115-.057T-16.388-43.125Zm.23,1.61q.575,0,.575-.46h-.345A.663.663,0,0,1-16.158-41.515Zm.23-2.76q.115.345-.057.287t-.287.172q-.23-.115-.058-.287A.552.552,0,0,1-15.928-44.275Zm-.575.46q0,.46-.46.23Zm-1.5,1.5a18.843,18.843,0,0,1-2.127,1.438,14.763,14.763,0,0,1-2.358,1.093q1.035-.69,2.127-1.323T-18-42.32Zm1.38.92q.115-.345.115,0T-16.618-41.4Zm-1.84.92a2.788,2.788,0,0,0-.345.4q-.115.173-.575.058a2.973,2.973,0,0,1,.8-.747,6.514,6.514,0,0,1,1.035-.518q0,.46-.345.518A1.03,1.03,0,0,0-18.458-40.48Zm-4.83,1.955a4.1,4.1,0,0,1,1.438-1.092q.862-.4,1.782-.862a2.571,2.571,0,0,1-1.38,1.15A19.155,19.155,0,0,0-23.288-38.525Zm4.83-1.955.23.23h-.23Zm1.15.115a24.245,24.245,0,0,1-2.3,1.5,8.209,8.209,0,0,1-2.645,1.035,1.1,1.1,0,0,1,.633-.46,1.027,1.027,0,0,0,.632-.575,1.048,1.048,0,0,0,.805-.115,6.042,6.042,0,0,0,.92-.575,5.029,5.029,0,0,1,.978-.575A2.412,2.412,0,0,1-17.308-40.365Zm-2.53.345q.345,0,.345.23h-.345Zm-2.645.23a2.159,2.159,0,0,1-.862.69q-.517.23-1.092.46a2.159,2.159,0,0,1,.862-.69Q-23.058-39.56-22.483-39.79Zm.92.92a1.379,1.379,0,0,1,.69-.518,3.943,3.943,0,0,0,.805-.4,1.027,1.027,0,0,1-.632.575A5.048,5.048,0,0,0-21.563-38.87Zm0,0q0,.345-.173.173T-21.563-38.87Zm-2.185.46q-.23,0-.058-.173T-23.748-38.41Zm.46-.115q0,.115-.345.115,0-.115.057-.115t.057-.115q.115,0,.115.057T-23.288-38.525Zm-.46.115h.115a.234.234,0,0,1-.058.172Q-23.748-38.18-23.748-38.41Zm-.115.115a.266.266,0,0,1-.172.288.722.722,0,0,0-.288.173q-.23-.115,0-.23Zm1.5.575a.554.554,0,0,1-.46.4,1.03,1.03,0,0,0-.575.288q-.23-.23.288-.4A6.269,6.269,0,0,0-22.368-37.72ZM-5.233-23.805a3.816,3.816,0,0,1-.4.805,4.729,4.729,0,0,0-.4.69,7.41,7.41,0,0,0-.92.058.865.865,0,0,0-.69.518v-.575q-.345.23-.288.518t-.287.517a4.344,4.344,0,0,1-2.185.115,2.007,2.007,0,0,0-1.725.345q-.23.115-.23-.058a.39.39,0,0,0-.115-.288q-.23.23-.173.4t-.172.4q-.46.23-.518-.057a1,1,0,0,0-.287-.518q-.23-.115-.173.173a.436.436,0,0,1-.057.4.288.288,0,0,1-.46,0q-.23-.23-.23.115a.227.227,0,0,1-.345-.115.752.752,0,0,0-.345-.345q-.345-.115-.287.23t-.288.23q.23-.345-.058-.46a.609.609,0,0,0-.517,0q-.115.345.115.288t.115.172q-.23-.23-.748.115t-.517-.46q-.23.115-.23.575-.575-.23-.46.058t-.23.287a1.966,1.966,0,0,0-.345-.92q-.23.115-.058.345t-.057.345a.318.318,0,0,0-.46-.058.807.807,0,0,1-.69.058l.23.23q-.23.345-.345,0t-.345-.23q-.23.115-.057.287t-.057.288q-.23,0-.23-.172t-.23-.288a.331.331,0,0,1-.23.115.478.478,0,0,0-.173.46.478.478,0,0,1-.172.46q-1.265.23-2.358.345a12.279,12.279,0,0,0-2.243.46q-.23,0-.115.23t0,.345q-.575-.345-1.5.23t-1.38-.115a.469.469,0,0,0-.115.345,1.762,1.762,0,0,0-1.208.23q-.633.345-1.093.575a20.2,20.2,0,0,0-4.6,1.15,20.2,20.2,0,0,1-4.6,1.15,3.759,3.759,0,0,0-.4.23,3.759,3.759,0,0,1-.4.23,27.263,27.263,0,0,0-6.21,1.84q-1.495.46-3.162.863a8.2,8.2,0,0,0-2.932,1.323,1.049,1.049,0,0,0-.575-.058q-.23.058-.575.173a.331.331,0,0,0-.115-.23,1.338,1.338,0,0,0-.345.23q-.115.115-.575,0a17.055,17.055,0,0,1-.805-2.243,6.772,6.772,0,0,1-.115-2.818q.23,0,.23.058t.115.057q-.345-.8.518-.977a1.989,1.989,0,0,0,1.322-.862q0-.23-.173,0t-.057-.23q5.52-1.955,11.557-3.853a77.745,77.745,0,0,1,12.708-2.817.623.623,0,0,1,.575-.172.552.552,0,0,0,.575-.288q.23,0,.23.115t.23.115q2.53-.345,5.635-.69t6.325-.517q3.22-.172,6.325-.057A39.907,39.907,0,0,1-5.233-23.805Zm-1.15.575h.23v-.23h-.23Zm-15.525,4.255a.1.1,0,0,1,.115-.115.2.2,0,0,0-.23-.23Q-22.023-18.975-21.908-18.975Zm.805-.345a.1.1,0,0,1,.115-.115.1.1,0,0,1,.115.115q0,.23-.057.115A.184.184,0,0,0-21.1-19.32ZM65.953-75.67h-.115q0,.115.058.115t.058-.115q.23-.115.23.057t.23.173a1.414,1.414,0,0,0-.632.46q-.288.345-.518.115a.942.942,0,0,0,.345-.575,5.269,5.269,0,0,0-.69.287,2.189,2.189,0,0,0-.575.4q.115.23.345,0a.287.287,0,0,1,.46,0,2.279,2.279,0,0,1-1.38.978,1.33,1.33,0,0,0-1.035,1.092,2.254,2.254,0,0,0-.518.23.857.857,0,0,1-.633,0,2.513,2.513,0,0,0-.575.517,1.232,1.232,0,0,1-.69.4,3.547,3.547,0,0,1-1.61,1.38,2.85,2.85,0,0,0-1.495,1.5,1.2,1.2,0,0,0-.69.115q.115.345-.345.747a1.322,1.322,0,0,1-.69.4.407.407,0,0,1-.46.46q0,.115.058.115t.057.115q.115.23.23,0a.227.227,0,0,1,.345-.115,2.08,2.08,0,0,1-1.092,1.38,1.023,1.023,0,0,0-.633,1.265q-.345.23-.46.173a3.755,3.755,0,0,0-.575-.173,5.042,5.042,0,0,1-.748.978,4.178,4.178,0,0,0-.748,1.092q-.345,0-.345.23-.46,0-.575.23a.752.752,0,0,1-.345.345.769.769,0,0,0-1.035.115,8.637,8.637,0,0,1-.92.805q0,.345.23.115t.23,0a4.479,4.479,0,0,1-1.322,1.092,2.376,2.376,0,0,0-1.093,1.323q.23.115.288-.288t.172.173q.345.115.287-.23t.4-.23a.8.8,0,0,1-.748.978,1.7,1.7,0,0,1-1.208-.057,3.645,3.645,0,0,0-1.035,1.38q.115.23.345-.115t.46-.115a3.769,3.769,0,0,1-.46.575,3.769,3.769,0,0,0-.46.575.691.691,0,0,0-.46.46q0,.23.46.23,0,.23-.287.345t-.287.345a1.245,1.245,0,0,1-.46-.575,1.682,1.682,0,0,0-.805.575q-.23.345-.805.115,0,.805.748.518t.748-.862a1.128,1.128,0,0,1-.575,1.38q-.8.46-1.38.805v-.46a.369.369,0,0,0-.4.345.578.578,0,0,1-.287.46.272.272,0,0,1-.287-.23.272.272,0,0,0-.288-.23.629.629,0,0,1-.23.862,3.99,3.99,0,0,0-.69.518,1.021,1.021,0,0,0,.115.46.741.741,0,0,1,0,.575q-.345,0-.345-.23a.368.368,0,0,0-.23-.345q-.46.23-.115.4t.345.4l-.4.4a.892.892,0,0,1-.632.173,2.3,2.3,0,0,1-.92,1.495,8.274,8.274,0,0,0-1.265,1.035.368.368,0,0,0,.345.23q.23,0,.23.345a.731.731,0,0,0-.575.46,1.443,1.443,0,0,1-.345.575.1.1,0,0,1-.115-.115.1.1,0,0,0-.115-.115q-.345.115-.23.345a1.021,1.021,0,0,1,.115.46,1.031,1.031,0,0,0-.69.69q-.115.46-.805.46a1.262,1.262,0,0,1,.46-.805.559.559,0,0,0-.69.345.659.659,0,0,1-.805.345v.575a.932.932,0,0,0-.92.805,5.406,5.406,0,0,0,1.38-1.035,7.05,7.05,0,0,1-.69,1.265,8.274,8.274,0,0,1-1.035,1.265q-.46,0-.46-.23a.2.2,0,0,0-.23.23.2.2,0,0,1-.23.23q-.46,0-.23-.345-.345,0-.345.288t-.345.287q.23.575.4.173t.4-.173a5.722,5.722,0,0,1-1.38,2.415,9.491,9.491,0,0,1-2.185,1.61.7.7,0,0,1-.172.518.476.476,0,0,0-.058.517q-.69,0-.69.46h-.345a2.96,2.96,0,0,1-1.035,2.645.469.469,0,0,0,.115.345q.115.115,0,.345a1.009,1.009,0,0,0-1.207.518,3.247,3.247,0,0,1-1.208,1.092,1.43,1.43,0,0,1-.058.92,6.428,6.428,0,0,1-.4.69q-.115,0-.345-.23-.23.115-.058.23t.058.345a2.884,2.884,0,0,1-1.61.345.368.368,0,0,0,.23.345.368.368,0,0,1,.23.345q0,.23-.115.287t0,.288a.91.91,0,0,1-.575.115q.23.92-.46,1.15a2.856,2.856,0,0,0,.115-1.035.813.813,0,0,0-.345,1.15q-.46.115-.46.46V-23a1.656,1.656,0,0,0-.862.747,1.284,1.284,0,0,1-.978.633,1.127,1.127,0,0,1-.23,1.035,4.569,4.569,0,0,1-.69.575,2.053,2.053,0,0,0-.575.575.965.965,0,0,0,0,.92.622.622,0,0,0-.288.23q-.057.115-.287,0v.575a.79.79,0,0,0-.69.517q-.115.4-.69.4a11.434,11.434,0,0,0-1.035,1.782,2.126,2.126,0,0,1-1.61,1.208,1.226,1.226,0,0,1-.115.632.558.558,0,0,1-.345.23.729.729,0,0,0-.345.172.666.666,0,0,0-.115.46H8.683q0,.23.057.23t.057.23A9.376,9.376,0,0,1,7.13-10.637,6.846,6.846,0,0,0,5.578-9.43a2.262,2.262,0,0,0-1.207.4,3.588,3.588,0,0,1-1.437.517q-.92-.115-1.667-.172T-.4-8.855a7.3,7.3,0,0,1-2.013-.69A14.9,14.9,0,0,0-4.2-10.35a3.309,3.309,0,0,0-1.955-1.38,4.39,4.39,0,0,1-.977-3.45q.172-2.185.4-4.37a3.84,3.84,0,0,0,.345-1.725h.23a15.268,15.268,0,0,1,.862-4.658A27.491,27.491,0,0,0-4.082-30.36a2.922,2.922,0,0,0,.575-1.5,15.517,15.517,0,0,1,.345-1.84h.23a23.581,23.581,0,0,1,1.61-4.888,23.2,23.2,0,0,0,1.61-5q.345.23.23-.173t.23-.287a17.406,17.406,0,0,1,1.38-4.2,21.617,21.617,0,0,0,1.495-4.2,19.7,19.7,0,0,0,1.84-4.37q.805-1.035,1.495-2.128A4.324,4.324,0,0,1,9.028-60.6a.354.354,0,0,1,.4.287q.057.287.633.058a.666.666,0,0,0,.115.46,3.143,3.143,0,0,1,1.38.517q.575.4,1.092.805t1.035.862a2.462,2.462,0,0,0,1.322.575.966.966,0,0,0,.4.632.966.966,0,0,1,.4.632q-.92,1.38-1.84,2.818a14.123,14.123,0,0,0-1.495,3.163h-.345L11.96-48.76q-.057.345-.632.575a.376.376,0,0,1,.115.46,1.037,1.037,0,0,0,0,.69.234.234,0,0,0-.172.058.234.234,0,0,1-.172.057,12.06,12.06,0,0,1-.978,2.875,12.06,12.06,0,0,0-.977,2.875A5.466,5.466,0,0,0,8.4-38.985,2.42,2.42,0,0,1,7.3-37.145q.23.23,0,.805-.115,0-.345-.23-.345.23,0,.518t-.23.172q.46.345.23.633a.658.658,0,0,0,0,.747A5.33,5.33,0,0,0,6.1-32.487a13.61,13.61,0,0,1-.632,2.242.33.33,0,0,1-.4.173q-.288-.057-.288.173.115.345.23.172t.345.058q-.23.23-.345.23A19.607,19.607,0,0,1,4.2-25.7a20.056,20.056,0,0,0-.805,3.507q-.23,0-.23.058t-.115.057A3.169,3.169,0,0,1,2.7-19.952a3.7,3.7,0,0,0-.345,2.358q5.865-7.015,11.5-14.088T25.818-45.31q.23.115.288-.115t.4-.115a6.356,6.356,0,0,1,2.415-2.875,8.7,8.7,0,0,0,2.645-2.645q.345.115.4-.057a.266.266,0,0,1,.287-.173q-.115-.23,0-.345a.469.469,0,0,0,.115-.345,51.772,51.772,0,0,0,6.153-5.175,43.793,43.793,0,0,1,6.382-5.175.923.923,0,0,1,.863-.805.968.968,0,0,0,.862-.92,3.336,3.336,0,0,0,1.322-.69q.518-.46,1.093-1.035,3.1-1.955,6.095-4.2a38.2,38.2,0,0,1,6.325-3.853,1.535,1.535,0,0,1,.287-.4l.4-.4a2.747,2.747,0,0,0,1.84-.69,4.291,4.291,0,0,1,2.07-.92q.115.23-.058.287T65.953-75.67Zm-3.105,1.955a.517.517,0,0,0,.517-.058q.287-.172.058-.4a.368.368,0,0,1-.345.23A.2.2,0,0,0,62.848-73.715ZM54.8-67.16a.1.1,0,0,1,.115-.115q.115,0,.115-.23a.227.227,0,0,0-.345.115Q54.567-67.16,54.8-67.16Zm.115.92q0-.575-.23-.46Q54.453-66.47,54.913-66.24Zm-1.265.115q-.115.575.115.345T53.648-66.125Zm-1.265.69a.384.384,0,0,0,.518.058,1.012,1.012,0,0,0,.4-.4.456.456,0,0,0-.575-.057Q52.382-65.665,52.382-65.435Zm-.805.92q-.23,0-.23.115Q51.577-64.4,51.577-64.515Zm-1.725,1.38q.23.23.23-.115t-.23-.23Zm-2.415,2.07q.23.23.4-.115a.553.553,0,0,1,.518-.345q0-.46-.115-.46a.554.554,0,0,1-.46.4Q47.438-61.525,47.438-61.065ZM39.273-51.29a.469.469,0,0,0,.115-.345q0-.23-.23-.115Q39.158-51.29,39.273-51.29Zm-1.035.92a.387.387,0,0,0,.345-.173q.115-.173-.115-.288,0,.23-.173.23T38.238-50.37Zm-.92,2.07q0-.23.172-.23t.058-.23q-.23-.115-.345.172T37.318-48.3Zm-1.265.115h.23v-.23h-.23Zm-.23.92v.23h.23a.1.1,0,0,1,.115-.115v-.23h-.23A.1.1,0,0,1,35.823-47.265Zm-.46.23q-.115.575.115.345T35.362-47.035Zm0,1.495q0-.23.173-.23t.057-.23h-.345Q35.248-45.54,35.362-45.54ZM9.718-43.815a.3.3,0,0,0-.345-.345A.3.3,0,0,0,9.718-43.815ZM6.268-36.34q-.115-.345.115-.46t-.115-.345a.5.5,0,0,1-.23.4Q5.808-36.57,6.268-36.34Zm-.345,2.185a.631.631,0,0,0,.517-.575,1.149,1.149,0,0,1,.288-.69H6.383a1.96,1.96,0,0,1-.288.69A.931.931,0,0,0,5.923-34.155Zm-1.035,2.3v-.46H4.543Q4.543-31.74,4.888-31.855Zm.575.23q-.23,0-.23.115Q5.463-31.51,5.463-31.625ZM4.428-29.21q0-.345-.058.115T4.428-29.21Zm-.115.69h.23v-.23h-.23Zm15.87,1.265a.234.234,0,0,1-.172-.057.234.234,0,0,0-.173-.058q-.23.23.058.288T20.183-27.255ZM2.243-24.38v.23h.345V-24.5h-.23A.1.1,0,0,1,2.243-24.38ZM1.9-22.77q.23.115.23-.345t-.115-.46a.709.709,0,0,1-.115.4A.379.379,0,0,0,1.9-22.77Zm-.23,2.3a.987.987,0,0,0,.173-.517q.057-.4-.173-.517Q1.438-20.7,1.668-20.47ZM66.757-75.9q.23-.115.23.23t-.23.115Zm-9.2,6.9q-.115-.23.46-.23Q58.018-69,57.558-69Zm0,0a.1.1,0,0,1-.115.115Q57.327-68.885,57.558-69Zm.23.575a1.05,1.05,0,0,1-.69.978,1.205,1.205,0,0,0-.8.748.407.407,0,0,1-.46-.46q.575,0,.8-.69T57.787-68.425ZM51.463-62.1h.345a1.835,1.835,0,0,1-1.035.805.266.266,0,0,1,.173-.288.266.266,0,0,0,.173-.287Q51.463-61.87,51.463-62.1Zm-3.22,2.99a.931.931,0,0,1-.173.575q-.173.23-.4,0Q47.668-59.225,48.243-59.11Zm-2.415,2.76a.234.234,0,0,1,.172.058.234.234,0,0,0,.173.057,1.031,1.031,0,0,1-.69.69q-.115-.345.058-.46A.868.868,0,0,0,45.828-56.35Zm-1.5,1.15a.234.234,0,0,1,.173.057.234.234,0,0,0,.172.057q0,.345-.345,0Zm-1.955,3.1q.115-.345.115,0T42.378-52.1Zm-1.725.805q0,.46-.575.69-.23-.345,0-.518A.931.931,0,0,1,40.653-51.29Zm-2.53,3.335a.666.666,0,0,0-.115.46q-.23,0-.172-.23A.272.272,0,0,1,38.123-47.955Zm-1.38.92q.345.23.115.69t-.46.46q-.23-.23.058-.46A.831.831,0,0,0,36.743-47.035ZM25.588-34.155h.575v.46Q25.588-33.58,25.588-34.155Zm-3.45,5.06h.345q.115.23-.057.288a.266.266,0,0,0-.173.287Q22.138-28.52,22.138-29.095ZM72.277-42.32a.774.774,0,0,0,.69-.345q-.115-.115-.4,0t-.288.345h-.345q.575-.46,1.092-.862a7.225,7.225,0,0,1,1.208-.748.379.379,0,0,1,0-.4.941.941,0,0,0,.115-.517,9.054,9.054,0,0,0,2.587-2.127,31.963,31.963,0,0,0,2.013-2.818,2.157,2.157,0,0,0-.978-.23H76.878a.2.2,0,0,1-.23-.23q-2.645.23-5.175.518a52.016,52.016,0,0,0-5.175.862.937.937,0,0,1-.69.23.937.937,0,0,0-.69.23,49.908,49.908,0,0,0-9.2,2.76,16.277,16.277,0,0,0-2.357.748,9.9,9.9,0,0,0-2.128,1.092,5.712,5.712,0,0,0,.633,1.15,1.459,1.459,0,0,1,.287,1.15q-1.61,1.84-3.335,3.507T45.482-34.5a.318.318,0,0,0,.46.058.5.5,0,0,0,.23-.4q3.565-.69,6.1-1.035t5.52-.69a32.026,32.026,0,0,1,3.738-.23,10.01,10.01,0,0,1,3.392.575q.23.115.173-.057t.172-.288q.345,0,.173.173a.319.319,0,0,0-.057.4q.575,0,1.322.057a11.18,11.18,0,0,1,1.323.173q0,.46-.345.23a2.244,2.244,0,0,0,1.208.517,4.834,4.834,0,0,1,1.437.4q-.115.345.288.69a2.1,2.1,0,0,0,.863.46,4.275,4.275,0,0,1,.115,1.035.815.815,0,0,0,.575.805q-.23.46,0,.69a.686.686,0,0,1,.115.69q-.46-.23-.46.69a47.432,47.432,0,0,0-14.548.173,138.166,138.166,0,0,0-13.858,3.047,4.634,4.634,0,0,1-.46,1.38q0,.23.345,0t.23.115q-.46.115-.345.345l.23.46a16.916,16.916,0,0,1-3.737,2.07,33.447,33.447,0,0,1-4.312,1.38.524.524,0,0,0-.057.4q.058.172-.173.288a1.71,1.71,0,0,0-.862.172,1.232,1.232,0,0,1-.862.057,1.562,1.562,0,0,0-.978-1.092,1.918,1.918,0,0,1-1.093-1.208A1.489,1.489,0,0,0,31.108-23a1.5,1.5,0,0,1-.115-1.265,1.786,1.786,0,0,1-.345-1.84q.345-1.035.575-1.955a122.5,122.5,0,0,1,8.4-10.12,3.021,3.021,0,0,1-.46-.288,2.015,2.015,0,0,0-.575-.287,7.727,7.727,0,0,1-.4-1.955,5.491,5.491,0,0,0-.632-2.07,2.35,2.35,0,0,0,.115-.747.7.7,0,0,0-.46-.632,2.87,2.87,0,0,1,.632-.978,2.751,2.751,0,0,0,.632-1.208A125.471,125.471,0,0,1,55.6-53.935,72.776,72.776,0,0,1,74-57.845a.622.622,0,0,1,.287.23q.058.115.287.115a1.34,1.34,0,0,1,1.092-.287,2.35,2.35,0,0,1,1.092.287q.23-.115.23-.173t.23-.173a.2.2,0,0,1,.23.23q0,.23.23.115a4.114,4.114,0,0,1,2.128.287,3.732,3.732,0,0,0,1.553.4.464.464,0,0,1,.23.46,3.563,3.563,0,0,1,1.9,1.5,7.685,7.685,0,0,1,.92,2.242,13.42,13.42,0,0,1,.345,2.53q.058,1.323.173,2.358a1.161,1.161,0,0,1-.518,1.035,1.058,1.058,0,0,0-.518.92h-.345a3.635,3.635,0,0,1-1.437,1.208,4.1,4.1,0,0,0-1.437,1.093,16.258,16.258,0,0,0-2.243.69q-1.208.46-2.127.92a1.878,1.878,0,0,0-1.668.4,3.8,3.8,0,0,1-1.782.748A.629.629,0,0,1,73.37-41q.4-.058.287-.632-.23-.23-.4.115t-.748.115a1.133,1.133,0,0,1,.4-.287,1.132,1.132,0,0,0,.4-.288,3.988,3.988,0,0,0-1.61.805,3.988,3.988,0,0,1-1.61.805,1.562,1.562,0,0,1,.978-1.092A2.794,2.794,0,0,0,72.277-42.32Zm1.84-15.295q-.23.23-.23.115Q74.118-57.5,74.118-57.615Zm-.575,14.49q-.345-.115-.172.057t.172-.057q.23,0,.115-.057T73.542-43.125Zm.23,1.61q.575,0,.575-.46H74A.663.663,0,0,1,73.772-41.515Zm.23-2.76q.115.345-.058.287t-.287.172q-.23-.115-.058-.287A.552.552,0,0,1,74-44.275Zm-.575.46q0,.46-.46.23Zm-1.5,1.5a18.842,18.842,0,0,1-2.127,1.438,14.764,14.764,0,0,1-2.358,1.093q1.035-.69,2.128-1.323T71.932-42.32Zm1.38.92q.115-.345.115,0T73.313-41.4Zm-1.84.92a2.787,2.787,0,0,0-.345.4q-.115.173-.575.058a2.973,2.973,0,0,1,.8-.747,6.515,6.515,0,0,1,1.035-.518q0,.46-.345.518A1.03,1.03,0,0,0,71.473-40.48Zm-4.83,1.955a4.1,4.1,0,0,1,1.438-1.092q.863-.4,1.783-.862a2.571,2.571,0,0,1-1.38,1.15A19.155,19.155,0,0,0,66.643-38.525Zm4.83-1.955.23.23h-.23Zm1.15.115a24.244,24.244,0,0,1-2.3,1.5,8.209,8.209,0,0,1-2.645,1.035,1.1,1.1,0,0,1,.632-.46,1.027,1.027,0,0,0,.633-.575,1.048,1.048,0,0,0,.8-.115,6.042,6.042,0,0,0,.92-.575,5.029,5.029,0,0,1,.978-.575A2.412,2.412,0,0,1,72.622-40.365Zm-2.53.345q.345,0,.345.23h-.345Zm-2.645.23a2.159,2.159,0,0,1-.862.69q-.518.23-1.092.46a2.159,2.159,0,0,1,.862-.69Q66.872-39.56,67.447-39.79Zm.92.92a1.379,1.379,0,0,1,.69-.518,3.943,3.943,0,0,0,.805-.4,1.027,1.027,0,0,1-.633.575A5.048,5.048,0,0,0,68.368-38.87Zm0,0q0,.345-.173.173T68.368-38.87Zm-2.185.46q-.23,0-.058-.173T66.183-38.41Zm.46-.115q0,.115-.345.115,0-.115.057-.115t.058-.115q.115,0,.115.057T66.643-38.525Zm-.46.115H66.3a.234.234,0,0,1-.058.172Q66.183-38.18,66.183-38.41Zm-.115.115a.266.266,0,0,1-.172.288.722.722,0,0,0-.288.173q-.23-.115,0-.23Zm1.5.575a.554.554,0,0,1-.46.4,1.03,1.03,0,0,0-.575.288q-.23-.23.288-.4A6.269,6.269,0,0,0,67.563-37.72ZM84.7-23.805a3.815,3.815,0,0,1-.4.805,4.728,4.728,0,0,0-.4.69,7.41,7.41,0,0,0-.92.058.865.865,0,0,0-.69.518v-.575q-.345.23-.288.518t-.287.517a4.344,4.344,0,0,1-2.185.115,2.007,2.007,0,0,0-1.725.345q-.23.115-.23-.058a.39.39,0,0,0-.115-.288q-.23.23-.173.4t-.173.4q-.46.23-.518-.057a1,1,0,0,0-.287-.518q-.23-.115-.173.173a.436.436,0,0,1-.058.4.287.287,0,0,1-.46,0q-.23-.23-.23.115a.227.227,0,0,1-.345-.115.752.752,0,0,0-.345-.345q-.345-.115-.288.23t-.287.23q.23-.345-.058-.46a.609.609,0,0,0-.518,0q-.115.345.115.288t.115.172q-.23-.23-.748.115t-.517-.46q-.23.115-.23.575-.575-.23-.46.058t-.23.287a1.966,1.966,0,0,0-.345-.92q-.23.115-.058.345t-.057.345a.318.318,0,0,0-.46-.058.807.807,0,0,1-.69.058l.23.23q-.23.345-.345,0t-.345-.23q-.23.115-.058.287t-.058.288q-.23,0-.23-.172t-.23-.288a.331.331,0,0,1-.23.115.478.478,0,0,0-.173.46.478.478,0,0,1-.172.46q-1.265.23-2.357.345a12.278,12.278,0,0,0-2.243.46q-.23,0-.115.23t0,.345q-.575-.345-1.495.23t-1.38-.115a.469.469,0,0,0-.115.345,1.762,1.762,0,0,0-1.207.23q-.632.345-1.093.575a20.2,20.2,0,0,0-4.6,1.15,20.2,20.2,0,0,1-4.6,1.15,3.759,3.759,0,0,0-.4.23,3.759,3.759,0,0,1-.4.23,27.263,27.263,0,0,0-6.21,1.84q-1.495.46-3.162.863a8.2,8.2,0,0,0-2.932,1.323,1.049,1.049,0,0,0-.575-.058q-.23.058-.575.173a.331.331,0,0,0-.115-.23,1.338,1.338,0,0,0-.345.23q-.115.115-.575,0a17.055,17.055,0,0,1-.805-2.243,6.772,6.772,0,0,1-.115-2.818q.23,0,.23.058t.115.057q-.345-.8.518-.977a1.989,1.989,0,0,0,1.322-.862q0-.23-.173,0t-.057-.23q5.52-1.955,11.557-3.853a77.744,77.744,0,0,1,12.708-2.817.623.623,0,0,1,.575-.172.552.552,0,0,0,.575-.288q.23,0,.23.115t.23.115q2.53-.345,5.635-.69t6.325-.517q3.22-.172,6.325-.057A39.907,39.907,0,0,1,84.7-23.805Zm-1.15.575h.23v-.23h-.23ZM68.023-18.975a.1.1,0,0,1,.115-.115.2.2,0,0,0-.23-.23Q67.908-18.975,68.023-18.975Zm.8-.345a.1.1,0,0,1,.115-.115.1.1,0,0,1,.115.115q0,.23-.057.115A.184.184,0,0,0,68.827-19.32Zm19.2,15.18q.23-.92.345-1.265a.227.227,0,0,0-.345.115,2.247,2.247,0,0,0-.173.46.853.853,0,0,1-.23.4q-.172.172-.518-.058.805-1.265,1.5-2.53A28.044,28.044,0,0,0,89.872-9.66a1.622,1.622,0,0,0-.518.517q-.287.4-.518.172.23-.575.575-.575a3.989,3.989,0,0,1,.977-2.53,4.19,4.19,0,0,0,1.093-2.07,1.532,1.532,0,0,0-.345.517.758.758,0,0,1-.575.4.861.861,0,0,1,.288-1.035.792.792,0,0,0,.057-1.15,1.6,1.6,0,0,0,.978-.8,6.755,6.755,0,0,1,.632-1.035,1.3,1.3,0,0,0-.115-.92q.345-.115.345-1.035a.622.622,0,0,0,.287-.23.622.622,0,0,1,.287-.23,3.624,3.624,0,0,1,.575-1.782A4.444,4.444,0,0,0,94.587-23a13.247,13.247,0,0,0,2.243-3.8,15.03,15.03,0,0,1,2.128-3.8q.46-1.15.92-2.127a10.893,10.893,0,0,1,1.15-1.9v-.69a12.656,12.656,0,0,0,2.07-3.507,11.011,11.011,0,0,1,2.07-3.393,7.633,7.633,0,0,1,.978-2.645,13.705,13.705,0,0,0,1.207-2.645,2.477,2.477,0,0,0,1.265-1.38,19.155,19.155,0,0,1,.805-1.84q-.69.115-1.5.173a2.467,2.467,0,0,1-1.265-.173,3.071,3.071,0,0,1-2.185.46,3.35,3.35,0,0,0-2.07.23q0-.23-.115-.23l-.345.345a8.315,8.315,0,0,1-2.357.115,3.535,3.535,0,0,0-2.128.46,9.41,9.41,0,0,0-4.37.115,13.354,13.354,0,0,1-4.6.345,1.72,1.72,0,0,0-1.035-1.15q-.23-1.15-.46-2.415a7.015,7.015,0,0,1,0-2.53q0-.23-.115-.23t-.23-.23a1.6,1.6,0,0,1,.115-.69,1.037,1.037,0,0,0,0-.69q.345-.575.747-1.15a2.11,2.11,0,0,1,1.093-.8h1.61a5.143,5.143,0,0,0,2.242.92,13.419,13.419,0,0,0,2.818.173q1.495-.057,2.932-.173t2.7-.115q5.06-.46,9.832-1.208a46.516,46.516,0,0,1,9.488-.517,3.474,3.474,0,0,1,1.61-.4l1.725.172a4.611,4.611,0,0,1,1.38-.287,3.107,3.107,0,0,1,1.38.173q.575-.345.632-.173t.633.058q.115.23,0,.23t-.115.23q.23,0,.288-.288t.287.173a.659.659,0,0,1,.805-.345q.115.23,0,.287a.622.622,0,0,0-.23.288,1.048,1.048,0,0,1,.8-.115q.345.115.575-.46.345,0,.23.345a.521.521,0,0,0,.115.575,2.1,2.1,0,0,1,1.092.057,1.548,1.548,0,0,0,1.092-.057.649.649,0,0,1,.058.46q-.058.23.517.115a.784.784,0,0,1,.058.517q-.058.288.173.173t.057-.288q-.173-.173.057-.4a1.682,1.682,0,0,1,.575.057q.115.058.345-.172a3.2,3.2,0,0,0,1.38.23q.23.345,0,.4a.272.272,0,0,0-.23.288,1.248,1.248,0,0,0,.46-.23q.115-.115.345.115.115-.23,0-.345a.469.469,0,0,1-.115-.345q.46.115.46.92-.23.23-.287.115t-.4-.115q.23.345.46.345h.69a.417.417,0,0,0,.287-.517q-.057-.4.4-.288.115.23,0,.345a1.338,1.338,0,0,0-.23.345q.115.23.46.115t.345.115q.23,0,.173-.23a1.89,1.89,0,0,1-.058-.46q.345-.115.288.173a2.665,2.665,0,0,0-.057.517.78.78,0,0,1,.92.173,1.156,1.156,0,0,0,1.035.288q.115.23-.115.172a.279.279,0,0,0-.345.173q.23.23.4,0t.4,0q.345,0,.115-.173t0-.172a2.35,2.35,0,0,1,1.035,0,.784.784,0,0,1,.057.517q-.057.288.173.288t.115-.288q-.115-.288.23-.173a.967.967,0,0,0,.115.805,1.635,1.635,0,0,1,.23.92,1.223,1.223,0,0,1-.747.173,1.764,1.764,0,0,0-.747.057,1.869,1.869,0,0,1,0,.92q-.23,0-.23-.345a.3.3,0,0,0-.345-.345,1.419,1.419,0,0,1-1.035.69,8.735,8.735,0,0,1-1.437.115h-1.5a1.962,1.962,0,0,0-1.207.345q-.23.115-.23-.115a.663.663,0,0,0-.23-.46,4.552,4.552,0,0,1-1.667.575,13.478,13.478,0,0,1-1.783.115h-1.84a4.332,4.332,0,0,0-1.725.345q-.23.115-.287-.173t-.288-.287q-.345,0-.345.46a6.838,6.838,0,0,1-1.035-.057q-.345-.058-.69.4a1.858,1.858,0,0,0-1.552-.345,5.24,5.24,0,0,0-1.783.46,1.188,1.188,0,0,0-1.495-.115,3.169,3.169,0,0,1-1.84.345,19.661,19.661,0,0,0-1.955,3.795,23.274,23.274,0,0,1-1.955,3.91v.69q-1.15,1.955-2.185,4.083t-1.955,4.313q-.23-.115-.23.057t-.23.173v.575a12.375,12.375,0,0,0-1.035,1.437,5.766,5.766,0,0,0-.69,1.783q-1.15,1.955-2.243,3.91a41.46,41.46,0,0,0-2.012,4.14,4.3,4.3,0,0,0-1.035,1.782,2.937,2.937,0,0,1-1.265,1.667,1.758,1.758,0,0,1-.575,1.265,26,26,0,0,1-2.53,5.06,43.492,43.492,0,0,0-2.76,4.945,1.141,1.141,0,0,0-.4.345,1.141,1.141,0,0,1-.4.345q.23,1.035-.575,1.15a3.61,3.61,0,0,1-1.035,2.128,3.729,3.729,0,0,0-1.035,2.242.918.918,0,0,0-.518.4.966.966,0,0,1-.632.4q0,.115.23.23t-.115.23q-.23,0-.23-.345A4.534,4.534,0,0,0,91.195.058,4.341,4.341,0,0,1,90.562,1.5a22.418,22.418,0,0,0-1.667,1.61,14.593,14.593,0,0,0-1.437,1.84h-.69a1.657,1.657,0,0,0-.23-1.265.368.368,0,0,0-.345.23q-.115.23-.575.115.23-.575.4-.978a1.9,1.9,0,0,0-.058-1.207q.46-.92.92-1.783a3.742,3.742,0,0,0,.46-1.782,2.8,2.8,0,0,0,.8-1.092A1.179,1.179,0,0,0,88.032-4.14Zm41.4-55.085a.524.524,0,0,0,.4.057q.173-.057.057-.287A.663.663,0,0,0,129.432-59.225Zm5.4.92q-.115.575.173.288T134.837-58.305Zm-.8.23q-.23.23.057,0T134.033-58.075Zm1.84.46q0-.23-.23,0Zm2.415,1.15a.387.387,0,0,1,.173-.345q.173-.115-.287-.115Q138.4-56.465,138.287-56.465Zm1.61,0q.115-.23-.057-.23a.39.39,0,0,1-.288-.115A.3.3,0,0,0,139.9-56.465Zm1.725,0q.23.23.23-.057T141.622-56.465Zm1.035.92q0-.115-.288-.172a.33.33,0,0,0-.4.172.79.79,0,0,0,.4.173Q142.657-55.315,142.658-55.545Zm-3.68,1.5q-.115.575.173.287T138.977-54.05ZM96.312-24.84q-.23.23.058.23T96.312-24.84Zm-4.14,9.2q.23,0,.115.115h.23q0-.345-.115-.345Zm-1.495,3.91.23.115q0-.345-.23-.345Zm-.46.46q.115.575-.058.747a1.31,1.31,0,0,0-.287.517q.575-.115.632-.517a2.849,2.849,0,0,1,.287-.863A1.28,1.28,0,0,0,90.217-11.27Zm-1.61,6.9q.115-.345-.23-.345Q88.492-4.37,88.607-4.37Zm43.585-55.315q0,.23-.518.287a1.26,1.26,0,0,1-.862-.173q.115-.23.575-.288A1.147,1.147,0,0,1,132.192-59.685Zm4.715,1.61a.266.266,0,0,1,.287.173q.058.173-.173.287Q136.677-57.845,136.908-58.075Zm6.21,2.07a.1.1,0,0,1,.115-.115h.115Q143.348-56,143.117-56ZM90.1-12.535a2.236,2.236,0,0,1-.46,1.15q-.345-.23-.058-.69T90.1-12.535ZM89.3-11.04v.23q-.345.115-.23-.173T89.3-11.04Zm-.92,2.415h.345a2.106,2.106,0,0,1-.46.977,3.242,3.242,0,0,0-.575,1.093q-.345-.46.173-.977A1.539,1.539,0,0,0,88.377-8.625ZM88.032-4.14a1.141,1.141,0,0,0-.115.517q0,.288-.46.288Q87.457-4.14,88.032-4.14Zm-1.15.115q.345-.115.288.115A.729.729,0,0,1,87-3.565Q87.112-3.565,86.882-4.025Zm-.46,1.035a.2.2,0,0,1,.23.23l-.115.115q-.115,0-.058-.115A.188.188,0,0,0,86.422-2.99Zm74.865-39.33a.774.774,0,0,0,.69-.345q-.115-.115-.4,0t-.288.345h-.345q.575-.46,1.092-.862a7.224,7.224,0,0,1,1.208-.748.379.379,0,0,1,0-.4.941.941,0,0,0,.115-.517,9.054,9.054,0,0,0,2.587-2.127,31.964,31.964,0,0,0,2.013-2.818,2.157,2.157,0,0,0-.978-.23h-1.092a.2.2,0,0,1-.23-.23q-2.645.23-5.175.518a52.016,52.016,0,0,0-5.175.862.937.937,0,0,1-.69.23.937.937,0,0,0-.69.23,49.908,49.908,0,0,0-9.2,2.76,16.277,16.277,0,0,0-2.357.748,9.9,9.9,0,0,0-2.128,1.092,5.711,5.711,0,0,0,.633,1.15,1.459,1.459,0,0,1,.287,1.15q-1.61,1.84-3.335,3.507T134.493-34.5a.318.318,0,0,0,.46.058.5.5,0,0,0,.23-.4q3.565-.69,6.1-1.035t5.52-.69a32.025,32.025,0,0,1,3.737-.23,10.01,10.01,0,0,1,3.393.575q.23.115.173-.057t.173-.288q.345,0,.173.173a.319.319,0,0,0-.057.4q.575,0,1.322.057a11.18,11.18,0,0,1,1.323.173q0,.46-.345.23a2.244,2.244,0,0,0,1.208.517,4.834,4.834,0,0,1,1.437.4q-.115.345.288.69a2.1,2.1,0,0,0,.863.46,4.276,4.276,0,0,1,.115,1.035.815.815,0,0,0,.575.805q-.23.46,0,.69a.686.686,0,0,1,.115.69q-.46-.23-.46.69a47.432,47.432,0,0,0-14.548.173,138.166,138.166,0,0,0-13.857,3.047,4.633,4.633,0,0,1-.46,1.38q0,.23.345,0t.23.115q-.46.115-.345.345l.23.46a16.917,16.917,0,0,1-3.738,2.07,33.447,33.447,0,0,1-4.313,1.38.524.524,0,0,0-.058.4q.058.172-.173.288a1.71,1.71,0,0,0-.863.172,1.232,1.232,0,0,1-.862.057,1.562,1.562,0,0,0-.978-1.092,1.918,1.918,0,0,1-1.092-1.208,1.489,1.489,0,0,0-.23-1.035A1.5,1.5,0,0,1,120-24.265a1.786,1.786,0,0,1-.345-1.84q.345-1.035.575-1.955a122.5,122.5,0,0,1,8.395-10.12,3.021,3.021,0,0,1-.46-.288,2.015,2.015,0,0,0-.575-.287,7.728,7.728,0,0,1-.4-1.955,5.491,5.491,0,0,0-.632-2.07,2.35,2.35,0,0,0,.115-.747.7.7,0,0,0-.46-.632,2.87,2.87,0,0,1,.632-.978,2.751,2.751,0,0,0,.632-1.208,125.471,125.471,0,0,1,17.135-7.59,72.776,72.776,0,0,1,18.4-3.91.622.622,0,0,1,.288.23q.057.115.287.115a1.34,1.34,0,0,1,1.092-.287,2.35,2.35,0,0,1,1.092.287q.23-.115.23-.173t.23-.173a.2.2,0,0,1,.23.23q0,.23.23.115a4.114,4.114,0,0,1,2.128.287,3.732,3.732,0,0,0,1.553.4.464.464,0,0,1,.23.46,3.563,3.563,0,0,1,1.9,1.5,7.685,7.685,0,0,1,.92,2.242,13.42,13.42,0,0,1,.345,2.53q.057,1.323.173,2.358a1.161,1.161,0,0,1-.518,1.035,1.058,1.058,0,0,0-.518.92h-.345a3.635,3.635,0,0,1-1.437,1.208,4.1,4.1,0,0,0-1.437,1.093,16.259,16.259,0,0,0-2.243.69q-1.207.46-2.127.92a1.878,1.878,0,0,0-1.668.4,3.8,3.8,0,0,1-1.782.748A.629.629,0,0,1,162.38-41q.4-.058.288-.632-.23-.23-.4.115t-.747.115a1.133,1.133,0,0,1,.4-.287,1.132,1.132,0,0,0,.4-.288,3.988,3.988,0,0,0-1.61.805,3.988,3.988,0,0,1-1.61.805,1.562,1.562,0,0,1,.978-1.092A2.794,2.794,0,0,0,161.288-42.32Zm1.84-15.295q-.23.23-.23.115Q163.128-57.5,163.128-57.615Zm-.575,14.49q-.345-.115-.173.057t.173-.057q.23,0,.115-.057T162.553-43.125Zm.23,1.61q.575,0,.575-.46h-.345A.663.663,0,0,1,162.783-41.515Zm.23-2.76q.115.345-.057.287t-.288.172q-.23-.115-.057-.287A.552.552,0,0,1,163.013-44.275Zm-.575.46q0,.46-.46.23Zm-1.5,1.5a18.843,18.843,0,0,1-2.128,1.438,14.763,14.763,0,0,1-2.357,1.093q1.035-.69,2.128-1.323T160.943-42.32Zm1.38.92q.115-.345.115,0T162.323-41.4Zm-1.84.92a2.787,2.787,0,0,0-.345.4q-.115.173-.575.058a2.973,2.973,0,0,1,.8-.747,6.515,6.515,0,0,1,1.035-.518q0,.46-.345.518A1.03,1.03,0,0,0,160.483-40.48Zm-4.83,1.955a4.1,4.1,0,0,1,1.438-1.092q.862-.4,1.783-.862a2.571,2.571,0,0,1-1.38,1.15A19.155,19.155,0,0,0,155.653-38.525Zm4.83-1.955.23.23h-.23Zm1.15.115a24.244,24.244,0,0,1-2.3,1.5,8.209,8.209,0,0,1-2.645,1.035,1.1,1.1,0,0,1,.632-.46,1.027,1.027,0,0,0,.633-.575,1.048,1.048,0,0,0,.8-.115,6.042,6.042,0,0,0,.92-.575,5.029,5.029,0,0,1,.978-.575A2.412,2.412,0,0,1,161.633-40.365Zm-2.53.345q.345,0,.345.23H159.1Zm-2.645.23a2.159,2.159,0,0,1-.863.69q-.517.23-1.092.46a2.159,2.159,0,0,1,.863-.69Q155.883-39.56,156.458-39.79Zm.92.92a1.379,1.379,0,0,1,.69-.518,3.943,3.943,0,0,0,.805-.4,1.027,1.027,0,0,1-.633.575A5.048,5.048,0,0,0,157.378-38.87Zm0,0q0,.345-.172.173T157.378-38.87Zm-2.185.46q-.23,0-.057-.173T155.193-38.41Zm.46-.115q0,.115-.345.115,0-.115.057-.115t.058-.115q.115,0,.115.057T155.653-38.525Zm-.46.115h.115a.234.234,0,0,1-.057.172Q155.192-38.18,155.193-38.41Zm-.115.115a.266.266,0,0,1-.173.288.722.722,0,0,0-.288.173q-.23-.115,0-.23Zm1.495.575a.554.554,0,0,1-.46.4,1.03,1.03,0,0,0-.575.288q-.23-.23.288-.4A6.269,6.269,0,0,0,156.573-37.72Zm17.135,13.915a3.815,3.815,0,0,1-.4.805,4.728,4.728,0,0,0-.4.69,7.41,7.41,0,0,0-.92.058.865.865,0,0,0-.69.518v-.575q-.345.23-.288.518t-.287.517a4.344,4.344,0,0,1-2.185.115,2.007,2.007,0,0,0-1.725.345q-.23.115-.23-.058a.39.39,0,0,0-.115-.288q-.23.23-.173.4t-.173.4q-.46.23-.518-.057a1,1,0,0,0-.287-.518q-.23-.115-.173.173a.436.436,0,0,1-.057.4.288.288,0,0,1-.46,0q-.23-.23-.23.115a.227.227,0,0,1-.345-.115.752.752,0,0,0-.345-.345q-.345-.115-.288.23t-.288.23q.23-.345-.057-.46a.609.609,0,0,0-.518,0q-.115.345.115.288t.115.172q-.23-.23-.747.115t-.517-.46q-.23.115-.23.575-.575-.23-.46.058t-.23.287a1.966,1.966,0,0,0-.345-.92q-.23.115-.057.345t-.057.345a.318.318,0,0,0-.46-.058.807.807,0,0,1-.69.058l.23.23q-.23.345-.345,0t-.345-.23q-.23.115-.058.287t-.057.288q-.23,0-.23-.172t-.23-.288a.331.331,0,0,1-.23.115.478.478,0,0,0-.173.46.478.478,0,0,1-.173.46q-1.265.23-2.357.345a12.278,12.278,0,0,0-2.242.46q-.23,0-.115.23t0,.345q-.575-.345-1.495.23t-1.38-.115a.469.469,0,0,0-.115.345,1.762,1.762,0,0,0-1.208.23q-.633.345-1.092.575a20.2,20.2,0,0,0-4.6,1.15,20.2,20.2,0,0,1-4.6,1.15,3.76,3.76,0,0,0-.4.23,3.759,3.759,0,0,1-.4.23,27.263,27.263,0,0,0-6.21,1.84q-1.5.46-3.163.863a8.2,8.2,0,0,0-2.933,1.323,1.049,1.049,0,0,0-.575-.058q-.23.058-.575.173a.331.331,0,0,0-.115-.23,1.338,1.338,0,0,0-.345.23q-.115.115-.575,0a17.056,17.056,0,0,1-.805-2.243,6.772,6.772,0,0,1-.115-2.818q.23,0,.23.058t.115.057q-.345-.8.517-.977a1.989,1.989,0,0,0,1.323-.862q0-.23-.173,0t-.058-.23q5.52-1.955,11.558-3.853a77.744,77.744,0,0,1,12.707-2.817.623.623,0,0,1,.575-.172.552.552,0,0,0,.575-.288q.23,0,.23.115t.23.115q2.53-.345,5.635-.69t6.325-.517q3.22-.172,6.325-.057A39.907,39.907,0,0,1,173.708-23.805Zm-1.15.575h.23v-.23h-.23Zm-15.525,4.255a.1.1,0,0,1,.115-.115.2.2,0,0,0-.23-.23Q156.918-18.975,157.033-18.975Zm.8-.345a.1.1,0,0,1,.115-.115.1.1,0,0,1,.115.115q0,.23-.057.115A.184.184,0,0,0,157.838-19.32Z" transform="translate(443.527 1343)" fill="url(#linear-gradient)"/>
    <path id="Path_45048" data-name="Path 45048" d="M-148.41,0h4.692l1.768-3.876h6.6L-135.286,0h4.386l-1.19-21.76h-5.644Zm8.092-7.378,4.59-10.2.238,10.2ZM-122.162,0h4.386l3.026-14.314L-110.942,0h4.9l4.624-21.76h-4.318L-108.8-7.344l-3.672-14.416H-117.5Zm27.438.272c5.542,0,7.616-2.618,9.078-9.316l2.652-12.716h-4.318L-89.9-9.69c-.85,3.944-1.53,5.712-4.522,5.712-2.89,0-2.55-2.346-1.938-5.27L-93.7-21.76h-4.42l-2.584,12.274C-102.136-2.754-100.368.272-94.724.272ZM-84.252,0h12.478l.85-4.012h-8.194L-78-9.146h7.344l.85-3.91h-7.344l.952-4.692h8.228l.85-4.012H-79.628ZM-64.77,0h5.542l10.642-21.76h-4.76l-7.99,17.51-.442-17.51H-66.1Zm9.826,0h4.692l1.768-3.876h6.6L-41.82,0h4.386l-1.19-21.76h-5.644Zm8.092-7.378,4.59-10.2.238,10.2ZM-28.118.272c5.542,0,7.514-3.06,8.058-5.916,1.6-8.33-8.976-5.746-8.33-10.064.238-1.768,1.632-2.584,3.468-2.516,1.836,0,2.754.986,2.414,3.094h4.08c.646-4.216-1.462-6.8-6.154-6.9-5.1-.068-7.616,2.788-8.058,6.256-.918,7.446,9.52,5.1,8.364,9.758-.408,1.7-1.666,2.38-3.706,2.38-1.9,0-2.958-.986-2.686-3.5H-34.85C-35.53-1.836-32.98.272-28.118.272ZM-13.464,0h4.692L-7-3.876h6.6L-.34,0H4.046L2.856-21.76H-2.788Zm8.092-7.378,4.59-10.2.238,10.2ZM8.126,0h5.542L24.31-21.76H19.55L11.56-4.25l-.442-17.51H6.8ZM21.488,0H33.966l.85-4.012H26.622l1.122-5.134h7.344l.85-3.91H28.594l.952-4.692h8.228l.85-4.012H26.112ZM36.924,0H41.31l3.026-14.314L48.144,0h4.9l4.624-21.76H53.346L50.286-7.344,46.614-21.76H41.582ZM59.568,0h4.284L67.66-17.816h4.352l.85-3.944H59.874l-.85,4.046h4.318Zm18.6.272c5.542,0,7.616-2.618,9.078-9.316L89.9-21.76H85.578L82.994-9.69c-.85,3.944-1.53,5.712-4.522,5.712-2.89,0-2.55-2.346-1.938-5.27L79.186-21.76h-4.42L72.182-9.486C70.754-2.754,72.522.272,78.166.272ZM88.638,0h4.318l1.938-8.908L98.022,0h5.2L99.042-8.67c4.692-.2,6.12-3.876,6.63-6.154.51-2.516.85-6.936-6.154-6.936H93.262Zm6.834-11.7,1.292-6.12h2.482c1.972,0,2.38,1.122,2.006,2.89a3.585,3.585,0,0,1-3.74,3.23ZM103.632,0h4.692l1.768-3.876h6.6L116.756,0h4.386l-1.19-21.76h-5.644Zm8.092-7.378,4.59-10.2.238,10.2ZM130.458.272c5.542,0,7.514-3.06,8.058-5.916,1.6-8.33-8.976-5.746-8.33-10.064.238-1.768,1.632-2.584,3.468-2.516,1.836,0,2.754.986,2.414,3.094h4.08c.646-4.216-1.462-6.8-6.154-6.9-5.1-.068-7.616,2.788-8.058,6.256-.918,7.446,9.52,5.1,8.364,9.758-.408,1.7-1.666,2.38-3.706,2.38-1.9,0-2.958-.986-2.686-3.5h-4.182C123.046-1.836,125.6.272,130.458.272Zm11.186-6.9H144.4l1.9-6.46,1.836-8.67h-3.876l-1.734,8.194Zm.1,6.9a2.65,2.65,0,0,0,3.026-2.38c.374-1.87-.374-2.856-2.346-2.856a2.7,2.7,0,0,0-3.06,2.448C138.992-.714,139.774.272,141.746.272Z" transform="translate(436 1377)"/>
  </g>
</svg>
