<svg xmlns="http://www.w3.org/2000/svg" width="422.63" height="74.252" viewBox="0 0 422.63 74.252">
  <path id="Path_45097" data-name="Path 45097" d="M-196.365-11.18q-.13-.26.065-.26t.195-.26a1.443,1.443,0,0,0,1.43-.52,1.569,1.569,0,0,0-1.56.39,1.717,1.717,0,0,1-1.82.26q0,.39.065.2t.325-.065q0,.26-.325.26a.466.466,0,0,1-.455-.26q-.13.52-.52.325t-.65.455a4.235,4.235,0,0,0-2.535.325,15.781,15.781,0,0,1-2.925.845,1.54,1.54,0,0,1,1.17-.585,4.934,4.934,0,0,0,1.43-.325q-.13-.26-.52-.2t0-.325q-.52-.13-.325.13t-.065.39a1.112,1.112,0,0,1-.65-.325q-.13-.2-.52.065,0,.26.26.13a.257.257,0,0,1,.39.13q-.65.26-1.17.455a1.559,1.559,0,0,0-.78.585q0-.26.13-.26t-.13-.26q-.39.13-1.43.39l.26.26a1.233,1.233,0,0,1-1.17-.065.775.775,0,0,0-1.04.195q-.91-.26-.52-.65a2.037,2.037,0,0,0,.52.39q.26.13.39-.39.13,0,.13-.065t-.13-.065q-.13-.26-.13-.13a.115.115,0,0,0,.13.13v.13q-.39-.13-.455-.325t-.455-.065q-.13,0-.39.52-.13.26.065.26a.441.441,0,0,1,.325.13.8.8,0,0,1-.715.2,6,6,0,0,0-.845-.065q.13-.52.455-.26t.455-.13a2.789,2.789,0,0,0-.65-.52q-.39,0,0,.13t0,.26a1.233,1.233,0,0,0-1.17.065q-.52.325-1.04.585a.345.345,0,0,1,.39-.39q0-.26-.26-.2a1.778,1.778,0,0,1-.39.065q-.26,0-.13.26a.257.257,0,0,1-.13.39q-.65-.13-.715.065t-.715.065q-.13-.52.455-.325t.455-.2q.26-.13.26.26a.721.721,0,0,0,.13-.91,1.44,1.44,0,0,0-.455.065,1.44,1.44,0,0,1-.455.065q-.26.39.26.26t.26.26a2.466,2.466,0,0,0-1.495-.325q-.845.065-.975-.325-.52-.13-.325.065t-.2.325q-.39,0-.195-.065t.065-.325q-.26-.26-.715,0t-.325-.13a7.3,7.3,0,0,1,1.43-.13q.26-.13,0-.195t0-.325a.416.416,0,0,1,.39.26.416.416,0,0,0,.39.26.115.115,0,0,1-.13.13.115.115,0,0,0-.13.13q.13.26.325.065a.36.36,0,0,1,.455-.065q0-.39-.325-.39t-.195-.52a2.508,2.508,0,0,0,1.3-.39,1.612,1.612,0,0,0-.845-.065,9.113,9.113,0,0,1-.975.065q0-.26.13-.26a.115.115,0,0,0,.13-.13,2,2,0,0,0-1.1.065q-.715.2-.975-.325.13-.26.2-.065t.325.065v.13q.13,0,.13-.065t-.13-.065a.724.724,0,0,1,.975-.455q.715.2.845-.2.26,0,.26-.13,0-.26-.13-.13a.375.375,0,0,0-.13.26.776.776,0,0,0-.78-.13q-.52.13-.91.26,0-.26.13-.26a.115.115,0,0,0,.13-.13.717.717,0,0,0-.715.13q-.325.26-.455,0,.26-.65,1.1-.455t1.105-.455a.23.23,0,0,1,.26.26q.26-.26.26-.39A115.2,115.2,0,0,0-202.67-16.7q6.435-1.885,12.805-4.355,4.55-2.08,9.165-4.095a34.952,34.952,0,0,0,8.255-5.005q-.39-.39-.65-.13a2.037,2.037,0,0,1-.52.39,1.344,1.344,0,0,0-.91-.585,3.23,3.23,0,0,0-1.1.065q-.585.13-1.105.195a.751.751,0,0,1-.78-.325,3.522,3.522,0,0,1-.975.585.816.816,0,0,1-1.105-.195q-.52.78-.52-.13a3.408,3.408,0,0,0-.585.39.393.393,0,0,1-.585,0,.23.23,0,0,0,.26-.26q-.26-.13-.26.26a7.112,7.112,0,0,1-1.56-.26,1.264,1.264,0,0,0-1.56.78,12.986,12.986,0,0,0-5.785.26,31.686,31.686,0,0,1-5.785,1.04q-.26,0-.13.065t.13.325a2,2,0,0,0-1.625.13,6.72,6.72,0,0,1-1.235.65,34.529,34.529,0,0,0-3.185,4.55A15.473,15.473,0,0,1-205.6-18.2a1.735,1.735,0,0,1,.325-.455.624.624,0,0,0,.195-.455q-.26-.26-.39.195a1.617,1.617,0,0,1-.39.715q-.26-.26.13-.585a.628.628,0,0,0,.26-.715h-.39a.257.257,0,0,0-.13.39.425.425,0,0,1-.13.52q-.26-.13-.065-.195t.065-.325a1.161,1.161,0,0,0-.65.715,1.161,1.161,0,0,1-.65.715,2.381,2.381,0,0,1,.52-1.1,3.916,3.916,0,0,0,.65-1.1,1.578,1.578,0,0,0-.91,1.04,1.578,1.578,0,0,1-.91,1.04,4.249,4.249,0,0,1,.26-.455.8.8,0,0,0,.13-.455.417.417,0,0,0-.455.39.626.626,0,0,1-.455.52,1.032,1.032,0,0,1,.26-.845q.26-.195,0-.845a2.56,2.56,0,0,0,.65-.91,1.411,1.411,0,0,0-.52.26.753.753,0,0,1-.52.13q.65-1.43,1.17-2.8a9.78,9.78,0,0,1,1.43-2.535q-.26-.26-.455.13a.625.625,0,0,1-.585.39,3.544,3.544,0,0,1,.91-1.56,1.485,1.485,0,0,0,.39-1.56.585.585,0,0,0,.52-.195.981.981,0,0,1,.39-.325.538.538,0,0,0-.065-.585q-.2-.195.195-.325a.23.23,0,0,0,.26.26.23.23,0,0,0-.26-.26v-.26a.981.981,0,0,1,.325-.39.585.585,0,0,0,.195-.52q.13,0,.39.26a.749.749,0,0,0,.26-.52,1.154,1.154,0,0,0-.13-.52h.39a5.02,5.02,0,0,1,1.17-2.925,8.778,8.778,0,0,0,1.56-2.665.345.345,0,0,0,.39-.39q-.13-.26-.13.065t-.26.2l.585-1.17q.325-.65.845-.52,0-.39-.26-.26,2.6-3.77,5.07-7.6t4.81-7.735a37.607,37.607,0,0,0-3.705,1.69,9.122,9.122,0,0,0-3.185,2.6v.91a3.2,3.2,0,0,1-2.47,1.17q0-.78-1.17-.78-.13-.78-1.17-1.04a4.16,4.16,0,0,0-1.3-1.43,3.119,3.119,0,0,1-1.17-1.56,2.028,2.028,0,0,0,0-1.43,10.834,10.834,0,0,1,3.64-3.51,35.409,35.409,0,0,1,4.81-2.34q1.56-.78,2.795-1.43a11.972,11.972,0,0,1,3.055-1.04,2.032,2.032,0,0,1,1.1-.52,1.412,1.412,0,0,0,.975-.52q4.81-1.3,9.62-2.535a57.221,57.221,0,0,1,9.62-1.625q.39,0,.39-.26a34.664,34.664,0,0,0,4.68-.065,10.535,10.535,0,0,1,4.68.585,6.335,6.335,0,0,1,1.56,1.235,9.775,9.775,0,0,0,1.56,1.365,7.1,7.1,0,0,0,1.885,2.8,3.734,3.734,0,0,1,1.235,2.925,6.212,6.212,0,0,1-2.08,4.42q-2.08,2.08-4.03,3.9-1.04.91-2.08,1.69a16.972,16.972,0,0,0-1.82,1.56h-.52a1.28,1.28,0,0,1-.455.325q-.2.065-.2.455-3.38,2.08-6.955,4.16t-7.215,3.77q.13,0-.26.39a1.184,1.184,0,0,0-.91.13,1.564,1.564,0,0,1-.845.585,3.88,3.88,0,0,0-1.1.585q1.69.13,3.51.13t3.575.13a21.16,21.16,0,0,1,3.38.52,7.238,7.238,0,0,1,2.795,1.3q0,.13.065.13t.065.26q1.17,1.43,2.4,2.665a7.024,7.024,0,0,1,1.755,3.445,11.154,11.154,0,0,1-2.4,3.38,20.463,20.463,0,0,1-3.25,2.535,38.731,38.731,0,0,1-3.77,2.08q-2.015.975-3.835,2.015a.425.425,0,0,0-.52-.13q0,.13.195.13t.065.26q-.78-.39-1.3.52a.265.265,0,0,1-.195-.065.265.265,0,0,0-.2-.065q-4.29,1.95-8.71,3.7A81.665,81.665,0,0,1-196.365-11.18Zm12.61-45.5a4.17,4.17,0,0,0,1.69,1.56,4.17,4.17,0,0,1,1.69,1.56.864.864,0,0,1-.195.52.673.673,0,0,0-.065.65,2.561,2.561,0,0,0-.91.65,19.606,19.606,0,0,1-1.365,2.34,19.605,19.605,0,0,0-1.365,2.34,20.435,20.435,0,0,1-1.56,2.145A5.448,5.448,0,0,0-187-42.64q.78-.39,1.43-.78a6.5,6.5,0,0,1,1.56-.65q5.72-3.12,11.245-6.305a61.675,61.675,0,0,0,10.2-7.345,4.825,4.825,0,0,1,1.235-1.495,2.1,2.1,0,0,0,.845-1.625,61.837,61.837,0,0,0-11.7,1.235A97.743,97.743,0,0,0-183.755-56.68Zm5.33,26.39q.13.39.13,0T-178.425-30.29Zm-26.91,2.99q.13.26.195-.065T-205.335-27.3Zm-.52,1.3q0-.26.2-.26t.195-.26a.334.334,0,0,0-.455.13Q-206.115-26.13-205.855-26Zm1.82,5.46a.7.7,0,0,1,.325-.52q.325-.26-.2-.26a.257.257,0,0,1-.13.39Q-204.295-20.8-204.035-20.54Zm-1.17.13a.115.115,0,0,0-.13-.13.115.115,0,0,0-.13.13Zm.65.26q.13.39.13,0T-204.555-20.15Zm-.26.52h.26v-.26h-.26Zm-3.25.13v.26q.26.13.325-.195t-.2-.195A.115.115,0,0,1-208.065-19.5Zm.65.13q.13.39.13,0T-207.415-19.37Zm21.45,3.9q-.26,0-.26.13Q-185.965-15.34-185.965-15.47Zm-.91.39q-.26,0-.26.13Q-186.875-14.95-186.875-15.08Zm-2.73,1.04a.115.115,0,0,0,.13.13q0-.26.13-.26a.115.115,0,0,0,.13-.13h-.39Zm-.91.39q.52,0,.52-.39A.51.51,0,0,0-190.515-13.65Zm-.52.26h.26q.26-.26-.065-.325t-.325.195A.115.115,0,0,1-191.035-13.39Zm-1.04.26q.26.26.325.065t.325-.065v-.39A1.065,1.065,0,0,0-192.075-13.13Zm-4.29,0q-.26,0-.26.13Q-196.365-13-196.365-13.13Zm3.9.39a.115.115,0,0,1,.13-.13q0-.39-.26-.26Q-192.6-12.74-192.465-12.74Zm-1.69.39a4.737,4.737,0,0,0,.78-.065.417.417,0,0,0,.39-.455Q-194.025-12.87-194.155-12.35Zm-3.77-.13q0,.26.195.065t-.195-.065q.13-.52-.2-.195T-197.925-12.48Zm-2.86-.13q-.26,0-.26.13Q-200.785-12.48-200.785-12.61Zm2.47,0q-.26,0-.26.13Q-198.315-12.48-198.315-12.61Zm4.03.26q-.26,0-.26.13Q-194.285-12.22-194.285-12.35Zm-20.93.65h.26v-.26h-.26Zm5.07-.13Zm-5.59.13q.13.39.13,0T-215.735-11.7Zm13,.26q.39,0,.39-.26Q-202.735-11.7-202.735-11.44Zm1.69.13h.26v-.26h-.26Zm-12.35-.13q-.52.26-.13.26T-213.395-11.44Zm11.18.13v.26q.26.13.325-.195t-.195-.195A.115.115,0,0,1-202.215-11.31Zm-12.35.52q.65-.26.65-.52Q-214.565-11.31-214.565-10.79Zm4.55-.39q-.26,0-.26.13Q-210.015-11.05-210.015-11.18Zm7.54.13h-.39q-.13.26.195.26T-202.475-11.05Zm2.08-.13q-.26,0-.26.13Q-200.395-11.05-200.395-11.18Zm-8.32.13q-.39,0-.39.13Q-208.715-10.92-208.715-11.05Zm3.77.13Zm3.51,0q-.26,0-.26.13Q-201.435-10.79-201.435-10.92Zm-4.94.78a.23.23,0,0,0-.26.26,1.062,1.062,0,0,1,.78-.195.624.624,0,0,0,.65-.325q-.65.26-.78.065a3.15,3.15,0,0,0-.39-.455q-.26.26-.13.325T-206.375-10.14Zm.39-.52q.26.26.26-.065T-205.985-10.66Zm3.77.13h.26v-.26h-.26Zm-11.05-.13q-.39-.39-.39.13-.13.39.26.195T-213.265-10.66Zm4.42.52a1.182,1.182,0,0,0,.91-.065,4.883,4.883,0,0,0,.52-.455,2.391,2.391,0,0,1-.715.195A1.223,1.223,0,0,0-208.845-10.14Zm-6.24-.26q.26.39.195,0T-215.085-10.4Zm4.68.13q.52,0,.52-.13-.13-.26-.325-.2A.3.3,0,0,0-210.4-10.27Zm3.12.26q.39,0,.39-.52Q-207.285-10.66-207.285-10.01Zm2.21-.26h.26v-.26h-.26Zm-10.4.13h.26v-.26h-.26Zm.91-.26q-.26.26.065.26T-214.565-10.4Zm.39.13q.26.39.2,0T-214.175-10.27Zm6.5.26q.13.39.13,0T-207.675-10.01Zm-2.73.13q.13.39.13,0T-210.4-9.88Zm2.6.13a.425.425,0,0,0-.52-.13q-.26.26.13.325T-207.8-9.75Zm.13.52h.26v-.26h-.26Zm7.02-27.82v.13q-.13,0-.13-.065T-200.655-37.05Zm24.57,6.89a.373.373,0,0,1,.455-.195.894.894,0,0,1,.455.195.373.373,0,0,1-.455.195A.893.893,0,0,1-176.085-30.16Zm1.43,0Zm-30.68,1.3q.26-.13.195.195t-.325.2v-.26Zm-1.95,4.42q.13-.39.13,0T-207.285-24.44Zm-1.04,4.94q-.39.13-.195-.065T-208.325-19.5Zm-10.53,7.8h.26v.26h-.26Zm1.69.39q0,.26-.39.26Q-217.555-11.31-217.165-11.31Zm20.8.13q0,.26-.52.26A.524.524,0,0,1-196.365-11.18Zm-.91.13q0,.13.065.13t.065.26q-.26,0-.26-.39Zm-.78.13a.265.265,0,0,1,.195.065.265.265,0,0,0,.2.065,1.059,1.059,0,0,1-.78.26q0-.26.195-.2T-198.055-10.92Zm-19.37.39q.13-.39.13,0T-217.425-10.53Zm18.07.26q0-.39.2-.195T-199.355-10.27Zm-.26.13q0-.13.26-.13Q-199.355-10.14-199.615-10.14Zm-.91.13q0-.26.325-.195t.065.325h-.26A.115.115,0,0,0-200.525-10.01Zm-3.77.65q0-.13.26-.13Q-204.035-9.36-204.295-9.36Zm-11.57.13Zm4.03,0q0,.26-.26.2t-.26.195q-.26-.26,0-.455A.36.36,0,0,1-211.835-9.23Zm4.94,0q0-.26.26-.195a1.778,1.778,0,0,0,.39.065Q-206.5-8.84-206.895-9.23Zm1.43-.13h.26v.26h-.26Zm-2.99.39q-.65.39-.78.26Q-208.845-9.36-208.455-8.97Zm-1.04.13Zm1.56.13q0-.13.26-.13Q-207.675-8.71-207.935-8.71Zm-2.73,0a.608.608,0,0,1-.455.325.886.886,0,0,1-.585-.065A1.506,1.506,0,0,1-210.665-8.71Zm.65,0q-.26.26-.455.065T-210.015-8.71Zm-2.6.39q0-.13.26-.13Q-212.355-8.32-212.615-8.32Zm-1.17.13q0-.26.26-.195a2.137,2.137,0,0,0,.52.065Q-213.135-7.93-213.785-8.19Zm50.7-6.5h.13a.36.36,0,0,0,.065-.52.466.466,0,0,1-.065-.52q-.26,0-.26.195t-.26.065a.437.437,0,0,0,.195.39.437.437,0,0,1,.2.39q-.65,0-.455.455t-.585.325q0,1.3-.78,1.56a6.687,6.687,0,0,1,1.17-3.12q-.13-.26-.325-.065a.532.532,0,0,0-.195.325,2.536,2.536,0,0,1,.91-1.69q-.13-.26-.26-.065t-.26-.065q.52-1.04,1.1-2.145a9.038,9.038,0,0,0,.845-2.275q.65-.26.65-.39-.26-.39-.39-.39-.26,0-.13.325t-.26.2a.721.721,0,0,1,.13-.91q.39-.39.65-.13a1.213,1.213,0,0,1,.91-.91q-.26-.26,0-.91-.26-.26-.325.26t-.325.52q-.39.13-.26-.195t-.13-.2a2.178,2.178,0,0,0-.455.78,1.559,1.559,0,0,1-.585.78,9.28,9.28,0,0,1,.78-2.34.965.965,0,0,0,.65-.975.965.965,0,0,1,.65-.975v.52q.26,0,.26-.52-.39-.13-.26-.39t-.52,0a1.364,1.364,0,0,1,.2-.715q.195-.325.455-.065a.441.441,0,0,0,.13-.325q0-.195.26-.325a.648.648,0,0,1-.13-.65q.13-.26.325-.585a5.916,5.916,0,0,1,.455-.65.928.928,0,0,0,.13-.845,1.028,1.028,0,0,0,.65-.13v-.52q.39,0,.26-.195a.8.8,0,0,1-.13-.455h.39a.885.885,0,0,1,.065-.975,2.8,2.8,0,0,1,.715-.715,1.36,1.36,0,0,1,.39-1.5,1.2,1.2,0,0,0,.39-1.365,18.724,18.724,0,0,0,2.6-5.07,18.724,18.724,0,0,1,2.6-5.07q0-.26-.065-.26t-.065-.26a4.671,4.671,0,0,0,1.235-2.275,4.671,4.671,0,0,1,1.235-2.275q1.43-3.25,2.73-6.63a44.537,44.537,0,0,1,2.86-6.11,11.756,11.756,0,0,1,2.47,0q0,.52.65.65t.39.52a1.105,1.105,0,0,1,.91.325,1.105,1.105,0,0,0,.91.325,1.5,1.5,0,0,0,.585.975q.455.325.845.585v.65a3.544,3.544,0,0,0,1.56.91,1.049,1.049,0,0,1,.78,1.3,7.965,7.965,0,0,0-2.015,2.86q-.715,1.69-1.495,3.38-.26,0-.26-.065t-.26-.065q-.13.26,0,.325t.13.325q-.65,1.43-1.235,2.86a18.106,18.106,0,0,1-1.495,2.86.8.8,0,0,1,.195-.585.624.624,0,0,0,.2-.455,2.728,2.728,0,0,0-.91,1.365,10.592,10.592,0,0,1-.65,1.625q.52.13.65-.65a3.061,3.061,0,0,1,.39-1.17,2.124,2.124,0,0,1-.39,1.56q-.52.78-.91,1.43.39-.65.13-.91a2.328,2.328,0,0,0-.65,1.3,2.328,2.328,0,0,1-.65,1.3,5.042,5.042,0,0,1,.26.65q.13.39-.39.52a.753.753,0,0,1,.13-.52,12.108,12.108,0,0,0-2.34,4.29,15.1,15.1,0,0,1-2.21,4.42,20.879,20.879,0,0,1-2.015,4.68,20.879,20.879,0,0,0-2.015,4.68,3.122,3.122,0,0,0-1.04,1.69,3.547,3.547,0,0,1-.91,1.69,84.9,84.9,0,0,1,4.16-9.49q2.34-4.55,4.42-9.36a.23.23,0,0,0-.26-.26q-.26,0-.13-.26a1.065,1.065,0,0,0-.39.65q.13.26.195-.065t.325-.065l-.26.52-.26.52q-.26,0-.13-.26t0-.39a1.018,1.018,0,0,0-.195.26,1.019,1.019,0,0,1-.2.26,2.131,2.131,0,0,0,.325.26q.2.13-.065.39a.115.115,0,0,1-.13-.13.115.115,0,0,0-.13-.13q0,.13-.325.455t.195.325a4,4,0,0,0-.65.845,2.492,2.492,0,0,0-.26,1.235.635.635,0,0,0-.65.585,1.843,1.843,0,0,0,0,.975,1.791,1.791,0,0,0-.975.975,3.3,3.3,0,0,0-.325,1.365,16.9,16.9,0,0,0-1.43,2.275,9.213,9.213,0,0,0-.91,2.8,1.047,1.047,0,0,1-.455.13q-.195,0-.325.26a.7.7,0,0,1,.325-.975.82.82,0,0,0,.325-1.105q.65,0,.585-.52a2.06,2.06,0,0,1,.065-.91q0-.26-.13-.2a.212.212,0,0,1-.26-.065q-.26.13-.065.39a.864.864,0,0,1,.2.52q-.78,0-.78.585a1.721,1.721,0,0,1-.26.975.592.592,0,0,1-.325-.325q-.065-.195-.325.325-.26,0-.13-.26t0-.39a6.035,6.035,0,0,0-.715,1.3,11,11,0,0,1-.715,1.43.919.919,0,0,0,.78-.78,2.9,2.9,0,0,1,.39-1.04.532.532,0,0,1,.325.195q.195.2.195-.195.13,0,.13.52a1.354,1.354,0,0,0-.78.13q.26.39.065.585t.065.715h-.52a.732.732,0,0,1,.065.78,1.1,1.1,0,0,1-.455.52q.13-.78-.78-.39a.46.46,0,0,1,.195.65q-.195.39.325.52-.26.52-.585,1.1a1.16,1.16,0,0,1-1.1.585,3.826,3.826,0,0,1,.78-.975q.39-.325.26-1.235a5.092,5.092,0,0,0-.975,1.3,2.948,2.948,0,0,0-.2,1.69q-.26-.39-.39-.065t-.39.325a2.112,2.112,0,0,1,0,1.04q-.52-.13-.52.13t-.52.13a.3.3,0,0,0,.2.325q.2.065.065.455-.26,0-.325-.13t-.325.13q.52.13.325.455t-.325.585q-.52,0-.13-.195t.13-.455a.8.8,0,0,0-.52.585.974.974,0,0,0,.13.845q-.65,0-.78-.26-.26.13,0,.455a.7.7,0,0,0,.52.325,3.837,3.837,0,0,0-1.04,1.3,14.532,14.532,0,0,1-.91,1.56q-.26-.13-.065-.325a.36.36,0,0,0,.065-.455q-.26,0-.26.325t-.39.2a.265.265,0,0,1,.065-.2.514.514,0,0,0,.065-.325,7.244,7.244,0,0,0-1.43,2.34q-.39,0-.26-.325t-.39-.065a.764.764,0,0,1,.39-.65.414.414,0,0,0,.13-.65q-.39-.26-.455.065t-.325.325a9.173,9.173,0,0,1,.65-1.495A9.174,9.174,0,0,0-163.085-14.69Zm26-40.17h.26v-.26h-.26Zm0,.39q-.26,0-.26.13Q-137.085-54.34-137.085-54.47Zm-1.69,3.51a2.514,2.514,0,0,0,.325-.455q.2-.325-.195-.325.26.26-.065.39T-138.775-50.96Zm-.52.65q.26.13.26-.065a.441.441,0,0,1,.13-.325A.345.345,0,0,0-139.295-50.31Zm-1.04,2.08q.39,0,.65-.65t0-.78a1.059,1.059,0,0,1-.26.78A1.631,1.631,0,0,0-140.335-48.23Zm-1.17.91q0-.26.325-.325t.195-.455q-.13,0-.13-.065t-.26-.065q.26.39-.065.52T-141.5-47.32Zm-.39.65q.26.13.26-.26t-.26-.13Zm-.65,1.3a.208.208,0,0,1,.2.13.208.208,0,0,0,.195.13.864.864,0,0,1,.2-.52.864.864,0,0,0,.195-.52.981.981,0,0,0-.39.325A3.152,3.152,0,0,1-142.545-45.37Zm-.78,1.56q.26.13.2-.13a.316.316,0,0,1,.195-.39q-.26-.13-.195.13A.316.316,0,0,1-143.325-43.81Zm.65-.26q-.26,0-.26.13Q-142.675-43.94-142.675-44.07Zm-1.04,1.04q-.26,0-.26.13Q-143.715-42.9-143.715-43.03Zm.26.39q.26.13.26-.26t-.26-.13Zm-.52,1.04a.592.592,0,0,0,.325-.325,3.568,3.568,0,0,1,.195-.455Q-143.975-42.38-143.975-41.6Zm-.52.13q.26.13.39-.195t-.13-.325q0,.26-.195.26T-144.495-41.47Zm.26.39h.26v-.26h-.26Zm-8.97.13q-.26,0-.26.13Q-153.205-40.82-153.205-40.95Zm8.32,1.56a8.636,8.636,0,0,0,.65-1.56q-.39.13-.39.2t-.39-.2a.912.912,0,0,0,.065.78A.912.912,0,0,1-144.885-39.39Zm-.52.26a1.064,1.064,0,0,1,.13-.585,4.247,4.247,0,0,0,.26-.455q-.26,0-.65.52T-145.4-39.13Zm-.91-.91q-.26.26.065.26T-146.315-40.04Zm1.17,1.17a.115.115,0,0,1,.13-.13q0-.39-.26-.26Q-145.275-38.87-145.145-38.87Zm-9.23.65q.13.39.13,0T-154.375-38.22Zm-.65,1.43a.294.294,0,0,0,.065-.325.3.3,0,0,0-.325-.2A.749.749,0,0,0-155.025-36.79Zm6.37.26h.26v-.26h-.26Zm.65-.13v.26h.26a.115.115,0,0,1,.13-.13v-.26h-.26A.115.115,0,0,1-148-36.66Zm-6.11.39q.26.13.26-.065a.441.441,0,0,1,.13-.325q-.26-.13-.26.065A.441.441,0,0,1-154.115-36.27Zm-1.17.39q-.26,0-.26.13Q-155.285-35.75-155.285-35.88Zm6.76.52h.26v-.26h-.26Zm-.13.13q-.52.39-.065.455T-148.655-35.23Zm-.91.65q.26.13.26-.065a.441.441,0,0,1,.13-.325q-.26-.13-.26.065A.441.441,0,0,1-149.565-34.58Zm-6.5.13Zm6.89.13q.13.39.13,0T-149.175-34.32Zm-7.28.91h.26v-.26h-.26Zm7.15.52a.208.208,0,0,1,.13-.195q.13-.065-.13-.2a.208.208,0,0,1-.13.2Q-149.565-33.02-149.3-32.89Zm-1.3,1.95a1.028,1.028,0,0,1,.65.13.619.619,0,0,1-.195-.585,2.321,2.321,0,0,1,.195-.585,4.25,4.25,0,0,1,.26-.455q.13-.195-.13-.455a7.214,7.214,0,0,1-.455.975A3.17,3.17,0,0,0-150.6-30.94Zm-7.15-1.04q.39,0,.65-.78-.39,0-.39.26A.749.749,0,0,1-157.755-31.98Zm-.52,1.04a.466.466,0,0,0,.455.26q.325,0,.455-.39-.26-.26-.39,0t-.13,0a.53.53,0,0,1,.13-.39,1.513,1.513,0,0,0,.26-.39Q-158.015-31.85-158.275-30.94Zm1.04-.78q.39.13.2-.065T-157.235-31.72Zm6.89,1.17q-.26-.13-.26-.26t-.26,0a.257.257,0,0,0,.13.39A.257.257,0,0,0-150.345-30.55Zm-1.56.78a.416.416,0,0,0,.26-.39.416.416,0,0,1,.26-.39q-.13,0-.13-.065t-.26-.065a.429.429,0,0,1,0,.455A.8.8,0,0,0-151.9-29.77Zm-6.11-.39q.13.39.13,0T-158.015-30.16Zm-.52.13q-.26,0-.26.13Q-158.535-29.9-158.535-30.03Zm7.93.13q-.26,0-.26.13Q-150.605-29.77-150.6-29.9Zm-1.43.39q.13.39.13,0T-152.035-29.51Zm.39.52q.26-.13.26.13t.39.13a.713.713,0,0,1-.26-.455,1.047,1.047,0,0,0-.13-.455.3.3,0,0,1-.2.325Q-151.775-29.25-151.645-28.99Zm-6.76-.39v.26q.26.13.325-.195t-.195-.195A.115.115,0,0,1-158.4-29.38Zm6.24.78a.514.514,0,0,1,.065-.325q.065-.065-.2-.2l-.195.39Q-152.555-28.6-152.165-28.6Zm-6.63-.13a.115.115,0,0,1-.13-.13.115.115,0,0,0-.13-.13q-.26.13-.065.325T-158.795-28.73Zm-.52.26q.13.39.13,0T-159.315-28.47Zm6.11,1.3a3.567,3.567,0,0,0,.2-.455q.065-.195.455.065-.13-.39.13-.39t.13-.39a1.169,1.169,0,0,0-.91.455Q-153.595-27.43-153.205-27.17Zm-6.37-.78Zm.39,0v.26q.26.13.325-.195t-.195-.195A.115.115,0,0,1-159.185-27.95Zm.65.91q.39,0,.39-.26Q-158.665-27.3-158.535-27.04Zm-.91,0a1.1,1.1,0,0,0-.455.52q-.2.39.325.39-.13-.39,0-.52a.53.53,0,0,0,.13-.39q.39.13.195-.065T-159.445-27.04Zm6.37.13h.26v-.26h-.26Zm-7.15,1.3h.26a.53.53,0,0,1,.13-.39q-.52,0-.52.13Q-160.225-25.87-160.225-25.61Zm1.82.39q.26,0,.26-.13t.26-.26Q-158.145-25.74-158.4-25.22Zm-2.34.26h.52a.46.46,0,0,0-.52-.52Zm-.39.65a.632.632,0,0,1,.13-.325q.13-.195-.13-.195a.375.375,0,0,0-.13.26Q-161.265-24.31-161.135-24.31Zm2.21.52q0-.26.2-.26t.065-.26a.257.257,0,0,0-.39.13A.257.257,0,0,0-158.925-23.79Zm3.77.39q.39,0,.39-.52Q-155.155-23.92-155.155-23.4Zm-4.42.52q.13.39.13,0T-159.575-22.88Zm-.52,1.04h.26v-.26h-.26Zm-1.17.65q.13.39.13,0T-161.265-21.19Zm.52,1.04q.39,0,.39-.26Q-160.745-20.41-160.745-20.15Zm-2.08,1.56q.52-.26.52-.39A.51.51,0,0,0-162.825-18.59Zm.91.26h.39q0-.52-.26-.39a.265.265,0,0,1-.065.195A.265.265,0,0,0-161.915-18.33Zm4.03-.39q-.26,0-.26.13Q-157.885-18.59-157.885-18.72Zm-5.07.39q-.13.65,0,.13T-162.955-18.33Zm-.26,1.17q0-.26.2-.26t.065-.26a.257.257,0,0,0-.39.13A.257.257,0,0,0-163.215-17.16Zm2.99,1.04a.514.514,0,0,1,.065-.325q.065-.065-.195-.2Q-160.355-16.12-160.225-16.12Zm-2.21.91q.39.26.39-.2t-.26-.325q0,.26-.065.26T-162.435-15.21Zm1.43.39q.26.13.26-.26t-.26-.13Zm0,.26a.115.115,0,0,0-.13-.13.115.115,0,0,0-.13.13Zm-2.34,1.82a2.258,2.258,0,0,0,.455-.715.6.6,0,0,0-.065-.715q.13.39-.325.845T-163.345-12.74Zm1.3-.13a.417.417,0,0,0,.455-.39q.065-.39.325.13,0-.13.2-.26t-.065-.26q-.39.39-.13-.13t-.26-.39q-.13.39-.26.715T-162.045-12.87Zm-1.43,1.56q.13.26.195-.065T-163.475-11.31Zm21.06-31.85q.39,0,.195.455t-.455.455a.437.437,0,0,1,.2-.39Q-142.285-42.77-142.415-43.16Zm-.52,1.17h.26v.26h-.26Zm-.78,1.82q.13-.39.13,0T-143.715-40.17Zm-.26.39q.26-.13.26.26a.115.115,0,0,0-.13.13Q-143.975-39.39-143.975-39.78Zm-.52,1.43q0-.52.26-.39v.26a.115.115,0,0,0-.13.13Zm0,0q0,.26-.065.26t-.065.26q-.13,0-.13-.26a.375.375,0,0,1,.13-.26Zm-.65,1.3a.265.265,0,0,1,.065-.2.514.514,0,0,0,.065-.325q.26,0,.2.325T-145.145-37.05Zm0,0q.13.39-.065.195T-145.145-37.05Zm-.52,1.04q0-.26.195-.065T-145.665-36.01Zm0,0q0,.65-.26.52a.294.294,0,0,0,.065-.325Q-145.925-36.01-145.665-36.01Zm-.65,1.43Zm-1.56.78q.13-.39.13,0T-147.875-33.8Zm-10.53,1.69a.115.115,0,0,1-.13-.13Q-158.535-32.37-158.4-32.11Zm-2.73,5.07a.515.515,0,0,1,.065.65q-.2.39-.455.39a.864.864,0,0,1,.195-.52A.864.864,0,0,0-161.135-27.04Zm-.52,2.08q-.26,0-.26.195t-.26.065a7.135,7.135,0,0,1,.39-.91q.39-.13.2.13A.466.466,0,0,0-161.655-24.96Zm8.58.26q.13-.26.26-.065t.26.2l-.26.52-.26.52q-.39-.26,0-.585T-153.075-24.7Zm-8.58,1.56q.26-.39.2-.065T-161.655-23.14Zm-.78.52q.13.65-.26.26T-162.435-22.62Zm8.45.13q-.26.39-.26.065T-153.985-22.49Zm-.91.26q0-.13.26-.13Q-154.635-22.23-154.895-22.23Zm-7.8.65q.39-.13.325.195t.195.325q0,.26-.78.26a.53.53,0,0,0,.13-.39A.53.53,0,0,1-162.695-21.58Zm7.54.78q.52-.52.26,0t-.39.13A.115.115,0,0,1-155.155-20.8Zm-1.04.65q.26,0,.26.065t.13.065a.307.307,0,0,1-.26.325q-.26.065-.13.585-.65-.13-.325-.455A.9.9,0,0,0-156.195-20.15Zm-7.41.65q.26-.13.195.195t-.325.195v-.26Zm6.76.65a.115.115,0,0,1-.13-.13Q-156.975-19.11-156.845-18.85Zm0,0q.26,0,.26-.13.26.26,0,.715a.754.754,0,0,1-.65.455,4.249,4.249,0,0,1,.26-.455A1.064,1.064,0,0,0-156.845-18.85Zm-7.67,1.3q.26-1.04.78-1.17a2.277,2.277,0,0,1-.325.65A4.879,4.879,0,0,1-164.515-17.55Zm0,0q0,.65-.26.52A.749.749,0,0,1-164.515-17.55Zm7.67.39a.115.115,0,0,1,.13-.13.115.115,0,0,1,.13.13Zm-.91.65a.393.393,0,0,1,0,.585,3.408,3.408,0,0,0-.39.585q-.39-.39,0-.65T-157.755-16.51Zm-.78,1.3h.26v.26h-.26Zm-6.89.52q.13-.39.13,0T-165.425-14.69Zm5.85.39h.26v.26h-.26Zm-5.72,2.47q.26-.39.2-.065T-165.295-11.83Zm.39.52q0-.13.26-.13Q-164.645-11.31-164.9-11.31Zm.39.78h.26v.26h-.26Zm60.32-44.33a3,3,0,0,0,0-1.755,10.778,10.778,0,0,0-.78-1.625,31.817,31.817,0,0,0-8.775,5.785,60.847,60.847,0,0,0-6.825,7.475q-.52.65-.975,1.235t-.975,1.235a8.976,8.976,0,0,0-1.04,1.885,8.976,8.976,0,0,1-1.04,1.885,4.26,4.26,0,0,1-.52.65l-.52.52a52.714,52.714,0,0,0-2.795,5.655q-1.235,2.925-2.535,5.785.26.26.065.455a.36.36,0,0,0-.065.455,1.019,1.019,0,0,0-.2.26,1.018,1.018,0,0,1-.195.26,11.759,11.759,0,0,1-.52,2.73,7.836,7.836,0,0,0-.26,2.99,8.9,8.9,0,0,0,3.185-1.04q1.365-.78,2.795-1.43A172.339,172.339,0,0,0-110.11-34.645q7.475-6.955,15.665-13.195.52.26.715,0t.585,0q.26.65,0,.715a1.15,1.15,0,0,0-.52.325q.39.26.585-.065a.638.638,0,0,1,.585-.325.6.6,0,0,1-.39.65.827.827,0,0,0-.52.65.585.585,0,0,0,.195.52.981.981,0,0,1,.325.39,2.467,2.467,0,0,1-.91,1.495,1.848,1.848,0,0,0-.65,1.625q-.13.26-.325.26a1.047,1.047,0,0,0-.455.13q0,.52.39.26a3.6,3.6,0,0,1-1.04,1.43q-.65.52-1.43,1.04a1.191,1.191,0,0,1-.585,1.495,9.9,9.9,0,0,0-1.5.975,7.134,7.134,0,0,0,.39.91.764.764,0,0,1-.65.39q0-.26.13-.26t.13-.26a.922.922,0,0,0-.65.91,1.175,1.175,0,0,1-.65,1.04q0,.26.13.195t.13.065q.65.26.26-.39a.257.257,0,0,1,.13.39,1,1,0,0,0-.13.39q-.26.13-.325-.065a.3.3,0,0,0-.325-.195q.26.65,0,.91a1.648,1.648,0,0,0-.39.78q-.65-.52-1.04-.13a.316.316,0,0,0,.39.195q.26-.065.26.065a14.78,14.78,0,0,1-2.99,2.925,9.357,9.357,0,0,0-2.86,3.575q-.78-.13-.715.195a.619.619,0,0,1-.195.585q-.26.26-.325.13a.7.7,0,0,0-.325-.26q-.26.52.13.52a1.253,1.253,0,0,1-.65.52q-.39.13-.26.78-2.08,1.69-4.1,3.445a48.939,48.939,0,0,1-4.16,3.25,28.157,28.157,0,0,1-4.615,2.6,19.465,19.465,0,0,1-5.46,1.495q-1.17.65-3.51-.26a12.032,12.032,0,0,1-3.77-2.21q-.52-.39-1.1-.845a10.543,10.543,0,0,1-.975-.845,4,4,0,0,1-.65-.845,1.2,1.2,0,0,0-.78-.585.524.524,0,0,0-.26-.52,2.037,2.037,0,0,1-.52-.39,10.4,10.4,0,0,1-1.04-6.7A46.374,46.374,0,0,1-138.9-31.2v-.65a74.672,74.672,0,0,1,13.78-22.1.8.8,0,0,1,.13-.455.8.8,0,0,0,.13-.455,5.769,5.769,0,0,0,2.08-1.69,6.722,6.722,0,0,1,1.82-1.69v-.52a1.631,1.631,0,0,0,1.43-.78q1.43-1.43,2.795-2.665a24.426,24.426,0,0,1,3.185-2.4,11.4,11.4,0,0,1,1.82-.845,7.466,7.466,0,0,0,1.82-.975,1.855,1.855,0,0,0,1.105-.065q.455-.195.975-.455a1.3,1.3,0,0,0,1.3.26,7.365,7.365,0,0,1,1.17.585,1.483,1.483,0,0,0,1.3.065q-.13.39.13.455t.13.455q.39.26.65.065t.65.065q.26.26.13.39t.13.26a5.17,5.17,0,0,1,1.69,1.3,5.17,5.17,0,0,0,1.69,1.3,16.458,16.458,0,0,1-1.1,4.29,5.847,5.847,0,0,1-2.4,2.99q-.26,0-.26-.325a.466.466,0,0,0-.26-.455.373.373,0,0,0-.2.455q.065.325-.325.195a2.137,2.137,0,0,0-.065-.52.54.54,0,0,1,.2-.52q-.52,0-.585.325A.608.608,0,0,1-104.2-54.86Zm10.27,10.01q-.13.65.39.325t.13-.585Q-93.405-44.72-93.925-44.85Zm-.78,2.6q-.52-.26-.39.065T-94.705-42.25Zm-4.03,5.07q-.26.26-.26.13Q-98.735-37.05-98.735-37.18Zm-.91,1.17q.13.39.13,0T-99.645-36.01Zm-1.04,1.43v.26h.26a.115.115,0,0,1,.13-.13v-.26h-.26Q-100.555-34.45-100.685-34.58Zm-.65,1.69q.13-.26.26-.26t.13-.26a.624.624,0,0,0-.455.195Q-101.6-33.02-101.335-32.89Zm.26.39h-.39a.23.23,0,0,0,.26.26Q-100.945-32.24-101.075-32.5Zm-2.73,2.86q0-.39-.78-.65.13.39.325.455A3.566,3.566,0,0,1-103.805-29.64Zm-.39-25.22q0,.26-.065.195T-104.2-54.86Zm6.11,18.46a.307.307,0,0,1-.26.325.54.54,0,0,1-.52-.195q.13-.26.325-.13A.429.429,0,0,0-98.085-36.4Zm-8.71,10.66q.13-.39.13,0T-106.8-25.74Zm7.67,11.05h.13a.36.36,0,0,0,.065-.52.466.466,0,0,1-.065-.52q-.26,0-.26.195t-.26.065a.437.437,0,0,0,.195.39.437.437,0,0,1,.195.39q-.65,0-.455.455t-.585.325q0,1.3-.78,1.56a6.687,6.687,0,0,1,1.17-3.12q-.13-.26-.325-.065a.532.532,0,0,0-.195.325,2.536,2.536,0,0,1,.91-1.69q-.13-.26-.26-.065t-.26-.065q.52-1.04,1.105-2.145a9.037,9.037,0,0,0,.845-2.275q.65-.26.65-.39-.26-.39-.39-.39-.26,0-.13.325t-.26.2a.721.721,0,0,1,.13-.91q.39-.39.65-.13a1.213,1.213,0,0,1,.91-.91q-.26-.26,0-.91-.26-.26-.325.26t-.325.52q-.39.13-.26-.195t-.13-.2a2.178,2.178,0,0,0-.455.78,1.559,1.559,0,0,1-.585.78,9.281,9.281,0,0,1,.78-2.34.965.965,0,0,0,.65-.975.965.965,0,0,1,.65-.975v.52q.26,0,.26-.52-.39-.13-.26-.39t-.52,0a1.364,1.364,0,0,1,.195-.715q.2-.325.455-.065a.441.441,0,0,0,.13-.325q0-.195.26-.325a.648.648,0,0,1-.13-.65q.13-.26.325-.585a5.914,5.914,0,0,1,.455-.65.928.928,0,0,0,.13-.845,1.028,1.028,0,0,0,.65-.13v-.52q.39,0,.26-.195a.8.8,0,0,1-.13-.455h.39a.885.885,0,0,1,.065-.975,2.8,2.8,0,0,1,.715-.715,1.36,1.36,0,0,1,.39-1.5,1.2,1.2,0,0,0,.39-1.365,18.724,18.724,0,0,0,2.6-5.07,18.724,18.724,0,0,1,2.6-5.07q0-.26-.065-.26t-.065-.26a4.671,4.671,0,0,0,1.235-2.275,4.671,4.671,0,0,1,1.235-2.275q1.43-3.25,2.73-6.63a44.536,44.536,0,0,1,2.86-6.11,11.756,11.756,0,0,1,2.47,0q0,.52.65.65t.39.52a1.105,1.105,0,0,1,.91.325,1.105,1.105,0,0,0,.91.325,1.5,1.5,0,0,0,.585.975q.455.325.845.585v.65a3.544,3.544,0,0,0,1.56.91,1.049,1.049,0,0,1,.78,1.3,7.965,7.965,0,0,0-2.015,2.86q-.715,1.69-1.5,3.38-.26,0-.26-.065t-.26-.065q-.13.26,0,.325t.13.325q-.65,1.43-1.235,2.86a18.105,18.105,0,0,1-1.5,2.86.8.8,0,0,1,.195-.585.624.624,0,0,0,.195-.455,2.728,2.728,0,0,0-.91,1.365,10.592,10.592,0,0,1-.65,1.625q.52.13.65-.65a3.06,3.06,0,0,1,.39-1.17,2.125,2.125,0,0,1-.39,1.56q-.52.78-.91,1.43.39-.65.13-.91a2.328,2.328,0,0,0-.65,1.3,2.328,2.328,0,0,1-.65,1.3,5.045,5.045,0,0,1,.26.65q.13.39-.39.52a.753.753,0,0,1,.13-.52,12.107,12.107,0,0,0-2.34,4.29,15.1,15.1,0,0,1-2.21,4.42,20.879,20.879,0,0,1-2.015,4.68,20.879,20.879,0,0,0-2.015,4.68,3.122,3.122,0,0,0-1.04,1.69,3.547,3.547,0,0,1-.91,1.69,84.905,84.905,0,0,1,4.16-9.49q2.34-4.55,4.42-9.36a.23.23,0,0,0-.26-.26q-.26,0-.13-.26a1.065,1.065,0,0,0-.39.65q.13.26.2-.065t.325-.065l-.26.52-.26.52q-.26,0-.13-.26t0-.39a1.019,1.019,0,0,0-.195.26,1.019,1.019,0,0,1-.195.26,2.13,2.13,0,0,0,.325.26q.195.13-.065.39a.115.115,0,0,1-.13-.13.115.115,0,0,0-.13-.13q0,.13-.325.455t.195.325a4,4,0,0,0-.65.845,2.492,2.492,0,0,0-.26,1.235.635.635,0,0,0-.65.585,1.843,1.843,0,0,0,0,.975,1.791,1.791,0,0,0-.975.975A3.3,3.3,0,0,0-85.6-30.42a16.905,16.905,0,0,0-1.43,2.275,9.213,9.213,0,0,0-.91,2.8,1.047,1.047,0,0,1-.455.13q-.195,0-.325.26a.7.7,0,0,1,.325-.975.82.82,0,0,0,.325-1.105q.65,0,.585-.52a2.06,2.06,0,0,1,.065-.91q0-.26-.13-.2a.212.212,0,0,1-.26-.065q-.26.13-.065.39a.864.864,0,0,1,.195.52q-.78,0-.78.585a1.721,1.721,0,0,1-.26.975.592.592,0,0,1-.325-.325q-.065-.195-.325.325-.26,0-.13-.26t0-.39a6.035,6.035,0,0,0-.715,1.3,11,11,0,0,1-.715,1.43.919.919,0,0,0,.78-.78,2.9,2.9,0,0,1,.39-1.04.532.532,0,0,1,.325.195q.195.2.195-.195.13,0,.13.52a1.354,1.354,0,0,0-.78.13q.26.39.065.585t.065.715h-.52a.732.732,0,0,1,.065.78,1.1,1.1,0,0,1-.455.52q.13-.78-.78-.39a.46.46,0,0,1,.195.65q-.195.39.325.52-.26.52-.585,1.1a1.16,1.16,0,0,1-1.105.585,3.826,3.826,0,0,1,.78-.975q.39-.325.26-1.235a5.093,5.093,0,0,0-.975,1.3,2.948,2.948,0,0,0-.195,1.69q-.26-.39-.39-.065t-.39.325a2.113,2.113,0,0,1,0,1.04q-.52-.13-.52.13t-.52.13a.3.3,0,0,0,.195.325q.195.065.065.455-.26,0-.325-.13t-.325.13q.52.13.325.455t-.325.585q-.52,0-.13-.195t.13-.455a.8.8,0,0,0-.52.585.974.974,0,0,0,.13.845q-.65,0-.78-.26-.26.13,0,.455a.7.7,0,0,0,.52.325,3.837,3.837,0,0,0-1.04,1.3,14.533,14.533,0,0,1-.91,1.56q-.26-.13-.065-.325a.36.36,0,0,0,.065-.455q-.26,0-.26.325t-.39.2a.265.265,0,0,1,.065-.2.514.514,0,0,0,.065-.325,7.244,7.244,0,0,0-1.43,2.34q-.39,0-.26-.325t-.39-.065a.764.764,0,0,1,.39-.65.414.414,0,0,0,.13-.65q-.39-.26-.455.065t-.325.325a9.173,9.173,0,0,1,.65-1.495A9.173,9.173,0,0,0-99.125-14.69Zm26-40.17h.26v-.26h-.26Zm0,.39q-.26,0-.26.13Q-73.125-54.34-73.125-54.47Zm-1.69,3.51a2.514,2.514,0,0,0,.325-.455q.195-.325-.195-.325.26.26-.065.39T-74.815-50.96Zm-.52.65q.26.13.26-.065a.441.441,0,0,1,.13-.325A.345.345,0,0,0-75.335-50.31Zm-1.04,2.08q.39,0,.65-.65t0-.78a1.059,1.059,0,0,1-.26.78A1.632,1.632,0,0,0-76.375-48.23Zm-1.17.91q0-.26.325-.325t.2-.455q-.13,0-.13-.065t-.26-.065q.26.39-.065.52T-77.545-47.32Zm-.39.65q.26.13.26-.26t-.26-.13Zm-.65,1.3a.208.208,0,0,1,.195.13.208.208,0,0,0,.195.13A.864.864,0,0,1-78-45.63a.864.864,0,0,0,.195-.52.981.981,0,0,0-.39.325A3.151,3.151,0,0,1-78.585-45.37Zm-.78,1.56q.26.13.195-.13a.316.316,0,0,1,.195-.39q-.26-.13-.195.13A.316.316,0,0,1-79.365-43.81Zm.65-.26q-.26,0-.26.13Q-78.715-43.94-78.715-44.07Zm-1.04,1.04q-.26,0-.26.13Q-79.755-42.9-79.755-43.03Zm.26.39q.26.13.26-.26t-.26-.13Zm-.52,1.04a.592.592,0,0,0,.325-.325,3.565,3.565,0,0,1,.195-.455Q-80.015-42.38-80.015-41.6Zm-.52.13q.26.13.39-.195t-.13-.325q0,.26-.2.26T-80.535-41.47Zm.26.39h.26v-.26h-.26Zm-8.97.13q-.26,0-.26.13Q-89.245-40.82-89.245-40.95Zm8.32,1.56a8.637,8.637,0,0,0,.65-1.56q-.39.13-.39.2t-.39-.2a.912.912,0,0,0,.065.78A.912.912,0,0,1-80.925-39.39Zm-.52.26a1.064,1.064,0,0,1,.13-.585,4.251,4.251,0,0,0,.26-.455q-.26,0-.65.52T-81.445-39.13Zm-.91-.91q-.26.26.065.26T-82.355-40.04Zm1.17,1.17a.115.115,0,0,1,.13-.13q0-.39-.26-.26Q-81.315-38.87-81.185-38.87Zm-9.23.65q.13.39.13,0T-90.415-38.22Zm-.65,1.43A.294.294,0,0,0-91-37.115a.3.3,0,0,0-.325-.2A.749.749,0,0,0-91.065-36.79Zm6.37.26h.26v-.26h-.26Zm.65-.13v.26h.26a.115.115,0,0,1,.13-.13v-.26h-.26A.115.115,0,0,1-84.045-36.66Zm-6.11.39q.26.13.26-.065a.441.441,0,0,1,.13-.325q-.26-.13-.26.065A.441.441,0,0,1-90.155-36.27Zm-1.17.39q-.26,0-.26.13Q-91.325-35.75-91.325-35.88Zm6.76.52h.26v-.26h-.26Zm-.13.13q-.52.39-.065.455T-84.695-35.23Zm-.91.65q.26.13.26-.065a.441.441,0,0,1,.13-.325q-.26-.13-.26.065A.441.441,0,0,1-85.6-34.58Zm-6.5.13Zm6.89.13q.13.39.13,0T-85.215-34.32Zm-7.28.91h.26v-.26h-.26Zm7.15.52a.208.208,0,0,1,.13-.195q.13-.065-.13-.2a.208.208,0,0,1-.13.2Q-85.6-33.02-85.345-32.89Zm-1.3,1.95a1.028,1.028,0,0,1,.65.13.619.619,0,0,1-.195-.585,2.32,2.32,0,0,1,.195-.585,4.25,4.25,0,0,1,.26-.455q.13-.195-.13-.455a7.215,7.215,0,0,1-.455.975A3.17,3.17,0,0,0-86.645-30.94Zm-7.15-1.04q.39,0,.65-.78-.39,0-.39.26A.749.749,0,0,1-93.795-31.98Zm-.52,1.04a.466.466,0,0,0,.455.26q.325,0,.455-.39-.26-.26-.39,0t-.13,0a.53.53,0,0,1,.13-.39,1.513,1.513,0,0,0,.26-.39Q-94.055-31.85-94.315-30.94Zm1.04-.78q.39.13.195-.065T-93.275-31.72Zm6.89,1.17q-.26-.13-.26-.26t-.26,0a.257.257,0,0,0,.13.39A.257.257,0,0,0-86.385-30.55Zm-1.56.78a.416.416,0,0,0,.26-.39.416.416,0,0,1,.26-.39q-.13,0-.13-.065t-.26-.065a.429.429,0,0,1,0,.455A.8.8,0,0,0-87.945-29.77Zm-6.11-.39q.13.39.13,0T-94.055-30.16Zm-.52.13q-.26,0-.26.13Q-94.575-29.9-94.575-30.03Zm7.93.13q-.26,0-.26.13Q-86.645-29.77-86.645-29.9Zm-1.43.39q.13.39.13,0T-88.075-29.51Zm.39.52q.26-.13.26.13t.39.13a.713.713,0,0,1-.26-.455,1.047,1.047,0,0,0-.13-.455.3.3,0,0,1-.195.325Q-87.815-29.25-87.685-28.99Zm-6.76-.39v.26q.26.13.325-.195t-.195-.195A.115.115,0,0,1-94.445-29.38Zm6.24.78a.514.514,0,0,1,.065-.325q.065-.065-.195-.2l-.195.39Q-88.595-28.6-88.2-28.6Zm-6.63-.13a.115.115,0,0,1-.13-.13.115.115,0,0,0-.13-.13q-.26.13-.065.325T-94.835-28.73Zm-.52.26q.13.39.13,0T-95.355-28.47Zm6.11,1.3a3.568,3.568,0,0,0,.195-.455q.065-.195.455.065-.13-.39.13-.39t.13-.39a1.169,1.169,0,0,0-.91.455Q-89.635-27.43-89.245-27.17Zm-6.37-.78Zm.39,0v.26q.26.13.325-.195t-.195-.195A.115.115,0,0,1-95.225-27.95Zm.65.91q.39,0,.39-.26Q-94.7-27.3-94.575-27.04Zm-.91,0a1.1,1.1,0,0,0-.455.52q-.195.39.325.39-.13-.39,0-.52a.53.53,0,0,0,.13-.39q.39.13.195-.065T-95.485-27.04Zm6.37.13h.26v-.26h-.26Zm-7.15,1.3H-96a.53.53,0,0,1,.13-.39q-.52,0-.52.13Q-96.265-25.87-96.265-25.61Zm1.82.39q.26,0,.26-.13t.26-.26Q-94.185-25.74-94.445-25.22Zm-2.34.26h.52a.46.46,0,0,0-.52-.52Zm-.39.65a.632.632,0,0,1,.13-.325q.13-.195-.13-.195a.375.375,0,0,0-.13.26Q-97.305-24.31-97.175-24.31Zm2.21.52q0-.26.195-.26t.065-.26a.257.257,0,0,0-.39.13A.257.257,0,0,0-94.965-23.79Zm3.77.39q.39,0,.39-.52Q-91.2-23.92-91.195-23.4Zm-4.42.52q.13.39.13,0T-95.615-22.88Zm-.52,1.04h.26v-.26h-.26Zm-1.17.65q.13.39.13,0T-97.305-21.19Zm.52,1.04q.39,0,.39-.26Q-96.785-20.41-96.785-20.15Zm-2.08,1.56q.52-.26.52-.39A.51.51,0,0,0-98.865-18.59Zm.91.26h.39q0-.52-.26-.39a.265.265,0,0,1-.065.195A.265.265,0,0,0-97.955-18.33Zm4.03-.39q-.26,0-.26.13Q-93.925-18.59-93.925-18.72Zm-5.07.39q-.13.65,0,.13T-98.995-18.33Zm-.26,1.17q0-.26.195-.26t.065-.26a.257.257,0,0,0-.39.13A.257.257,0,0,0-99.255-17.16Zm2.99,1.04a.514.514,0,0,1,.065-.325q.065-.065-.195-.2Q-96.395-16.12-96.265-16.12Zm-2.21.91q.39.26.39-.2t-.26-.325q0,.26-.065.26T-98.475-15.21Zm1.43.39q.26.13.26-.26t-.26-.13Zm0,.26a.115.115,0,0,0-.13-.13.115.115,0,0,0-.13.13Zm-2.34,1.82a2.258,2.258,0,0,0,.455-.715.6.6,0,0,0-.065-.715q.13.39-.325.845T-99.385-12.74Zm1.3-.13a.417.417,0,0,0,.455-.39q.065-.39.325.13,0-.13.195-.26t-.065-.26q-.39.39-.13-.13t-.26-.39q-.13.39-.26.715T-98.085-12.87Zm-1.43,1.56q.13.26.195-.065T-99.515-11.31Zm21.06-31.85q.39,0,.195.455t-.455.455a.437.437,0,0,1,.195-.39Q-78.325-42.77-78.455-43.16Zm-.52,1.17h.26v.26h-.26Zm-.78,1.82q.13-.39.13,0T-79.755-40.17Zm-.26.39q.26-.13.26.26a.115.115,0,0,0-.13.13Q-80.015-39.39-80.015-39.78Zm-.52,1.43q0-.52.26-.39v.26a.115.115,0,0,0-.13.13Zm0,0q0,.26-.065.26t-.065.26q-.13,0-.13-.26a.375.375,0,0,1,.13-.26Zm-.65,1.3a.265.265,0,0,1,.065-.2.514.514,0,0,0,.065-.325q.26,0,.195.325T-81.185-37.05Zm0,0q.13.39-.065.195T-81.185-37.05Zm-.52,1.04q0-.26.195-.065T-81.7-36.01Zm0,0q0,.65-.26.52a.294.294,0,0,0,.065-.325Q-81.965-36.01-81.7-36.01Zm-.65,1.43Zm-1.56.78q.13-.39.13,0T-83.915-33.8Zm-10.53,1.69a.115.115,0,0,1-.13-.13Q-94.575-32.37-94.445-32.11Zm-2.73,5.07a.515.515,0,0,1,.065.65q-.195.39-.455.39a.864.864,0,0,1,.195-.52A.864.864,0,0,0-97.175-27.04Zm-.52,2.08q-.26,0-.26.195t-.26.065a7.133,7.133,0,0,1,.39-.91q.39-.13.195.13A.466.466,0,0,0-97.695-24.96Zm8.58.26q.13-.26.26-.065t.26.2l-.26.52-.26.52q-.39-.26,0-.585T-89.115-24.7Zm-8.58,1.56q.26-.39.195-.065T-97.695-23.14Zm-.78.52q.13.65-.26.26T-98.475-22.62Zm8.45.13q-.26.39-.26.065T-90.025-22.49Zm-.91.26q0-.13.26-.13Q-90.675-22.23-90.935-22.23Zm-7.8.65q.39-.13.325.195t.195.325q0,.26-.78.26a.53.53,0,0,0,.13-.39A.53.53,0,0,1-98.735-21.58Zm7.54.78q.52-.52.26,0t-.39.13A.115.115,0,0,1-91.195-20.8Zm-1.04.65q.26,0,.26.065t.13.065a.307.307,0,0,1-.26.325q-.26.065-.13.585-.65-.13-.325-.455A.9.9,0,0,0-92.235-20.15Zm-7.41.65q.26-.13.195.195t-.325.195v-.26Zm6.76.65a.115.115,0,0,1-.13-.13Q-93.015-19.11-92.885-18.85Zm0,0q.26,0,.26-.13.26.26,0,.715a.754.754,0,0,1-.65.455,4.249,4.249,0,0,1,.26-.455A1.064,1.064,0,0,0-92.885-18.85Zm-7.67,1.3q.26-1.04.78-1.17a2.278,2.278,0,0,1-.325.65A4.881,4.881,0,0,1-100.555-17.55Zm0,0q0,.65-.26.52A.749.749,0,0,1-100.555-17.55Zm7.67.39a.115.115,0,0,1,.13-.13.115.115,0,0,1,.13.13Zm-.91.65a.393.393,0,0,1,0,.585,3.409,3.409,0,0,0-.39.585q-.39-.39,0-.65T-93.795-16.51Zm-.78,1.3h.26v.26h-.26Zm-6.89.52q.13-.39.13,0T-101.465-14.69Zm5.85.39h.26v.26h-.26Zm-5.72,2.47q.26-.39.195-.065T-101.335-11.83Zm.39.52q0-.13.26-.13Q-100.685-11.31-100.945-11.31Zm.39.78h.26v.26h-.26Zm60.32-44.33a3,3,0,0,0,0-1.755,10.779,10.779,0,0,0-.78-1.625,31.817,31.817,0,0,0-8.775,5.785,60.847,60.847,0,0,0-6.825,7.475q-.52.65-.975,1.235t-.975,1.235a8.976,8.976,0,0,0-1.04,1.885,8.976,8.976,0,0,1-1.04,1.885,4.26,4.26,0,0,1-.52.65l-.52.52a52.714,52.714,0,0,0-2.795,5.655q-1.235,2.925-2.535,5.785.26.26.065.455a.36.36,0,0,0-.065.455,1.019,1.019,0,0,0-.195.26,1.019,1.019,0,0,1-.195.26,11.758,11.758,0,0,1-.52,2.73,7.836,7.836,0,0,0-.26,2.99A8.9,8.9,0,0,0-65-20.02q1.365-.78,2.795-1.43A172.339,172.339,0,0,0-46.15-34.645Q-38.675-41.6-30.485-47.84q.52.26.715,0t.585,0q.26.65,0,.715a1.15,1.15,0,0,0-.52.325q.39.26.585-.065a.638.638,0,0,1,.585-.325.6.6,0,0,1-.39.65.827.827,0,0,0-.52.65.585.585,0,0,0,.195.52.981.981,0,0,1,.325.39,2.467,2.467,0,0,1-.91,1.495,1.848,1.848,0,0,0-.65,1.625q-.13.26-.325.26a1.047,1.047,0,0,0-.455.13q0,.52.39.26a3.6,3.6,0,0,1-1.04,1.43q-.65.52-1.43,1.04a1.191,1.191,0,0,1-.585,1.495,9.9,9.9,0,0,0-1.5.975,7.133,7.133,0,0,0,.39.91.764.764,0,0,1-.65.39q0-.26.13-.26t.13-.26a.922.922,0,0,0-.65.91,1.175,1.175,0,0,1-.65,1.04q0,.26.13.195t.13.065q.65.26.26-.39a.257.257,0,0,1,.13.39,1,1,0,0,0-.13.39q-.26.13-.325-.065a.3.3,0,0,0-.325-.195q.26.65,0,.91a1.648,1.648,0,0,0-.39.78q-.65-.52-1.04-.13a.316.316,0,0,0,.39.195q.26-.065.26.065a14.78,14.78,0,0,1-2.99,2.925,9.357,9.357,0,0,0-2.86,3.575q-.78-.13-.715.195a.619.619,0,0,1-.195.585q-.26.26-.325.13a.7.7,0,0,0-.325-.26q-.26.52.13.52a1.253,1.253,0,0,1-.65.52q-.39.13-.26.78-2.08,1.69-4.1,3.445a48.939,48.939,0,0,1-4.16,3.25,28.157,28.157,0,0,1-4.615,2.6,19.465,19.465,0,0,1-5.46,1.495q-1.17.65-3.51-.26a12.032,12.032,0,0,1-3.77-2.21q-.52-.39-1.105-.845a10.543,10.543,0,0,1-.975-.845,4,4,0,0,1-.65-.845,1.2,1.2,0,0,0-.78-.585.524.524,0,0,0-.26-.52,2.037,2.037,0,0,1-.52-.39,10.4,10.4,0,0,1-1.04-6.7,46.376,46.376,0,0,1,1.82-6.435v-.65a74.673,74.673,0,0,1,13.78-22.1.8.8,0,0,1,.13-.455.8.8,0,0,0,.13-.455,5.769,5.769,0,0,0,2.08-1.69A6.722,6.722,0,0,1-57-58.24v-.52a1.631,1.631,0,0,0,1.43-.78q1.43-1.43,2.8-2.665a24.426,24.426,0,0,1,3.185-2.4,11.4,11.4,0,0,1,1.82-.845,7.466,7.466,0,0,0,1.82-.975A1.855,1.855,0,0,0-44.85-66.5q.455-.195.975-.455a1.3,1.3,0,0,0,1.3.26,7.364,7.364,0,0,1,1.17.585,1.483,1.483,0,0,0,1.3.065q-.13.39.13.455t.13.455q.39.26.65.065t.65.065q.26.26.13.39t.13.26a5.17,5.17,0,0,1,1.69,1.3,5.17,5.17,0,0,0,1.69,1.3,16.458,16.458,0,0,1-1.1,4.29,5.847,5.847,0,0,1-2.4,2.99q-.26,0-.26-.325a.466.466,0,0,0-.26-.455.373.373,0,0,0-.2.455q.065.325-.325.195a2.137,2.137,0,0,0-.065-.52.54.54,0,0,1,.2-.52q-.52,0-.585.325A.608.608,0,0,1-40.235-54.86Zm10.27,10.01q-.13.65.39.325t.13-.585Q-29.445-44.72-29.965-44.85Zm-.78,2.6q-.52-.26-.39.065T-30.745-42.25Zm-4.03,5.07q-.26.26-.26.13Q-34.775-37.05-34.775-37.18Zm-.91,1.17q.13.39.13,0T-35.685-36.01Zm-1.04,1.43v.26h.26a.115.115,0,0,1,.13-.13v-.26h-.26Q-36.595-34.45-36.725-34.58Zm-.65,1.69q.13-.26.26-.26t.13-.26a.624.624,0,0,0-.455.195Q-37.635-33.02-37.375-32.89Zm.26.39h-.39a.23.23,0,0,0,.26.26Q-36.985-32.24-37.115-32.5Zm-2.73,2.86q0-.39-.78-.65.13.39.325.455A3.566,3.566,0,0,1-39.845-29.64Zm-.39-25.22q0,.26-.065.195T-40.235-54.86Zm6.11,18.46a.307.307,0,0,1-.26.325.54.54,0,0,1-.52-.195q.13-.26.325-.13A.429.429,0,0,0-34.125-36.4Zm-8.71,10.66q.13-.39.13,0T-42.835-25.74ZM14.885-37.7a.781.781,0,0,0-.52-.52.86.86,0,0,0-.78.13.441.441,0,0,0,.325.13,1.047,1.047,0,0,1,.455.13q.13.26-.13.26t-.13.39a.3.3,0,0,1-.325-.195q-.065-.2-.455-.065-.13,0-.13.52a5.3,5.3,0,0,0-3.12.91.882.882,0,0,0,.65.26,1.124,1.124,0,0,1,.91-.52,1.963,1.963,0,0,0,1.17-.52v.39a5.044,5.044,0,0,0,.65-.26,1.811,1.811,0,0,1,.78-.13A34.649,34.649,0,0,1,8-34.06a34.649,34.649,0,0,0-6.24,2.73q.26.39.52,0t.39,0a1.3,1.3,0,0,1-.845.52,1.3,1.3,0,0,0-.845.52q-.26-.39.195-.455t.455-.325a.9.9,0,0,0-1.1.26,1.943,1.943,0,0,1-1.105.65q.26.65-.39.78-.13-.26.13-.325t0-.325q-.52,0-.26.65-.52.26-.975.52a8.945,8.945,0,0,1-1.105.52q0-.39.26-.39a.416.416,0,0,0,.39-.26q-.26-.39-.65,0a2.046,2.046,0,0,1-.78.52q-.13.26.13.325t0,.325h-.39q-.39-.65-.78-.13a1.124,1.124,0,0,1-.91.52q.52.26.78-.13a.8.8,0,0,1,.91-.26,3.768,3.768,0,0,1-1.365.91A7.044,7.044,0,0,0-7.215-26q-.13-.39,0-.52-.52,0-.26.65a3.119,3.119,0,0,0-1.56,1.17.437.437,0,0,1-.39-.195q-.13-.2-.26.195-.13-.13-.13.13.13.13.13-.13.52.65-.26.585t-.65.455a.23.23,0,0,1-.26-.26q-.26,0-.26.52-.26,0-.325-.13t-.325-.13q.39.52,0,.78a2.9,2.9,0,0,1-1.04.39q.13-.39-.065-.325a.3.3,0,0,0-.2.325.753.753,0,0,0-.52.13q0,.13.39.13-.13.26-.325.195a1.44,1.44,0,0,0-.455-.065q.13,0-.13.65a.943.943,0,0,0-1.04.455q-.39.585-.91.325a12.983,12.983,0,0,0-1.3,1.17q-.78.78-1.43.39.26,0,.26-.13t.26,0q0-.26-.26-.195a.307.307,0,0,0-.26.325q-.13,0-.39.26,0,.26.13.065t.13.065a2.383,2.383,0,0,1-1.17.975,11,11,0,0,0-1.43.715q0-.26.13-.26a.115.115,0,0,0,.13-.13.589.589,0,0,0-.65.13q0,.26.39.26a3.151,3.151,0,0,0-.39.455.585.585,0,0,1-.52.195q-.13-.39.13-.325t.13-.195q-.52-.13-.455.26a.7.7,0,0,1-.195.65q-.39.13-.26-.26t-.26-.13q-.26.13-.065.26t.065.39q-.39,0-.39.26-.26,0-.195-.26t-.195-.13q.26.91-1.3,1.17v-.26q.39,0,.39-.26t-.26-.13a.257.257,0,0,0-.13.39.115.115,0,0,0-.13.13.115.115,0,0,0,.13.13q0,.13-.065.13t-.065.13A.8.8,0,0,0-26-14.3a.8.8,0,0,1-.455.13A5.2,5.2,0,0,1-30.42-13a7.159,7.159,0,0,1-3.835-1.69,3.531,3.531,0,0,0-.975-1.235,12.4,12.4,0,0,0-1.235-.845,1.422,1.422,0,0,0-.65-1.17,1.164,1.164,0,0,1-.65-.78,56.717,56.717,0,0,1,3.64-7.865q2.08-3.7,4.42-7.215t4.81-6.955q2.47-3.445,4.68-6.955a.592.592,0,0,0,.325-.325q.065-.2.325-.065a51.836,51.836,0,0,1,6.37-9.295,72.274,72.274,0,0,0,6.63-9.035A2.438,2.438,0,0,0-5-67.73a8.613,8.613,0,0,1,1.82-.13q0,.26.13.325t0,.325A3.349,3.349,0,0,1-.78-65.65a14.37,14.37,0,0,0,1.885,2.34q0,.26-.195.26a.441.441,0,0,0-.325.13q.13.39.26.13t.39,0a.764.764,0,0,1-.325.715,3.022,3.022,0,0,0-.585.455,36.087,36.087,0,0,1-2.34,3.575,29.678,29.678,0,0,0-2.34,3.705q-.26,0-.325.13A.7.7,0,0,1-5-53.95v.52a4.588,4.588,0,0,0-1.95,2.73q-.26-.13-.26,0t-.26.13a16.021,16.021,0,0,1-3.25,4.42,8.159,8.159,0,0,1-1.95,3.25,11.294,11.294,0,0,0-2.21,3.25,64.7,64.7,0,0,0-4.875,6.695Q-22.035-29.38-24.245-26a6.8,6.8,0,0,0,1.885-.91,20.536,20.536,0,0,0,1.755-1.3,2.3,2.3,0,0,0,1.04-.455,3.353,3.353,0,0,0,.65-.715q4.94-2.73,10.075-5.265T1.625-39.52q.26.39.325.13t.455-.26a.509.509,0,0,1-.455.585Q1.5-39,1.5-38.35a.592.592,0,0,1-.325-.325q-.065-.195-.325-.065-.26.26.195.325t.325.455a1.512,1.512,0,0,0,.39-.26q.13-.13.39,0,0,.26-.065.26t-.065.26a4.22,4.22,0,0,0,1.365-.455q.585-.325,1.105-.585.26-.13.13.2t.26.195a.713.713,0,0,1,.455-.715,5.636,5.636,0,0,1,1.1-.325q-.13.39-.39.455t0,.585a3.052,3.052,0,0,0,.65-1.04q.26.26.39.13a1.512,1.512,0,0,1,.39-.26q0-.39-.26-.13a3.641,3.641,0,0,1,1.365-.26,1.483,1.483,0,0,0,1.235-.78.922.922,0,0,1-.65.91l.39.195q.13.065-.13.455a15.384,15.384,0,0,0,1.69-.585,15.384,15.384,0,0,1,1.69-.585q.26.26,0,.325t0,.325q.26-.13.585-.325a.434.434,0,0,1,.585.065,1.8,1.8,0,0,1-1.5.65,1.194,1.194,0,0,0-1.235,1.04,2.524,2.524,0,0,0,1.365-.65,1.02,1.02,0,0,1,1.495,0,1.133,1.133,0,0,0,.325-.585q.065-.325.715-.2.13.26-.065.325a.3.3,0,0,0-.195.325,6.674,6.674,0,0,1,1.56-.325,8.871,8.871,0,0,0,1.69-.325,1.243,1.243,0,0,1-.715.52q-.455.13-.325.78-.26-.13-.195-.195a.514.514,0,0,0,.065-.325,3.415,3.415,0,0,0-.52.325q-.26.2-.52-.2-.26.13-.065.26a2.13,2.13,0,0,1,.325.26.592.592,0,0,1-.455.065,1.44,1.44,0,0,0-.455-.065q-.26-.13-.13.26T14.885-37.7Zm-26.91-7.15q-.26,0-.26.13Q-12.025-44.98-12.025-44.85Zm-.65.65q.13.39.13,0T-12.675-44.2Zm-.52,1.17a.524.524,0,0,1,.26-.52.416.416,0,0,0,.26-.39,3.409,3.409,0,0,0-.585.39Q-13.585-43.29-13.195-43.03Zm-.52.39q.39,0,.39-.26Q-13.715-42.9-13.715-42.64Zm-.39.65a.441.441,0,0,1-.325.13q-.2,0-.065.26a.345.345,0,0,0,.39-.39h.13q.39-.39,0-.39Q-14.1-42.38-14.1-41.99Zm-.52.65Zm-.91,1.3q.52-.13.78-.91Q-15.275-40.95-15.535-40.04Zm27.95.65q.26-.52-.13-.52Q12.025-39.65,12.415-39.39Zm-28.21-.26Zm23.4.52a.823.823,0,0,0,.715-.065q.325-.2.585.325a.493.493,0,0,0,.065-.455.893.893,0,0,0-.195-.455q-.26.52-.585.39T7.605-39.13Zm-23.79.13h.26v-.26h-.26Zm26.52.13a.875.875,0,0,0,.78-.39Q10.465-39.26,10.335-38.87Zm-3.51,0v.26q.26.13.325-.195T6.955-39A.115.115,0,0,1,6.825-38.87Zm-23.14.13q.13.39.13,0T-16.315-38.74Zm31.85.39q0-.26.13-.13,0-.39-.26-.26A.53.53,0,0,0,15.535-38.35Zm-.65-.13q.13.26.195-.065T14.885-38.48Zm-4.03.13q.13.39.13,0T10.855-38.35Zm-27.95.52a.3.3,0,0,0,.325-.195.816.816,0,0,1,.195-.325A.46.46,0,0,0-17.095-37.83Zm27.17-.26q.39,0,.39-.26h-.26q0,.13-.065.13T10.075-38.09Zm-9.62.52a.905.905,0,0,0,.39-.065.905.905,0,0,1,.39-.065q0-.39-.26-.39,0,.26-.195.26T.455-37.57Zm4.16-.13a.257.257,0,0,0,.39-.13q.13-.26-.13-.26,0,.13-.2.13T4.615-37.7Zm-5.2-.13q.13.26.2-.065T-.585-37.83Zm4.68-.13q-.26,0-.26.13Q4.1-38.09,4.1-37.96Zm-5.33.65h-.26q.26.26.065.39t.065.39a1.811,1.811,0,0,0,.13-.78.345.345,0,0,0,.39-.39Q-1.235-37.83-1.235-37.31Zm.52.26a.425.425,0,0,0,.52-.13q.26-.26,0-.39a.23.23,0,0,1-.26.26A.23.23,0,0,0-.715-37.05Zm1.69-.13a.875.875,0,0,0,.78-.39Q1.105-37.57.975-37.18Zm10.4.26a.632.632,0,0,1,.13-.325q.13-.195-.13-.195a.375.375,0,0,0-.13.26Q11.245-36.92,11.375-36.92Zm-28.99,0h-.13q0,.26-.13.325t-.13.325q-.13-.13-.13.13h-.13a7.093,7.093,0,0,0-.52.585,2.282,2.282,0,0,0-.39.975h-.13a4.593,4.593,0,0,1-.91,1.105,2.294,2.294,0,0,0-.65,1.495.63.63,0,0,0-.585.455q-.195.455.065.585l.26-.52.26-.52a8.234,8.234,0,0,1,.91-1.235,3.872,3.872,0,0,0,.78-1.365l.52-.78.52-.78.13-.13h.13q0-.26.13-.325t.13-.325h.13a.115.115,0,0,1,.13-.13v-.26Q-17.615-37.44-17.615-36.92Zm19.63-.13h.26v-.26h-.26ZM.2-36.53q0-.26.325-.325t.325-.325a19.445,19.445,0,0,0-4.03,1.95,3.013,3.013,0,0,0,1.69-.715A2.43,2.43,0,0,1,.2-36.53Zm-2.47.39a.3.3,0,0,1,.195-.325.816.816,0,0,0,.325-.195.115.115,0,0,1-.13-.13h-.26q.13.26-.13.325T-2.275-36.14Zm-1.3.39a1.119,1.119,0,0,0,.715-.26q.325-.26.065-.52,0,.26-.325.325A.607.607,0,0,0-3.575-35.75Zm4.16-.65q.13.26.2-.065T.585-36.4Zm-6.5,1.04h.26v-.26h-.26Zm.13.78a1.348,1.348,0,0,0,.845-.39q.455-.39-.065-.65.13.65-.325.585T-5.785-34.58Zm1.43-.78q.39,0,.39-.26Q-4.355-35.62-4.355-35.36Zm13.91.26q-.13-.39.26-.325t.26-.195h-.52q.13.26-.065.325T9.555-35.1Zm-2.21.39A2.391,2.391,0,0,1,8.06-34.9Q8.515-34.97,8-35.23a.824.824,0,0,1-.39.195A.307.307,0,0,0,7.345-34.71Zm-11.57-.13h.26v-.26h-.26Zm-3.25.52q0-.26.13-.325t-.13-.065a.208.208,0,0,1-.13.195Q-7.735-34.45-7.475-34.32Zm.65.26a2.54,2.54,0,0,1,.52-.2.307.307,0,0,0,.26-.325,1.154,1.154,0,0,1-.52.13Q-6.825-34.45-6.825-34.06ZM-5-34.45q.26.39.195,0T-5-34.45Zm11.18.52q.39,0,.39-.52h-.39Zm-12.35.26a.3.3,0,0,0,.325-.195q.065-.195.455-.065v-.26q-.13,0-.13-.065t-.13-.065a.592.592,0,0,1-.325.325A.3.3,0,0,0-6.175-33.67Zm-2.34,0q0-.26.195-.26t.065-.26a.257.257,0,0,0-.39.13A.257.257,0,0,0-8.515-33.67Zm14.17-.39a.208.208,0,0,0-.13-.2q-.13-.065-.13.2Zm-13.91.78a6.469,6.469,0,0,0,1.17-.78Q-8.125-34.06-8.255-33.28Zm13.13-.39-.26-.26q-.26.26-.065.455t.325-.2h.26v-.39Q4.875-34.19,4.875-33.67Zm-11.83.39q0-.26.13-.325t-.13-.065a.208.208,0,0,1-.13.2Q-7.215-33.41-6.955-33.28Zm-2.73-.13q.26.39.195,0T-9.685-33.41Zm-.13,1.04a2.258,2.258,0,0,1,.715-.455,2.258,2.258,0,0,0,.715-.455q-.26-.13-.975.26T-9.815-32.37Zm13.13-.65q.13.39.13,0T3.315-33.02Zm-11.96.52q.39,0,.39-.26h-.26q0,.13-.065.13T-8.645-32.5Zm-1.3.78q.13.39.13,0T-9.945-31.72Zm-11.96,1.3q-.13,0-.13.26a.23.23,0,0,0-.26.26,9.144,9.144,0,0,1-.585.78,3.864,3.864,0,0,0-.585,1.04,2.367,2.367,0,0,0,1.17-1.82.23.23,0,0,0,.26-.26.115.115,0,0,0,.13-.13v-.13l.39-.39Q-21.9-30.94-21.9-30.42Zm19.63.39q0-.26.13-.13,0-.39-.26-.26A.53.53,0,0,0-2.275-30.03Zm-.78,0q-.26,0-.26.13Q-3.055-30.16-3.055-30.03Zm.91,1.04q-.13-.26.195-.39t.065-.26a1.512,1.512,0,0,1-.39.26Q-2.535-29.25-2.145-28.99Zm-2.6,0h.52q.13-.39-.195-.39T-4.745-28.99Zm-1.17.78q0-.26.195-.26t.065-.26a.257.257,0,0,0-.39.13A.257.257,0,0,0-5.915-28.21Zm-19.24,2.99a11.624,11.624,0,0,1,.975-1.365,2.2,2.2,0,0,0,.585-1.365,3.961,3.961,0,0,1-.91,1.3A1.988,1.988,0,0,0-25.155-25.22Zm17.94-2.6q.13.39.13,0T-7.215-27.82Zm-.39.39q.13.39.13,0T-7.6-27.43Zm1.3.39q.13.39.13,0T-6.3-27.04Zm-13.13.78q-.13.65,0,.13T-19.435-26.26Zm10.4.78q-.39-.13-.39.26.39,0,.39-.26a.345.345,0,0,0,.39-.39Q-9.035-26-9.035-25.48Zm-3.38,2.47q.13.39.39-.13t-.26,0h-.13Zm-2.47,1.56q0-.26.13-.325t-.13-.065a.208.208,0,0,1-.13.195Q-15.145-21.58-14.885-21.45Zm-2.86,1.95q0-.26.13-.13,0-.39-.26-.26A.53.53,0,0,0-17.745-19.5Zm-2.99,1.69q1.17-.65,1.43-.78a.265.265,0,0,1-.195-.065.265.265,0,0,0-.195-.065,1.732,1.732,0,0,1-.585.39A.789.789,0,0,0-20.735-17.81Zm-5.72,3.25a.566.566,0,0,0,.78-.13.8.8,0,0,1-.455-.13Q-26.325-14.95-26.455-14.56Zm-.39.26Zm-.91.39q-.39-.13-.2.065t.2-.065q.39,0,.39-.26Q-27.755-14.17-27.755-13.91Zm-1.17.52q0-.26.325-.195t.065-.195a.36.36,0,0,0-.455.065Q-29.185-13.52-28.925-13.39Zm-1.17,0q.13.39.13,0T-30.095-13.39Zm41.6-27.43a.749.749,0,0,1-.52.26Q10.855-40.82,11.505-40.82Zm4.29.26a.749.749,0,0,1-.52.26Q15.535-40.82,15.8-40.56Zm-1.95,0q.26.26-.065.2t-.325.195q-.26-.13-.065-.325A.36.36,0,0,1,13.845-40.56Zm-9.36.26q.26,0,.13.39h-.26v-.26Zm6.89.13q.13-.39.13,0T11.375-40.17Zm3.25,0q.26-.39.2-.065T14.625-40.17Zm-8.06,0q.39-.13.39.26h-.39Zm7.54,0h.26v.26h-.26Zm-3.51.13a.307.307,0,0,1-.26.325,2.54,2.54,0,0,0-.52.195.307.307,0,0,1,.26-.325A2.54,2.54,0,0,0,10.6-40.04Zm-7.41.13a.437.437,0,0,1-.2.39.437.437,0,0,0-.195.39q-.39-.13-.13-.455A.7.7,0,0,1,3.185-39.91Zm2.99,0a.653.653,0,0,1-.52.325,1.164,1.164,0,0,0-.65.325q0-.52.455-.52A1.621,1.621,0,0,0,6.175-39.91Zm-1.3.65a1,1,0,0,1-.715.455,3.221,3.221,0,0,0-.975.325A1.574,1.574,0,0,1,4.875-39.26Zm-2.34.65q.39-.13.39.52-.52,0-.52-.39Zm12.22,1.56Zm-8.58,4.16q-.39.39-.52.39Q5.655-32.89,6.175-32.89Zm-2.47,1.17q.13-.39,1.04-.65Q4.615-31.98,3.705-31.72Zm0,0q-.13.39-.39.13v-.26q.13,0,.13.065T3.705-31.72Zm-.78.26q.26-.39.195-.065T2.925-31.46ZM.2-30.16Zm-3.77,1.69h.26v.26h-.26Zm-9.49,5.98h.26a.115.115,0,0,1-.13.13A.115.115,0,0,1-13.065-22.49Zm65-25.35a.875.875,0,0,0,.78-.39q-.13-.13-.455,0t-.325.39h-.39q.65-.52,1.235-.975a8.167,8.167,0,0,1,1.365-.845.429.429,0,0,1,0-.455,1.064,1.064,0,0,0,.13-.585A10.235,10.235,0,0,0,57.2-53.1a36.134,36.134,0,0,0,2.275-3.185,2.438,2.438,0,0,0-1.105-.26H57.135a.23.23,0,0,1-.26-.26q-2.99.26-5.85.585a58.8,58.8,0,0,0-5.85.975,1.059,1.059,0,0,1-.78.26,1.059,1.059,0,0,0-.78.26,56.418,56.418,0,0,0-10.4,3.12,18.4,18.4,0,0,0-2.665.845,11.192,11.192,0,0,0-2.4,1.235,6.456,6.456,0,0,0,.715,1.3,1.649,1.649,0,0,1,.325,1.3q-1.82,2.08-3.77,3.965T21.645-39a.36.36,0,0,0,.52.065.562.562,0,0,0,.26-.455q4.03-.78,6.89-1.17t6.24-.78a36.2,36.2,0,0,1,4.225-.26,11.316,11.316,0,0,1,3.835.65q.26.13.195-.065t.195-.325q.39,0,.2.195a.36.36,0,0,0-.065.455q.65,0,1.495.065a12.637,12.637,0,0,1,1.495.195q0,.52-.39.26a2.536,2.536,0,0,0,1.365.585,5.465,5.465,0,0,1,1.625.455q-.13.39.325.78a2.379,2.379,0,0,0,.975.52,4.833,4.833,0,0,1,.13,1.17.922.922,0,0,0,.65.91q-.26.52,0,.78a.776.776,0,0,1,.13.78q-.52-.26-.52.78a53.619,53.619,0,0,0-16.445.195A156.188,156.188,0,0,0,19.305-29.77a5.238,5.238,0,0,1-.52,1.56q0,.26.39,0t.26.13q-.52.13-.39.39l.26.52a19.123,19.123,0,0,1-4.225,2.34,37.81,37.81,0,0,1-4.875,1.56.592.592,0,0,0-.065.455q.065.2-.195.325a1.933,1.933,0,0,0-.975.195A1.392,1.392,0,0,1,8-22.23,1.765,1.765,0,0,0,6.89-23.465,2.169,2.169,0,0,1,5.655-24.83,1.683,1.683,0,0,0,5.4-26a1.7,1.7,0,0,1-.13-1.43,2.019,2.019,0,0,1-.39-2.08q.39-1.17.65-2.21a138.481,138.481,0,0,1,9.49-11.44,3.415,3.415,0,0,1-.52-.325,2.277,2.277,0,0,0-.65-.325,8.735,8.735,0,0,1-.455-2.21,6.207,6.207,0,0,0-.715-2.34,2.657,2.657,0,0,0,.13-.845.793.793,0,0,0-.52-.715,3.244,3.244,0,0,1,.715-1.1,3.11,3.11,0,0,0,.715-1.365,141.837,141.837,0,0,1,19.37-8.58,82.269,82.269,0,0,1,20.8-4.42.7.7,0,0,1,.325.26q.065.13.325.13a1.515,1.515,0,0,1,1.235-.325A2.656,2.656,0,0,1,57.005-65q.26-.13.26-.195t.26-.195a.23.23,0,0,1,.26.26q0,.26.26.13a4.651,4.651,0,0,1,2.4.325,4.218,4.218,0,0,0,1.755.455.524.524,0,0,1,.26.52,4.028,4.028,0,0,1,2.145,1.69,8.687,8.687,0,0,1,1.04,2.535,15.169,15.169,0,0,1,.39,2.86q.065,1.495.2,2.665a1.312,1.312,0,0,1-.585,1.17,1.2,1.2,0,0,0-.585,1.04h-.39a4.109,4.109,0,0,1-1.625,1.365,4.63,4.63,0,0,0-1.625,1.235,18.38,18.38,0,0,0-2.535.78q-1.365.52-2.4,1.04a2.123,2.123,0,0,0-1.885.455,4.292,4.292,0,0,1-2.015.845.711.711,0,0,1,.585-.325q.455-.065.325-.715-.26-.26-.455.13t-.845.13a1.28,1.28,0,0,1,.455-.325,1.28,1.28,0,0,0,.455-.325,4.508,4.508,0,0,0-1.82.91,4.508,4.508,0,0,1-1.82.91,1.765,1.765,0,0,1,1.1-1.235A3.158,3.158,0,0,0,51.935-47.84Zm2.08-17.29q-.26.26-.26.13Q54.015-65,54.015-65.13Zm-.65,16.38q-.39-.13-.195.065t.195-.065q.26,0,.13-.065T53.365-48.75Zm.26,1.82q.65,0,.65-.52h-.39A.749.749,0,0,1,53.625-46.93Zm.26-3.12q.13.39-.065.325t-.325.195q-.26-.13-.065-.325A.624.624,0,0,1,53.885-50.05Zm-.65.52q0,.52-.52.26Zm-1.69,1.69a21.3,21.3,0,0,1-2.4,1.625,16.689,16.689,0,0,1-2.665,1.235q1.17-.78,2.4-1.495T51.545-47.84Zm1.56,1.04q.13-.39.13,0T53.105-46.8Zm-2.08,1.04a3.151,3.151,0,0,0-.39.455q-.13.2-.65.065a3.361,3.361,0,0,1,.91-.845,7.364,7.364,0,0,1,1.17-.585q0,.52-.39.585A1.164,1.164,0,0,0,51.025-45.76Zm-5.46,2.21a4.63,4.63,0,0,1,1.625-1.235q.975-.455,2.015-.975a2.906,2.906,0,0,1-1.56,1.3A21.651,21.651,0,0,0,45.565-43.55Zm5.46-2.21.26.26h-.26Zm1.3.13a27.407,27.407,0,0,1-2.6,1.69,9.28,9.28,0,0,1-2.99,1.17,1.243,1.243,0,0,1,.715-.52,1.161,1.161,0,0,0,.715-.65,1.184,1.184,0,0,0,.91-.13,6.83,6.83,0,0,0,1.04-.65,5.685,5.685,0,0,1,1.1-.65A2.727,2.727,0,0,1,52.325-45.63Zm-2.86.39q.39,0,.39.26h-.39Zm-2.99.26a2.44,2.44,0,0,1-.975.78q-.585.26-1.235.52a2.44,2.44,0,0,1,.975-.78Q45.825-44.72,46.475-44.98Zm1.04,1.04a1.559,1.559,0,0,1,.78-.585,4.458,4.458,0,0,0,.91-.455,1.161,1.161,0,0,1-.715.65A5.707,5.707,0,0,0,47.515-43.94Zm0,0q0,.39-.195.195T47.515-43.94Zm-2.47.52q-.26,0-.065-.2T45.045-43.42Zm.52-.13q0,.13-.39.13,0-.13.065-.13t.065-.13q.13,0,.13.065T45.565-43.55Zm-.52.13h.13a.265.265,0,0,1-.065.195Q45.045-43.16,45.045-43.42Zm-.13.13a.3.3,0,0,1-.195.325.816.816,0,0,0-.325.195q-.26-.13,0-.26Zm1.69.65a.626.626,0,0,1-.52.455,1.164,1.164,0,0,0-.65.325q-.26-.26.325-.455A7.087,7.087,0,0,0,46.605-42.64Zm19.37,15.73a4.313,4.313,0,0,1-.455.91,5.346,5.346,0,0,0-.455.78,8.377,8.377,0,0,0-1.04.065.978.978,0,0,0-.78.585v-.65q-.39.26-.325.585t-.325.585a4.91,4.91,0,0,1-2.47.13,2.269,2.269,0,0,0-1.95.39q-.26.13-.26-.065a.441.441,0,0,0-.13-.325q-.26.26-.195.455t-.195.455q-.52.26-.585-.065a1.133,1.133,0,0,0-.325-.585q-.26-.13-.195.195a.493.493,0,0,1-.065.455.325.325,0,0,1-.52,0q-.26-.26-.26.13a.257.257,0,0,1-.39-.13.85.85,0,0,0-.39-.39q-.39-.13-.325.26t-.325.26q.26-.39-.065-.52a.689.689,0,0,0-.585,0q-.13.39.13.325t.13.195q-.26-.26-.845.13t-.585-.52q-.26.13-.26.65-.65-.26-.52.065t-.26.325a2.223,2.223,0,0,0-.39-1.04q-.26.13-.065.39t-.065.39a.36.36,0,0,0-.52-.065.912.912,0,0,1-.78.065l.26.26q-.26.39-.39,0t-.39-.26q-.26.13-.065.325t-.065.325q-.26,0-.26-.195t-.26-.325a.375.375,0,0,1-.26.13.54.54,0,0,0-.195.52.54.54,0,0,1-.195.52q-1.43.26-2.665.39a13.88,13.88,0,0,0-2.535.52q-.26,0-.13.26t0,.39q-.65-.39-1.69.26t-1.56-.13a.53.53,0,0,0-.13.39,1.992,1.992,0,0,0-1.365.26q-.715.39-1.235.65a22.831,22.831,0,0,0-5.2,1.3,22.831,22.831,0,0,1-5.2,1.3,4.249,4.249,0,0,0-.455.26,4.25,4.25,0,0,1-.455.26A30.819,30.819,0,0,0,17.875-13q-1.69.52-3.575.975a9.264,9.264,0,0,0-3.315,1.5,1.186,1.186,0,0,0-.65-.065q-.26.065-.65.2a.375.375,0,0,0-.13-.26,1.512,1.512,0,0,0-.39.26q-.13.13-.65,0a19.28,19.28,0,0,1-.91-2.535,7.655,7.655,0,0,1-.13-3.185q.26,0,.26.065t.13.065q-.39-.91.585-1.105a2.248,2.248,0,0,0,1.495-.975q0-.26-.195,0t-.065-.26q6.24-2.21,13.065-4.355A87.885,87.885,0,0,1,37.115-25.87a.7.7,0,0,1,.65-.195.624.624,0,0,0,.65-.325q.26,0,.26.13t.26.13q2.86-.39,6.37-.78t7.15-.585q3.64-.195,7.15-.065A45.112,45.112,0,0,1,65.975-26.91Zm-1.3.65h.26v-.26h-.26Zm-17.55,4.81a.115.115,0,0,1,.13-.13.23.23,0,0,0-.26-.26Q47-21.45,47.125-21.45Zm.91-.39a.115.115,0,0,1,.13-.13.115.115,0,0,1,.13.13q0,.26-.065.13A.208.208,0,0,0,48.035-21.84ZM69.745-4.68q.26-1.04.39-1.43a.257.257,0,0,0-.39.13,2.541,2.541,0,0,0-.195.52.964.964,0,0,1-.26.455q-.195.2-.585-.065.91-1.43,1.69-2.86a31.7,31.7,0,0,0,1.43-2.99,1.834,1.834,0,0,0-.585.585q-.325.455-.585.195.26-.65.65-.65a4.51,4.51,0,0,1,1.1-2.86,4.737,4.737,0,0,0,1.235-2.34,1.731,1.731,0,0,0-.39.585.856.856,0,0,1-.65.455.973.973,0,0,1,.325-1.17.9.9,0,0,0,.065-1.3,1.807,1.807,0,0,0,1.105-.91,7.636,7.636,0,0,1,.715-1.17,1.467,1.467,0,0,0-.13-1.04q.39-.13.39-1.17a.7.7,0,0,0,.325-.26.7.7,0,0,1,.325-.26,4.1,4.1,0,0,1,.65-2.015A5.024,5.024,0,0,0,77.155-26a14.975,14.975,0,0,0,2.535-4.29A16.99,16.99,0,0,1,82.1-34.58q.52-1.3,1.04-2.4a12.315,12.315,0,0,1,1.3-2.145v-.78a14.307,14.307,0,0,0,2.34-3.965,12.447,12.447,0,0,1,2.34-3.835A8.629,8.629,0,0,1,90.22-50.7a15.493,15.493,0,0,0,1.365-2.99,2.8,2.8,0,0,0,1.43-1.56,21.651,21.651,0,0,1,.91-2.08q-.78.13-1.69.195a2.788,2.788,0,0,1-1.43-.195,3.472,3.472,0,0,1-2.47.52,3.787,3.787,0,0,0-2.34.26q0-.26-.13-.26l-.39.39a9.4,9.4,0,0,1-2.665.13,4,4,0,0,0-2.4.52,10.638,10.638,0,0,0-4.94.13,15.1,15.1,0,0,1-5.2.39,1.944,1.944,0,0,0-1.17-1.3q-.26-1.3-.52-2.73a7.93,7.93,0,0,1,0-2.86q0-.26-.13-.26t-.26-.26a1.811,1.811,0,0,1,.13-.78,1.172,1.172,0,0,0,0-.78q.39-.65.845-1.3a2.385,2.385,0,0,1,1.235-.91h1.82a5.814,5.814,0,0,0,2.535,1.04,15.169,15.169,0,0,0,3.185.195q1.69-.065,3.315-.195t3.055-.13q5.72-.52,11.115-1.365a52.584,52.584,0,0,1,10.725-.585,3.927,3.927,0,0,1,1.82-.455l1.95.195a5.212,5.212,0,0,1,1.56-.325,3.512,3.512,0,0,1,1.56.195q.65-.39.715-.195t.715.065q.13.26,0,.26t-.13.26q.26,0,.325-.325t.325.195a.745.745,0,0,1,.91-.39q.13.26,0,.325a.7.7,0,0,0-.26.325,1.184,1.184,0,0,1,.91-.13q.39.13.65-.52.39,0,.26.39a.589.589,0,0,0,.13.65,2.372,2.372,0,0,1,1.235.065,1.75,1.75,0,0,0,1.235-.065.733.733,0,0,1,.065.52q-.065.26.585.13a.886.886,0,0,1,.065.585q-.065.325.195.195t.065-.325q-.195-.195.065-.455a1.9,1.9,0,0,1,.65.065q.13.065.39-.195a3.621,3.621,0,0,0,1.56.26q.26.39,0,.455a.307.307,0,0,0-.26.325,1.411,1.411,0,0,0,.52-.26q.13-.13.39.13.13-.26,0-.39a.53.53,0,0,1-.13-.39q.52.13.52,1.04-.26.26-.325.13t-.455-.13q.26.39.52.39h.78a.472.472,0,0,0,.325-.585q-.065-.455.455-.325.13.26,0,.39a1.512,1.512,0,0,0-.26.39q.13.26.52.13t.39.13q.26,0,.195-.26a2.137,2.137,0,0,1-.065-.52q.39-.13.325.2a3.012,3.012,0,0,0-.065.585.882.882,0,0,1,1.04.195,1.307,1.307,0,0,0,1.17.325q.13.26-.13.195a.316.316,0,0,0-.39.2q.26.26.455,0t.455,0q.39,0,.13-.2t0-.195a2.657,2.657,0,0,1,1.17,0,.886.886,0,0,1,.065.585q-.065.325.2.325t.13-.325q-.13-.325.26-.195a1.094,1.094,0,0,0,.13.91,1.848,1.848,0,0,1,.26,1.04,1.382,1.382,0,0,1-.845.195,1.994,1.994,0,0,0-.845.065,2.112,2.112,0,0,1,0,1.04q-.26,0-.26-.39a.345.345,0,0,0-.39-.39,1.6,1.6,0,0,1-1.17.78,9.874,9.874,0,0,1-1.625.13h-1.69a2.218,2.218,0,0,0-1.365.39q-.26.13-.26-.13a.749.749,0,0,0-.26-.52,5.146,5.146,0,0,1-1.885.65,15.237,15.237,0,0,1-2.015.13h-2.08a4.9,4.9,0,0,0-1.95.39q-.26.13-.325-.195t-.325-.325q-.39,0-.39.52a7.731,7.731,0,0,1-1.17-.065q-.39-.065-.78.455a2.1,2.1,0,0,0-1.755-.39,5.923,5.923,0,0,0-2.015.52,1.343,1.343,0,0,0-1.69-.13,3.582,3.582,0,0,1-2.08.39,22.225,22.225,0,0,0-2.21,4.29,26.31,26.31,0,0,1-2.21,4.42v.78q-1.3,2.21-2.47,4.615t-2.21,4.875q-.26-.13-.26.065t-.26.195v.65a13.99,13.99,0,0,0-1.17,1.625,6.518,6.518,0,0,0-.78,2.015q-1.3,2.21-2.535,4.42a46.868,46.868,0,0,0-2.275,4.68,4.861,4.861,0,0,0-1.17,2.015,3.32,3.32,0,0,1-1.43,1.885,1.988,1.988,0,0,1-.65,1.43,29.388,29.388,0,0,1-2.86,5.72,49.166,49.166,0,0,0-3.12,5.59,1.29,1.29,0,0,0-.455.39,1.29,1.29,0,0,1-.455.39q.26,1.17-.65,1.3a4.081,4.081,0,0,1-1.17,2.4,4.215,4.215,0,0,0-1.17,2.535,1.037,1.037,0,0,0-.585.455,1.092,1.092,0,0,1-.715.455q0,.13.26.26t-.13.26q-.26,0-.26-.39A5.126,5.126,0,0,0,73.32.065,4.908,4.908,0,0,1,72.6,1.69,25.342,25.342,0,0,0,70.72,3.51,16.5,16.5,0,0,0,69.1,5.59h-.78a1.873,1.873,0,0,0-.26-1.43.416.416,0,0,0-.39.26q-.13.26-.65.13.26-.65.455-1.105A2.149,2.149,0,0,0,67.4,2.08q.52-1.04,1.04-2.015a4.23,4.23,0,0,0,.52-2.015,3.161,3.161,0,0,0,.91-1.235A1.333,1.333,0,0,0,69.745-4.68Zm46.8-62.27a.592.592,0,0,0,.455.065q.195-.065.065-.325A.749.749,0,0,0,116.545-66.95Zm6.11,1.04q-.13.65.195.325T122.655-65.91Zm-.91.26q-.26.26.065,0T121.745-65.65Zm2.08.52q0-.26-.26,0Zm2.73,1.3a.437.437,0,0,1,.2-.39q.195-.13-.325-.13Q126.685-63.83,126.555-63.83Zm1.82,0q.13-.26-.065-.26a.441.441,0,0,1-.325-.13A.345.345,0,0,0,128.375-63.83Zm1.95,0q.26.26.26-.065T130.325-63.83Zm1.17,1.04q0-.13-.325-.195a.373.373,0,0,0-.455.195.894.894,0,0,0,.455.195Q131.495-62.53,131.495-62.79Zm-4.16,1.69q-.13.65.195.325T127.335-61.1ZM79.1-28.08q-.26.26.065.26T79.1-28.08Zm-4.68,10.4q.26,0,.13.13h.26q0-.39-.13-.39Zm-1.69,4.42.26.13q0-.39-.26-.39Zm-.52.52q.13.65-.065.845a1.481,1.481,0,0,0-.325.585q.65-.13.715-.585a3.221,3.221,0,0,1,.325-.975A1.447,1.447,0,0,0,72.215-12.74Zm-1.82,7.8q.13-.39-.26-.39Q70.265-4.94,70.395-4.94Zm49.27-62.53q0,.26-.585.325a1.424,1.424,0,0,1-.975-.2q.13-.26.65-.325A1.3,1.3,0,0,1,119.665-67.47Zm5.33,1.82a.3.3,0,0,1,.325.195q.065.2-.195.325Q124.735-65.39,124.995-65.65Zm7.02,2.34a.115.115,0,0,1,.13-.13h.13Q132.275-63.31,132.015-63.31ZM72.085-14.17a2.527,2.527,0,0,1-.52,1.3q-.39-.26-.065-.78T72.085-14.17Zm-.91,1.69v.26q-.39.13-.26-.2T71.175-12.48Zm-1.04,2.73h.39a2.381,2.381,0,0,1-.52,1.1,3.665,3.665,0,0,0-.65,1.235q-.39-.52.195-1.1A1.74,1.74,0,0,0,70.135-9.75Zm-.39,5.07a1.29,1.29,0,0,0-.13.585q0,.325-.52.325Q69.1-4.68,69.745-4.68Zm-1.3.13q.39-.13.325.13a.824.824,0,0,1-.195.39Q68.705-4.03,68.445-4.55Zm-.52,1.17a.23.23,0,0,1,.26.26l-.13.13q-.13,0-.065-.13A.212.212,0,0,0,67.925-3.38Zm86.06-54.21a.738.738,0,0,1-.195.975.883.883,0,0,0-.325.975q-.13,0,.26-.39.26.13.065.26t-.065.39q-.26,0-.26-.13t-.26.13a.23.23,0,0,0,.26.26q.26,0,.13.26-.52,0-.65.65a1.555,1.555,0,0,0,0,.91q.26,0,.13-.26a.257.257,0,0,1,.13-.39q.26.26.065.845a2.168,2.168,0,0,1-.455.845.429.429,0,0,1,0-.455.8.8,0,0,0,.13-.455q-.78.39-.455.91t-.325.91q-.13.26.065.26a.441.441,0,0,1,.325.13q-.13.26-.65.26a2.541,2.541,0,0,1,.195.52.307.307,0,0,0,.325.26.966.966,0,0,0-.26.715q0,.455-.52.455a.437.437,0,0,1,.2-.39q.195-.13.065-.52a1.681,1.681,0,0,0-.585,1.3,5.914,5.914,0,0,0,.065,1.56,1.513,1.513,0,0,0-.39.26q-.13.13-.39,0a13.553,13.553,0,0,1-.585,2.275l-.845,2.535a2.738,2.738,0,0,1,.455.065,3.652,3.652,0,0,0,.715.065,3.6,3.6,0,0,1,1.3-.585,1.47,1.47,0,0,1,1.17.065q.52-.26,1.235-.585a1.143,1.143,0,0,1,1.235.065q.91-.26,2.47-.65a6.492,6.492,0,0,1,2.86-.13.115.115,0,0,0,.13.13q-.13.39.39.325t.39-.325h-.78q0-.26-.065-.26t-.065-.26q.65-.26.845,0t.845,0q.13.39-.2.26t-.195.26q.26,0,1.04-.065a8.339,8.339,0,0,0,1.3-.195q0-.26-.065-.26t-.065-.26a.626.626,0,0,1,.455.52.7.7,0,0,1-.195.65,4.12,4.12,0,0,0-1.82-.13,2.527,2.527,0,0,0-1.69.91q.26.26.39-.13t.39-.26v.39q.26.13.195-.26t.325-.26q0,.13-.065.13t-.065.26a4.84,4.84,0,0,0,2.275-.325,2.158,2.158,0,0,1,2.015.065,2.261,2.261,0,0,1-1.235.195,2.208,2.208,0,0,0-1.365.325q.13.26.2.065t.325-.065a1.5,1.5,0,0,1-.52,1.04q.39.26.585.13a2.516,2.516,0,0,1,.715-.26q-.26-.26-.13-.39t-.26-.13q.13-.39.39-.13t.39-.26a.891.891,0,0,1-.13,1.04q-.39.39.39.78.26,0,.065-.26t.325-.13a.23.23,0,0,0,.26.26.23.23,0,0,0-.26-.26q0-.13.39-.13.13-.26-.065-.325t.065-.325l.39.39q.26.26.26-.26.26,0,.26.52a1.35,1.35,0,0,0,1.04-.13.65.65,0,0,1,.78,0,2,2,0,0,1-1.235.39,1.3,1.3,0,0,0-1.1.52.208.208,0,0,1,.13-.195.208.208,0,0,0,.13-.195q-.65.13-1.56.39a5.827,5.827,0,0,1-1.56.26v.52a18.794,18.794,0,0,0,1.885-.325,2.949,2.949,0,0,1,1.625.065,2.3,2.3,0,0,0,.715-.39.556.556,0,0,1,.715,0,2.184,2.184,0,0,1-2.015.65,1.769,1.769,0,0,0-1.885.78,3.478,3.478,0,0,0-1.3.26,1.008,1.008,0,0,1-1.17-.26q-.26.13-.26.325t-.26.325a8.269,8.269,0,0,0-2.21.325q-1.17.325-2.21.585.26.52.455.195a.447.447,0,0,1,.585-.195q-.13.52-.845.39t-.845.39a.65.65,0,0,0,.78,0,1.35,1.35,0,0,1,1.04-.13,12.352,12.352,0,0,1-4.81,1.04,2.848,2.848,0,0,1-1.885.65,3.989,3.989,0,0,0-2.015.52q-.26.13-.065.455t-.455.065a.115.115,0,0,1,.13-.13.115.115,0,0,0,.13-.13q0-.26-.195-.13a.632.632,0,0,1-.325.13.23.23,0,0,0,.26.26v.39q-.39,0-.39-.13-.13,0-.13.39a4.457,4.457,0,0,1-.845-.065,1.388,1.388,0,0,0-.715.065q0-.13.065-.13t.065-.26a.585.585,0,0,0-.52.195.437.437,0,0,1-.39.195,1.59,1.59,0,0,1-.26,1.235,2.4,2.4,0,0,0-.39,1.365q-.13,0-.13-.065t-.13-.065q-.26.13-.13.52a2.454,2.454,0,0,1,.13.78.208.208,0,0,0-.195.13q-.065.13-.325,0-.26.39-.065.455t.2.455q-.13,0-.13.065t-.26.065q-.13.26,0,.325t.13.325a.265.265,0,0,0-.2.065.265.265,0,0,1-.195.065,18.718,18.718,0,0,1-1.04,3.9,18.283,18.283,0,0,0-1.04,4.16.265.265,0,0,0-.195.065.265.265,0,0,1-.2.065,2.7,2.7,0,0,1,.13,1.04,1.589,1.589,0,0,1-.715.585q-.455.195-.2.845-.13,0-.13-.065t-.26-.065q.26.26-.13.78t0,.78a.739.739,0,0,0-.52.91.739.739,0,0,1-.52.91q-.13-.26.065-.39t.065-.39q-.26,0-.39.325t-.26-.325q-.26.26-.065.455a.36.36,0,0,1,.065.455q-.65-.26-.52.13a.363.363,0,0,1-.26.52q.13.26.325.065a.36.36,0,0,1,.455-.065q-.26.65-.585.52t-.585.52q.52.65,0,1.04a2.58,2.58,0,0,0-.78.91q-.13.39.195.455t.2.325q-.52-.13-.52.325t.26.585a.614.614,0,0,0-.52.65.875.875,0,0,1-.39.78q-.13-.65.13-.78t0-.78q.26-.13.2-.52a.7.7,0,0,1,.2-.65q-.65.13-.39,1.17a.23.23,0,0,0-.26.26q0,.26-.26.13a2.5,2.5,0,0,1-.13,2.08q-.52,1.04-.91,1.95-.26,0-.13-.39T135-4.16a5.046,5.046,0,0,0-.26.65.589.589,0,0,0,.13.65q0,.26-.26.13a.257.257,0,0,1-.13-.39.875.875,0,0,0-.39.78.8.8,0,0,1-.26-.91q-.13-.26-.26.065a1.4,1.4,0,0,1-.26.455q-.39-.26-.195-.455t.065-.715q-.26.39-.455.325t-.325.325a1.323,1.323,0,0,1-.13-.975,2.363,2.363,0,0,0,0-1.105,112.944,112.944,0,0,1,2.08-12.545q1.3-5.655,2.99-12.025a.954.954,0,0,0-.91-.065,2.178,2.178,0,0,0-.78.455h.78q0,.26-.325.26a.466.466,0,0,0-.455.26.307.307,0,0,1-.325-.26q-.065-.26-.455-.13-.26.13-.065.325t-.065.325a1.573,1.573,0,0,0-.91.195,4.883,4.883,0,0,0-.52.455,2.529,2.529,0,0,0-.975-.065q-.455.065-.585.715a1.483,1.483,0,0,0-1.3.065,2.411,2.411,0,0,1-1.3.325q0-.13.065-.13t.065-.26q-.26,0-.325.13t-.325,0a.3.3,0,0,0,.195.325q.2.065-.065.325-.52,0-.325-.26t-.455-.13a.3.3,0,0,0,.195.325q.195.065.065.455a2.364,2.364,0,0,0-1.885.26,4.652,4.652,0,0,1-1.885.65q-.13.26-.26.26t-.26.26a5.445,5.445,0,0,0-2.8.65,3.047,3.047,0,0,1-2.275.39q-.26,0-.13.065t.13.325a1.589,1.589,0,0,0-1.17.39,3.751,3.751,0,0,0-2.015.455,5.49,5.49,0,0,0-1.3,1.17q-.585.715-1.17,1.365a4.571,4.571,0,0,1-1.365,1.04q.13,1.04-1.04,1.3a15.87,15.87,0,0,0-2.47-1.1,2.577,2.577,0,0,1-1.69-1.885q-.39,0-.39.26a1.344,1.344,0,0,1-.585-.91.991.991,0,0,0-.715-.78,2.218,2.218,0,0,0,.39-1.365,1.846,1.846,0,0,1,.52-1.365q0-.26-.26-.13t-.39,0q-.13-.26.065-.26t.195-.26a2.037,2.037,0,0,0-.52-.39,2.037,2.037,0,0,1-.52-.39.6.6,0,0,1,.65-.39q0-.26-.39-.26a1.362,1.362,0,0,1,.91-.845,1.8,1.8,0,0,0,1.04-.845,1.131,1.131,0,0,0,1.17-.13,1.9,1.9,0,0,1,1.17-.39q4.94-6.5,9.945-12.87A124.308,124.308,0,0,1,129.8-54.08q4.03-4.03,8.125-7.995a35.633,35.633,0,0,1,9.555-6.565,1.757,1.757,0,0,1,1.625.52,3.112,3.112,0,0,0,1.5.91,4.855,4.855,0,0,0,1.625,1.625,3.749,3.749,0,0,1,1.5,1.755,1.148,1.148,0,0,1,.975.975,1.257,1.257,0,0,1-.455,1.365q.26.26.325,0t.325-.13a.974.974,0,0,0-.13.845,4.288,4.288,0,0,0,.26.715,1.028,1.028,0,0,0-.65-.13q-.26.26,0,.455t0,.455q-.26.13-.26-.13a.53.53,0,0,1,.13-.39q-.39-.13-.39.26v.65q.39-.39.52,0a.589.589,0,0,1-.13.65q-.39,0-.26-.13t-.13-.39q-.26.13-.13.585a1,1,0,0,1,0,.715.115.115,0,0,0,.13-.13Zm-.13-5.46h.26v-.26h-.26Zm.52,1.04a.689.689,0,0,1,0-.585q.13-.325-.26-.195a1.154,1.154,0,0,0-.13.52Q153.985-62.01,154.375-62.01Zm-.13,1.69q.26.26.325-.195t-.195-.455A1.028,1.028,0,0,0,154.245-60.32Zm-10.01,2.99q-.26,0-.26.13Q144.235-57.2,144.235-57.33Zm9.49.52a.53.53,0,0,0,.13-.39q0-.26-.26-.13Q153.595-56.81,153.725-56.81Zm-18.85,19.37q-.13.39.065.195t-.065-.195a7.78,7.78,0,0,1,2.34-.715,8.685,8.685,0,0,0,2.6-.845q1.43-4.55,2.73-8.71t2.73-9.1a45.107,45.107,0,0,0-5.785,5.135q-2.795,2.925-5.525,5.655-2.73,2.86-5.33,5.85t-4.94,6.24q2.86-.91,5.525-1.82T134.875-37.44Zm8.32-19.11q-.26,0-.26.13Q143.195-56.42,143.195-56.55Zm-1.69,2.08a.345.345,0,0,0,.39-.39q-.26-.13-.26.065A.441.441,0,0,1,141.5-54.47Zm10.79.52q.26,0,.455-.455t-.195-.455a.437.437,0,0,1-.2.39Q152.165-54.34,152.295-53.95Zm-13.13,1.69q.26.13.52-.52A.46.46,0,0,0,139.165-52.26Zm-6.76.65q.13.26.195-.065T132.4-51.61Zm5.72.39q.13.26.2-.065T138.125-51.22Zm-.65.52q.39,0,.39-.26Q137.475-50.96,137.475-50.7Zm13.65.26h.26v-.26h-.26Zm-14.95.39a.257.257,0,0,0,.39-.13q.13-.26-.13-.26,0,.26-.13.26A.115.115,0,0,0,136.175-50.05Zm-.52.52q.26.39.195.065T135.655-49.53Zm-.13.78q.39,0,.39-.26h-.26q0,.13-.065.13T135.525-48.75Zm-1.3,1.17Zm15.86.52q.13.39.13,0T150.085-47.06Zm-17.03.39q0-.26.325-.13t.065-.26a.36.36,0,0,0-.455.065Q132.795-46.8,133.055-46.67Zm17.81-.26q.13.39.13,0T150.865-46.93Zm-18.33.91q.13-.39.325-.26a.8.8,0,0,0,.455.13q0-.52-.52-.325T132.535-46.02Zm17.29.13q.13.39.13,0T149.825-45.89Zm0,.52h.26v-.26h-.26Zm-17.55.13q.39,0,.39-.26Q132.275-45.5,132.275-45.24Zm15.47,0q.13.39.13,0T147.745-45.24Zm1.69.52q0-.13.195-.13t.065-.26a.257.257,0,0,0-.39.13Q149.175-44.72,149.435-44.72Zm-18.33.78a.781.781,0,0,0-.52.52.46.46,0,0,0,.52-.52h.26v-.26A.23.23,0,0,0,131.1-43.94Zm18.07-.13q.13.39.13,0T149.175-44.07Zm.26.65h.26v-.26h-.26Zm-23.79.39q.13.39.13,0T125.645-43.03Zm33.8.26a.475.475,0,0,0,.585-.13q.195-.26.455,0,0-.39-.52-.26T159.445-42.77Zm-1.43-.26q-.26,0-.26.13Q158.015-42.9,158.015-43.03Zm.39.26q-.13.39.39.26t.52-.39a1.44,1.44,0,0,0-.455.065A1.44,1.44,0,0,1,158.4-42.77Zm-.91.26q.26,0,.26.065t.26.065q.13-.26-.195-.325T157.495-42.51Zm3.38.13q0-.13-.26-.39Q160.355-42.25,160.875-42.38Zm-6.5-.13q-.13,0-.13-.065t-.13-.065q-.26.26-.065.325T154.375-42.51Zm1.82.26a.115.115,0,0,1,.13.13.115.115,0,0,0,.13.13,1.735,1.735,0,0,0,.455-.325q.2-.195.455.065,0-.65-.52-.325A2.027,2.027,0,0,1,156.195-42.25Zm2.99.39h.65q0-.65-.26-.65Q159.445-42.51,159.185-41.86Zm1.04-.52q.13.39.13,0T160.225-42.38Zm-31.33.39a.208.208,0,0,1,.13-.195q.13-.065-.13-.2a.208.208,0,0,1-.13.2Q128.635-42.12,128.895-41.99Zm29.51.39q.26-.26.65,0a1,1,0,0,1-.13-.39.375.375,0,0,0-.13-.26q.13.52-.26.39T158.4-41.6Zm-3.12-.26h.26v-.26h-.26Zm5.07,0h.26v-.26h-.26Zm1.69.52a1.253,1.253,0,0,1,1.82,0,1.482,1.482,0,0,0-.52-.78,2.524,2.524,0,0,1-.78.195q-.52.065-.91.13a.741.741,0,0,0-.52.26q-.13.2.13.585l.39-.39q0,.26.195.26T162.045-41.34Zm-13.52-.52q.13.26.2-.065T148.525-41.86Zm2.86,0q.13.39.13,0T151.385-41.86Zm5.85.26q.26-.26.325,0t.325.13q0-.39-.455-.455T157.235-41.6Zm-9.36-.13q.13.39.13,0T147.875-41.73Zm6.11,0q.13.39.13,0T153.985-41.73Zm2.47,0q0,.65.52.65a.592.592,0,0,1-.065-.455q.065-.2-.195-.325Q156.715-41.73,156.455-41.73Zm-27.56.13Zm24.18,0q.13.39.13,0T153.075-41.6Zm.39.13h.26v-.26h-.26Zm-4.94.13q.39,0,.39-.26Q148.525-41.6,148.525-41.34Zm11.96.65a1.29,1.29,0,0,1-.13-.585q0-.325-.39-.325a.808.808,0,0,1,.26.585Q160.225-40.69,160.485-40.69Zm-7.93-.65q.26.39.195.065T152.555-41.34Zm6.63,0q.13.39.13,0T159.185-41.34Zm4.42.52a.592.592,0,0,1-.325-.325.592.592,0,0,0-.325-.325,1.166,1.166,0,0,0,.2.585Q163.345-40.56,163.6-40.82Zm-7.67-.39q0,.26.195.065T155.935-41.21Zm6.76,0q.13.39.13,0T162.695-41.21Zm-7.28.13q.13.39.13,0T155.415-41.08Zm3.12.13h.39q0-.26-.39-.26Zm2.08-.13q.13.39.13,0T160.615-41.08Zm-9.75.13q.13.26.2-.065T150.865-40.95Zm8.71.39q.39,0,.39-.52-.26-.13-.2.13A.316.316,0,0,1,159.575-40.56Zm2.34.13a.864.864,0,0,0,.52-.195q.26-.2,0-.455,0,.26-.325.26T161.915-40.43Zm-8.84-.13a.115.115,0,0,1,.13-.13.23.23,0,0,0-.26-.26Q152.945-40.56,153.075-40.56Zm9.75-.26q.13.39.13,0T162.825-40.82Zm-12.74.13q.13.39.13,0T150.085-40.69Zm8.06,0Zm-30.81.26h.26v-.26h-.26Zm.65-.13q.26.39.195.065T127.985-40.56Zm23.53,0q.13.39.13,0T151.515-40.56Zm7.02.13h.39q0-.26-.39-.26Zm.78-.13a.115.115,0,0,0-.13-.13.115.115,0,0,0-.13.13.208.208,0,0,1,.2.13Q159.315-40.3,159.315-40.56Zm2.21,0q-.39,0-.39.26Q161.525-40.3,161.525-40.56Zm1.17.13q.13.39.13,0T162.695-40.43Zm1.3.13h.26v-.26h-.26Zm-36.92,0Zm30.94,0q0-.13-.195-.13t-.2.13q-.13.26.2.26T158.015-40.3Zm-.91.13q.13.39.13,0T157.1-40.17Zm2.47,0q0,.26.13.26a.115.115,0,0,1,.13-.13.115.115,0,0,0,.13-.13Zm5.07,0q.13.39.13,0T164.645-40.17Zm-13.52.13q.13.39.13,0T151.125-40.04Zm12.48,0q.13.26.2-.065T163.6-40.04Zm.65,0q.13.39.13,0T164.255-40.04Zm-5.85.26h.26v-.26h-.26Zm3.9.13q0-.26.325-.13t.065-.26a.36.36,0,0,0-.455.065Q162.045-39.78,162.3-39.65Zm-11.31-.13q-.39-.26-.325,0T150.995-39.78Zm6.5.13Zm2.86.13q-.13.65,0,.13T160.355-39.52Zm2.47.39a.5.5,0,0,0,.585.13q.325-.13.325-.39a.5.5,0,0,0-.585-.13Q162.825-39.39,162.825-39.13Zm-7.93-.13V-39q.26.26.325-.065t-.195-.325A.115.115,0,0,1,154.895-39.26Zm6.63.13a1.019,1.019,0,0,1-.26.2,1.019,1.019,0,0,0-.26.195q.26.26.455.13T161.525-39.13Zm-1.04.13q.13.39.13,0T160.485-39Zm-7.28.26v.26h.26a.115.115,0,0,1,.13-.13v-.26h-.26A.115.115,0,0,1,153.2-38.74Zm5.98.26a.538.538,0,0,0,.585-.065q.2-.2-.195-.325,0,.26-.325.195T159.185-38.48Zm-5.46-.13q.13.39.13,0T153.725-38.61Zm3.77.13h.26v-.26h-.26Zm3.12-.13Zm3.77-.13h-.52q-.26.52.13.39T164.385-38.74Zm-11.96.26q.13.39.13,0T152.425-38.48Zm5.59.26q.65,0,.65-.39A.6.6,0,0,0,158.015-38.22Zm-7.8,0v.26h.26q.26-.26-.13-.39A.115.115,0,0,1,150.215-38.22Zm1.04.13h.26v-.26h-.26Zm-25.48.65-.39-.78v.585Q125.385-37.31,125.775-37.44Zm29.64-.78q-.13.65.13.39T155.415-38.22Zm1.43.52a.441.441,0,0,0,.13-.325q0-.2-.26-.2Q156.715-37.7,156.845-37.7Zm-7.15-.26q.13.39.13,0T149.695-37.96Zm2.08.13v.26h.26q.26-.26-.13-.39A.115.115,0,0,1,151.775-37.83Zm3.77.52a2.32,2.32,0,0,1,.585-.195.4.4,0,0,0,.325-.455,4.288,4.288,0,0,1-.715.26Q155.285-37.57,155.545-37.31Zm-30.55,0a.53.53,0,0,0,.13-.39q0-.26-.26-.13Q124.865-37.31,124.995-37.31Zm23.14-.13q.26.39.195.065T148.135-37.44Zm6.37.26h.26v-.26h-.26Zm-29.51.13q.13,0,.13.065t.13.065q0-.13.065-.13t.065-.13q-.13,0-.13-.065t-.13-.065q0,.13-.065.13T124.995-37.05Zm30.03.65q0,.65.195.52t.325.26a.515.515,0,0,1,.65-.065.515.515,0,0,0,.65-.065q-.39-.65.065-.585t.455-.455a1.934,1.934,0,0,0-.975.195,1.626,1.626,0,0,1-.845.195q0-.52-.13-.52a.36.36,0,0,0-.065.52Q155.545-36.14,155.025-36.4Zm-30.81,0a1.154,1.154,0,0,1,.52-.13.416.416,0,0,0,.39-.26Q124.215-36.79,124.215-36.4Zm30.42.39h.26v-.26h-.26Zm.13.39h.26v-.26h-.26Zm-2.73.13q.13.39.13,0T152.035-35.49Zm1.17.52v-.26q0-.26-.13-.26,0,.13-.39.13a.23.23,0,0,0-.26-.26q0,.39.26.455A2.54,2.54,0,0,1,153.2-34.97Zm-1.82.52q.26.26.39-.325t-.26-.455q.13.26-.065.39T151.385-34.45Zm.78-.26a.208.208,0,0,1,.13-.195.208.208,0,0,0,.13-.2.257.257,0,0,0-.39.13Q151.905-34.71,152.165-34.71Zm-3.38,0q.13.39.13,0T148.785-34.71Zm.78.65q0-.13-.26-.39Q149.3-34.06,149.565-34.06Zm-1.04.26q.39.39.65-.26a.208.208,0,0,1-.195-.13.208.208,0,0,0-.2-.13q0,.26-.195.26T148.525-33.8Zm-25.35-.39q-.26,0-.26.13Q123.175-34.06,123.175-34.19Zm24.31.39q.13.39.13,0T147.485-33.8Zm.52.65q.65,0,.65-.26-.13-.26-.325-.13A.981.981,0,0,0,148-33.15Zm1.04-.39q-.26,0-.26.13Q149.045-33.41,149.045-33.54Zm-14.43,1.04a.115.115,0,0,0-.13-.13.115.115,0,0,0-.13.13.208.208,0,0,1,.195.13Q134.615-32.24,134.615-32.5Zm-4.68.39q.13.39.13,0T129.935-32.11Zm4.16.52q-.26,0-.26.13Q134.095-31.46,134.095-31.59Zm0,2.6q.65,0,.52-.26Q134.095-29.25,134.095-28.99Zm-.65.26q.39,0,.39-.26Q133.445-28.99,133.445-28.73Zm-2.86,0q.13.39.13,0T130.585-28.73Zm2.21.13q.13.39.13,0T132.795-28.6Zm-.78.26h-.26a.115.115,0,0,0-.13.13q-.26.26.2.195T132.015-28.34Zm-2.73.26q.13.39.13,0T129.285-28.08Zm1.43.26h.52q.26,0,.13-.26h-.65Zm-.78.13q.13.39.13,0T129.935-27.69Zm-.52.13q-.13.65,0,.13T129.415-27.56Zm-1.82.91a.208.208,0,0,1,.13-.195q.13-.065-.13-.2a.208.208,0,0,1-.13.2Q127.335-26.78,127.595-26.65Zm-1.43.39a.36.36,0,0,0,.455-.065q.195-.195-.065-.325,0,.26-.195.195T126.165-26.26Zm-2.21.65h-.26a.115.115,0,0,0-.13.13q-.13.39.26.26T123.955-25.61Zm-.52.13h-.26a.115.115,0,0,0-.13.13q-.13.39.26.26T123.435-25.48Zm-1.95.91q.39,0,.39-.26Q121.485-24.83,121.485-24.57Zm21.19,4.55a.115.115,0,0,0-.13-.13.115.115,0,0,0-.13.13.208.208,0,0,1,.195.13Q142.675-19.76,142.675-20.02Zm-.78,1.3q.13.26.2-.065T141.895-18.72Zm-.13.52a.208.208,0,0,1,.2.13q.065.13.325,0,.13-.26-.195-.325T141.765-18.2Zm-2.08,2.47q0,.26.13.26a.115.115,0,0,1,.13-.13q0,.39.13.39,0-.26.195-.2t.2-.195q-.26.13-.325,0a.7.7,0,0,0-.325-.26A.115.115,0,0,1,139.685-15.73Zm-2.6,6.63.26-.52q-.26-.13-.39.195T137.085-9.1Zm-2.99,4.55a3.5,3.5,0,0,1,.2-1.1,1.19,1.19,0,0,0,.065-.845,2.263,2.263,0,0,0-.455.975Q133.7-4.81,134.095-4.55Zm1.82-1.3q.13.39.13,0T135.915-5.85Zm-2.47,2.08q.26-.13.26.13t.26.13a.429.429,0,0,1,0-.455q.13-.2-.13-.455a1.5,1.5,0,0,1-.2.325A1.505,1.505,0,0,0,133.445-3.77Zm20.54-53.82q0-.39.26-.39v.26a.115.115,0,0,0-.13.13Zm-.65,2.99q.39.26.065.26T153.335-54.6Zm-1.82,6.63q.13-.39.13,0T151.515-47.97Zm-.65,2.47q.26.13.065.52t-.455.26a.816.816,0,0,0,.195-.325A3.567,3.567,0,0,1,150.865-45.5Zm13.13,1.17q-.13.26-.65.26Q163.345-44.33,163.995-44.33Zm-1.43.39q.13-.39.13,0T162.565-43.94Zm5.33-.13q.13.26-.065.26t-.195.13q-.26,0-.13-.26A.257.257,0,0,1,167.895-44.07Zm-.91.26a1.721,1.721,0,0,1-.975.26h-1.235a.974.974,0,0,1,.975-.325Q166.465-43.81,166.985-43.81Zm-4.03.13q.13-.39.13,0T162.955-43.68Zm8.58.13h.26v.26h-.26Zm-1.04.13h.26q0,.26-.39.26,0-.13.065-.13T170.495-43.42Zm-.91.13q.39,0,.39.26h-.39Zm-4.55.26q.13-.39.13,0T165.035-43.03Zm3.64-.13q0,.26-.325.26a1.29,1.29,0,0,0-.585.13q0-.26.325-.26A1.29,1.29,0,0,0,168.675-43.16Zm.78,0q0,.26-.39.26Q169.065-43.16,169.455-43.16Zm-1.95.26q-.13.26-.325.26a1.047,1.047,0,0,0-.455.13q0,.52.26.52a.416.416,0,0,1-.39.26.749.749,0,0,0-.52.26.36.36,0,0,1-.065-.52.475.475,0,0,1,.585-.13q-.26-.52.13-.78A.65.65,0,0,1,167.5-42.9Zm.13.52q.26-.39.195-.065T167.635-42.38Zm4.03.39q.13-.39.13,0T171.665-41.99Zm-4.16,0q.39,0,.39.26h-.39Zm-5.46.65a.23.23,0,0,1-.26-.26A.23.23,0,0,1,162.045-41.34Zm2.34-.26q.26,0,.195.325t-.325.065v-.26A.115.115,0,0,0,164.385-41.6Zm6.89.39q0,.39-.52.39Q170.755-41.73,171.275-41.21Zm-5.07,0q.13.26-.195.26t-.325.26q-.26-.26,0-.39A1.154,1.154,0,0,1,166.2-41.21Zm5.46.13q0-.13.26-.13Q171.925-41.08,171.665-41.08Zm-1.17.39a.753.753,0,0,0-.52-.13q.13-.26.325-.26T170.495-40.69Zm-1.04,0q.26-.39.2-.065T169.455-40.69Zm.52.65Zm.65-.13h.26q0,.26-.39.26,0-.13.065-.13T170.625-40.17Zm-3.38,1.56a1.286,1.286,0,0,0-.91.065,1.617,1.617,0,0,1-1.04.065,6.035,6.035,0,0,1,1.04-.325Q167.115-39,167.245-38.61Zm-3.77,1.04q.13-.39.13,0T163.475-37.57Zm-1.82.52q-.26,0-.26-.39Q161.655-37.44,161.655-37.05Zm3.25-.39a1.041,1.041,0,0,1-.78.455,8.378,8.378,0,0,1-1.04.065A8.061,8.061,0,0,1,164.9-37.44Zm-3.25.39a.749.749,0,0,0,.52.26,6.9,6.9,0,0,1-1.43.39q-.78.13-1.69.26-.13-.26,0-.325t.13-.325q.26-.13.195.13a.316.316,0,0,0,.2.39.592.592,0,0,0,.325-.325,1.28,1.28,0,0,1,.325-.455q.26.52.39.26a2.037,2.037,0,0,1,.39-.52q.26.13.065.325a.532.532,0,0,0-.2.325A.632.632,0,0,0,161.655-37.05Zm-5.2.78q0,.26-.195.195t-.2.2q-.26-.13-.065-.26A.8.8,0,0,1,156.455-36.27Zm1.82.78q-.39.39-.585.13T158.275-35.49Zm-1.56.26a.749.749,0,0,1-.52.26Q156.195-35.23,156.715-35.23Zm-1.43.26q.26.26-.13.26T155.285-34.97Zm-2.08.52h.26q0,.26-.39.26,0-.13.065-.13T153.2-34.45Zm-16.12,4.68q.13.26-.52.26Q136.565-29.77,137.085-29.77Zm1.69,18.33q.26,0,.195.455t-.325.195A1.028,1.028,0,0,1,138.775-11.44Zm-6.11,8.19h.26v.26h-.26Zm1.04,1.04q.39,0,.325.52a1.255,1.255,0,0,1-.2.65,2.54,2.54,0,0,1-.2-.52A1.186,1.186,0,0,1,133.7-2.21Zm.65,0h.26v.26h-.26Zm30.29-14.56a4.064,4.064,0,0,0-2.21,1.04h-.13q0,.13.065.13t.065-.13q.26,0,.26-.13.26.39-.325.52t-.715.39a.939.939,0,0,1-.78-.325.7.7,0,0,0-.78-.2q0,.39.065.2t.325-.065q.13.39-.195.39t-.2.26q-.52-.13-.52.13a1.154,1.154,0,0,1-.13.52q-.39-.65-.975-.065a.829.829,0,0,1-1.235.065q.26.52,0,.585a.582.582,0,0,0-.39.325h-.26a.115.115,0,0,0,.13.13.115.115,0,0,0,.13-.13.53.53,0,0,1,.39.13,7.266,7.266,0,0,1-.78.455,4.45,4.45,0,0,1-.91.325q.13-.39-.065-.2t.065.2a.964.964,0,0,1-.65.455,1.476,1.476,0,0,0-.78.455q-.26-.26.065-.39t.325-.39q-.39-.13-.78.455a1.075,1.075,0,0,1-1.17.455q-.13.26.13.325t0,.195a3.817,3.817,0,0,0-1.43.26q0,.26.065.26t.065.26q-.26,0-.26.065t-.26.065q-.26,0-.26-.39a1.133,1.133,0,0,1-.585.325.4.4,0,0,0-.325.455q-.52-.26-.715,0a.685.685,0,0,1-.585.26.838.838,0,0,1,.39-.52,2.037,2.037,0,0,0,.52-.39.764.764,0,0,0,.65-.39q0-.26-.26,0l-.39.39a2.527,2.527,0,0,0-1.3.52q-.13.26.13.325t0,.325q-.26-.13-.26-.26t-.26.13q-.26.13-.065.195t.065.325a1,1,0,0,1-.39.13.375.375,0,0,0-.26.13q-.26.13-.26-.13a.23.23,0,0,0-.26-.26,1.563,1.563,0,0,0-1.04,1.04,4.833,4.833,0,0,0-1.17.13,2.657,2.657,0,0,1-1.17,0q0,.91-1.17.91v.65q-.39-.52-.65-.065a.844.844,0,0,1-.78.455q-.13-.52.325-.39t.325-.39q.39.13.195-.065t-.195.065a3.566,3.566,0,0,1-.455.2,3.566,3.566,0,0,0-.455.195l-.39-.39a.345.345,0,0,0,.39.39q0,.39.13.39a3.567,3.567,0,0,0-.2.455q-.065.2-.455.065.26-.52.065-.715a1.009,1.009,0,0,1-.195-.715q-.39-.13-.52,0a.53.53,0,0,1-.39.13.36.36,0,0,1-.065.455.36.36,0,0,0-.065.455q-.39-.52-.715,0a1.43,1.43,0,0,1-.715.65q-.39-.13-.2-.26a2.129,2.129,0,0,0,.325-.26q-.26-.26-.52.13-.26-.13-.065-.26t-.065-.26a4.26,4.26,0,0,0-.65.52,1.787,1.787,0,0,1-.91.39.524.524,0,0,1,.26-.52.85.85,0,0,0,.39-.39q-.26-.26-.39.13a.363.363,0,0,1-.52.26v-.65q-.26,0-.26.65a.514.514,0,0,1-.325-.065q-.065-.065-.2.195-.39-.26-.065-.325a.894.894,0,0,0,.455-.2q-.13-.26-.26-.065t-.39.065q.65-.65,1.17-1.235a3,3,0,0,1,1.56-.845.524.524,0,0,1,.26-.52.524.524,0,0,0,.26-.52,2.389,2.389,0,0,0,1.625-.845,3.857,3.857,0,0,1,1.5-1.1q-.26-.52-.78,0t-.78,0q-.26,0-.065.13t.065.39q-.13,0-.13-.065t-.26-.065a.8.8,0,0,1-.13.455.429.429,0,0,0,0,.455,3.028,3.028,0,0,0-2.21.65.592.592,0,0,1,.325-.325q.2-.065.2-.455a2.5,2.5,0,0,0-.975,1.04,2.5,2.5,0,0,1-.975,1.04q-.52,0-.2-.2t.2-.455q-.65.26-.585.585a.619.619,0,0,1-.195.585h-.26q0-.39-.26-.2t-.39-.2a1.4,1.4,0,0,1,.78-.715,1.039,1.039,0,0,0,.65-.845,130.345,130.345,0,0,1,23.53-13.325q12.61-5.525,26-10.335a15.977,15.977,0,0,0,3.055-.91q1.625-.65,3.315-1.3a2.9,2.9,0,0,1-1.04-.39,1.091,1.091,0,0,0-1.04,0q-.26-.65-1.43-.455t-1.56-.455a3.2,3.2,0,0,1-2.015-.13,3.2,3.2,0,0,0-2.015-.13q-.13-.39-.39-.325t-.26-.195a4.169,4.169,0,0,1-1.5,0,6.816,6.816,0,0,0-1.625-.13,6.871,6.871,0,0,0-3.055-.845,7.757,7.757,0,0,1-3.185-.845q-.26-.13-.325,0t-.325.13a6.658,6.658,0,0,0-2.795-.845A3.474,3.474,0,0,1,164.9-40.56q-.39,0-.39.13a9.075,9.075,0,0,1-2.99-3.9q-1.04-2.47-2.21-4.68a1.3,1.3,0,0,0,.2-.91,2.06,2.06,0,0,1,.065-.91,22.444,22.444,0,0,1,7.605-5.135q4.485-1.885,8.645-3.7,3.38-1.04,6.37-1.69t5.85-1.43a16.754,16.754,0,0,0,2.08-.13q1.04-.13,2.47-.39a3.015,3.015,0,0,0,1.04.065,6.605,6.605,0,0,1,1.04-.065,1.047,1.047,0,0,0,.455.13,1.047,1.047,0,0,1,.455.13,2.221,2.221,0,0,1,1.885.325,5.947,5.947,0,0,0,1.755.845,4.268,4.268,0,0,1,1.17,1.495,12.14,12.14,0,0,1,.65,1.755l.52,1.82a4.6,4.6,0,0,0,.91,1.69,1.1,1.1,0,0,0,0,1.04.721.721,0,0,1-.13.91q-.65.13-.78-.26t-.78-.13a8.06,8.06,0,0,0-3.185-1.17,16.864,16.864,0,0,0-3.64-.13,26.294,26.294,0,0,0-3.705.52q-1.82.39-3.51.65a56.488,56.488,0,0,0-9.62,2.665,67.061,67.061,0,0,0-8.71,3.965,6.583,6.583,0,0,0,2.275.65q1.235.13,2.535.39,3.38.65,7.15,1.3t7.15,1.3a19.476,19.476,0,0,1,4.55.845,14.445,14.445,0,0,0,4.16.715,1.64,1.64,0,0,0,1.69.52,4.937,4.937,0,0,1,2.73,1.755,19.106,19.106,0,0,1,1.69,2.8v.65q.52,1.04.975,1.82a5.1,5.1,0,0,1,.455,2.47,26.048,26.048,0,0,1-8,3.965,88.223,88.223,0,0,0-8.775,3.185,47.874,47.874,0,0,0-5.2,1.625q-2.6.975-4.94,1.625a.959.959,0,0,1-.91.455q-.52-.065-.78.585-.26-.13-.39.065t-.39-.065a17,17,0,0,1-4.355,1.95,15.288,15.288,0,0,0-4.1,1.82Q165.165-17.16,164.645-16.77Zm.26-7.41q.13.39.13,0T164.9-24.18Zm-.26.65q.13.39.13,0T164.645-23.53Zm15.08.65q.13.26.195-.065T179.725-22.88Zm-5.98,1.69a5.593,5.593,0,0,0,1.04-.13.89.89,0,0,0,.78-.65,5.707,5.707,0,0,1-.975.39A3,3,0,0,0,173.745-21.19Zm2.08-.13q.65,0,.52-.26A.749.749,0,0,0,175.825-21.32Zm-.78.26a.265.265,0,0,1,.2.065.514.514,0,0,0,.325.065.307.307,0,0,0-.26-.325Q175.045-21.32,175.045-21.06Zm-16.77.26q-.13,0-.13-.065t-.26-.065q-.26.26.065.325T158.275-20.8Zm15.73.13q.13.26.2-.065T174.005-20.67Zm-6.5.39Zm2.99.52q-.26.13-.13.13a.115.115,0,0,0,.13-.13,2.277,2.277,0,0,1,.715-.13q.325,0,.325-.52A1.955,1.955,0,0,0,170.5-19.76Zm-.91.39h-.26q0,.13-.065.13t-.065.13q.26-.13.325.13t.325,0q.52.13.325-.065t-.325.065q-.26,0-.26-.39.13,0,.52-.39Q169.585-19.76,169.585-19.37Zm-15.99.65q-.26,0-.26.13Q153.595-18.59,153.6-18.72Zm15.47.26h.26v-.26h-.26Zm-2.21,0v.26h.39v-.39h-.26A.115.115,0,0,1,166.855-18.46Zm-4.29.13v.26h.26a.115.115,0,0,1,.13-.13v-.26h-.26A.115.115,0,0,1,162.565-18.33Zm2.86.52a1.648,1.648,0,0,1-.78.39q-.52.13-.26.39a.882.882,0,0,1,.65-.26q.39,0,.39-.52.39.39.65-.26Q165.425-18.07,165.425-17.81Zm1.17.13q.13.39.13,0T166.6-17.68Zm-.65.39q-.39,0-.39.13Q165.945-17.16,165.945-17.29Zm-15.86.78q.39,0,.39-.26h-.26q0,.13-.065.13T150.085-16.51Zm-1.82.65q.39,0,.39-.26h-.26q0,.13-.065.13T148.265-15.86Zm12.48.26a.466.466,0,0,0,.52-.065q.26-.2,0-.325,0,.26-.39.13T160.745-15.6Zm-3.12,1.43q.78,0,.78-.52A.833.833,0,0,0,157.625-14.17Zm-12.35.52h.26v-.26h-.26Zm11.31.13a.208.208,0,0,1,.13-.195q.13-.065-.13-.195a.208.208,0,0,1-.13.195Q156.325-13.65,156.585-13.52Zm-1.69.65a1.059,1.059,0,0,0,.78-.26,1.154,1.154,0,0,0-.52-.13Q154.9-13.26,154.9-12.87Zm-11.96.26q.26.26.65-.13Q143.2-13.13,142.935-12.61Zm8.97,0h.26v-.26h-.26Zm2.21,0v.26q.26.26.325-.065t-.195-.325A.115.115,0,0,1,154.115-12.61Zm-4.16.39a.115.115,0,0,1,.13.13.115.115,0,0,0,.13.13.441.441,0,0,1,.325-.13.713.713,0,0,0,.455-.26Q150.215-12.61,149.955-12.22Zm-7.15-.13q-.26,0-.26.13Q142.805-12.22,142.805-12.35Zm10.27.39q.52,0,.52-.13a.441.441,0,0,0-.325-.13Q153.075-12.22,153.075-11.96Zm-12.09,0q0,.26.13.26t-.13.26q.39.13.52,0l.39-.39Q141.245-12.22,140.985-11.96Zm8.32.52h.26v-.26h-.26Zm-8.71.65q.13-.52-.195-.585a2.32,2.32,0,0,1-.585-.2A.689.689,0,0,0,140.6-10.79Zm5.46.65a.85.85,0,0,0,.39-.39q.13-.26.52,0,0-.65-.26-.65a1.472,1.472,0,0,1-.52.52Q145.8-10.4,146.055-10.14Zm4.94-.78q-.39,0-.39.26.39,0,.39-.26.65,0,.52-.26Q151-11.18,151-10.92Zm-1.17,0q-.26,0-.26.13Q149.825-10.79,149.825-10.92Zm-2.47.65a.208.208,0,0,1,.13-.195q.13-.065-.13-.195a.208.208,0,0,1-.13.195Q147.1-10.4,147.355-10.27Zm-.26.39q0-.39-.26-.39Q146.835-9.88,147.1-9.88Zm-2.6.78v.26h.39v-.39h-.26A.115.115,0,0,1,144.5-9.1Zm-1.3,1.17q.39,0,.325-.325t.455-.065q0-.26.065-.26t.065-.26h-.52a.416.416,0,0,1-.26.39Q143.065-8.32,143.2-7.93Zm1.17-.39q.13.39.13,0T144.365-8.32Zm-1.69.65a.882.882,0,0,1-.65.26.345.345,0,0,0-.39.39,2.137,2.137,0,0,1,.52.065.54.54,0,0,0,.52-.2v-.52q.26,0,.325-.325t-.195-.325A1.028,1.028,0,0,0,142.675-7.67Zm-5.33-.39v.26h.39v-.39h-.26A.115.115,0,0,1,137.345-8.06Zm7.54-.13q-.26,0-.26.13Q144.885-8.06,144.885-8.19Zm-.39.39q-.65,0-.455.195T144.5-7.8Zm-7.67.39q.13,0,.13.065t.13.065q0-.39-.26-.39Zm.91.52q0-.26.2-.2t.195-.2a.36.36,0,0,0-.455.065Q137.475-7.02,137.735-6.89Zm-.39.39q.13.65-.65.65a.653.653,0,0,0,.715.52q.585,0,.585-.65h-.39a2.258,2.258,0,0,1,.715-.455,1.434,1.434,0,0,0,.715-.715q-.13,0-.13-.065t-.26-.065A1.2,1.2,0,0,1,137.345-6.5Zm3.77-.52q-.13.65.26.26t-.26-.26q-.13-.26-.325-.26t-.2.39q.26,0,.26-.065T141.115-7.02Zm-.78.78q.39,0,.39-.26Q140.205-6.5,140.335-6.24Zm-5.33.65q.39,0,.455-.26a.582.582,0,0,1,.325-.39q-.26.13-.39,0a.53.53,0,0,0-.39-.13.864.864,0,0,1-.065.455Q134.875-5.85,135.005-5.59Zm.91-.13q.39,0,.39-.26h-.26q0,.13-.065.13T135.915-5.72Zm28.73-11.05a.441.441,0,0,0,.325.13q.2,0,.065.26Q164.385-16.12,164.645-16.77Zm-1.43.65H164l-.78.39Zm-3.12,1.43h.26q0,.26-.65.52,0-.26.2-.26T160.1-14.69ZM157.235-13a.115.115,0,0,1,.13-.13A.115.115,0,0,1,157.235-13Zm-6.76,3.25q0,.39-.52.39Q149.955-9.75,150.475-9.75Zm-14.04,1.17q0,.26-.52.26Q135.915-8.58,136.435-8.58Zm-1.04.52Zm10.53,0h.26v.39h-.39v-.26A.115.115,0,0,0,145.925-8.06Zm-13.91,2.21v-.39a.638.638,0,0,0-.585.325q-.2.325-.455.065a4.676,4.676,0,0,0,.715-.585,3.221,3.221,0,0,1,.845-.585.882.882,0,0,0-.26.65A.524.524,0,0,1,132.015-5.85Zm11.44-1.04q-.26.39-.26.065T143.455-6.89Zm-10.14,0a.115.115,0,0,1-.13.13Q133.055-6.76,133.315-6.89Zm-.78.52a.115.115,0,0,1,.13-.13.115.115,0,0,1,.13.13Zm-.52.52q.13.39-.065.2T132.015-5.85Zm1.43.26q.26.13.13.2a.208.208,0,0,0-.13.2q-.26-.13-.13-.2A.208.208,0,0,0,133.445-5.59Zm.78.65q0,.26-.39.26Q133.835-4.94,134.225-4.94Zm3.51,0q.26,0,.26.39h-.39a.265.265,0,0,1,.065-.195A.265.265,0,0,0,137.735-4.94Zm.52.26q.13-.39.13,0T138.255-4.68Zm-4.68.26q.13-.39.13,0T133.575-4.42Zm.65,0q.26,0,.26.2a.441.441,0,0,1-.13.325q-.26-.13-.2-.2A.514.514,0,0,0,134.225-4.42Zm-1.56.78q0-.13.26-.13Q132.925-3.64,132.665-3.64Z" transform="translate(218.855 68.662)" fill="#d2ccdf"/>
</svg>
