<svg xmlns="http://www.w3.org/2000/svg" width="28.507" height="24.006" viewBox="0 0 28.507 24.006">
  <g id="Group_11840" data-name="Group 11840" opacity="0.985">
    <path id="Path" d="M.835,1.6H4.318L8.35,15.124l-.316.606A2.406,2.406,0,0,0,10.275,19.2H24.331a.8.8,0,1,0,0-1.6H10.275a.8.8,0,0,1-.747-1.158L9.759,16H24.331a.832.832,0,0,0,.8-.581l3.341-11.2a.775.775,0,0,0-.136-.7.851.851,0,0,0-.667-.318H6.532L5.751.581A.832.832,0,0,0,4.947,0H.835A.818.818,0,0,0,0,.8a.818.818,0,0,0,.835.8Z" fill="#fff"/>
    <ellipse id="Oval" cx="2.505" cy="2.401" rx="2.505" ry="2.401" transform="translate(10.078 19.204)" fill="#fff"/>
    <ellipse id="Oval-2" data-name="Oval" cx="2.505" cy="2.401" rx="2.505" ry="2.401" transform="translate(18.485 19.204)" fill="#fff"/>
  </g>
</svg>
