<svg xmlns="http://www.w3.org/2000/svg" width="31.333" height="27.448" viewBox="0 0 31.333 27.448">
  <path id="Path_45103" data-name="Path 45103" d="M1126.144,561.551a1.014,1.014,0,0,0,1.015-1.014V549.7h2.667a1.762,1.762,0,0,0,1.1-3.137l-3.445-2.988V538.6a1.053,1.053,0,0,0-1.052-1.054h-2.179a1.053,1.053,0,0,0-1.053,1.054v1.253l-6.125-5.318a1.761,1.761,0,0,0-2.308,0L1100.86,546.6a1.761,1.761,0,0,0,1.154,3.091h2.666v10.842a1.014,1.014,0,0,0,1.015,1.014h5.991v-7.882a2.017,2.017,0,0,1,2.017-2.018h4.435a2.018,2.018,0,0,1,2.018,2.018v7.882Z" transform="translate(-1100.254 -534.103)" fill="#4d4e50"/>
</svg>
