<svg xmlns="http://www.w3.org/2000/svg" width="30.733" height="27.242" viewBox="0 0 30.733 27.242">
  <path id="Path_45104" data-name="Path 45104" d="M499.086,716.388a30.009,30.009,0,0,1-1.99,2.361c-.14.011-.4-.625-1.922-2.361A8.07,8.07,0,0,0,488.9,714.1a6.442,6.442,0,0,0-4.851,2.292l-.22.262c-2.77,3.126-2.986,9.268.593,13.084,0,0,11.679,11.628,12.844,11.6s12.45-11.324,12.45-11.324c3.229-3.31,3.727-10.237.956-13.363l-.222-.262A6.456,6.456,0,0,0,505.6,714.1C503.784,714.1,501,714.138,499.086,716.388Z" transform="translate(-481.746 -714.096)" fill="#4d4e50" fill-rule="evenodd"/>
</svg>
