<svg xmlns="http://www.w3.org/2000/svg" width="21.489" height="24.45" viewBox="0 0 21.489 24.45">
  <g id="Group_11841" data-name="Group 11841" transform="translate(-6450.431 -547.96)" opacity="0.975">
    <g id="Group_46" data-name="Group 46" transform="translate(6454.729 547.96)">
      <g id="Group_45" data-name="Group 45">
        <path id="Path_120" data-name="Path 120" d="M127.447,0a6.447,6.447,0,1,0,6.447,6.447A6.454,6.454,0,0,0,127.447,0Z" transform="translate(-121 0)" fill="#fff"/>
      </g>
    </g>
    <g id="Group_47" data-name="Group 47" transform="translate(6450.431 562.286)">
      <path id="Path_121" data-name="Path 121" d="M49.766,302.779A9.19,9.19,0,0,0,43.177,300H40.312a9.19,9.19,0,0,0-6.588,2.779A9.4,9.4,0,0,0,31,309.408a.716.716,0,0,0,.716.716H51.773a.716.716,0,0,0,.716-.716A9.4,9.4,0,0,0,49.766,302.779Z" transform="translate(-31 -300)" fill="#fff"/>
    </g>
  </g>
</svg>
