<svg xmlns="http://www.w3.org/2000/svg" width="361.081" height="80.037" viewBox="0 0 361.081 80.037">
  <path id="Path_45099" data-name="Path 45099" d="M-144.365-13.26a.753.753,0,0,0,.13-.52.753.753,0,0,0,.13-.52q-.26.13-.13.52-.13,0-.13.52a1.512,1.512,0,0,0-.39.26.753.753,0,0,1-.52.13q.13.26,0,.39a.53.53,0,0,0-.13.39h.26q0,.13-.52.39a3.733,3.733,0,0,0,.13-1.625,2.068,2.068,0,0,1,.13-1.235q-.13-.26-.26-.065t-.26-.065a3.382,3.382,0,0,1,.13-1.04q.13-.39.26-.91a.23.23,0,0,0-.26.26.325.325,0,0,1,0-.52.749.749,0,0,0,.26-.52v.13a.115.115,0,0,0,.13.13,4.834,4.834,0,0,0,.325-1.365,6.637,6.637,0,0,1,.325-1.5q-.13-.26-.26,0t-.39,0a1.154,1.154,0,0,0,.13.52.838.838,0,0,1,0,.65q-.26,0-.26-.39-.39.26-.13.455t0,.845q-.26,0-.13-.325t-.26-.065q.26-1.43.455-2.21a4.983,4.983,0,0,0,.065-1.82q.26,0,.26-.195t.26.065a3.416,3.416,0,0,1,.325-2.08,4.74,4.74,0,0,0,.585-1.82l-.65,1.3a8.059,8.059,0,0,0-.52,1.56.5.5,0,0,1-.13-.585.689.689,0,0,0,0-.585,3.18,3.18,0,0,0,.78-2.86q-.13,0-.13.65-.26-.26-.39-.26t-.39.26q-.26-.78.39-.78t.52-.65q.52.13.715-.195a3.023,3.023,0,0,1,.455-.585,1.811,1.811,0,0,1-.13.78,2.366,2.366,0,0,0,.78-1.04,3.194,3.194,0,0,0,.26-1.17q.65.26.715-.715a2.114,2.114,0,0,1,.325-1.235q.13-.13.065-.195t-.065.195q-.65,0-.455.52t-.585.65a5.374,5.374,0,0,0,.325-1.04l.2-1.17a2.225,2.225,0,0,0-.65,1.3q-.52-.13-.39-.26t-.13-.39q-.13-.39.13-.39a.23.23,0,0,0,.26-.26q-.52-1.04.195-1.43a1.154,1.154,0,0,0,.585-1.3q.26-.26.325-.195t.325-.065q0-.26-.325-.26t-.195-.26q.52.26.585-.325t.455-.325a2.716,2.716,0,0,1-.13-.455,2.716,2.716,0,0,1,.13-.455q.52-.26.26-.52a.325.325,0,0,1,0-.52q.13.52.455,0t-.195-.39q0-.39.26-.455a2.541,2.541,0,0,0,.52-.195q0-.26-.2-.2a.3.3,0,0,0-.195.325,1.366,1.366,0,0,1,.13-.975.836.836,0,0,1,.78-.585q-.13-.52-.065-.585a.864.864,0,0,0,.065-.455q-2.86,4.03-5.915,7.735t-6.435,7.215q0-.26-.13-.26-.26.26.13.26a1.164,1.164,0,0,0-.325.65,2,2,0,0,1-.325.78,4.518,4.518,0,0,0-2.145,1.5,5.292,5.292,0,0,1-2.4,1.625,5.457,5.457,0,0,1-3.51,2.08q-.13.26-.325.195t-.455.195a13.78,13.78,0,0,1-8.97-7.28.957.957,0,0,0,0-.975.928.928,0,0,1-.13-.845q0-.26-.39-.26a23,23,0,0,1,1.235-5.85q.975-2.73,2.015-5.33.13-.13.065-.195t-.065.195A40.21,40.21,0,0,0-169.78-37.9a19.532,19.532,0,0,0-2.015,4.615.375.375,0,0,1-.13-.26,63.523,63.523,0,0,0-4.485,7.41q-2.015,3.9-4.225,8.19a.933.933,0,0,1-1.235-.13.755.755,0,0,0-.975-.26q-.52-1.3-1.1-2.6a3.179,3.179,0,0,1,.065-2.73q-.13-.26-.2,0a.824.824,0,0,1-.195.39.36.36,0,0,1-.065-.52.562.562,0,0,1,.455-.26,1.764,1.764,0,0,1-.585-1.43,3.269,3.269,0,0,1,.455-1.43l.13-.13h.13q0-.26-.065-.195a.265.265,0,0,0-.065.195q-.13-.13-.13.13h-.26a35.391,35.391,0,0,0,1.82-4.355,12.185,12.185,0,0,1,2.21-3.965,10.717,10.717,0,0,1,1.69-3.12,16.052,16.052,0,0,0,1.82-2.86,30.106,30.106,0,0,0,2.6-3.575q1.17-1.885,2.34-3.7a.592.592,0,0,0,.325-.325q.065-.2.325-.065a4.5,4.5,0,0,1,1.625-2.21,4.557,4.557,0,0,0,1.625-2.08.7.7,0,0,0,.325-.26q.065-.13.325,0v-.65q1.04-.26,1.04-1.04a.425.425,0,0,1,.52-.13q2.21-2.47,4.42-4.81a14.91,14.91,0,0,1,5.59-3.64q.52.13,1.17.26a6.025,6.025,0,0,0,1.17.13,4.475,4.475,0,0,1,.845.78,1.1,1.1,0,0,0,1.1.39,1.589,1.589,0,0,1,.585.715,1.426,1.426,0,0,0,.845.715,2.515,2.515,0,0,1-.26.715q-.13.2.13.715a54.821,54.821,0,0,1-4.68,10.53,66.756,66.756,0,0,0-4.94,10.66q-.39-.26-.585.39t-.455,1.3q-.13,0-.13.26-.26,0-.13.065t.13-.065a.115.115,0,0,0,.13-.13v-.13q.39.13.065.585a1.485,1.485,0,0,0-.325.845q-.39.13-.52,0v.39q-.26,0-.26.52-.26.13-.26.91a2.2,2.2,0,0,0-.65,1.625,2.03,2.03,0,0,1-.78,1.625q0,.13.39.13-.26,0-.13.325t-.13.455q-.13-.26-.13-.13a.115.115,0,0,0,.13.13q.26.26,0,.325a.307.307,0,0,0-.26.325q.52.13.65-.195a2.1,2.1,0,0,0,.13-.78,6.427,6.427,0,0,1,.065-.91.658.658,0,0,1,.455-.585,10.051,10.051,0,0,0-.26.975,1.617,1.617,0,0,0,.13,1.1A19.853,19.853,0,0,0-159.12-31.4a40.388,40.388,0,0,0,2.86-3.185q1.365-1.69,2.795-3.25t2.99-2.99a37.189,37.189,0,0,1,3.12-4.16l3.38-3.9a17.553,17.553,0,0,1,3.38-4.42,19.728,19.728,0,0,0,3.38-4.16.977.977,0,0,0,.52-.325.437.437,0,0,1,.39-.195q0,.13-.065.13t-.065.13a.3.3,0,0,0,.325-.195.3.3,0,0,1,.325-.2q0-.26-.195-.195t-.065-.195q.26-.26.455-.195a.592.592,0,0,0,.455-.065q.13-.52-.13-.26t-.13-.13q.39-.39.26-.39h.26q-.13.39.065.2t-.065-.2q.26-.65.65-.65v.26q-.13-.13-.13.13-.13,0-.13.52a.753.753,0,0,0,.13-.52l.13-.13q.13,0,.2-.195t-.2-.065v-.26a4.2,4.2,0,0,1,1.04-.585,2.526,2.526,0,0,0,.91-.585q0-.26-.39-.26a11.429,11.429,0,0,1,2.015-1.82q1.1-.78,2.145-1.56.26-.13.26,0t.26.13a1.014,1.014,0,0,1,.845-.585q.585-.065.455-.845a1.2,1.2,0,0,0,.78,0,.53.53,0,0,0,.13.39q.26-.13.195-.26t.2,0a.375.375,0,0,0,.26.13q.26-.26.2-.455t.195-.325q.52.13.2.325t-.065.455a.524.524,0,0,0,.26-.52,1.512,1.512,0,0,1,.39.26q.13.13.65,0a.265.265,0,0,1-.065.195.265.265,0,0,0-.065.2q1.17.26,1.3.91.52-.39.585.065t.715.455q-.13.26.26.91a1.382,1.382,0,0,0-.2.845,6.423,6.423,0,0,1,.065,1.1q-3.12,6.11-6.37,12.025t-6.37,12.09q-3.12,6.175-5.85,12.675a107.125,107.125,0,0,0-4.68,13.78,1.375,1.375,0,0,1,.065-1.235,2.506,2.506,0,0,0,.325-1.235,2.381,2.381,0,0,0-.65,1.365,6.823,6.823,0,0,1-.39,1.495,1.987,1.987,0,0,1,0-1.04Q-144.495-12.74-144.365-13.26Zm17.42-51.87q.26.13.26-.26t-.26-.13Zm-2.08.78q-.26,0-.13.065t.13-.065q.13-.13.065-.195T-129.025-64.35Zm-.13.39q-.13-.26-.13-.13A.115.115,0,0,0-129.155-63.96Zm0,1.43q.13.39.13,0T-129.155-62.53Zm-2.08,1.17q0-.13-.195-.195t-.2.195q-.13.26.2.26T-131.235-61.36Zm.52.26q.39,0,.39-.26Q-130.715-61.49-130.715-61.1Zm-1.17.26q.13.39.13,0T-131.885-60.84Zm-.78.26Zm1.43.13q.39,0,.39-.26Q-131.365-60.71-131.235-60.45Zm-1.56.39q.13.39.13,0T-132.795-60.06Zm.65.39q-.26,0-.13.065t.13-.065q.65-.26.65-.39.13-.13.065-.195t-.065.195q-.26,0-.26-.065t-.13-.065q.13.26-.13.195T-132.145-59.67Zm-1.69.13q-.13-.26-.13-.13A.115.115,0,0,0-133.835-59.54Zm.26.65a.437.437,0,0,1,.195-.39q.2-.13-.065-.26,0,.13-.195.26T-133.575-58.89Zm1.17-.13q0-.26.13-.13,0-.39-.26-.26A.53.53,0,0,0-132.4-59.02Zm-1.04.78a7.094,7.094,0,0,1,.585-.52q.325-.26-.065-.39A1.929,1.929,0,0,0-133.445-58.24Zm-.52-.52q.13.39.13,0T-133.965-58.76Zm-.39,1.43q-.78.65-1.235,1.04a4.7,4.7,0,0,0-.975,1.43q-.39.13-.52,0a.864.864,0,0,1-.2.52.36.36,0,0,0,.065.52,1.481,1.481,0,0,1,.325-.585,1.735,1.735,0,0,0,.325-.455q.13,0,.13.065t.13.065a3.837,3.837,0,0,1,1.04-1.3,2.745,2.745,0,0,0,.91-1.3,2.006,2.006,0,0,0,.585-.52q.325-.39.065-.65a.977.977,0,0,1-.325.52A1.112,1.112,0,0,0-134.355-57.33Zm-.78-.52q0-.39-.26-.39Q-135.395-57.85-135.135-57.85Zm.13.13h.26v-.26h-.26Zm-.65.13q-.13.52.13.26T-135.655-57.59Zm-.91,1.04a.54.54,0,0,1,.52-.2.316.316,0,0,0,.39-.195q-.26-.13-.2-.325t-.195-.065q0,.26-.39.195T-136.565-56.55Zm-1.3.52q-.13-.13-.13.13-.26,0-.13.065t.13-.065l.13-.13q.39-.13.195-.325T-137.865-56.03Zm.91.39q-.13-.26.065-.39t-.065-.13a.375.375,0,0,0-.13.26Q-137.085-55.64-136.955-55.64Zm-.65.26h.26v-.26h-.26Zm-.91.13q-.26,0-.13.065t.13-.065q.13-.13.065-.195T-138.515-55.25Zm.52,0v.26q.26.13.325-.195t-.195-.2A.115.115,0,0,1-137.995-55.25Zm-.52,1.04h.39q0-.39-.13-.39a.115.115,0,0,1-.13.13Q-138.515-54.47-138.515-54.21Zm-.52.52q.13.39.13,0T-139.035-53.69Zm.91.91q0-.26.39-.52t.13-.52a1.1,1.1,0,0,1-.52.455Q-138.515-53.17-138.125-52.78Zm-.91.91q-.13-.13-.13.13h-.13a1.929,1.929,0,0,0-.52.91q-.13-.13-.13.13-.13-.13-.13.13-.26.26-.715.65a.858.858,0,0,0-.325.91,2.294,2.294,0,0,1,.585-.78,1.393,1.393,0,0,0,.455-.78l.13-.13.13-.13q.39-.13.65-.91l.13-.13a3.152,3.152,0,0,1,.455-.39.981.981,0,0,0,.325-.39Q-138.905-52.65-139.035-51.87Zm-2.73,3.38h-.13q-.13,0-.13.52h-.13a7.09,7.09,0,0,0-.52.585,4.8,4.8,0,0,0-.52.845q-.39,0-.2.195t.2-.195a1.514,1.514,0,0,0,.715-.65,7.263,7.263,0,0,1,.455-.78h.13a.753.753,0,0,0,.13-.52l.39-.39Q-141.765-49.01-141.765-48.49Zm5.72,2.6q-.26,0-.26.13Q-136.045-46.02-136.045-45.89Zm-8.19.78q-.13-.13-.13.13-.39,0-.39.52.39,0,.39-.52l.13-.13q.26-.26.065-.455T-144.235-45.11Zm5.98.52q0-.26.13-.325t-.13-.065a.208.208,0,0,1-.13.195Q-138.515-44.72-138.255-44.59Zm-.39.39q.13-.39-.13-.52A.753.753,0,0,0-138.645-44.2Zm1.69-.13q.13.39.13,0T-136.955-44.33Zm-8.06.13Zm5.85.26Zm2.73.39q-.26.13-.065.325t.065-.325q.13-.13.065-.195T-136.435-43.55Zm-3.25.39q0,.65.13.13T-139.685-43.16Zm2.08,0Zm-2.99.13q.13.39.13,0T-140.6-43.03Zm-26.26,1.04q0-.26.13-.325t-.13-.065a.208.208,0,0,1-.13.2Q-167.115-42.12-166.855-41.99Zm27.43.52q.39,0,.39-.26Q-139.555-41.73-139.425-41.47Zm.65.52q.13.26.195-.065T-138.775-40.95Zm-3.12.78q-.13.52,0,.065T-141.895-40.17Zm-7.67.78q.13.39.13,0T-149.565-39.39Zm.52.13q.26.26.195-.065T-149.045-39.26Zm9.36.78a.624.624,0,0,1,.2-.455q.195-.2-.065-.325a.789.789,0,0,1-.2.39Q-139.945-38.61-139.685-38.48Zm-9.88-.39Zm10.79.13q-.26,0-.13.065t.13-.065q.13-.13.065-.195T-138.775-38.74Zm-1.43.13q.13.39.13,0T-140.205-38.61Zm1.17.91a.824.824,0,0,0,.2-.39q.065-.26-.2-.26.13.13-.065.325T-139.035-37.7Zm-4.68-.26q.39-.13.39-.26h-.26q0,.13-.065.13T-143.715-37.96Zm3.51.91a.466.466,0,0,1,.065-.52q.2-.26-.065-.39a.864.864,0,0,1-.195.52Q-140.6-37.18-140.205-37.05Zm-4.42-.52q-.26,0-.13.065t.13-.065q.13-.13.065-.195T-144.625-37.57Zm.52.39q.13.39.13,0T-144.1-37.18Zm-.52.39q.13.26.2-.065T-144.625-36.79Zm-7.15.39q.13.39.13,0T-151.775-36.4Zm10.27.39q-.26,0-.26.13Q-141.505-36.14-141.505-36.01Zm-19.63.39q-.26,0-.26.39.26,0,.26-.39.26-.13.065-.325T-161.135-35.62Zm19.76.78a.824.824,0,0,0,.2-.39q.065-.26-.2-.26.13.13-.065.325T-141.375-34.84Zm-.65,1.04q.26,0,.195-.26t.2-.26Q-142.025-34.45-142.025-33.8Zm.65.78q.26,0,.39-.39t-.13-.39a.53.53,0,0,1-.13.39A.53.53,0,0,0-141.375-33.02Zm-5.98-.39h.26v-.26h-.26Zm-.52.26q.13.39.13,0T-147.875-33.15Zm5.07.26q-.26,0-.13.065t.13-.065q.13-.13.065-.195T-142.8-32.89Zm4.42,2.73q.13.39.13,0T-138.385-30.16Zm-4.03.52q.13.26.195-.065T-142.415-29.64Zm3.77,0q.13.39.13,0T-138.645-29.64Zm-12.61.39q.13.39.13,0T-151.255-29.25Zm12.35.39q-.39,0-.195.195t.195-.195q.13-.13.065-.195T-138.9-28.86Zm-13.91,1.04Zm13.26,0q0,.65.13.13T-139.555-27.82Zm-12.74.26q.13.39.13,0T-152.295-27.56Zm8.58,0q.13.39.13,0T-143.715-27.56Zm-.26.65q.13.39.13,0T-143.975-26.91Zm-12.09,2.73q.13.26.2-.065T-156.065-24.18Zm-1.04.78q.13.39.13,0T-157.1-23.4Zm-.39.39q-.13-.13-.13.13-.26,0-.325-.13t-.325,0a.265.265,0,0,1-.065.195.514.514,0,0,0-.065.325,1.648,1.648,0,0,0,.78-.39l.13-.13q.13-.13.065-.195T-157.495-23.01Zm-3.25,1.04q-.39,0-.325.065t.325,0a2.015,2.015,0,0,0,.39-.13q.13-.065-.26-.195v.13Zm.65,0q.39-.13.39-.26h-.26q0,.13-.065.13T-160.1-21.97Zm.78,0h.26v-.26h-.26Zm14.82,1.69q0-.26.13-.13,0-.39-.26-.26A.53.53,0,0,0-144.495-20.28Zm2.47,0q-.26,0-.26.13Q-142.025-20.41-142.025-20.28Zm-1.56,4.16q.13.39.13,0T-143.585-16.12Zm-2.08,1.3q.52-.13.325-.52t.325-.52q-.52-.13-.585.26A4.738,4.738,0,0,0-145.665-14.82Zm2.6-.65q0-.26.13-.325t-.13-.065a.208.208,0,0,1-.13.2Q-143.325-15.6-143.065-15.47Zm-.65,1.56a1.617,1.617,0,0,0,.39-.715q.13-.455,0-.585a.882.882,0,0,0-.26.65A1.447,1.447,0,0,1-143.715-13.91Zm-.39-.65q.26.13.325-.26t-.2-.26a.265.265,0,0,1-.065.195A.514.514,0,0,0-144.1-14.56Zm-.52-.13q.13.39.13,0T-144.625-14.69Zm-.13,1.56q0-.26.13-.325t-.13-.065a.208.208,0,0,1-.13.2Q-145.015-13.26-144.755-13.13Zm19.37-53.3q-.13-.65.065-.455T-125.385-66.43Zm-24.7,7.15q.26-.13.13-.52t.13-.39q.39.13.195.52a1.731,1.731,0,0,0-.195.78Q-150.215-59.28-150.085-59.28Zm9.75,19.24q0,.13-.13.065T-140.335-40.04Zm8.19.13q.26.13.065.325a.624.624,0,0,0-.195.455q-.26-.26,0-.39A.257.257,0,0,0-132.145-39.91Zm-.39.91q.26,0,.065.195a.624.624,0,0,0-.195.455q-.26-.13-.065-.325A.532.532,0,0,0-132.535-39Zm-8.45.39a.265.265,0,0,1,.065-.195q.065-.065.065.195Zm0,0v.13l-.13.13Q-141.115-38.61-140.985-38.61Zm-.13.26q0,.13-.13.065T-141.115-38.35Zm8.06.65q0-.26.065-.195T-133.055-37.7Zm0,0v.13l-.13.13Q-133.185-37.7-133.055-37.7Zm-.13.26q0,.13-.13.065T-133.185-37.44Zm-27.17.39q.13-.39.13,0T-160.355-37.05Zm-1.17,2.47a1.721,1.721,0,0,1-.13,1.69,6.441,6.441,0,0,0-.65,1.95.829.829,0,0,1-.065-1.04,2.664,2.664,0,0,0,.325-1.17,2.1,2.1,0,0,0,.26-.91A.749.749,0,0,0-161.525-34.58Zm17.81,1.82q.13-.39.13,0T-143.715-32.76Zm.39.39q.26,0,.13.195a.632.632,0,0,0-.13.325q-.26-.13-.065-.26T-143.325-32.37Zm-.13,1.04q.26,0,.13.065t-.13.325q-.26-.13-.13-.195A.208.208,0,0,0-143.455-31.33Zm.52.52q.13-.39.2-.065T-142.935-30.81Zm0,.78q0-.26.065-.195T-142.935-30.03Zm-.13.13q0-.26.13-.13A.115.115,0,0,1-143.065-29.9Zm0,0q0,.26-.195.065T-143.065-29.9Zm-1.3.78a.23.23,0,0,0-.26.26.257.257,0,0,1-.13-.39.257.257,0,0,1,.39-.13Zm0,0q.26-.26.26-.13a1,1,0,0,1-.13.39A.375.375,0,0,1-144.365-29.12Zm6.5,1.95q-.13-.52.065-.325T-137.865-27.17Zm0,0q.13.39-.065.195T-137.865-27.17Zm-46.41.26q0,.13-.13.065T-184.275-26.91Zm39.13.13q.26,0,.26.39Q-145.145-26.39-145.145-26.78Zm-.91,4.94q.13-.39.13,0T-146.055-21.84Zm-.26,1.43q.13-.39.13,0T-146.315-20.41Zm.26,2.08q.13.39-.065.195T-146.055-18.33Zm0,.39q.26,0,.195.26a.824.824,0,0,1-.195.39.524.524,0,0,1-.26-.52Zm.52.52q-.13-.52.065-.325T-145.535-17.42Zm-.91.26h.26v.26h-.26Zm.39,1.04q.39.26.065.26T-146.055-16.12Zm-.39,1.3a.441.441,0,0,0,.13-.325q0-.2.26-.065-.13,0-.13.195T-146.445-14.82Zm0,0q0,.13-.13.065T-146.445-14.82Zm.39.39q.65.13.13.26T-146.055-14.43Zm-.26.78q.13-.39.13,0T-146.315-13.65Zm1.3,1.43q0-.26.065-.2T-145.015-12.22Zm-.13.13q0-.26.13-.13A.115.115,0,0,1-145.145-12.09Zm63.83-45.5a.738.738,0,0,1-.195.975.883.883,0,0,0-.325.975q-.13,0,.26-.39.26.13.065.26t-.065.39q-.26,0-.26-.13t-.26.13a.23.23,0,0,0,.26.26q.26,0,.13.26-.52,0-.65.65a1.555,1.555,0,0,0,0,.91q.26,0,.13-.26a.257.257,0,0,1,.13-.39q.26.26.065.845a2.168,2.168,0,0,1-.455.845.429.429,0,0,1,0-.455.8.8,0,0,0,.13-.455q-.78.39-.455.91t-.325.91q-.13.26.065.26a.441.441,0,0,1,.325.13q-.13.26-.65.26a2.541,2.541,0,0,1,.195.52.307.307,0,0,0,.325.26.966.966,0,0,0-.26.715q0,.455-.52.455a.437.437,0,0,1,.195-.39q.195-.13.065-.52a1.681,1.681,0,0,0-.585,1.3,5.914,5.914,0,0,0,.065,1.56,1.512,1.512,0,0,0-.39.26q-.13.13-.39,0a13.553,13.553,0,0,1-.585,2.275l-.845,2.535a2.739,2.739,0,0,1,.455.065,3.652,3.652,0,0,0,.715.065,3.6,3.6,0,0,1,1.3-.585,1.47,1.47,0,0,1,1.17.065q.52-.26,1.235-.585a1.143,1.143,0,0,1,1.235.065q.91-.26,2.47-.65a6.492,6.492,0,0,1,2.86-.13.115.115,0,0,0,.13.13q-.13.39.39.325t.39-.325h-.78q0-.26-.065-.26t-.065-.26q.65-.26.845,0t.845,0q.13.39-.2.26t-.195.26q.26,0,1.04-.065a8.339,8.339,0,0,0,1.3-.195q0-.26-.065-.26t-.065-.26a.626.626,0,0,1,.455.52.7.7,0,0,1-.195.65,4.12,4.12,0,0,0-1.82-.13,2.527,2.527,0,0,0-1.69.91q.26.26.39-.13t.39-.26v.39q.26.13.195-.26t.325-.26q0,.13-.065.13t-.065.26a4.84,4.84,0,0,0,2.275-.325,2.158,2.158,0,0,1,2.015.065,2.261,2.261,0,0,1-1.235.195,2.208,2.208,0,0,0-1.365.325q.13.26.195.065t.325-.065a1.5,1.5,0,0,1-.52,1.04q.39.26.585.13a2.516,2.516,0,0,1,.715-.26q-.26-.26-.13-.39t-.26-.13q.13-.39.39-.13t.39-.26A.891.891,0,0,1-70-40.95q-.39.39.39.78.26,0,.065-.26t.325-.13a.23.23,0,0,0,.26.26.23.23,0,0,0-.26-.26q0-.13.39-.13.13-.26-.065-.325t.065-.325l.39.39q.26.26.26-.26.26,0,.26.52a1.35,1.35,0,0,0,1.04-.13.65.65,0,0,1,.78,0,2,2,0,0,1-1.235.39,1.3,1.3,0,0,0-1.1.52.208.208,0,0,1,.13-.195.208.208,0,0,0,.13-.195q-.65.13-1.56.39a5.827,5.827,0,0,1-1.56.26v.52a18.793,18.793,0,0,0,1.885-.325,2.949,2.949,0,0,1,1.625.065,2.3,2.3,0,0,0,.715-.39.556.556,0,0,1,.715,0,2.184,2.184,0,0,1-2.015.65,1.769,1.769,0,0,0-1.885.78,3.478,3.478,0,0,0-1.3.26,1.008,1.008,0,0,1-1.17-.26q-.26.13-.26.325t-.26.325a8.269,8.269,0,0,0-2.21.325q-1.17.325-2.21.585.26.52.455.195a.447.447,0,0,1,.585-.195q-.13.52-.845.39t-.845.39a.65.65,0,0,0,.78,0,1.35,1.35,0,0,1,1.04-.13,12.352,12.352,0,0,1-4.81,1.04,2.848,2.848,0,0,1-1.885.65,3.989,3.989,0,0,0-2.015.52q-.26.13-.065.455t-.455.065a.115.115,0,0,1,.13-.13.115.115,0,0,0,.13-.13q0-.26-.195-.13a.632.632,0,0,1-.325.13.23.23,0,0,0,.26.26v.39q-.39,0-.39-.13-.13,0-.13.39a4.457,4.457,0,0,1-.845-.065,1.388,1.388,0,0,0-.715.065q0-.13.065-.13t.065-.26a.585.585,0,0,0-.52.195.437.437,0,0,1-.39.195,1.59,1.59,0,0,1-.26,1.235,2.4,2.4,0,0,0-.39,1.365q-.13,0-.13-.065t-.13-.065q-.26.13-.13.52a2.454,2.454,0,0,1,.13.78.208.208,0,0,0-.195.13q-.065.13-.325,0-.26.39-.065.455t.195.455q-.13,0-.13.065t-.26.065q-.13.26,0,.325t.13.325a.265.265,0,0,0-.195.065.265.265,0,0,1-.195.065,18.718,18.718,0,0,1-1.04,3.9,18.283,18.283,0,0,0-1.04,4.16.265.265,0,0,0-.195.065.265.265,0,0,1-.195.065,2.7,2.7,0,0,1,.13,1.04,1.589,1.589,0,0,1-.715.585q-.455.195-.195.845-.13,0-.13-.065t-.26-.065q.26.26-.13.78t0,.78a.739.739,0,0,0-.52.91.739.739,0,0,1-.52.91q-.13-.26.065-.39t.065-.39q-.26,0-.39.325t-.26-.325q-.26.26-.065.455a.36.36,0,0,1,.065.455q-.65-.26-.52.13a.363.363,0,0,1-.26.52q.13.26.325.065a.36.36,0,0,1,.455-.065q-.26.65-.585.52t-.585.52q.52.65,0,1.04a2.58,2.58,0,0,0-.78.91q-.13.39.195.455t.195.325q-.52-.13-.52.325t.26.585a.614.614,0,0,0-.52.65.875.875,0,0,1-.39.78q-.13-.65.13-.78t0-.78q.26-.13.195-.52a.7.7,0,0,1,.195-.65q-.65.13-.39,1.17a.23.23,0,0,0-.26.26q0,.26-.26.13a2.5,2.5,0,0,1-.13,2.08q-.52,1.04-.91,1.95-.26,0-.13-.39t-.13-.39a5.044,5.044,0,0,0-.26.65.589.589,0,0,0,.13.65q0,.26-.26.13a.257.257,0,0,1-.13-.39.875.875,0,0,0-.39.78.8.8,0,0,1-.26-.91q-.13-.26-.26.065a1.4,1.4,0,0,1-.26.455q-.39-.26-.195-.455t.065-.715q-.26.39-.455.325t-.325.325a1.323,1.323,0,0,1-.13-.975,2.363,2.363,0,0,0,0-1.105,112.944,112.944,0,0,1,2.08-12.545q1.3-5.655,2.99-12.025a.954.954,0,0,0-.91-.065,2.178,2.178,0,0,0-.78.455h.78q0,.26-.325.26a.466.466,0,0,0-.455.26.307.307,0,0,1-.325-.26q-.065-.26-.455-.13-.26.13-.065.325t-.065.325a1.573,1.573,0,0,0-.91.195,4.881,4.881,0,0,0-.52.455,2.529,2.529,0,0,0-.975-.065q-.455.065-.585.715a1.483,1.483,0,0,0-1.3.065,2.411,2.411,0,0,1-1.3.325q0-.13.065-.13t.065-.26q-.26,0-.325.13t-.325,0a.3.3,0,0,0,.195.325q.2.065-.065.325-.52,0-.325-.26t-.455-.13a.3.3,0,0,0,.195.325q.195.065.065.455a2.364,2.364,0,0,0-1.885.26,4.652,4.652,0,0,1-1.885.65q-.13.26-.26.26t-.26.26a5.445,5.445,0,0,0-2.8.65,3.047,3.047,0,0,1-2.275.39q-.26,0-.13.065t.13.325a1.589,1.589,0,0,0-1.17.39,3.751,3.751,0,0,0-2.015.455,5.49,5.49,0,0,0-1.3,1.17q-.585.715-1.17,1.365a4.571,4.571,0,0,1-1.365,1.04q.13,1.04-1.04,1.3a15.87,15.87,0,0,0-2.47-1.1,2.577,2.577,0,0,1-1.69-1.885q-.39,0-.39.26a1.344,1.344,0,0,1-.585-.91.991.991,0,0,0-.715-.78,2.218,2.218,0,0,0,.39-1.365,1.846,1.846,0,0,1,.52-1.365q0-.26-.26-.13t-.39,0q-.13-.26.065-.26t.2-.26a2.037,2.037,0,0,0-.52-.39,2.037,2.037,0,0,1-.52-.39.6.6,0,0,1,.65-.39q0-.26-.39-.26a1.362,1.362,0,0,1,.91-.845,1.8,1.8,0,0,0,1.04-.845,1.131,1.131,0,0,0,1.17-.13,1.9,1.9,0,0,1,1.17-.39q4.94-6.5,9.945-12.87a124.308,124.308,0,0,1,10.855-12.09q4.03-4.03,8.125-7.995a35.634,35.634,0,0,1,9.555-6.565,1.756,1.756,0,0,1,1.625.52,3.112,3.112,0,0,0,1.5.91,4.855,4.855,0,0,0,1.625,1.625,3.749,3.749,0,0,1,1.5,1.755,1.148,1.148,0,0,1,.975.975,1.257,1.257,0,0,1-.455,1.365q.26.26.325,0t.325-.13a.974.974,0,0,0-.13.845,4.288,4.288,0,0,0,.26.715,1.028,1.028,0,0,0-.65-.13q-.26.26,0,.455t0,.455q-.26.13-.26-.13a.53.53,0,0,1,.13-.39q-.39-.13-.39.26v.65q.39-.39.52,0a.589.589,0,0,1-.13.65q-.39,0-.26-.13t-.13-.39q-.26.13-.13.585a1,1,0,0,1,0,.715.115.115,0,0,0,.13-.13Zm-.13-5.46h.26v-.26h-.26Zm.52,1.04a.689.689,0,0,1,0-.585q.13-.325-.26-.195a1.154,1.154,0,0,0-.13.52Q-81.315-62.01-80.925-62.01Zm-.13,1.69q.26.26.325-.195t-.195-.455A1.028,1.028,0,0,0-81.055-60.32Zm-10.01,2.99q-.26,0-.26.13Q-91.065-57.2-91.065-57.33Zm9.49.52a.53.53,0,0,0,.13-.39q0-.26-.26-.13Q-81.705-56.81-81.575-56.81Zm-18.85,19.37q-.13.39.065.195t-.065-.195a7.78,7.78,0,0,1,2.34-.715,8.684,8.684,0,0,0,2.6-.845q1.43-4.55,2.73-8.71t2.73-9.1a45.107,45.107,0,0,0-5.785,5.135q-2.8,2.925-5.525,5.655-2.73,2.86-5.33,5.85t-4.94,6.24q2.86-.91,5.525-1.82T-100.425-37.44Zm8.32-19.11q-.26,0-.26.13Q-92.1-56.42-92.1-56.55Zm-1.69,2.08a.345.345,0,0,0,.39-.39q-.26-.13-.26.065A.441.441,0,0,1-93.795-54.47Zm10.79.52q.26,0,.455-.455t-.195-.455a.437.437,0,0,1-.195.39Q-83.135-54.34-83-53.95Zm-13.13,1.69q.26.13.52-.52A.46.46,0,0,0-96.135-52.26Zm-6.76.65q.13.26.195-.065T-102.895-51.61Zm5.72.39q.13.26.195-.065T-97.175-51.22Zm-.65.52q.39,0,.39-.26Q-97.825-50.96-97.825-50.7Zm13.65.26h.26v-.26h-.26Zm-14.95.39a.257.257,0,0,0,.39-.13q.13-.26-.13-.26,0,.26-.13.26A.115.115,0,0,0-99.125-50.05Zm-.52.52q.26.39.195.065T-99.645-49.53Zm-.13.78q.39,0,.39-.26h-.26q0,.13-.065.13T-99.775-48.75Zm-1.3,1.17Zm15.86.52q.13.39.13,0T-85.215-47.06Zm-17.03.39q0-.26.325-.13t.065-.26a.36.36,0,0,0-.455.065Q-102.5-46.8-102.245-46.67Zm17.81-.26q.13.39.13,0T-84.435-46.93Zm-18.33.91q.13-.39.325-.26a.8.8,0,0,0,.455.13q0-.52-.52-.325T-102.765-46.02Zm17.29.13q.13.39.13,0T-85.475-45.89Zm0,.52h.26v-.26h-.26Zm-17.55.13q.39,0,.39-.26Q-103.025-45.5-103.025-45.24Zm15.47,0q.13.39.13,0T-87.555-45.24Zm1.69.52q0-.13.195-.13t.065-.26a.257.257,0,0,0-.39.13Q-86.125-44.72-85.865-44.72Zm-18.33.78a.781.781,0,0,0-.52.52.46.46,0,0,0,.52-.52h.26v-.26A.23.23,0,0,0-104.195-43.94Zm18.07-.13q.13.39.13,0T-86.125-44.07Zm.26.65h.26v-.26h-.26Zm-23.79.39q.13.39.13,0T-109.655-43.03Zm33.8.26a.475.475,0,0,0,.585-.13q.195-.26.455,0,0-.39-.52-.26T-75.855-42.77Zm-1.43-.26q-.26,0-.26.13Q-77.285-42.9-77.285-43.03Zm.39.26q-.13.39.39.26t.52-.39a1.44,1.44,0,0,0-.455.065A1.44,1.44,0,0,1-76.895-42.77Zm-.91.26q.26,0,.26.065t.26.065q.13-.26-.195-.325T-77.8-42.51Zm3.38.13q0-.13-.26-.39Q-74.945-42.25-74.425-42.38Zm-6.5-.13q-.13,0-.13-.065t-.13-.065q-.26.26-.065.325T-80.925-42.51Zm1.82.26a.115.115,0,0,1,.13.13.115.115,0,0,0,.13.13,1.735,1.735,0,0,0,.455-.325q.2-.195.455.065,0-.65-.52-.325A2.027,2.027,0,0,1-79.1-42.25Zm2.99.39h.65q0-.65-.26-.65Q-75.855-42.51-76.115-41.86Zm1.04-.52q.13.39.13,0T-75.075-42.38Zm-31.33.39a.208.208,0,0,1,.13-.195q.13-.065-.13-.2a.208.208,0,0,1-.13.2Q-106.665-42.12-106.4-41.99Zm29.51.39q.26-.26.65,0a1,1,0,0,1-.13-.39.375.375,0,0,0-.13-.26q.13.52-.26.39T-76.895-41.6Zm-3.12-.26h.26v-.26h-.26Zm5.07,0h.26v-.26h-.26Zm1.69.52a1.253,1.253,0,0,1,1.82,0,1.482,1.482,0,0,0-.52-.78,2.524,2.524,0,0,1-.78.195q-.52.065-.91.13a.741.741,0,0,0-.52.26q-.13.2.13.585l.39-.39q0,.26.195.26T-73.255-41.34Zm-13.52-.52q.13.26.195-.065T-86.775-41.86Zm2.86,0q.13.39.13,0T-83.915-41.86Zm5.85.26q.26-.26.325,0t.325.13q0-.39-.455-.455T-78.065-41.6Zm-9.36-.13q.13.39.13,0T-87.425-41.73Zm6.11,0q.13.39.13,0T-81.315-41.73Zm2.47,0q0,.65.52.65a.592.592,0,0,1-.065-.455q.065-.2-.195-.325Q-78.585-41.73-78.845-41.73Zm-27.56.13Zm24.18,0q.13.39.13,0T-82.225-41.6Zm.39.13h.26v-.26h-.26Zm-4.94.13q.39,0,.39-.26Q-86.775-41.6-86.775-41.34Zm11.96.65a1.29,1.29,0,0,1-.13-.585q0-.325-.39-.325a.808.808,0,0,1,.26.585Q-75.075-40.69-74.815-40.69Zm-7.93-.65q.26.39.195.065T-82.745-41.34Zm6.63,0q.13.39.13,0T-76.115-41.34Zm4.42.52a.592.592,0,0,1-.325-.325.592.592,0,0,0-.325-.325,1.166,1.166,0,0,0,.2.585Q-71.955-40.56-71.695-40.82Zm-7.67-.39q0,.26.195.065T-79.365-41.21Zm6.76,0q.13.39.13,0T-72.6-41.21Zm-7.28.13q.13.39.13,0T-79.885-41.08Zm3.12.13h.39q0-.26-.39-.26Zm2.08-.13q.13.39.13,0T-74.685-41.08Zm-9.75.13q.13.26.2-.065T-84.435-40.95Zm8.71.39q.39,0,.39-.52-.26-.13-.195.13A.316.316,0,0,1-75.725-40.56Zm2.34.13a.864.864,0,0,0,.52-.195q.26-.2,0-.455,0,.26-.325.26T-73.385-40.43Zm-8.84-.13a.115.115,0,0,1,.13-.13.23.23,0,0,0-.26-.26Q-82.355-40.56-82.225-40.56Zm9.75-.26q.13.39.13,0T-72.475-40.82Zm-12.74.13q.13.39.13,0T-85.215-40.69Zm8.06,0Zm-30.81.26h.26v-.26h-.26Zm.65-.13q.26.39.195.065T-107.315-40.56Zm23.53,0q.13.39.13,0T-83.785-40.56Zm7.02.13h.39q0-.26-.39-.26Zm.78-.13a.115.115,0,0,0-.13-.13.115.115,0,0,0-.13.13.208.208,0,0,1,.195.13Q-75.985-40.3-75.985-40.56Zm2.21,0q-.39,0-.39.26Q-73.775-40.3-73.775-40.56Zm1.17.13q.13.39.13,0T-72.6-40.43Zm1.3.13h.26v-.26h-.26Zm-36.92,0Zm30.94,0q0-.13-.195-.13t-.2.13q-.13.26.2.26T-77.285-40.3Zm-.91.13q.13.39.13,0T-78.195-40.17Zm2.47,0q0,.26.13.26a.115.115,0,0,1,.13-.13.115.115,0,0,0,.13-.13Zm5.07,0q.13.39.13,0T-70.655-40.17Zm-13.52.13q.13.39.13,0T-84.175-40.04Zm12.48,0q.13.26.195-.065T-71.695-40.04Zm.65,0q.13.39.13,0T-71.045-40.04Zm-5.85.26h.26v-.26h-.26Zm3.9.13q0-.26.325-.13t.065-.26a.36.36,0,0,0-.455.065Q-73.255-39.78-72.995-39.65Zm-11.31-.13q-.39-.26-.325,0T-84.3-39.78Zm6.5.13Zm2.86.13q-.13.65,0,.13T-74.945-39.52Zm2.47.39a.5.5,0,0,0,.585.13q.325-.13.325-.39a.5.5,0,0,0-.585-.13Q-72.475-39.39-72.475-39.13Zm-7.93-.13V-39q.26.26.325-.065t-.195-.325A.115.115,0,0,1-80.4-39.26Zm6.63.13a1.019,1.019,0,0,1-.26.2,1.019,1.019,0,0,0-.26.195q.26.26.455.13T-73.775-39.13Zm-1.04.13q.13.39.13,0T-74.815-39Zm-7.28.26v.26h.26a.115.115,0,0,1,.13-.13v-.26h-.26A.115.115,0,0,1-82.1-38.74Zm5.98.26a.538.538,0,0,0,.585-.065q.195-.2-.195-.325,0,.26-.325.195T-76.115-38.48Zm-5.46-.13q.13.39.13,0T-81.575-38.61Zm3.77.13h.26v-.26h-.26Zm3.12-.13Zm3.77-.13h-.52q-.26.52.13.39T-70.915-38.74Zm-11.96.26q.13.39.13,0T-82.875-38.48Zm5.59.26q.65,0,.65-.39A.6.6,0,0,0-77.285-38.22Zm-7.8,0v.26h.26q.26-.26-.13-.39A.115.115,0,0,1-85.085-38.22Zm1.04.13h.26v-.26h-.26Zm-25.48.65-.39-.78v.585Q-109.915-37.31-109.525-37.44Zm29.64-.78q-.13.65.13.39T-79.885-38.22Zm1.43.52a.441.441,0,0,0,.13-.325q0-.2-.26-.2Q-78.585-37.7-78.455-37.7Zm-7.15-.26q.13.39.13,0T-85.6-37.96Zm2.08.13v.26h.26q.26-.26-.13-.39A.115.115,0,0,1-83.525-37.83Zm3.77.52a2.32,2.32,0,0,1,.585-.195.4.4,0,0,0,.325-.455,4.288,4.288,0,0,1-.715.26Q-80.015-37.57-79.755-37.31Zm-30.55,0a.53.53,0,0,0,.13-.39q0-.26-.26-.13Q-110.435-37.31-110.3-37.31Zm23.14-.13q.26.39.195.065T-87.165-37.44Zm6.37.26h.26v-.26h-.26Zm-29.51.13q.13,0,.13.065t.13.065q0-.13.065-.13t.065-.13q-.13,0-.13-.065t-.13-.065q0,.13-.065.13T-110.3-37.05Zm30.03.65q0,.65.195.52t.325.26a.515.515,0,0,1,.65-.065.515.515,0,0,0,.65-.065q-.39-.65.065-.585t.455-.455a1.933,1.933,0,0,0-.975.195,1.626,1.626,0,0,1-.845.195q0-.52-.13-.52a.36.36,0,0,0-.065.52Q-79.755-36.14-80.275-36.4Zm-30.81,0a1.154,1.154,0,0,1,.52-.13.416.416,0,0,0,.39-.26Q-111.085-36.79-111.085-36.4Zm30.42.39h.26v-.26h-.26Zm.13.39h.26v-.26h-.26Zm-2.73.13q.13.39.13,0T-83.265-35.49Zm1.17.52v-.26q0-.26-.13-.26,0,.13-.39.13a.23.23,0,0,0-.26-.26q0,.39.26.455A2.54,2.54,0,0,1-82.1-34.97Zm-1.82.52q.26.26.39-.325t-.26-.455q.13.26-.065.39T-83.915-34.45Zm.78-.26A.208.208,0,0,1-83-34.9a.208.208,0,0,0,.13-.2.257.257,0,0,0-.39.13Q-83.395-34.71-83.135-34.71Zm-3.38,0q.13.39.13,0T-86.515-34.71Zm.78.65q0-.13-.26-.39Q-85.995-34.06-85.735-34.06Zm-1.04.26q.39.39.65-.26a.208.208,0,0,1-.195-.13.208.208,0,0,0-.2-.13q0,.26-.195.26T-86.775-33.8Zm-25.35-.39q-.26,0-.26.13Q-112.125-34.06-112.125-34.19Zm24.31.39q.13.39.13,0T-87.815-33.8Zm.52.65q.65,0,.65-.26-.13-.26-.325-.13A.981.981,0,0,0-87.295-33.15Zm1.04-.39q-.26,0-.26.13Q-86.255-33.41-86.255-33.54Zm-14.43,1.04a.115.115,0,0,0-.13-.13.115.115,0,0,0-.13.13.208.208,0,0,1,.195.13Q-100.685-32.24-100.685-32.5Zm-4.68.39q.13.39.13,0T-105.365-32.11Zm4.16.52q-.26,0-.26.13Q-101.2-31.46-101.205-31.59Zm0,2.6q.65,0,.52-.26Q-101.205-29.25-101.205-28.99Zm-.65.26q.39,0,.39-.26Q-101.855-28.99-101.855-28.73Zm-2.86,0q.13.39.13,0T-104.715-28.73Zm2.21.13q.13.39.13,0T-102.5-28.6Zm-.78.26h-.26a.115.115,0,0,0-.13.13q-.26.26.195.195T-103.285-28.34Zm-2.73.26q.13.39.13,0T-106.015-28.08Zm1.43.26h.52q.26,0,.13-.26h-.65Zm-.78.13q.13.39.13,0T-105.365-27.69Zm-.52.13q-.13.65,0,.13T-105.885-27.56Zm-1.82.91a.208.208,0,0,1,.13-.195q.13-.065-.13-.2a.208.208,0,0,1-.13.2Q-107.965-26.78-107.705-26.65Zm-1.43.39a.36.36,0,0,0,.455-.065q.195-.195-.065-.325,0,.26-.195.195T-109.135-26.26Zm-2.21.65h-.26a.115.115,0,0,0-.13.13q-.13.39.26.26T-111.345-25.61Zm-.52.13h-.26a.115.115,0,0,0-.13.13q-.13.39.26.26T-111.865-25.48Zm-1.95.91q.39,0,.39-.26Q-113.815-24.83-113.815-24.57Zm21.19,4.55a.115.115,0,0,0-.13-.13.115.115,0,0,0-.13.13.208.208,0,0,1,.195.13Q-92.625-19.76-92.625-20.02Zm-.78,1.3q.13.26.195-.065T-93.4-18.72Zm-.13.52a.208.208,0,0,1,.195.13q.065.13.325,0,.13-.26-.195-.325T-93.535-18.2Zm-2.08,2.47q0,.26.13.26a.115.115,0,0,1,.13-.13q0,.39.13.39,0-.26.195-.2t.195-.195q-.26.13-.325,0a.7.7,0,0,0-.325-.26A.115.115,0,0,1-95.615-15.73Zm-2.6,6.63.26-.52q-.26-.13-.39.195T-98.215-9.1Zm-2.99,4.55a3.5,3.5,0,0,1,.2-1.1,1.19,1.19,0,0,0,.065-.845,2.263,2.263,0,0,0-.455.975Q-101.6-4.81-101.205-4.55Zm1.82-1.3q.13.39.13,0T-99.385-5.85Zm-2.47,2.08q.26-.13.26.13t.26.13a.429.429,0,0,1,0-.455q.13-.2-.13-.455a1.5,1.5,0,0,1-.195.325A1.5,1.5,0,0,0-101.855-3.77Zm20.54-53.82q0-.39.26-.39v.26a.115.115,0,0,0-.13.13Zm-.65,2.99q.39.26.065.26T-81.965-54.6Zm-1.82,6.63q.13-.39.13,0T-83.785-47.97Zm-.65,2.47q.26.13.065.52t-.455.26a.816.816,0,0,0,.195-.325A3.566,3.566,0,0,1-84.435-45.5Zm13.13,1.17q-.13.26-.65.26Q-71.955-44.33-71.3-44.33Zm-1.43.39q.13-.39.13,0T-72.735-43.94Zm5.33-.13q.13.26-.065.26t-.195.13q-.26,0-.13-.26A.257.257,0,0,1-67.4-44.07Zm-.91.26a1.721,1.721,0,0,1-.975.26h-1.235a.974.974,0,0,1,.975-.325Q-68.835-43.81-68.315-43.81Zm-4.03.13q.13-.39.13,0T-72.345-43.68Zm8.58.13h.26v.26h-.26Zm-1.04.13h.26q0,.26-.39.26,0-.13.065-.13T-64.8-43.42Zm-.91.13q.39,0,.39.26h-.39Zm-4.55.26q.13-.39.13,0T-70.265-43.03Zm3.64-.13q0,.26-.325.26a1.29,1.29,0,0,0-.585.13q0-.26.325-.26A1.29,1.29,0,0,0-66.625-43.16Zm.78,0q0,.26-.39.26Q-66.235-43.16-65.845-43.16Zm-1.95.26q-.13.26-.325.26a1.047,1.047,0,0,0-.455.13q0,.52.26.52a.416.416,0,0,1-.39.26.749.749,0,0,0-.52.26.36.36,0,0,1-.065-.52.475.475,0,0,1,.585-.13q-.26-.52.13-.78A.65.65,0,0,1-67.795-42.9Zm.13.52q.26-.39.195-.065T-67.665-42.38Zm4.03.39q.13-.39.13,0T-63.635-41.99Zm-4.16,0q.39,0,.39.26h-.39Zm-5.46.65a.23.23,0,0,1-.26-.26A.23.23,0,0,1-73.255-41.34Zm2.34-.26q.26,0,.195.325t-.325.065v-.26A.115.115,0,0,0-70.915-41.6Zm6.89.39q0,.39-.52.39Q-64.545-41.73-64.025-41.21Zm-5.07,0q.13.26-.195.26t-.325.26q-.26-.26,0-.39A1.154,1.154,0,0,1-69.1-41.21Zm5.46.13q0-.13.26-.13Q-63.375-41.08-63.635-41.08Zm-1.17.39a.753.753,0,0,0-.52-.13q.13-.26.325-.26T-64.8-40.69Zm-1.04,0q.26-.39.2-.065T-65.845-40.69Zm.52.65Zm.65-.13h.26q0,.26-.39.26,0-.13.065-.13T-64.675-40.17Zm-3.38,1.56a1.286,1.286,0,0,0-.91.065A1.617,1.617,0,0,1-70-38.48a6.035,6.035,0,0,1,1.04-.325Q-68.185-39-68.055-38.61Zm-3.77,1.04q.13-.39.13,0T-71.825-37.57Zm-1.82.52q-.26,0-.26-.39Q-73.645-37.44-73.645-37.05Zm3.25-.39a1.041,1.041,0,0,1-.78.455,8.377,8.377,0,0,1-1.04.065A8.061,8.061,0,0,1-70.395-37.44Zm-3.25.39a.749.749,0,0,0,.52.26,6.9,6.9,0,0,1-1.43.39q-.78.13-1.69.26-.13-.26,0-.325t.13-.325q.26-.13.195.13a.316.316,0,0,0,.2.39A.592.592,0,0,0-75.4-36.6a1.28,1.28,0,0,1,.325-.455q.26.52.39.26a2.037,2.037,0,0,1,.39-.52q.26.13.065.325a.532.532,0,0,0-.2.325A.632.632,0,0,0-73.645-37.05Zm-5.2.78q0,.26-.195.195t-.2.2q-.26-.13-.065-.26A.8.8,0,0,1-78.845-36.27Zm1.82.78q-.39.39-.585.13T-77.025-35.49Zm-1.56.26a.749.749,0,0,1-.52.26Q-79.1-35.23-78.585-35.23Zm-1.43.26q.26.26-.13.26T-80.015-34.97Zm-2.08.52h.26q0,.26-.39.26,0-.13.065-.13T-82.1-34.45Zm-16.12,4.68q.13.26-.52.26Q-98.735-29.77-98.215-29.77Zm1.69,18.33q.26,0,.195.455t-.325.195A1.028,1.028,0,0,1-96.525-11.44Zm-6.11,8.19h.26v.26h-.26Zm1.04,1.04q.39,0,.325.52a1.256,1.256,0,0,1-.195.65,2.54,2.54,0,0,1-.195-.52A1.186,1.186,0,0,1-101.6-2.21Zm.65,0h.26v.26h-.26Zm49.14-62.27a11.84,11.84,0,0,1,3.445-1.56q1.885-.52,3.705-1.17a13.832,13.832,0,0,1,4.94.585,13.7,13.7,0,0,1,3.9,1.95,14.7,14.7,0,0,1,2.99,2.925,39.541,39.541,0,0,1,2.34,3.38,7.144,7.144,0,0,1-.13,4.485q-.78,2.015-1.3,3.575a71.86,71.86,0,0,1-7.6,10.79q-4.225,4.94-8.775,9.88a9.84,9.84,0,0,0-2.8,2.535,9.317,9.317,0,0,1-2.925,2.535q-.26,0-.195.195t-.195.455a1.293,1.293,0,0,0-.78.195,4.881,4.881,0,0,0-.52.455q3.38.65,6.63,1.56a38.479,38.479,0,0,1,6.24,2.34.981.981,0,0,0,.325.39.437.437,0,0,1,.195.39,3.1,3.1,0,0,1,1.69.845,2.937,2.937,0,0,0,1.43.845,2.841,2.841,0,0,0,.585.65,7.092,7.092,0,0,1,.585.52,1.3,1.3,0,0,0,.52,1.3,2.876,2.876,0,0,1,.91,1.17,5.983,5.983,0,0,0,.78,2.73,2.5,2.5,0,0,1,0,2.47,2.937,2.937,0,0,1-1.43-.845,4.268,4.268,0,0,0-1.3-.975,1.6,1.6,0,0,0-.91-.26,2.308,2.308,0,0,1-1.04-.26,3.151,3.151,0,0,1-.39-.455.981.981,0,0,0-.39-.325.294.294,0,0,0-.325-.065,1.069,1.069,0,0,1-.325.065,3.151,3.151,0,0,1-.39-.455.437.437,0,0,0-.39-.195q-2.6-.91-5.525-1.755t-5.785-1.495a2.433,2.433,0,0,0-1.365-.13,3.614,3.614,0,0,1-1.365,0,.115.115,0,0,1-.13-.13L-57-15.6l-.13.13a.375.375,0,0,1-.26.13,5.616,5.616,0,0,1-1.755-.325,3.536,3.536,0,0,0-2.015-.065,12.952,12.952,0,0,0-4.42-.455,17.716,17.716,0,0,1-4.42-.2q-.39.39-1.755.2t-1.625.325a1.237,1.237,0,0,0-1.43-.13,1.172,1.172,0,0,1-1.3,0,2.6,2.6,0,0,1-1.56.325,10,10,0,0,0-1.95.065,9.148,9.148,0,0,1-1.56.325A16.638,16.638,0,0,0-83-14.95a2.8,2.8,0,0,1-1.105-.195q-.455-.2-1.1-.455-.39-1.43-.78-2.925a5.573,5.573,0,0,1,.26-3.315,26.569,26.569,0,0,1,2.665-.65,9.22,9.22,0,0,0,2.4-.78,7.522,7.522,0,0,1-.845-4.03,33.866,33.866,0,0,1,.325-4.16A81.253,81.253,0,0,1-73.45-50.375,61.336,61.336,0,0,1-61.425-65.39a3.864,3.864,0,0,0,1.04-.585,9.145,9.145,0,0,1,.78-.585,15.617,15.617,0,0,0,2.015-.65,2.375,2.375,0,0,1,1.885,0,3.038,3.038,0,0,0,1.82,1.365A4.267,4.267,0,0,1-51.805-64.48Zm4.03,6.24a6.415,6.415,0,0,0-2.34.455,12.571,12.571,0,0,0-2.275,1.17q-1.105.715-2.34,1.365a9.23,9.23,0,0,1-2.665.91,6.7,6.7,0,0,0-.845-.715,2.8,2.8,0,0,1-.715-.715A55.483,55.483,0,0,0-66.82-44.135,93.615,93.615,0,0,0-72.345-30.55a9.387,9.387,0,0,1-.455,2.86,7.761,7.761,0,0,0-.195,3.38,9.5,9.5,0,0,0,1.17-.065,4.634,4.634,0,0,1,1.3.065,3.415,3.415,0,0,0,.52-.325.36.36,0,0,1,.52.065,34.679,34.679,0,0,0,5.655-3.51q2.535-1.95,5.135-3.9,5.46-5.98,10.79-11.765a48.033,48.033,0,0,0,8.71-13.585,12.019,12.019,0,0,0,.39-1.43,5.453,5.453,0,0,0,0-1.69,8.032,8.032,0,0,0-4.68.325Q-45.565-59.28-47.775-58.24Zm1.43-1.17h.26v-.26h-.26ZM19.175-74.1q0-.52.26-.39v.26a.115.115,0,0,0-.13.13Zm-.26.13q-.26-.13-.065-.325T18.915-73.97Zm.26-.13a.493.493,0,0,0-.065.455q.065.325-.2.2v-.52q.13,0,.13-.065T19.175-74.1Zm-.78,3.25q-.13,0-.13.39a.53.53,0,0,0,.13-.39.808.808,0,0,0,.26-.585.808.808,0,0,1,.26-.585q.39.26.26.52a.425.425,0,0,0,.13.52q-.26.13-.26,0t-.26,0a4.58,4.58,0,0,1-.52,3.055,8.9,8.9,0,0,0-1.04,3.185,1.235,1.235,0,0,0,.52-1.04q.78,0,.715-.52a9.5,9.5,0,0,1-.065-1.17q.26-.13.26.195t.39.2q-.13-.52-.2-.52t-.065-.39q.26-.26.39-.065t.52-.195a18.978,18.978,0,0,1-1.04,2.86,12.608,12.608,0,0,0-.91,2.73.626.626,0,0,0,.455-.52q.065-.39.585-.26a56.259,56.259,0,0,1-2.21,6.045q-1.17,2.665-2.6,5.525.65,0,.715-.52a1.3,1.3,0,0,1,.325-.78q.39.26-.065.78t-.715.78a10.718,10.718,0,0,1-1.69,3.12,11.16,11.16,0,0,0-1.69,2.99q.13.26.26-.13t.26,0a.7.7,0,0,1-.325.52q-.325.26-.455,0a.36.36,0,0,0,.065.455.538.538,0,0,1,.065.585A16.149,16.149,0,0,1,8.45-40.5,11.212,11.212,0,0,0,6.435-37.05a1.677,1.677,0,0,0-.715.585,3.249,3.249,0,0,0-.325.78,3,3,0,0,1-.39.845,1.262,1.262,0,0,1-.78.52q-.52,1.04-1.04,2.015T2.145-30.29q-.26-.39-.39-.26a.824.824,0,0,0-.195.39,2.54,2.54,0,0,1-.195.52q-.13.26-.39,0A5.145,5.145,0,0,1,.26-27.3a12.773,12.773,0,0,1-1.365,1.755q-.78.845-1.56,1.625a6.392,6.392,0,0,0-1.3,1.95q-2.21,2.08-4.225,4.355a15.546,15.546,0,0,1-5,3.7q-.13,0-.39.52a12.862,12.862,0,0,1-1.95.65,3.547,3.547,0,0,0-1.69.91.9.9,0,0,0-.91-.325,1.488,1.488,0,0,0-.91.325,20.411,20.411,0,0,1-3.575-.845q-1.755-.585-3.575-1.235.13-.26-.065-.26t-.2-.26a2,2,0,0,0-.78.26q0-.39-.26-.39a.23.23,0,0,1-.26-.26,2.037,2.037,0,0,0-.39.52q-.26-.13-.195-.195a.514.514,0,0,0,.065-.325,4.594,4.594,0,0,1-1.82-2.86,16.524,16.524,0,0,1-.325-3.965A25.385,25.385,0,0,1-29.9-26q.455-2.21.845-4.03.26-1.3.455-2.47t.455-2.34a12.7,12.7,0,0,1,.78-2.665,25.151,25.151,0,0,0,.91-2.535,14.331,14.331,0,0,0,.39-1.755,9.879,9.879,0,0,1,.39-1.625,3.415,3.415,0,0,1,.325-.52,3.415,3.415,0,0,0,.325-.52.886.886,0,0,0,.065-.585.886.886,0,0,1,.065-.585,1.735,1.735,0,0,1,.325-.455,1.735,1.735,0,0,0,.325-.455q.52-1.3.845-2.275a15.437,15.437,0,0,1,.845-2.015q.91-1.82,1.82-3.445a30.641,30.641,0,0,1,1.95-3.055q.13,0,.39.26a1.992,1.992,0,0,1,1.56-1.04,7.187,7.187,0,0,0,1.95-.52.931.931,0,0,1,.91.52,1.048,1.048,0,0,0,1.04.52.713.713,0,0,1,.26.455.713.713,0,0,0,.26.455,5.467,5.467,0,0,1,2.6,1.43l2.08,2.08a3.382,3.382,0,0,1-.13,1.04,1.467,1.467,0,0,0-1.04.13.721.721,0,0,1-.91-.13,17.331,17.331,0,0,0-2.73,3.575,27.8,27.8,0,0,0-2.015,4.29q-.845,2.275-1.625,4.68t-1.69,4.745q-.26,0-.195-.26t-.2-.26l-.65,1.3a.954.954,0,0,0,.26,1.3.585.585,0,0,1-.195.52,3.151,3.151,0,0,0-.455.39,2.242,2.242,0,0,1,.325.65,2.4,2.4,0,0,1-.065.91h-.52q-.26,0-.195.26t-.2.26a2.641,2.641,0,0,1-.39,1.95,2.572,2.572,0,0,0-.26,2.08,7.071,7.071,0,0,0-.65,3.185,5.414,5.414,0,0,1-.78,3.055q.13-.78.195-1.755t.065-1.5q-.52,0-.455.52a.751.751,0,0,1-.325.78.89.89,0,0,1,.195,1.17,3.538,3.538,0,0,0-.195,1.82q.52.13.52-.78.26,0,.26.52a25.3,25.3,0,0,0,7.28-6.24,83.337,83.337,0,0,1,6.37-7.15q-.13-.26.065-.325T-8-32.76a49.672,49.672,0,0,0,3.64-4.355q1.69-2.275,3.51-4.485A13.982,13.982,0,0,1,1.17-45.11a14.842,14.842,0,0,0,2.015-3.38,127.972,127.972,0,0,0,7.8-13.13,1.71,1.71,0,0,0,1.04-1.495,1.759,1.759,0,0,1,.91-1.495,3.484,3.484,0,0,1,.65-1.82,4.367,4.367,0,0,0,.78-1.69,1.262,1.262,0,0,0,.78-.52,2.889,2.889,0,0,0,.39-.91,4.45,4.45,0,0,1,.325-.91.851.851,0,0,1,.845-.39v-.78q.39-.13.52.13a.85.85,0,0,0,.39.39,1.278,1.278,0,0,0,.585-1.3q-.065-.91.585-1.04a.833.833,0,0,1-.065,1.1A1.9,1.9,0,0,0,18.395-70.85Zm-1.56.39q.26.13.26-.26t-.26-.13Zm.26.91a.437.437,0,0,1,.2-.39.437.437,0,0,0,.195-.39.7.7,0,0,0-.52.325Q16.705-69.68,17.095-69.55Zm-.39.91h.26v-.52h-.26ZM9.685-43.29h.39q0-.52-.26-.52a.208.208,0,0,1-.13.195Q9.555-43.55,9.685-43.29ZM8.9-42.25q.52,0,.52-.26Q8.9-42.77,8.9-42.25Zm-1.95,3.51q0-.26.065-.26t.065-.26h-.39A.524.524,0,0,0,6.955-38.74Zm-.91,1.56q-.26-.26-.065-.455t-.195-.2v.455Q5.785-37.05,6.045-37.18Zm-2.6,3.38h.26q0-.26.065-.26t.065-.13h-.39Zm-23.4,1.43h.26v-.26h-.26Zm.78-.26q-.26.26.065.26T-19.175-32.63Zm20.8,1.43q.39.13.39-.13a1.154,1.154,0,0,1,.13-.52Q1.625-31.98,1.625-31.2Zm-21.06-.13q-.26.26.065.26T-19.435-31.33Zm-.65.78q0-.39-.26-.39Q-20.345-30.55-20.085-30.55Zm.39,0h.26v-.26h-.26Zm20.93-.13q.13.26.195-.065T1.235-30.68ZM-20.6-28.6q-.13-.26.13-.325t.13-.325q-.26-.13-.39.195T-20.6-28.6Zm-.52,1.43a.417.417,0,0,0,.455-.39,2.31,2.31,0,0,1,.2-.65.589.589,0,0,0-.65-.13,2.735,2.735,0,0,1-.065.65A.733.733,0,0,0-21.125-27.17Zm-.52,1.95q.26,0,.26.13t.26.13q.13-.65.195-1.17t-.325-.52a1.261,1.261,0,0,0-.195.78A.855.855,0,0,1-21.645-25.22Zm.26.91q0-.52-.26-.52A.524.524,0,0,0-21.385-24.31Zm-.52.39a.905.905,0,0,0,.065.39.813.813,0,0,1-.065.52q.52,0,.52-1.04-.26-.13-.26,0T-21.905-23.92Zm18.2.26q0-.26.13-.325t-.13-.065a.208.208,0,0,1-.13.195Q-3.965-23.79-3.7-23.66Zm-.91,1.69q-.13-.65.325-.715t.455-.715a2.858,2.858,0,0,0-.91.585Q-5.265-22.36-4.615-21.97Zm-1.56,1.3q.13.39.13,0T-6.175-20.67Zm-16.51.39q-.26,0-.26.13Q-22.685-20.41-22.685-20.28Zm15.73.39q.13.39.13,0T-6.955-19.89Zm-.91,1.17q0-.13.2-.26t-.065-.26q0,.13-.195.26T-7.865-18.72Zm-.78.65q-.26,0-.26.13Q-8.645-18.2-8.645-18.07Zm-.78.65q.26.26.195-.065T-9.425-17.42Zm-1.43,1.69a1.5,1.5,0,0,1,.2-.325,1.5,1.5,0,0,0,.195-.325.334.334,0,0,0-.455.13A.36.36,0,0,0-10.855-15.73Zm-1.69,1.04q0-.13.52-.13,0-.52-.52-.39.13.13-.065.26T-12.545-14.69Zm-.78.65a.7.7,0,0,1,.26-.325.7.7,0,0,0,.26-.325.514.514,0,0,1-.325-.065.265.265,0,0,0-.195-.065.582.582,0,0,0-.325.39Q-13.715-14.17-13.325-14.04Zm-.65.13h.26v-.26h-.26Zm33.02-58.5q0-.26.26-.13a.257.257,0,0,1,.13.39q-.26,0-.26-.13A.115.115,0,0,0,19.045-72.41Zm.91.26q.26,0,.26.39Q19.955-71.76,19.955-72.15Zm.13.91q-.26.26-.39.26Q19.565-71.24,20.085-71.24Zm-.52.65h.26v.26h-.26Zm.13,1.69q.39,0,.13.52Q19.435-68.64,19.695-68.9Zm-1.82,2.47h.26v.26h-.26Zm-1.95,11.7q.52.13.195.455a2.391,2.391,0,0,1-.585.455q-.13-.52.13-.585A.307.307,0,0,0,15.925-54.73Zm-3.25,7.02q.13-.39.13,0T12.675-47.71Zm-31.2,13.91q.39,0,.39.52h-.52q-.13-.26,0-.325A.208.208,0,0,0-18.525-33.8Zm-9.23,19.5v-.13q.52-.13,0,.26T-27.755-14.3Zm.52.13q0,.39-.26.39v-.26l.13-.13Zm35.1-.52H8a.36.36,0,0,0,.065-.52A.466.466,0,0,1,8-15.73q-.26,0-.26.195t-.26.065a.437.437,0,0,0,.2.39.437.437,0,0,1,.2.39q-.65,0-.455.455t-.585.325q0,1.3-.78,1.56a6.688,6.688,0,0,1,1.17-3.12q-.13-.26-.325-.065a.532.532,0,0,0-.2.325,2.536,2.536,0,0,1,.91-1.69q-.13-.26-.26-.065t-.26-.065q.52-1.04,1.105-2.145a9.037,9.037,0,0,0,.845-2.275q.65-.26.65-.39-.26-.39-.39-.39-.26,0-.13.325t-.26.2a.721.721,0,0,1,.13-.91q.39-.39.65-.13a1.213,1.213,0,0,1,.91-.91q-.26-.26,0-.91-.26-.26-.325.26t-.325.52q-.39.13-.26-.195t-.13-.2a2.178,2.178,0,0,0-.455.78,1.559,1.559,0,0,1-.585.78,9.281,9.281,0,0,1,.78-2.34.965.965,0,0,0,.65-.975.965.965,0,0,1,.65-.975v.52q.26,0,.26-.52-.39-.13-.26-.39t-.52,0a1.364,1.364,0,0,1,.195-.715q.2-.325.455-.065a.441.441,0,0,0,.13-.325q0-.195.26-.325a.648.648,0,0,1-.13-.65q.13-.26.325-.585a5.915,5.915,0,0,1,.455-.65.928.928,0,0,0,.13-.845,1.028,1.028,0,0,0,.65-.13v-.52q.39,0,.26-.195a.8.8,0,0,1-.13-.455h.39a.885.885,0,0,1,.065-.975,2.8,2.8,0,0,1,.715-.715,1.36,1.36,0,0,1,.39-1.5,1.2,1.2,0,0,0,.39-1.365,18.724,18.724,0,0,0,2.6-5.07,18.724,18.724,0,0,1,2.6-5.07q0-.26-.065-.26t-.065-.26a4.671,4.671,0,0,0,1.235-2.275,4.671,4.671,0,0,1,1.235-2.275q1.43-3.25,2.73-6.63a44.536,44.536,0,0,1,2.86-6.11,11.756,11.756,0,0,1,2.47,0q0,.52.65.65t.39.52a1.105,1.105,0,0,1,.91.325,1.105,1.105,0,0,0,.91.325,1.5,1.5,0,0,0,.585.975q.455.325.845.585v.65a3.544,3.544,0,0,0,1.56.91,1.049,1.049,0,0,1,.78,1.3,7.965,7.965,0,0,0-2.015,2.86q-.715,1.69-1.495,3.38-.26,0-.26-.065t-.26-.065q-.13.26,0,.325t.13.325q-.65,1.43-1.235,2.86a18.106,18.106,0,0,1-1.495,2.86.8.8,0,0,1,.195-.585.624.624,0,0,0,.2-.455,2.728,2.728,0,0,0-.91,1.365,10.592,10.592,0,0,1-.65,1.625q.52.13.65-.65a3.06,3.06,0,0,1,.39-1.17,2.124,2.124,0,0,1-.39,1.56q-.52.78-.91,1.43.39-.65.13-.91a2.328,2.328,0,0,0-.65,1.3,2.328,2.328,0,0,1-.65,1.3,5.044,5.044,0,0,1,.26.65q.13.39-.39.52a.753.753,0,0,1,.13-.52,12.107,12.107,0,0,0-2.34,4.29,15.1,15.1,0,0,1-2.21,4.42,20.879,20.879,0,0,1-2.015,4.68,20.879,20.879,0,0,0-2.015,4.68,3.122,3.122,0,0,0-1.04,1.69,3.547,3.547,0,0,1-.91,1.69,84.905,84.905,0,0,1,4.16-9.49q2.34-4.55,4.42-9.36a.23.23,0,0,0-.26-.26q-.26,0-.13-.26a1.065,1.065,0,0,0-.39.65q.13.26.195-.065t.325-.065l-.26.52-.26.52q-.26,0-.13-.26t0-.39a1.019,1.019,0,0,0-.195.26,1.018,1.018,0,0,1-.195.26,2.13,2.13,0,0,0,.325.26q.195.13-.065.39a.115.115,0,0,1-.13-.13.115.115,0,0,0-.13-.13q0,.13-.325.455t.2.325a4,4,0,0,0-.65.845,2.492,2.492,0,0,0-.26,1.235.635.635,0,0,0-.65.585,1.843,1.843,0,0,0,0,.975,1.791,1.791,0,0,0-.975.975,3.3,3.3,0,0,0-.325,1.365,16.9,16.9,0,0,0-1.43,2.275,9.213,9.213,0,0,0-.91,2.8,1.047,1.047,0,0,1-.455.13q-.195,0-.325.26a.7.7,0,0,1,.325-.975.82.82,0,0,0,.325-1.105q.65,0,.585-.52a2.06,2.06,0,0,1,.065-.91q0-.26-.13-.2a.212.212,0,0,1-.26-.065q-.26.13-.065.39a.864.864,0,0,1,.195.52q-.78,0-.78.585a1.721,1.721,0,0,1-.26.975.592.592,0,0,1-.325-.325q-.065-.195-.325.325-.26,0-.13-.26t0-.39a6.035,6.035,0,0,0-.715,1.3,11,11,0,0,1-.715,1.43.919.919,0,0,0,.78-.78,2.9,2.9,0,0,1,.39-1.04.532.532,0,0,1,.325.195q.195.2.195-.195.13,0,.13.52a1.354,1.354,0,0,0-.78.13q.26.39.065.585t.065.715H16.7a.732.732,0,0,1,.065.78,1.1,1.1,0,0,1-.455.52q.13-.78-.78-.39a.46.46,0,0,1,.195.65q-.2.39.325.52-.26.52-.585,1.1a1.16,1.16,0,0,1-1.1.585,3.826,3.826,0,0,1,.78-.975q.39-.325.26-1.235a5.093,5.093,0,0,0-.975,1.3,2.948,2.948,0,0,0-.195,1.69q-.26-.39-.39-.065t-.39.325a2.112,2.112,0,0,1,0,1.04q-.52-.13-.52.13t-.52.13a.3.3,0,0,0,.195.325q.2.065.065.455-.26,0-.325-.13t-.325.13q.52.13.325.455t-.325.585q-.52,0-.13-.195t.13-.455a.8.8,0,0,0-.52.585.974.974,0,0,0,.13.845q-.65,0-.78-.26-.26.13,0,.455a.7.7,0,0,0,.52.325,3.837,3.837,0,0,0-1.04,1.3,14.533,14.533,0,0,1-.91,1.56q-.26-.13-.065-.325a.36.36,0,0,0,.065-.455q-.26,0-.26.325t-.39.2a.265.265,0,0,1,.065-.2.514.514,0,0,0,.065-.325,7.244,7.244,0,0,0-1.43,2.34q-.39,0-.26-.325t-.39-.065a.764.764,0,0,1,.39-.65.414.414,0,0,0,.13-.65q-.39-.26-.455.065t-.325.325a9.173,9.173,0,0,1,.65-1.495A9.173,9.173,0,0,0,7.865-14.69Zm26-40.17h.26v-.26h-.26Zm0,.39q-.26,0-.26.13Q33.865-54.34,33.865-54.47Zm-1.69,3.51a2.514,2.514,0,0,0,.325-.455q.2-.325-.195-.325.26.26-.065.39T32.175-50.96Zm-.52.65q.26.13.26-.065a.441.441,0,0,1,.13-.325A.345.345,0,0,0,31.655-50.31Zm-1.04,2.08q.39,0,.65-.65t0-.78a1.059,1.059,0,0,1-.26.78A1.632,1.632,0,0,0,30.615-48.23Zm-1.17.91q0-.26.325-.325t.195-.455q-.13,0-.13-.065t-.26-.065q.26.39-.065.52T29.445-47.32Zm-.39.65q.26.13.26-.26t-.26-.13Zm-.65,1.3a.208.208,0,0,1,.195.13.208.208,0,0,0,.2.13.864.864,0,0,1,.195-.52.864.864,0,0,0,.195-.52.981.981,0,0,0-.39.325A3.151,3.151,0,0,1,28.405-45.37Zm-.78,1.56q.26.13.195-.13a.316.316,0,0,1,.195-.39q-.26-.13-.195.13A.316.316,0,0,1,27.625-43.81Zm.65-.26q-.26,0-.26.13Q28.275-43.94,28.275-44.07Zm-1.04,1.04q-.26,0-.26.13Q27.235-42.9,27.235-43.03Zm.26.39q.26.13.26-.26t-.26-.13Zm-.52,1.04a.592.592,0,0,0,.325-.325,3.567,3.567,0,0,1,.195-.455Q26.975-42.38,26.975-41.6Zm-.52.13q.26.13.39-.195t-.13-.325q0,.26-.195.26T26.455-41.47Zm.26.39h.26v-.26h-.26Zm-8.97.13q-.26,0-.26.13Q17.745-40.82,17.745-40.95Zm8.32,1.56a8.637,8.637,0,0,0,.65-1.56q-.39.13-.39.2t-.39-.2a.912.912,0,0,0,.065.78A.912.912,0,0,1,26.065-39.39Zm-.52.26a1.064,1.064,0,0,1,.13-.585,4.25,4.25,0,0,0,.26-.455q-.26,0-.65.52T25.545-39.13Zm-.91-.91q-.26.26.065.26T24.635-40.04Zm1.17,1.17a.115.115,0,0,1,.13-.13q0-.39-.26-.26Q25.675-38.87,25.805-38.87Zm-9.23.65q.13.39.13,0T16.575-38.22Zm-.65,1.43a.294.294,0,0,0,.065-.325.3.3,0,0,0-.325-.2A.749.749,0,0,0,15.925-36.79Zm6.37.26h.26v-.26H22.3Zm.65-.13v.26h.26a.115.115,0,0,1,.13-.13v-.26h-.26A.115.115,0,0,1,22.945-36.66Zm-6.11.39q.26.13.26-.065a.441.441,0,0,1,.13-.325q-.26-.13-.26.065A.441.441,0,0,1,16.835-36.27Zm-1.17.39q-.26,0-.26.13Q15.665-35.75,15.665-35.88Zm6.76.52h.26v-.26h-.26Zm-.13.13q-.52.39-.065.455T22.3-35.23Zm-.91.65q.26.13.26-.065a.441.441,0,0,1,.13-.325q-.26-.13-.26.065A.441.441,0,0,1,21.385-34.58Zm-6.5.13Zm6.89.13q.13.39.13,0T21.775-34.32Zm-7.28.91h.26v-.26H14.5Zm7.15.52a.208.208,0,0,1,.13-.195q.13-.065-.13-.2a.208.208,0,0,1-.13.2Q21.385-33.02,21.645-32.89Zm-1.3,1.95a1.028,1.028,0,0,1,.65.13A.619.619,0,0,1,20.8-31.4,2.32,2.32,0,0,1,21-31.98a4.25,4.25,0,0,1,.26-.455q.13-.195-.13-.455a7.215,7.215,0,0,1-.455.975A3.17,3.17,0,0,0,20.345-30.94ZM13.2-31.98q.39,0,.65-.78-.39,0-.39.26A.749.749,0,0,1,13.2-31.98Zm-.52,1.04a.466.466,0,0,0,.455.26q.325,0,.455-.39-.26-.26-.39,0t-.13,0a.53.53,0,0,1,.13-.39,1.512,1.512,0,0,0,.26-.39Q12.935-31.85,12.675-30.94Zm1.04-.78q.39.13.2-.065T13.715-31.72Zm6.89,1.17q-.26-.13-.26-.26t-.26,0a.257.257,0,0,0,.13.39A.257.257,0,0,0,20.6-30.55Zm-1.56.78a.416.416,0,0,0,.26-.39.416.416,0,0,1,.26-.39q-.13,0-.13-.065t-.26-.065a.429.429,0,0,1,0,.455A.8.8,0,0,0,19.045-29.77Zm-6.11-.39q.13.39.13,0T12.935-30.16Zm-.52.13q-.26,0-.26.13Q12.415-29.9,12.415-30.03Zm7.93.13q-.26,0-.26.13Q20.345-29.77,20.345-29.9Zm-1.43.39q.13.39.13,0T18.915-29.51Zm.39.52q.26-.13.26.13t.39.13a.713.713,0,0,1-.26-.455,1.047,1.047,0,0,0-.13-.455.3.3,0,0,1-.195.325Q19.175-29.25,19.305-28.99Zm-6.76-.39v.26q.26.13.325-.195t-.2-.195A.115.115,0,0,1,12.545-29.38Zm6.24.78a.514.514,0,0,1,.065-.325q.065-.065-.195-.2l-.195.39Q18.4-28.6,18.785-28.6Zm-6.63-.13a.115.115,0,0,1-.13-.13.115.115,0,0,0-.13-.13q-.26.13-.065.325T12.155-28.73Zm-.52.26q.13.39.13,0T11.635-28.47Zm6.11,1.3a3.567,3.567,0,0,0,.195-.455q.065-.195.455.065-.13-.39.13-.39t.13-.39a1.169,1.169,0,0,0-.91.455Q17.355-27.43,17.745-27.17Zm-6.37-.78Zm.39,0v.26q.26.13.325-.195T11.9-28.08A.115.115,0,0,1,11.765-27.95Zm.65.91q.39,0,.39-.26Q12.285-27.3,12.415-27.04Zm-.91,0a1.1,1.1,0,0,0-.455.52q-.2.39.325.39-.13-.39,0-.52a.53.53,0,0,0,.13-.39q.39.13.195-.065T11.505-27.04Zm6.37.13h.26v-.26h-.26Zm-7.15,1.3h.26a.53.53,0,0,1,.13-.39q-.52,0-.52.13Q10.725-25.87,10.725-25.61Zm1.82.39q.26,0,.26-.13t.26-.26Q12.805-25.74,12.545-25.22Zm-2.34.26h.52a.46.46,0,0,0-.52-.52Zm-.39.65a.632.632,0,0,1,.13-.325q.13-.195-.13-.195a.375.375,0,0,0-.13.26Q9.685-24.31,9.815-24.31Zm2.21.52q0-.26.2-.26t.065-.26a.257.257,0,0,0-.39.13A.257.257,0,0,0,12.025-23.79Zm3.77.39q.39,0,.39-.52Q15.8-23.92,15.8-23.4Zm-4.42.52q.13.39.13,0T11.375-22.88Zm-.52,1.04h.26v-.26h-.26Zm-1.17.65q.13.39.13,0T9.685-21.19Zm.52,1.04q.39,0,.39-.26Q10.205-20.41,10.205-20.15Zm-2.08,1.56q.52-.26.52-.39A.51.51,0,0,0,8.125-18.59Zm.91.26h.39q0-.52-.26-.39a.265.265,0,0,1-.065.195A.265.265,0,0,0,9.035-18.33Zm4.03-.39q-.26,0-.26.13Q13.065-18.59,13.065-18.72ZM8-18.33q-.13.65,0,.13T8-18.33Zm-.26,1.17q0-.26.195-.26T8-17.68a.257.257,0,0,0-.39.13A.257.257,0,0,0,7.735-17.16Zm2.99,1.04a.514.514,0,0,1,.065-.325q.065-.065-.2-.2Q10.6-16.12,10.725-16.12Zm-2.21.91q.39.26.39-.2t-.26-.325q0,.26-.065.26T8.515-15.21Zm1.43.39q.26.13.26-.26t-.26-.13Zm0,.26a.115.115,0,0,0-.13-.13.115.115,0,0,0-.13.13Zm-2.34,1.82a2.258,2.258,0,0,0,.455-.715A.6.6,0,0,0,8-14.17q.13.39-.325.845T7.605-12.74Zm1.3-.13a.417.417,0,0,0,.455-.39q.065-.39.325.13,0-.13.2-.26t-.065-.26q-.39.39-.13-.13t-.26-.39q-.13.39-.26.715T8.905-12.87Zm-1.43,1.56q.13.26.2-.065T7.475-11.31Zm21.06-31.85q.39,0,.195.455t-.455.455a.437.437,0,0,1,.195-.39Q28.665-42.77,28.535-43.16Zm-.52,1.17h.26v.26h-.26Zm-.78,1.82q.13-.39.13,0T27.235-40.17Zm-.26.39q.26-.13.26.26a.115.115,0,0,0-.13.13Q26.975-39.39,26.975-39.78Zm-.52,1.43q0-.52.26-.39v.26a.115.115,0,0,0-.13.13Zm0,0q0,.26-.065.26t-.065.26q-.13,0-.13-.26a.375.375,0,0,1,.13-.26Zm-.65,1.3a.265.265,0,0,1,.065-.2.514.514,0,0,0,.065-.325q.26,0,.195.325T25.805-37.05Zm0,0q.13.39-.065.195T25.805-37.05Zm-.52,1.04q0-.26.195-.065T25.285-36.01Zm0,0q0,.65-.26.52a.294.294,0,0,0,.065-.325Q25.025-36.01,25.285-36.01Zm-.65,1.43Zm-1.56.78q.13-.39.13,0T23.075-33.8Zm-10.53,1.69a.115.115,0,0,1-.13-.13Q12.415-32.37,12.545-32.11Zm-2.73,5.07a.515.515,0,0,1,.065.65q-.2.39-.455.39a.864.864,0,0,1,.195-.52A.864.864,0,0,0,9.815-27.04ZM9.3-24.96q-.26,0-.26.195t-.26.065a7.133,7.133,0,0,1,.39-.91q.39-.13.195.13A.466.466,0,0,0,9.3-24.96Zm8.58.26q.13-.26.26-.065t.26.2l-.26.52-.26.52q-.39-.26,0-.585T17.875-24.7ZM9.3-23.14q.26-.39.2-.065T9.3-23.14Zm-.78.52q.13.65-.26.26T8.515-22.62Zm8.45.13q-.26.39-.26.065T16.965-22.49Zm-.91.26q0-.13.26-.13Q16.315-22.23,16.055-22.23Zm-7.8.65q.39-.13.325.195t.195.325q0,.26-.78.26a.53.53,0,0,0,.13-.39A.53.53,0,0,1,8.255-21.58Zm7.54.78q.52-.52.26,0t-.39.13A.115.115,0,0,1,15.8-20.8Zm-1.04.65q.26,0,.26.065t.13.065a.307.307,0,0,1-.26.325q-.26.065-.13.585-.65-.13-.325-.455A.9.9,0,0,0,14.755-20.15Zm-7.41.65q.26-.13.195.195t-.325.195v-.26Zm6.76.65a.115.115,0,0,1-.13-.13Q13.975-19.11,14.105-18.85Zm0,0q.26,0,.26-.13.26.26,0,.715a.754.754,0,0,1-.65.455,4.249,4.249,0,0,1,.26-.455A1.064,1.064,0,0,0,14.105-18.85Zm-7.67,1.3q.26-1.04.78-1.17a2.277,2.277,0,0,1-.325.65A4.881,4.881,0,0,1,6.435-17.55Zm0,0q0,.65-.26.52A.749.749,0,0,1,6.435-17.55Zm7.67.39a.115.115,0,0,1,.13-.13.115.115,0,0,1,.13.13Zm-.91.65a.393.393,0,0,1,0,.585,3.409,3.409,0,0,0-.39.585q-.39-.39,0-.65T13.2-16.51Zm-.78,1.3h.26v.26h-.26Zm-6.89.52q.13-.39.13,0T5.525-14.69Zm5.85.39h.26v.26h-.26Zm-5.72,2.47q.26-.39.2-.065T5.655-11.83Zm.39.52q0-.13.26-.13Q6.305-11.31,6.045-11.31Zm.39.78H6.7v.26h-.26Zm93.34-68.64a.856.856,0,0,0-.65.455,1.731,1.731,0,0,1-.39.585q.26.13.52-.325a3.4,3.4,0,0,1,.52-.715,7.093,7.093,0,0,1,.585-.52,7.093,7.093,0,0,0,.585-.52,7.141,7.141,0,0,1-1.69,2.08,6.013,6.013,0,0,0-1.69,2.47q-.52-.26-1.1.325a.65.65,0,0,0,.065,1.105q-.26-.13-.715.195t-.195.715v.26a.764.764,0,0,0,.715-.325,1.092,1.092,0,0,1,.715-.455q0-.26-.13-.325t0-.325q.39.13.325-.195a.373.373,0,0,1,.2-.455q.26.26.39.195a1.264,1.264,0,0,1,.65.065,15.831,15.831,0,0,0-1.17,1.3q-.52.65-1.04,1.43.52.52-.26.78a1.675,1.675,0,0,0-1.04.78q.26.26.325-.065t.325-.195q-.26.39-.715,1.105t-.845.325a.808.808,0,0,0-.26.585.808.808,0,0,1-.26.585h-.26q-.13-.26-.26-.195a.208.208,0,0,0-.13.195q-.13.26,0,.39a.53.53,0,0,1,.13.39,3.213,3.213,0,0,0-1.04.975q-.39.585-.78,1.235.78.26,1.3.39a1.564,1.564,0,0,1-.845.585,2.168,2.168,0,0,0-.845.455,3.465,3.465,0,0,0,.065.78,2.137,2.137,0,0,1,.065.52q-.26.13-.26-.13v-.39q-.26,0-.325.52t.455.39a.582.582,0,0,1-.39.325q-.26.065-.13.585a.115.115,0,0,0-.13.13q-.39,0-.39.13-.13.26,0,.39a.53.53,0,0,1,.13.39q-.65-.39-.91.65,0,.13.52.39-.26.39-.455.26a.981.981,0,0,1-.325-.39,9.084,9.084,0,0,0-1.04,1.17q-.65-.39-.78.13a.36.36,0,0,1,.455.065,1.572,1.572,0,0,0,.715.325,2.717,2.717,0,0,0-.13.455v.455q-.39-.26-.455.065a.608.608,0,0,1-.325.455v.13h.26q-.52.65-1.04,1.43a3.758,3.758,0,0,1-1.17,1.17q0,.13.195.195t.065.325A1.106,1.106,0,0,0,84.24-52a1.761,1.761,0,0,1-1.1,1.3q0,.13.39.13-.65,1.3-1.5,2.665a8.019,8.019,0,0,0-1.105,2.795q-.26.13-.26.065t-.26-.065v.91a3,3,0,0,1-.26,1.04q-.26,0-.26-.13t-.26-.13q-.26-.13-.195.52t-.065,0q-.39.26-.065.455t.065.455q-.26-.26-.39-.195l-.39.195a.619.619,0,0,0,.39.91.462.462,0,0,1-.39.065q-.13-.065-.39.195a3.382,3.382,0,0,1-.13,1.04,8.994,8.994,0,0,0-.26,1.04q-1.04-.13-.91.715a1.5,1.5,0,0,1-.39,1.365.771.771,0,0,0-1.1.65,2.8,2.8,0,0,1-.715,1.43q0,.26.13-.065t.26.065q.13.39-.195.39a.634.634,0,0,1-.455-.13q-.13.26.39.52a1.632,1.632,0,0,0-.39.65,3.281,3.281,0,0,1-.39.78.864.864,0,0,1-.455-.065q-.065-.065-.195.2,0,.13.39.13a.8.8,0,0,1-.13.455.674.674,0,0,0,0,.585,1.586,1.586,0,0,0-1.04,1.43,1.59,1.59,0,0,1-.91,1.43,1.131,1.131,0,0,1-.13,1.17.7.7,0,0,1-1.04.13,2.541,2.541,0,0,1,.195.52q.065.26.195.65a2.605,2.605,0,0,0-.78,1.365,1.229,1.229,0,0,1-.91.975.429.429,0,0,0,0,.455q.13.195-.26.195.26.13.13.455t-.52.195a2.107,2.107,0,0,1-.065,1.17,4.22,4.22,0,0,1-.52.975,10.706,10.706,0,0,0-.585.91,1.554,1.554,0,0,0-.13,1.105,5.647,5.647,0,0,0-1.105,1.625,6.716,6.716,0,0,0-.585,1.885q-.26,0-.26-.13t-.26-.13v.65q-.39-.13-.845.39a1.731,1.731,0,0,0-.455,1.17,4.918,4.918,0,0,0-1.56,1.04q0,.26.26,0,.26.26-.195.39a.679.679,0,0,1-.715-.13,1.02,1.02,0,0,0-.715.52q-.2.39-.845.13a.5.5,0,0,0,.585.13,1.051,1.051,0,0,1,.845.13,1.791,1.791,0,0,1-1.04.2,1.3,1.3,0,0,1-.78-.325,6.828,6.828,0,0,1-1.885.26,4.4,4.4,0,0,0-1.625.26,6.588,6.588,0,0,0-2.73-.195,12.386,12.386,0,0,1-2.86.065,8.033,8.033,0,0,0-1.365-1.1,1.636,1.636,0,0,1-.715-1.5,1.28,1.28,0,0,1-.325-.455.3.3,0,0,0-.325-.195,4.445,4.445,0,0,0-.39-1.885,6.352,6.352,0,0,1-.52-1.885.429.429,0,0,1,0-.455A.8.8,0,0,0,47-17.94q-.26-1.17-.39-2.21a19,19,0,0,1-.13-2.34q-.13-3.77-.065-7.475t.455-7.085q-.78,0-.78.26t.26,0q.26-.26.26.26-.91-.13-.91.65a1.048,1.048,0,0,1-.52,1.04q0,.26.13.065t.39-.065a1.927,1.927,0,0,0-1.17,1.495,1.388,1.388,0,0,1-.78,1.235q-.13.26.065.39a.437.437,0,0,1,.195.39,1.164,1.164,0,0,1-.78.65.89.89,0,0,0-.65.78q.39-.26.325.195a1.222,1.222,0,0,1-.325.715q-.26-.13-.065-.26t.065-.39q-.65,1.17-1.235,2.145a4.091,4.091,0,0,0-.585,2.145q-.52,0-.26-.39a8.025,8.025,0,0,0-.91,1.43,4.021,4.021,0,0,0-.39,1.82q-.26-.26-.26-.13t-.26.26a1.728,1.728,0,0,1,.13.91q-.26.26-.26.065t-.26-.195a.8.8,0,0,1-.26.91q-.39.26-.13.91h-.39a17.5,17.5,0,0,0-1.3,3.055,8.947,8.947,0,0,1-1.43,2.8.844.844,0,0,1,.26-.715.844.844,0,0,0,.26-.715,2.458,2.458,0,0,0-1.17,1.95,2.576,2.576,0,0,1-1.04,1.95q.26.65.065.845a2.918,2.918,0,0,0-.455.715q-.39-.26-.065-.715t.065-.715a2.084,2.084,0,0,0-.585,1.365A1.858,1.858,0,0,1,31.4-8.58a.928.928,0,0,1,.13-.845.393.393,0,0,0,0-.585q-.39-.26-.325.13t-.195.26q-.26-.26-.13-.26t.26-.26q-.52-.13-.585.2a2.32,2.32,0,0,1-.2.585.8.8,0,0,1-.455-.13q-.195-.13-.065.26-.52-.13-.195-.39t.065-.52q-.39,0-.325.455t-.325.325a1.233,1.233,0,0,1,.065-1.17,3.7,3.7,0,0,0,.455-1.43,1.378,1.378,0,0,0-.585.975,1.312,1.312,0,0,1-.715.975q-.39-.26-.065-.585t.065-.455a.552.552,0,0,0-.39.585.966.966,0,0,1-.26.715q-.26-.65-.065-.845a1.572,1.572,0,0,0,.325-.715.858.858,0,0,0-.65.715q-.13.585-.78.325a.808.808,0,0,0-.26.585.466.466,0,0,1-.26.455,2.749,2.749,0,0,1,.26-1.625,1.853,1.853,0,0,0,.13-1.495q-1.04.39-.52,1.17-.39-.39-.39-.065t-.26.325a1.092,1.092,0,0,0-.065-.845q-.2-.325.325-.325-.13-.26-.26-.26t-.13-.26a5.618,5.618,0,0,0,.455-1.82,1.918,1.918,0,0,1,.715-1.43q0-.26-.13-.325t0-.2q1.82-4.42,3.575-8.385A63.041,63.041,0,0,1,33.735-32.5,25.748,25.748,0,0,1,35.1-35.555q.845-1.625,1.755-3.055a57.508,57.508,0,0,1,2.86-5.915q1.56-2.795,2.99-5.785,1.43-2.21,2.8-4.42a22.107,22.107,0,0,1,3.185-4.03q.52.13,1.17.26.13,0,.065-.195a.294.294,0,0,1,.065-.325,1.347,1.347,0,0,0,1.3-.13,1.2,1.2,0,0,0,1.04.26q.52-.13,1.17.52a.416.416,0,0,0,.39-.26q.13-.26.65-.13-.13.65.52.585a1.558,1.558,0,0,1,1.04.195q-.39.52.065.52a.966.966,0,0,1,.715.26.425.425,0,0,0-.13.52q0-.13.39.26a3.015,3.015,0,0,0-.065,1.04q.065.39.195,1.04a1.117,1.117,0,0,0-.65,1.17,5.313,5.313,0,0,0,.26,1.69q.26,4.94.195,10.205t-.195,9.815a2,2,0,0,0-.26.78v8.84q.52.39.26,1.56-.13.26.13.325t.13.455Q60-24.31,62.66-29.185t5.4-9.75q2.73-4.875,5.59-9.555a91.984,91.984,0,0,1,6.24-8.97q-.13-.26,0-.325t.13-.325q2.6-3.12,4.94-6.175t4.94-6.3a5.1,5.1,0,0,0,1.625-1.56,5.1,5.1,0,0,1,1.625-1.56,1,1,0,0,0,.13-.39.375.375,0,0,1,.13-.26,1.512,1.512,0,0,0,.39-.26.53.53,0,0,1,.39-.13,14.3,14.3,0,0,1,2.535-2.86,20.24,20.24,0,0,0,2.535-2.6,1.074,1.074,0,0,0,.975-.52.587.587,0,0,1,.845-.26,2.263,2.263,0,0,1-.715.845A1.5,1.5,0,0,0,99.775-79.17Zm-2.99,3.25h.26v-.26h-.26ZM92.5-67.47q-.26,0-.065.195t.065-.195q.26-.13.065-.26T92.5-67.47Zm-.65.65q.26,0,.26-.13a.375.375,0,0,1,.13-.26q-.26-.13-.26.065A.441.441,0,0,1,91.845-66.82ZM90.675-65q0,.91.26.91v-.715a5.475,5.475,0,0,1,.13-.975q-.39.13-.455.325a1.28,1.28,0,0,1-.325.455Zm-.91,3.25q.26.13.26-.26t-.13-.26A.425.425,0,0,0,89.765-61.75Zm-.78.26q.39,0,.39-.52Q88.465-62.01,88.985-61.49Zm0,1.04q.26.13.26-.26t-.13-.26A.425.425,0,0,0,88.985-60.45Zm-1.43.78q.26.13.455-.2t-.065-.325q-.13.26-.26.26T87.555-59.67Zm.39.78a.734.734,0,0,0,.065-.52q-.065-.26-.325-.13Q87.3-58.89,87.945-58.89Zm-1.43.26v.26h.26a.115.115,0,0,1,.13-.13v-.26h-.26Zm.91.13q.13.39.13,0T87.425-58.5Zm-.65,1.69q.13,0,.13.2t.26.195v-.52a.345.345,0,0,0,.39-.39h-.39a.23.23,0,0,1-.26.26Q86.645-57.07,86.775-56.81Zm-1.69,1.95a.548.548,0,0,1,.325-.455q.325-.195.065-.455a1.29,1.29,0,0,0-.455.39A.36.36,0,0,0,85.085-54.86Zm.78-.13q-.52-.13-.325.065t.325-.065q0-.13.39-.13,0-.52-.26-.52,0,.13-.13.065t-.13.065q-.13.13,0,.195T85.865-54.99Zm-.39.52v.26q.26.13.325-.2t-.195-.195Zm-.26.65q.13.39.13,0T85.215-53.82Zm-28.6,15.6a.886.886,0,0,1-.065-.585q.065-.325-.195-.195a3.013,3.013,0,0,1-.065.585Q56.225-38.09,56.615-38.22Zm-9.88.39q.13.26.195-.065T46.735-37.83Zm-1.82.52h.26v-.26h-.26Zm-1.3.91q-.26,0-.26.13,0-.13.13-.065T43.615-36.4Zm12.61,1.04h.26v-.26h-.26Zm.26.26q-.26,0-.26.13,0-.13.13-.065T56.485-35.1Zm17.42,1.82q.13.39.13,0T73.905-33.28Zm-17.94,1.3q.39.13.39-.585t-.26-.715a1.186,1.186,0,0,1,.065.65Q56.1-32.37,55.965-31.98Zm-12.61-.26a.592.592,0,0,1-.065-.455q.065-.2-.195-.065A.524.524,0,0,0,43.355-32.24Zm0,1.04q.13.39.13,0T43.355-31.2Zm13,.26q-.26,0-.26.13,0-.13.13-.065T56.355-30.94Zm-.13.52q-.26,0-.26.13,0-.13.13-.065T56.225-30.42Zm-14.3.52h.26v-.26h-.26Zm.13.39a.208.208,0,0,0-.13-.195q-.13-.065-.13.195Zm14.17,0q-.26,0-.26.13,0-.13.13-.065T56.225-29.51Zm0,.91q0-.52-.39-.39-.13.26.065.26A.441.441,0,0,1,56.225-28.6Zm15.08.52a.624.624,0,0,1,.195-.455q.2-.195-.065-.325a1.513,1.513,0,0,0-.26.39A.257.257,0,0,0,71.305-28.08Zm-30.29.13q.39,0,.39-.52Q41.015-28.6,41.015-27.95Zm14.95.26q.26.13.26-.26t-.26-.13Zm-17.16.78h.26q.13-.26-.195-.325t-.195.195A.115.115,0,0,1,38.805-26.91Zm1.56.13h.26v-.26h-.26Zm-4.81.13h.26v-.26h-.26Zm4.29.52q.13.26.26,0t-.13-.26q0,.13-.065.13T39.845-26.13Zm16.25.91v-.39q0-.39-.26-.39a.36.36,0,0,1,.065.52Q55.705-25.22,56.1-25.22Zm-17.03-.65q-.26,0-.26.13,0-.13.13-.065T39.065-25.87Zm.52.91a.632.632,0,0,1,.13-.325q.13-.195-.13-.195-.13,0-.195.26T39.585-24.96Zm29.77.26q.65.26.65-.52Q69.615-25.22,69.355-24.7Zm-30.68-.13q-.26,0-.26.13,0-.13.13-.065T38.675-24.83Zm-.52.52q.26.39.195,0T38.155-24.31Zm.65.52q.13,0,.39-.52Q38.805-24.44,38.805-23.79Zm17.42-.13q-.26-.13-.195-.26a.208.208,0,0,1,.195-.13q-.52-.26-.39.26T56.225-23.92Zm-.39,1.04h.26v-.26h-.26Zm-22.23.65v-.39Q33.345-22.36,33.605-22.23Zm34.45.78q-.13-.26.195-.585t.065-.585a3.409,3.409,0,0,1-.39.585Q67.665-21.71,68.055-21.45Zm-12.09.52q.39,0,.325-.52t-.325-.52A1.091,1.091,0,0,1,55.965-20.93Zm-18.46.52a.208.208,0,0,0-.13-.195q-.13-.065-.13.195Zm18.72.78q.26.13.26-.26t-.26-.13Zm-19.5.13q.13,0,.39-.26Q36.725-19.76,36.725-19.5Zm-.13.52h.26v-.26H36.6Zm-.78,1.95q-.26,0-.13.065t.13-.065a3.4,3.4,0,0,0,.52-.715.751.751,0,0,0,0-.845,3.267,3.267,0,0,1-.455.845Q35.555-17.29,35.815-17.03Zm-.39-.65a.115.115,0,0,1,.13-.13q-.13-.39-.26-.26Q35.3-17.68,35.425-17.68Zm-5.33.52h.26v-.26H30.1Zm4.81.65q-.13-.26.065-.39t-.065-.26a.3.3,0,0,1-.195.325Q34.515-16.77,34.905-16.51Zm.78.26q0-.39-.26-.39Q35.425-16.25,35.685-16.25Zm-7.93,0h.26v-.26h-.26Zm36.79.26q.13.26.195-.065T64.545-15.99Zm-34.84.52q-.26,0-.26.13,0-.13.13-.065T29.705-15.47Zm35.1.26h.26v-.26h-.26Zm.13.78q-.26-.52-.13-.52Q64.285-14.69,64.935-14.43Zm-38.35.78a.582.582,0,0,0,.325-.39,1.15,1.15,0,0,1,.325-.52q-.52-.13-.52.26A1.447,1.447,0,0,1,26.585-13.65Zm3.9-.78q-.26,0-.26.13,0-.13.13-.065T30.485-14.43Zm33.8.39q.26,0,.26-.13a.375.375,0,0,1,.13-.26Q64.025-14.43,64.285-14.04Zm-35.49.39a.437.437,0,0,0,.39-.2q.13-.2,0-.325Q28.8-14.3,28.8-13.65Zm5.2-.52q-.26,0-.26.13,0-.13.13-.065T34-14.17Zm28.99.26v.26h.39v-.39h-.26Zm-29.38.13q.13.39.13,0T33.605-13.78Zm-3.38.26q-.26,0-.26.13,0-.13.13-.065T30.225-13.52Zm33.8,0q-.26,0-.26.13,0-.13.13-.065T64.025-13.52Zm-38.09.39q.13-.13.39,0t.26-.13Q25.935-13.91,25.935-13.13Zm2.6,1.04a1.6,1.6,0,0,1,.26-.715q.26-.455-.13-.455.13.26-.26.65T28.535-12.09Zm4.81-.91q.39,0,.39-.26h-.26q0,.13-.065.13T33.345-13Zm29.9.13q-.52,0-.325.2t.325-.2q.39,0,.195-.2T63.245-12.87Zm-35.88,0q-.26,0-.26.13,0-.13.13-.065T27.365-12.87Zm-.52,1.43q0-.26.13-.325t.13-.325q-.26-.13-.39.2T26.845-11.44Zm1.43-.13h.26v-.26h-.26Zm-1.56,1.04a.36.36,0,0,1,.065-.455q.195-.2-.065-.325a4.249,4.249,0,0,1-.26.455Q26.325-10.66,26.715-10.53Zm4.42,0a.345.345,0,0,0-.39-.39Q30.485-10.53,31.135-10.53Zm.39,0a.257.257,0,0,0,.39-.13q.13-.26-.13-.26a.375.375,0,0,1-.26.13Q31.4-10.79,31.525-10.53Zm66.3-65.13q.13-.39.13,0T97.825-75.66Zm-2.21,2.34q-.13-.26,0-.195T95.615-73.32Zm0,3.38q-.13-.26,0-.325a.7.7,0,0,0,.26-.325.257.257,0,0,1,.13.39A.416.416,0,0,1,95.615-69.94Zm0,0q-.26.52-.52.52A.46.46,0,0,1,95.615-69.94Zm-2.34,1.69v.13a.115.115,0,0,0,.13.13q-.13.26-.26,0T93.275-68.25Zm-.26,1.3q.52.13.195.455t-.195.585l-.78-.26a.4.4,0,0,1,.325-.455A.608.608,0,0,0,93.015-66.95Zm-.65,1.04a.592.592,0,0,0-.325.325.3.3,0,0,1-.325.195Q91.975-65.91,92.365-65.91Zm.65.52q-.13-.26,0-.195T93.015-65.39Zm0,0q.13.39-.065.195T93.015-65.39Zm-2.34.39q0-.13.13,0Zm.78,1.04q.39.13.13.78a.53.53,0,0,0-.39-.13q-.13-.26,0-.325A.7.7,0,0,0,91.455-63.96Zm-1.17,2.73q.13,0,.13.065t.13.065v.26q-.39,0-.39.26-.26-.13-.065-.2t.065-.325A.115.115,0,0,0,90.285-61.23ZM45.825-35.88q.13-.13.13,0t.26.13a.375.375,0,0,0-.13.26h-.26ZM40.235-24.7q-.26.52-.39.52Q39.845-24.83,40.235-24.7Zm-5.33,11.05a.855.855,0,0,0-.195.65q.065.26-.455.52a5.133,5.133,0,0,0,.195-.78A.417.417,0,0,1,34.905-13.65Zm26.91,2.99H61.3q-.13-.39.195-.39T61.815-10.66ZM24.9-10.4h.26v.26H24.9Zm1.56,1.17q0-.26.13-.195a.208.208,0,0,1,.13.195Zm100.36-48.36a.738.738,0,0,1-.195.975.883.883,0,0,0-.325.975q-.13,0,.26-.39.26.13.065.26t-.065.39q-.26,0-.26-.13t-.26.13a.23.23,0,0,0,.26.26q.26,0,.13.26-.52,0-.65.65a1.555,1.555,0,0,0,0,.91q.26,0,.13-.26a.257.257,0,0,1,.13-.39q.26.26.065.845a2.168,2.168,0,0,1-.455.845.429.429,0,0,1,0-.455.8.8,0,0,0,.13-.455q-.78.39-.455.91t-.325.91q-.13.26.065.26a.441.441,0,0,1,.325.13q-.13.26-.65.26a2.541,2.541,0,0,1,.195.52.307.307,0,0,0,.325.26.966.966,0,0,0-.26.715q0,.455-.52.455a.437.437,0,0,1,.195-.39q.195-.13.065-.52a1.681,1.681,0,0,0-.585,1.3,5.914,5.914,0,0,0,.065,1.56,1.512,1.512,0,0,0-.39.26q-.13.13-.39,0a13.553,13.553,0,0,1-.585,2.275L122-41.73a2.739,2.739,0,0,1,.455.065,3.652,3.652,0,0,0,.715.065,3.6,3.6,0,0,1,1.3-.585,1.47,1.47,0,0,1,1.17.065q.52-.26,1.235-.585a1.143,1.143,0,0,1,1.235.065q.91-.26,2.47-.65a6.492,6.492,0,0,1,2.86-.13.115.115,0,0,0,.13.13q-.13.39.39.325t.39-.325h-.78q0-.26-.065-.26t-.065-.26q.65-.26.845,0t.845,0q.13.39-.2.26t-.195.26q.26,0,1.04-.065a8.339,8.339,0,0,0,1.3-.195q0-.26-.065-.26t-.065-.26a.626.626,0,0,1,.455.52.7.7,0,0,1-.195.65,4.12,4.12,0,0,0-1.82-.13,2.527,2.527,0,0,0-1.69.91q.26.26.39-.13t.39-.26v.39q.26.13.2-.26t.325-.26q0,.13-.065.13t-.065.26a4.84,4.84,0,0,0,2.275-.325,2.158,2.158,0,0,1,2.015.065,2.261,2.261,0,0,1-1.235.195,2.208,2.208,0,0,0-1.365.325q.13.26.195.065t.325-.065a1.5,1.5,0,0,1-.52,1.04q.39.26.585.13a2.516,2.516,0,0,1,.715-.26q-.26-.26-.13-.39t-.26-.13q.13-.39.39-.13t.39-.26a.891.891,0,0,1-.13,1.04q-.39.39.39.78.26,0,.065-.26t.325-.13a.23.23,0,0,0,.26.26.23.23,0,0,0-.26-.26q0-.13.39-.13.13-.26-.065-.325t.065-.325l.39.39q.26.26.26-.26.26,0,.26.52a1.35,1.35,0,0,0,1.04-.13.65.65,0,0,1,.78,0,2,2,0,0,1-1.235.39,1.3,1.3,0,0,0-1.1.52.208.208,0,0,1,.13-.195.208.208,0,0,0,.13-.195q-.65.13-1.56.39a5.827,5.827,0,0,1-1.56.26v.52a18.794,18.794,0,0,0,1.885-.325,2.949,2.949,0,0,1,1.625.065,2.3,2.3,0,0,0,.715-.39.556.556,0,0,1,.715,0,2.184,2.184,0,0,1-2.015.65,1.769,1.769,0,0,0-1.885.78,3.478,3.478,0,0,0-1.3.26,1.008,1.008,0,0,1-1.17-.26q-.26.13-.26.325t-.26.325a8.269,8.269,0,0,0-2.21.325q-1.17.325-2.21.585.26.52.455.195a.447.447,0,0,1,.585-.195q-.13.52-.845.39t-.845.39a.65.65,0,0,0,.78,0,1.35,1.35,0,0,1,1.04-.13,12.352,12.352,0,0,1-4.81,1.04,2.848,2.848,0,0,1-1.885.65,3.989,3.989,0,0,0-2.015.52q-.26.13-.065.455t-.455.065a.115.115,0,0,1,.13-.13.115.115,0,0,0,.13-.13q0-.26-.195-.13a.632.632,0,0,1-.325.13.23.23,0,0,0,.26.26v.39q-.39,0-.39-.13-.13,0-.13.39a4.457,4.457,0,0,1-.845-.065,1.388,1.388,0,0,0-.715.065q0-.13.065-.13t.065-.26a.585.585,0,0,0-.52.195.437.437,0,0,1-.39.195,1.59,1.59,0,0,1-.26,1.235,2.4,2.4,0,0,0-.39,1.365q-.13,0-.13-.065t-.13-.065q-.26.13-.13.52a2.454,2.454,0,0,1,.13.78.208.208,0,0,0-.195.13q-.065.13-.325,0-.26.39-.065.455t.195.455q-.13,0-.13.065t-.26.065q-.13.26,0,.325t.13.325a.265.265,0,0,0-.195.065.265.265,0,0,1-.195.065,18.718,18.718,0,0,1-1.04,3.9,18.283,18.283,0,0,0-1.04,4.16.265.265,0,0,0-.195.065.265.265,0,0,1-.195.065,2.7,2.7,0,0,1,.13,1.04,1.589,1.589,0,0,1-.715.585q-.455.195-.195.845-.13,0-.13-.065t-.26-.065q.26.26-.13.78t0,.78a.739.739,0,0,0-.52.91.739.739,0,0,1-.52.91q-.13-.26.065-.39t.065-.39q-.26,0-.39.325t-.26-.325q-.26.26-.065.455a.36.36,0,0,1,.065.455q-.65-.26-.52.13a.363.363,0,0,1-.26.52q.13.26.325.065a.36.36,0,0,1,.455-.065q-.26.65-.585.52t-.585.52q.52.65,0,1.04a2.58,2.58,0,0,0-.78.91q-.13.39.195.455t.195.325q-.52-.13-.52.325t.26.585a.614.614,0,0,0-.52.65.875.875,0,0,1-.39.78q-.13-.65.13-.78t0-.78q.26-.13.195-.52a.7.7,0,0,1,.195-.65q-.65.13-.39,1.17a.23.23,0,0,0-.26.26q0,.26-.26.13A2.5,2.5,0,0,1,109-5.33q-.52,1.04-.91,1.95-.26,0-.13-.39t-.13-.39a5.044,5.044,0,0,0-.26.65.589.589,0,0,0,.13.65q0,.26-.26.13a.257.257,0,0,1-.13-.39.875.875,0,0,0-.39.78.8.8,0,0,1-.26-.91q-.13-.26-.26.065a1.4,1.4,0,0,1-.26.455q-.39-.26-.195-.455t.065-.715q-.26.39-.455.325t-.325.325a1.323,1.323,0,0,1-.13-.975,2.363,2.363,0,0,0,0-1.105,112.944,112.944,0,0,1,2.08-12.545q1.3-5.655,2.99-12.025a.954.954,0,0,0-.91-.065,2.178,2.178,0,0,0-.78.455h.78q0,.26-.325.26a.466.466,0,0,0-.455.26.307.307,0,0,1-.325-.26q-.065-.26-.455-.13-.26.13-.065.325t-.065.325a1.573,1.573,0,0,0-.91.195,4.881,4.881,0,0,0-.52.455,2.529,2.529,0,0,0-.975-.065q-.455.065-.585.715a1.483,1.483,0,0,0-1.3.065,2.411,2.411,0,0,1-1.3.325q0-.13.065-.13t.065-.26q-.26,0-.325.13t-.325,0a.3.3,0,0,0,.195.325q.2.065-.065.325-.52,0-.325-.26t-.455-.13a.3.3,0,0,0,.195.325q.195.065.065.455A2.364,2.364,0,0,0,99.19-26a4.652,4.652,0,0,1-1.885.65q-.13.26-.26.26t-.26.26a5.445,5.445,0,0,0-2.8.65,3.047,3.047,0,0,1-2.275.39q-.26,0-.13.065t.13.325a1.589,1.589,0,0,0-1.17.39,3.751,3.751,0,0,0-2.015.455,5.49,5.49,0,0,0-1.3,1.17q-.585.715-1.17,1.365a4.571,4.571,0,0,1-1.365,1.04q.13,1.04-1.04,1.3a15.87,15.87,0,0,0-2.47-1.1,2.577,2.577,0,0,1-1.69-1.885q-.39,0-.39.26a1.344,1.344,0,0,1-.585-.91.991.991,0,0,0-.715-.78,2.218,2.218,0,0,0,.39-1.365,1.846,1.846,0,0,1,.52-1.365q0-.26-.26-.13t-.39,0q-.13-.26.065-.26t.195-.26a2.037,2.037,0,0,0-.52-.39,2.037,2.037,0,0,1-.52-.39.6.6,0,0,1,.65-.39q0-.26-.39-.26a1.362,1.362,0,0,1,.91-.845,1.8,1.8,0,0,0,1.04-.845,1.131,1.131,0,0,0,1.17-.13,1.9,1.9,0,0,1,1.17-.39q4.94-6.5,9.945-12.87a124.308,124.308,0,0,1,10.855-12.09q4.03-4.03,8.125-7.995a35.634,35.634,0,0,1,9.555-6.565,1.756,1.756,0,0,1,1.625.52,3.112,3.112,0,0,0,1.5.91,4.855,4.855,0,0,0,1.625,1.625,3.749,3.749,0,0,1,1.5,1.755,1.148,1.148,0,0,1,.975.975,1.257,1.257,0,0,1-.455,1.365q.26.26.325,0t.325-.13a.974.974,0,0,0-.13.845,4.288,4.288,0,0,0,.26.715,1.028,1.028,0,0,0-.65-.13q-.26.26,0,.455t0,.455q-.26.13-.26-.13a.53.53,0,0,1,.13-.39q-.39-.13-.39.26v.65q.39-.39.52,0a.589.589,0,0,1-.13.65q-.39,0-.26-.13t-.13-.39q-.26.13-.13.585a1,1,0,0,1,0,.715.115.115,0,0,0,.13-.13Zm-.13-5.46h.26v-.26h-.26Zm.52,1.04a.689.689,0,0,1,0-.585q.13-.325-.26-.195a1.154,1.154,0,0,0-.13.52Q126.815-62.01,127.2-62.01Zm-.13,1.69q.26.26.325-.195t-.195-.455A1.028,1.028,0,0,0,127.075-60.32Zm-10.01,2.99q-.26,0-.26.13Q117.065-57.2,117.065-57.33Zm9.49.52a.53.53,0,0,0,.13-.39q0-.26-.26-.13Q126.425-56.81,126.555-56.81ZM107.7-37.44q-.13.39.065.195t-.065-.195a7.78,7.78,0,0,1,2.34-.715,8.684,8.684,0,0,0,2.6-.845q1.43-4.55,2.73-8.71t2.73-9.1a45.107,45.107,0,0,0-5.785,5.135q-2.8,2.925-5.525,5.655-2.73,2.86-5.33,5.85t-4.94,6.24q2.86-.91,5.525-1.82T107.7-37.44Zm8.32-19.11q-.26,0-.26.13Q116.025-56.42,116.025-56.55Zm-1.69,2.08a.345.345,0,0,0,.39-.39q-.26-.13-.26.065A.441.441,0,0,1,114.335-54.47Zm10.79.52q.26,0,.455-.455t-.195-.455a.437.437,0,0,1-.195.39Q124.995-54.34,125.125-53.95Zm-13.13,1.69q.26.13.52-.52A.46.46,0,0,0,111.995-52.26Zm-6.76.65q.13.26.195-.065T105.235-51.61Zm5.72.39q.13.26.195-.065T110.955-51.22Zm-.65.52q.39,0,.39-.26Q110.3-50.96,110.3-50.7Zm13.65.26h.26v-.26h-.26ZM109-50.05a.257.257,0,0,0,.39-.13q.13-.26-.13-.26,0,.26-.13.26A.115.115,0,0,0,109-50.05Zm-.52.52q.26.39.195.065T108.485-49.53Zm-.13.78q.39,0,.39-.26h-.26q0,.13-.065.13T108.355-48.75Zm-1.3,1.17Zm15.86.52q.13.39.13,0T122.915-47.06Zm-17.03.39q0-.26.325-.13t.065-.26a.36.36,0,0,0-.455.065Q105.625-46.8,105.885-46.67Zm17.81-.26q.13.39.13,0T123.695-46.93Zm-18.33.91q.13-.39.325-.26a.8.8,0,0,0,.455.13q0-.52-.52-.325T105.365-46.02Zm17.29.13q.13.39.13,0T122.655-45.89Zm0,.52h.26v-.26h-.26Zm-17.55.13q.39,0,.39-.26Q105.1-45.5,105.1-45.24Zm15.47,0q.13.39.13,0T120.575-45.24Zm1.69.52q0-.13.195-.13t.065-.26a.257.257,0,0,0-.39.13Q122-44.72,122.265-44.72Zm-18.33.78a.781.781,0,0,0-.52.52.46.46,0,0,0,.52-.52h.26v-.26A.23.23,0,0,0,103.935-43.94ZM122-44.07q.13.39.13,0T122-44.07Zm.26.65h.26v-.26h-.26Zm-23.79.39q.13.39.13,0T98.475-43.03Zm33.8.26a.475.475,0,0,0,.585-.13q.2-.26.455,0,0-.39-.52-.26T132.275-42.77Zm-1.43-.26q-.26,0-.26.13Q130.845-42.9,130.845-43.03Zm.39.26q-.13.39.39.26t.52-.39a1.44,1.44,0,0,0-.455.065A1.44,1.44,0,0,1,131.235-42.77Zm-.91.26q.26,0,.26.065t.26.065q.13-.26-.2-.325T130.325-42.51Zm3.38.13q0-.13-.26-.39Q133.185-42.25,133.7-42.38Zm-6.5-.13q-.13,0-.13-.065t-.13-.065q-.26.26-.065.325T127.2-42.51Zm1.82.26a.115.115,0,0,1,.13.13.115.115,0,0,0,.13.13,1.735,1.735,0,0,0,.455-.325q.2-.195.455.065,0-.65-.52-.325A2.027,2.027,0,0,1,129.025-42.25Zm2.99.39h.65q0-.65-.26-.65Q132.275-42.51,132.015-41.86Zm1.04-.52q.13.39.13,0T133.055-42.38Zm-31.33.39a.208.208,0,0,1,.13-.195q.13-.065-.13-.2a.208.208,0,0,1-.13.2Q101.465-42.12,101.725-41.99Zm29.51.39q.26-.26.65,0a1,1,0,0,1-.13-.39.375.375,0,0,0-.13-.26q.13.52-.26.39T131.235-41.6Zm-3.12-.26h.26v-.26h-.26Zm5.07,0h.26v-.26h-.26Zm1.69.52a1.253,1.253,0,0,1,1.82,0,1.482,1.482,0,0,0-.52-.78,2.524,2.524,0,0,1-.78.195q-.52.065-.91.13a.741.741,0,0,0-.52.26q-.13.2.13.585l.39-.39q0,.26.2.26T134.875-41.34Zm-13.52-.52q.13.26.195-.065T121.355-41.86Zm2.86,0q.13.39.13,0T124.215-41.86Zm5.85.26q.26-.26.325,0t.325.13q0-.39-.455-.455T130.065-41.6Zm-9.36-.13q.13.39.13,0T120.7-41.73Zm6.11,0q.13.39.13,0T126.815-41.73Zm2.47,0q0,.65.52.65a.592.592,0,0,1-.065-.455q.065-.2-.2-.325Q129.545-41.73,129.285-41.73Zm-27.56.13Zm24.18,0q.13.39.13,0T125.9-41.6Zm.39.13h.26v-.26h-.26Zm-4.94.13q.39,0,.39-.26Q121.355-41.6,121.355-41.34Zm11.96.65a1.29,1.29,0,0,1-.13-.585q0-.325-.39-.325a.808.808,0,0,1,.26.585Q133.055-40.69,133.315-40.69Zm-7.93-.65q.26.39.195.065T125.385-41.34Zm6.63,0q.13.39.13,0T132.015-41.34Zm4.42.52a.592.592,0,0,1-.325-.325.592.592,0,0,0-.325-.325,1.166,1.166,0,0,0,.2.585Q136.175-40.56,136.435-40.82Zm-7.67-.39q0,.26.2.065T128.765-41.21Zm6.76,0q.13.39.13,0T135.525-41.21Zm-7.28.13q.13.39.13,0T128.245-41.08Zm3.12.13h.39q0-.26-.39-.26Zm2.08-.13q.13.39.13,0T133.445-41.08Zm-9.75.13q.13.26.2-.065T123.695-40.95Zm8.71.39q.39,0,.39-.52-.26-.13-.195.13A.316.316,0,0,1,132.4-40.56Zm2.34.13a.864.864,0,0,0,.52-.195q.26-.2,0-.455,0,.26-.325.26T134.745-40.43Zm-8.84-.13a.115.115,0,0,1,.13-.13.23.23,0,0,0-.26-.26Q125.775-40.56,125.9-40.56Zm9.75-.26q.13.39.13,0T135.655-40.82Zm-12.74.13q.13.39.13,0T122.915-40.69Zm8.06,0Zm-30.81.26h.26v-.26h-.26Zm.65-.13q.26.39.195.065T100.815-40.56Zm23.53,0q.13.39.13,0T124.345-40.56Zm7.02.13h.39q0-.26-.39-.26Zm.78-.13a.115.115,0,0,0-.13-.13.115.115,0,0,0-.13.13.208.208,0,0,1,.195.13Q132.145-40.3,132.145-40.56Zm2.21,0q-.39,0-.39.26Q134.355-40.3,134.355-40.56Zm1.17.13q.13.39.13,0T135.525-40.43Zm1.3.13h.26v-.26h-.26Zm-36.92,0Zm30.94,0q0-.13-.2-.13t-.2.13q-.13.26.2.26T130.845-40.3Zm-.91.13q.13.39.13,0T129.935-40.17Zm2.47,0q0,.26.13.26a.115.115,0,0,1,.13-.13.115.115,0,0,0,.13-.13Zm5.07,0q.13.39.13,0T137.475-40.17Zm-13.52.13q.13.39.13,0T123.955-40.04Zm12.48,0q.13.26.195-.065T136.435-40.04Zm.65,0q.13.39.13,0T137.085-40.04Zm-5.85.26h.26v-.26h-.26Zm3.9.13q0-.26.325-.13t.065-.26a.36.36,0,0,0-.455.065Q134.875-39.78,135.135-39.65Zm-11.31-.13q-.39-.26-.325,0T123.825-39.78Zm6.5.13Zm2.86.13q-.13.65,0,.13T133.185-39.52Zm2.47.39a.5.5,0,0,0,.585.13q.325-.13.325-.39a.5.5,0,0,0-.585-.13Q135.655-39.39,135.655-39.13Zm-7.93-.13V-39q.26.26.325-.065t-.195-.325A.115.115,0,0,1,127.725-39.26Zm6.63.13a1.019,1.019,0,0,1-.26.2,1.019,1.019,0,0,0-.26.195q.26.26.455.13T134.355-39.13Zm-1.04.13q.13.39.13,0T133.315-39Zm-7.28.26v.26h.26a.115.115,0,0,1,.13-.13v-.26h-.26A.115.115,0,0,1,126.035-38.74Zm5.98.26a.538.538,0,0,0,.585-.065q.195-.2-.195-.325,0,.26-.325.195T132.015-38.48Zm-5.46-.13q.13.39.13,0T126.555-38.61Zm3.77.13h.26v-.26h-.26Zm3.12-.13Zm3.77-.13h-.52q-.26.52.13.39T137.215-38.74Zm-11.96.26q.13.39.13,0T125.255-38.48Zm5.59.26q.65,0,.65-.39A.6.6,0,0,0,130.845-38.22Zm-7.8,0v.26h.26q.26-.26-.13-.39A.115.115,0,0,1,123.045-38.22Zm1.04.13h.26v-.26h-.26Zm-25.48.65-.39-.78v.585Q98.215-37.31,98.6-37.44Zm29.64-.78q-.13.65.13.39T128.245-38.22Zm1.43.52a.441.441,0,0,0,.13-.325q0-.2-.26-.2Q129.545-37.7,129.675-37.7Zm-7.15-.26q.13.39.13,0T122.525-37.96Zm2.08.13v.26h.26q.26-.26-.13-.39A.115.115,0,0,1,124.6-37.83Zm3.77.52a2.32,2.32,0,0,1,.585-.195.4.4,0,0,0,.325-.455,4.288,4.288,0,0,1-.715.26Q128.115-37.57,128.375-37.31Zm-30.55,0a.53.53,0,0,0,.13-.39q0-.26-.26-.13Q97.695-37.31,97.825-37.31Zm23.14-.13q.26.39.195.065T120.965-37.44Zm6.37.26h.26v-.26h-.26Zm-29.51.13q.13,0,.13.065t.13.065q0-.13.065-.13t.065-.13q-.13,0-.13-.065t-.13-.065q0,.13-.065.13T97.825-37.05Zm30.03.65q0,.65.195.52t.325.26a.515.515,0,0,1,.65-.065.515.515,0,0,0,.65-.065q-.39-.65.065-.585t.455-.455a1.933,1.933,0,0,0-.975.195,1.626,1.626,0,0,1-.845.195q0-.52-.13-.52a.36.36,0,0,0-.065.52Q128.375-36.14,127.855-36.4Zm-30.81,0a1.154,1.154,0,0,1,.52-.13.416.416,0,0,0,.39-.26Q97.045-36.79,97.045-36.4Zm30.42.39h.26v-.26h-.26Zm.13.39h.26v-.26h-.26Zm-2.73.13q.13.39.13,0T124.865-35.49Zm1.17.52v-.26q0-.26-.13-.26,0,.13-.39.13a.23.23,0,0,0-.26-.26q0,.39.26.455A2.54,2.54,0,0,1,126.035-34.97Zm-1.82.52q.26.26.39-.325t-.26-.455q.13.26-.065.39T124.215-34.45Zm.78-.26a.208.208,0,0,1,.13-.195.208.208,0,0,0,.13-.2.257.257,0,0,0-.39.13Q124.735-34.71,124.995-34.71Zm-3.38,0q.13.39.13,0T121.615-34.71Zm.78.65q0-.13-.26-.39Q122.135-34.06,122.395-34.06Zm-1.04.26q.39.39.65-.26a.208.208,0,0,1-.195-.13.208.208,0,0,0-.2-.13q0,.26-.195.26T121.355-33.8ZM96-34.19q-.26,0-.26.13Q96-34.06,96-34.19Zm24.31.39q.13.39.13,0T120.315-33.8Zm.52.65q.65,0,.65-.26-.13-.26-.325-.13A.981.981,0,0,0,120.835-33.15Zm1.04-.39q-.26,0-.26.13Q121.875-33.41,121.875-33.54Zm-14.43,1.04a.115.115,0,0,0-.13-.13.115.115,0,0,0-.13.13.208.208,0,0,1,.195.13Q107.445-32.24,107.445-32.5Zm-4.68.39q.13.39.13,0T102.765-32.11Zm4.16.52q-.26,0-.26.13Q106.925-31.46,106.925-31.59Zm0,2.6q.65,0,.52-.26Q106.925-29.25,106.925-28.99Zm-.65.26q.39,0,.39-.26Q106.275-28.99,106.275-28.73Zm-2.86,0q.13.39.13,0T103.415-28.73Zm2.21.13q.13.39.13,0T105.625-28.6Zm-.78.26h-.26a.115.115,0,0,0-.13.13q-.26.26.195.195T104.845-28.34Zm-2.73.26q.13.39.13,0T102.115-28.08Zm1.43.26h.52q.26,0,.13-.26h-.65Zm-.78.13q.13.39.13,0T102.765-27.69Zm-.52.13q-.13.65,0,.13T102.245-27.56Zm-1.82.91a.208.208,0,0,1,.13-.195q.13-.065-.13-.2a.208.208,0,0,1-.13.2Q100.165-26.78,100.425-26.65Zm-1.43.39a.36.36,0,0,0,.455-.065q.195-.195-.065-.325,0,.26-.195.195T98.995-26.26Zm-2.21.65h-.26a.115.115,0,0,0-.13.13q-.13.39.26.26T96.785-25.61Zm-.52.13H96a.115.115,0,0,0-.13.13q-.13.39.26.26T96.265-25.48Zm-1.95.91q.39,0,.39-.26Q94.315-24.83,94.315-24.57Zm21.19,4.55a.115.115,0,0,0-.13-.13.115.115,0,0,0-.13.13.208.208,0,0,1,.195.13Q115.5-19.76,115.5-20.02Zm-.78,1.3q.13.26.195-.065T114.725-18.72Zm-.13.52a.208.208,0,0,1,.195.13q.065.13.325,0,.13-.26-.195-.325T114.595-18.2Zm-2.08,2.47q0,.26.13.26a.115.115,0,0,1,.13-.13q0,.39.13.39,0-.26.195-.2t.195-.195q-.26.13-.325,0a.7.7,0,0,0-.325-.26A.115.115,0,0,1,112.515-15.73Zm-2.6,6.63.26-.52q-.26-.13-.39.195T109.915-9.1Zm-2.99,4.55a3.5,3.5,0,0,1,.2-1.1,1.19,1.19,0,0,0,.065-.845,2.263,2.263,0,0,0-.455.975Q106.535-4.81,106.925-4.55Zm1.82-1.3q.13.39.13,0T108.745-5.85Zm-2.47,2.08q.26-.13.26.13t.26.13a.429.429,0,0,1,0-.455q.13-.2-.13-.455a1.5,1.5,0,0,1-.195.325A1.5,1.5,0,0,0,106.275-3.77Zm20.54-53.82q0-.39.26-.39v.26a.115.115,0,0,0-.13.13Zm-.65,2.99q.39.26.065.26T126.165-54.6Zm-1.82,6.63q.13-.39.13,0T124.345-47.97Zm-.65,2.47q.26.13.065.52t-.455.26a.816.816,0,0,0,.195-.325A3.566,3.566,0,0,1,123.695-45.5Zm13.13,1.17q-.13.26-.65.26Q136.175-44.33,136.825-44.33Zm-1.43.39q.13-.39.13,0T135.395-43.94Zm5.33-.13q.13.26-.065.26t-.195.13q-.26,0-.13-.26A.257.257,0,0,1,140.725-44.07Zm-.91.26a1.721,1.721,0,0,1-.975.26H137.6a.974.974,0,0,1,.975-.325Q139.295-43.81,139.815-43.81Zm-4.03.13q.13-.39.13,0T135.785-43.68Zm8.58.13h.26v.26h-.26Zm-1.04.13h.26q0,.26-.39.26,0-.13.065-.13T143.325-43.42Zm-.91.13q.39,0,.39.26h-.39Zm-4.55.26q.13-.39.13,0T137.865-43.03Zm3.64-.13q0,.26-.325.26a1.29,1.29,0,0,0-.585.13q0-.26.325-.26A1.29,1.29,0,0,0,141.5-43.16Zm.78,0q0,.26-.39.26Q141.895-43.16,142.285-43.16Zm-1.95.26q-.13.26-.325.26a1.047,1.047,0,0,0-.455.13q0,.52.26.52a.416.416,0,0,1-.39.26.749.749,0,0,0-.52.26.36.36,0,0,1-.065-.52.475.475,0,0,1,.585-.13q-.26-.52.13-.78A.65.65,0,0,1,140.335-42.9Zm.13.52q.26-.39.195-.065T140.465-42.38Zm4.03.39q.13-.39.13,0T144.495-41.99Zm-4.16,0q.39,0,.39.26h-.39Zm-5.46.65a.23.23,0,0,1-.26-.26A.23.23,0,0,1,134.875-41.34Zm2.34-.26q.26,0,.195.325t-.325.065v-.26A.115.115,0,0,0,137.215-41.6Zm6.89.39q0,.39-.52.39Q143.585-41.73,144.1-41.21Zm-5.07,0q.13.26-.195.26t-.325.26q-.26-.26,0-.39A1.154,1.154,0,0,1,139.035-41.21Zm5.46.13q0-.13.26-.13Q144.755-41.08,144.495-41.08Zm-1.17.39a.753.753,0,0,0-.52-.13q.13-.26.325-.26T143.325-40.69Zm-1.04,0q.26-.39.2-.065T142.285-40.69Zm.52.65Zm.65-.13h.26q0,.26-.39.26,0-.13.065-.13T143.455-40.17Zm-3.38,1.56a1.286,1.286,0,0,0-.91.065,1.617,1.617,0,0,1-1.04.065,6.034,6.034,0,0,1,1.04-.325Q139.945-39,140.075-38.61Zm-3.77,1.04q.13-.39.13,0T136.3-37.57Zm-1.82.52q-.26,0-.26-.39Q134.485-37.44,134.485-37.05Zm3.25-.39a1.041,1.041,0,0,1-.78.455,8.377,8.377,0,0,1-1.04.065A8.061,8.061,0,0,1,137.735-37.44Zm-3.25.39a.749.749,0,0,0,.52.26,6.9,6.9,0,0,1-1.43.39q-.78.13-1.69.26-.13-.26,0-.325t.13-.325q.26-.13.195.13a.316.316,0,0,0,.2.39.592.592,0,0,0,.325-.325,1.28,1.28,0,0,1,.325-.455q.26.52.39.26a2.037,2.037,0,0,1,.39-.52q.26.13.065.325a.532.532,0,0,0-.2.325A.632.632,0,0,0,134.485-37.05Zm-5.2.78q0,.26-.195.195t-.2.2q-.26-.13-.065-.26A.8.8,0,0,1,129.285-36.27Zm1.82.78q-.39.39-.585.13T131.1-35.49Zm-1.56.26a.749.749,0,0,1-.52.26Q129.025-35.23,129.545-35.23Zm-1.43.26q.26.26-.13.26T128.115-34.97Zm-2.08.52h.26q0,.26-.39.26,0-.13.065-.13T126.035-34.45Zm-16.12,4.68q.13.26-.52.26Q109.395-29.77,109.915-29.77Zm1.69,18.33q.26,0,.195.455t-.325.195A1.028,1.028,0,0,1,111.6-11.44Zm-6.11,8.19h.26v.26h-.26Zm1.04,1.04q.39,0,.325.52a1.256,1.256,0,0,1-.195.65,2.54,2.54,0,0,1-.195-.52A1.186,1.186,0,0,1,106.535-2.21Zm.65,0h.26v.26h-.26Zm30.29-14.56a4.064,4.064,0,0,0-2.21,1.04h-.13q0,.13.065.13t.065-.13q.26,0,.26-.13.26.39-.325.52t-.715.39a.939.939,0,0,1-.78-.325.7.7,0,0,0-.78-.2q0,.39.065.2t.325-.065q.13.39-.195.39t-.2.26q-.52-.13-.52.13a1.154,1.154,0,0,1-.13.52q-.39-.65-.975-.065a.829.829,0,0,1-1.235.065q.26.52,0,.585a.582.582,0,0,0-.39.325h-.26a.115.115,0,0,0,.13.13.115.115,0,0,0,.13-.13.53.53,0,0,1,.39.13,7.266,7.266,0,0,1-.78.455,4.45,4.45,0,0,1-.91.325q.13-.39-.065-.2t.065.2a.964.964,0,0,1-.65.455,1.476,1.476,0,0,0-.78.455q-.26-.26.065-.39t.325-.39q-.39-.13-.78.455a1.075,1.075,0,0,1-1.17.455q-.13.26.13.325t0,.195a3.817,3.817,0,0,0-1.43.26q0,.26.065.26t.065.26q-.26,0-.26.065t-.26.065q-.26,0-.26-.39a1.133,1.133,0,0,1-.585.325.4.4,0,0,0-.325.455q-.52-.26-.715,0a.685.685,0,0,1-.585.26.837.837,0,0,1,.39-.52,2.037,2.037,0,0,0,.52-.39.764.764,0,0,0,.65-.39q0-.26-.26,0l-.39.39a2.527,2.527,0,0,0-1.3.52q-.13.26.13.325t0,.325q-.26-.13-.26-.26t-.26.13q-.26.13-.065.195t.065.325a1,1,0,0,1-.39.13.375.375,0,0,0-.26.13q-.26.13-.26-.13a.23.23,0,0,0-.26-.26,1.563,1.563,0,0,0-1.04,1.04,4.833,4.833,0,0,0-1.17.13,2.657,2.657,0,0,1-1.17,0q0,.91-1.17.91v.65q-.39-.52-.65-.065a.844.844,0,0,1-.78.455q-.13-.52.325-.39t.325-.39q.39.13.195-.065t-.195.065a3.567,3.567,0,0,1-.455.2,3.567,3.567,0,0,0-.455.195l-.39-.39a.345.345,0,0,0,.39.39q0,.39.13.39a3.567,3.567,0,0,0-.2.455q-.065.2-.455.065.26-.52.065-.715a1.009,1.009,0,0,1-.195-.715q-.39-.13-.52,0a.53.53,0,0,1-.39.13.36.36,0,0,1-.065.455.36.36,0,0,0-.065.455q-.39-.52-.715,0a1.43,1.43,0,0,1-.715.65q-.39-.13-.195-.26a2.13,2.13,0,0,0,.325-.26q-.26-.26-.52.13-.26-.13-.065-.26t-.065-.26a4.26,4.26,0,0,0-.65.52,1.787,1.787,0,0,1-.91.39.524.524,0,0,1,.26-.52.85.85,0,0,0,.39-.39q-.26-.26-.39.13a.363.363,0,0,1-.52.26v-.65q-.26,0-.26.65a.514.514,0,0,1-.325-.065q-.065-.065-.195.195-.39-.26-.065-.325a.893.893,0,0,0,.455-.2q-.13-.26-.26-.065t-.39.065q.65-.65,1.17-1.235a3,3,0,0,1,1.56-.845.524.524,0,0,1,.26-.52.524.524,0,0,0,.26-.52,2.389,2.389,0,0,0,1.625-.845,3.857,3.857,0,0,1,1.5-1.1q-.26-.52-.78,0t-.78,0q-.26,0-.065.13t.065.39q-.13,0-.13-.065t-.26-.065a.8.8,0,0,1-.13.455.429.429,0,0,0,0,.455,3.028,3.028,0,0,0-2.21.65.592.592,0,0,1,.325-.325q.2-.065.2-.455a2.5,2.5,0,0,0-.975,1.04,2.5,2.5,0,0,1-.975,1.04q-.52,0-.195-.2t.195-.455q-.65.26-.585.585a.619.619,0,0,1-.195.585h-.26q0-.39-.26-.2t-.39-.2a1.4,1.4,0,0,1,.78-.715,1.039,1.039,0,0,0,.65-.845,130.345,130.345,0,0,1,23.53-13.325q12.61-5.525,26-10.335a15.977,15.977,0,0,0,3.055-.91q1.625-.65,3.315-1.3a2.9,2.9,0,0,1-1.04-.39,1.091,1.091,0,0,0-1.04,0q-.26-.65-1.43-.455t-1.56-.455a3.2,3.2,0,0,1-2.015-.13,3.2,3.2,0,0,0-2.015-.13q-.13-.39-.39-.325t-.26-.195a4.169,4.169,0,0,1-1.5,0,6.816,6.816,0,0,0-1.625-.13,6.871,6.871,0,0,0-3.055-.845,7.757,7.757,0,0,1-3.185-.845q-.26-.13-.325,0t-.325.13a6.658,6.658,0,0,0-2.795-.845,3.474,3.474,0,0,1-2.535-1.235q-.39,0-.39.13a9.075,9.075,0,0,1-2.99-3.9q-1.04-2.47-2.21-4.68a1.3,1.3,0,0,0,.2-.91,2.06,2.06,0,0,1,.065-.91,22.444,22.444,0,0,1,7.605-5.135q4.485-1.885,8.645-3.7,3.38-1.04,6.37-1.69t5.85-1.43a16.754,16.754,0,0,0,2.08-.13q1.04-.13,2.47-.39a3.015,3.015,0,0,0,1.04.065,6.605,6.605,0,0,1,1.04-.065,1.047,1.047,0,0,0,.455.13,1.047,1.047,0,0,1,.455.13,2.221,2.221,0,0,1,1.885.325,5.947,5.947,0,0,0,1.755.845,4.268,4.268,0,0,1,1.17,1.495,12.138,12.138,0,0,1,.65,1.755l.52,1.82a4.6,4.6,0,0,0,.91,1.69,1.105,1.105,0,0,0,0,1.04.721.721,0,0,1-.13.91q-.65.13-.78-.26t-.78-.13a8.06,8.06,0,0,0-3.185-1.17,16.864,16.864,0,0,0-3.64-.13,26.294,26.294,0,0,0-3.705.52q-1.82.39-3.51.65a56.488,56.488,0,0,0-9.62,2.665,67.061,67.061,0,0,0-8.71,3.965,6.583,6.583,0,0,0,2.275.65q1.235.13,2.535.39,3.38.65,7.15,1.3t7.15,1.3a19.475,19.475,0,0,1,4.55.845,14.445,14.445,0,0,0,4.16.715,1.64,1.64,0,0,0,1.69.52,4.937,4.937,0,0,1,2.73,1.755,19.106,19.106,0,0,1,1.69,2.8v.65q.52,1.04.975,1.82a5.1,5.1,0,0,1,.455,2.47,26.048,26.048,0,0,1-8,3.965,88.223,88.223,0,0,0-8.775,3.185,47.874,47.874,0,0,0-5.2,1.625q-2.6.975-4.94,1.625a.959.959,0,0,1-.91.455q-.52-.065-.78.585-.26-.13-.39.065t-.39-.065a17,17,0,0,1-4.355,1.95,15.288,15.288,0,0,0-4.1,1.82Q138-17.16,137.475-16.77Zm.26-7.41q.13.39.13,0T137.735-24.18Zm-.26.65q.13.39.13,0T137.475-23.53Zm15.08.65q.13.26.195-.065T152.555-22.88Zm-5.98,1.69a5.593,5.593,0,0,0,1.04-.13.89.89,0,0,0,.78-.65,5.707,5.707,0,0,1-.975.39A3,3,0,0,0,146.575-21.19Zm2.08-.13q.65,0,.52-.26A.749.749,0,0,0,148.655-21.32Zm-.78.26a.265.265,0,0,1,.2.065.514.514,0,0,0,.325.065.307.307,0,0,0-.26-.325Q147.875-21.32,147.875-21.06Zm-16.77.26q-.13,0-.13-.065t-.26-.065q-.26.26.065.325T131.105-20.8Zm15.73.13q.13.26.195-.065T146.835-20.67Zm-6.5.39Zm2.99.52q-.26.13-.13.13a.115.115,0,0,0,.13-.13,2.277,2.277,0,0,1,.715-.13q.325,0,.325-.52A1.955,1.955,0,0,0,143.325-19.76Zm-.91.39h-.26q0,.13-.065.13t-.065.13q.26-.13.325.13t.325,0q.52.13.325-.065t-.325.065q-.26,0-.26-.39.13,0,.52-.39Q142.415-19.76,142.415-19.37Zm-15.99.65q-.26,0-.26.13Q126.425-18.59,126.425-18.72Zm15.47.26h.26v-.26h-.26Zm-2.21,0v.26h.39v-.39h-.26A.115.115,0,0,1,139.685-18.46Zm-4.29.13v.26h.26a.115.115,0,0,1,.13-.13v-.26h-.26A.115.115,0,0,1,135.4-18.33Zm2.86.52a1.648,1.648,0,0,1-.78.39q-.52.13-.26.39a.882.882,0,0,1,.65-.26q.39,0,.39-.52.39.39.65-.26Q138.255-18.07,138.255-17.81Zm1.17.13q.13.39.13,0T139.425-17.68Zm-.65.39q-.39,0-.39.13Q138.775-17.16,138.775-17.29Zm-15.86.78q.39,0,.39-.26h-.26q0,.13-.065.13T122.915-16.51Zm-1.82.65q.39,0,.39-.26h-.26q0,.13-.065.13T121.1-15.86Zm12.48.26a.466.466,0,0,0,.52-.065q.26-.2,0-.325,0,.26-.39.13T133.575-15.6Zm-3.12,1.43q.78,0,.78-.52A.833.833,0,0,0,130.455-14.17Zm-12.35.52h.26v-.26h-.26Zm11.31.13a.208.208,0,0,1,.13-.195q.13-.065-.13-.195a.208.208,0,0,1-.13.195Q129.155-13.65,129.415-13.52Zm-1.69.65a1.059,1.059,0,0,0,.78-.26,1.154,1.154,0,0,0-.52-.13Q127.725-13.26,127.725-12.87Zm-11.96.26q.26.26.65-.13Q116.025-13.13,115.765-12.61Zm8.97,0H125v-.26h-.26Zm2.21,0v.26q.26.26.325-.065t-.195-.325A.115.115,0,0,1,126.945-12.61Zm-4.16.39a.115.115,0,0,1,.13.13.115.115,0,0,0,.13.13.441.441,0,0,1,.325-.13.713.713,0,0,0,.455-.26Q123.045-12.61,122.785-12.22Zm-7.15-.13q-.26,0-.26.13Q115.635-12.22,115.635-12.35Zm10.27.39q.52,0,.52-.13a.441.441,0,0,0-.325-.13Q125.905-12.22,125.905-11.96Zm-12.09,0q0,.26.13.26t-.13.26q.39.13.52,0l.39-.39Q114.075-12.22,113.815-11.96Zm8.32.52h.26v-.26h-.26Zm-8.71.65q.13-.52-.195-.585a2.32,2.32,0,0,1-.585-.2A.689.689,0,0,0,113.425-10.79Zm5.46.65a.85.85,0,0,0,.39-.39q.13-.26.52,0,0-.65-.26-.65a1.471,1.471,0,0,1-.52.52Q118.625-10.4,118.885-10.14Zm4.94-.78q-.39,0-.39.26.39,0,.39-.26.65,0,.52-.26Q123.825-11.18,123.825-10.92Zm-1.17,0q-.26,0-.26.13Q122.655-10.79,122.655-10.92Zm-2.47.65a.208.208,0,0,1,.13-.195q.13-.065-.13-.195a.208.208,0,0,1-.13.195Q119.925-10.4,120.185-10.27Zm-.26.39q0-.39-.26-.39Q119.665-9.88,119.925-9.88Zm-2.6.78v.26h.39v-.39h-.26A.115.115,0,0,1,117.325-9.1Zm-1.3,1.17q.39,0,.325-.325t.455-.065q0-.26.065-.26t.065-.26h-.52a.416.416,0,0,1-.26.39Q115.9-8.32,116.025-7.93Zm1.17-.39q.13.39.13,0T117.2-8.32Zm-1.69.65a.882.882,0,0,1-.65.26.345.345,0,0,0-.39.39,2.137,2.137,0,0,1,.52.065.54.54,0,0,0,.52-.2v-.52q.26,0,.325-.325t-.195-.325A1.028,1.028,0,0,0,115.505-7.67Zm-5.33-.39v.26h.39v-.39h-.26A.115.115,0,0,1,110.175-8.06Zm7.54-.13q-.26,0-.26.13Q117.715-8.06,117.715-8.19Zm-.39.39q-.65,0-.455.195T117.325-7.8Zm-7.67.39q.13,0,.13.065t.13.065q0-.39-.26-.39Zm.91.52q0-.26.2-.2t.195-.2a.36.36,0,0,0-.455.065Q110.305-7.02,110.565-6.89Zm-.39.39q.13.65-.65.65a.653.653,0,0,0,.715.52q.585,0,.585-.65h-.39a2.258,2.258,0,0,1,.715-.455,1.434,1.434,0,0,0,.715-.715q-.13,0-.13-.065t-.26-.065A1.2,1.2,0,0,1,110.175-6.5Zm3.77-.52q-.13.65.26.26t-.26-.26q-.13-.26-.325-.26t-.2.39q.26,0,.26-.065T113.945-7.02Zm-.78.78q.39,0,.39-.26Q113.035-6.5,113.165-6.24Zm-5.33.65q.39,0,.455-.26a.582.582,0,0,1,.325-.39q-.26.13-.39,0a.53.53,0,0,0-.39-.13.864.864,0,0,1-.065.455Q107.705-5.85,107.835-5.59Zm.91-.13q.39,0,.39-.26h-.26q0,.13-.065.13T108.745-5.72Zm28.73-11.05a.441.441,0,0,0,.325.13q.2,0,.065.26Q137.215-16.12,137.475-16.77Zm-1.43.65h.78l-.78.39Zm-3.12,1.43h.26q0,.26-.65.52,0-.26.2-.26T132.925-14.69ZM130.065-13a.115.115,0,0,1,.13-.13A.115.115,0,0,1,130.065-13Zm-6.76,3.25q0,.39-.52.39Q122.785-9.75,123.305-9.75Zm-14.04,1.17q0,.26-.52.26Q108.745-8.58,109.265-8.58Zm-1.04.52Zm10.53,0h.26v.39h-.39v-.26A.115.115,0,0,0,118.755-8.06Zm-13.91,2.21v-.39a.638.638,0,0,0-.585.325q-.2.325-.455.065a4.676,4.676,0,0,0,.715-.585,3.221,3.221,0,0,1,.845-.585.882.882,0,0,0-.26.65A.524.524,0,0,1,104.845-5.85Zm11.44-1.04q-.26.39-.26.065T116.285-6.89Zm-10.14,0a.115.115,0,0,1-.13.13Q105.885-6.76,106.145-6.89Zm-.78.52a.115.115,0,0,1,.13-.13.115.115,0,0,1,.13.13Zm-.52.52q.13.39-.065.2T104.845-5.85Zm1.43.26q.26.13.13.2a.208.208,0,0,0-.13.2q-.26-.13-.13-.2A.208.208,0,0,0,106.275-5.59Zm.78.65q0,.26-.39.26Q106.665-4.94,107.055-4.94Zm3.51,0q.26,0,.26.39h-.39a.265.265,0,0,1,.065-.195A.265.265,0,0,0,110.565-4.94Zm.52.26q.13-.39.13,0T111.085-4.68Zm-4.68.26q.13-.39.13,0T106.405-4.42Zm.65,0q.26,0,.26.2a.441.441,0,0,1-.13.325q-.26-.13-.195-.2A.514.514,0,0,0,107.055-4.42Zm-1.56.78q0-.13.26-.13Q105.755-3.64,105.5-3.64Z" transform="translate(184.476 81.077)" fill="#d2ccdf"/>
</svg>
