<svg xmlns="http://www.w3.org/2000/svg" xmlns:xlink="http://www.w3.org/1999/xlink" width="360.192" height="156.596" viewBox="0 0 360.192 156.596">
  <defs>
    <linearGradient id="linear-gradient" x1="-0.028" y1="0.594" x2="1.022" y2="0.583" gradientUnits="objectBoundingBox">
      <stop offset="0" stop-color="#633093"/>
      <stop offset="1" stop-color="#1e73bb"/>
    </linearGradient>
  </defs>
  <g id="Group_11909" data-name="Group 11909" transform="translate(-1297.808 -1254.737)">
    <path id="Path_44928" data-name="Path 44928" d="M-123.592-139.015a1.159,1.159,0,0,0-.879.616,2.342,2.342,0,0,1-.528.791q.352.176.7-.44a4.594,4.594,0,0,1,.7-.967,9.6,9.6,0,0,1,.791-.7,9.6,9.6,0,0,0,.791-.7,9.661,9.661,0,0,1-2.286,2.814,8.135,8.135,0,0,0-2.286,3.342q-.7-.352-1.495.44a.879.879,0,0,0,.088,1.495q-.352-.176-.967.264t-.264.967v.352a1.034,1.034,0,0,0,.967-.44,1.477,1.477,0,0,1,.967-.616q0-.352-.176-.44t0-.44q.528.176.44-.264a.5.5,0,0,1,.264-.616q.352.352.528.264a1.711,1.711,0,0,1,.879.088,21.417,21.417,0,0,0-1.583,1.759q-.7.879-1.407,1.935.7.7-.352,1.055a2.266,2.266,0,0,0-1.407,1.055q.352.352.44-.088t.44-.264q-.352.528-.967,1.495t-1.143.44a1.094,1.094,0,0,0-.352.791,1.094,1.094,0,0,1-.352.791h-.352q-.176-.352-.352-.264a.282.282,0,0,0-.176.264q-.176.352,0,.528a.717.717,0,0,1,.176.528,4.347,4.347,0,0,0-1.407,1.319q-.528.791-1.055,1.671,1.055.352,1.759.528a2.116,2.116,0,0,1-1.143.791,2.933,2.933,0,0,0-1.143.616,4.687,4.687,0,0,0,.088,1.055,2.89,2.89,0,0,1,.088.7q-.352.176-.352-.176v-.528q-.352,0-.44.7t.616.528a.787.787,0,0,1-.528.44q-.352.088-.176.791a.155.155,0,0,0-.176.176q-.528,0-.528.176-.176.352,0,.528a.717.717,0,0,1,.176.528q-.879-.528-1.231.879,0,.176.7.528-.352.528-.616.352a1.327,1.327,0,0,1-.44-.528,12.288,12.288,0,0,0-1.407,1.583q-.879-.528-1.055.176a.488.488,0,0,1,.616.088,2.126,2.126,0,0,0,.967.44,3.674,3.674,0,0,0-.176.616v.616q-.528-.352-.616.088a.822.822,0,0,1-.44.616v.176h.352q-.7.879-1.407,1.935a5.084,5.084,0,0,1-1.583,1.583q0,.176.264.264t.088.44a1.5,1.5,0,0,0-1.671,1.231A2.382,2.382,0,0,1-146.1-100.5q0,.176.528.176-.879,1.759-2.023,3.605a10.849,10.849,0,0,0-1.495,3.781q-.352.176-.352.088t-.352-.088V-91.7a4.053,4.053,0,0,1-.352,1.407q-.352,0-.352-.176t-.352-.176q-.352-.176-.264.7t-.088,0q-.528.352-.088.616t.088.616q-.352-.352-.528-.264l-.528.264a.837.837,0,0,0,.528,1.231.624.624,0,0,1-.528.088q-.176-.088-.528.264a4.575,4.575,0,0,1-.176,1.407,12.168,12.168,0,0,0-.352,1.407q-1.407-.176-1.231.967a2.026,2.026,0,0,1-.528,1.847,1.043,1.043,0,0,0-1.495.879,3.782,3.782,0,0,1-.967,1.935q0,.352.176-.088t.352.088q.176.528-.264.528a.858.858,0,0,1-.616-.176q-.176.352.528.7a2.208,2.208,0,0,0-.528.879,4.44,4.44,0,0,1-.528,1.055,1.169,1.169,0,0,1-.616-.088q-.088-.088-.264.264,0,.176.528.176a1.084,1.084,0,0,1-.176.616.912.912,0,0,0,0,.791,2.145,2.145,0,0,0-1.407,1.935,2.15,2.15,0,0,1-1.231,1.935,1.53,1.53,0,0,1-.176,1.583.95.95,0,0,1-1.407.176,3.437,3.437,0,0,1,.264.7q.088.352.264.879a3.525,3.525,0,0,0-1.055,1.847,1.662,1.662,0,0,1-1.231,1.319.58.58,0,0,0,0,.616q.176.264-.352.264.352.176.176.616t-.7.264a2.85,2.85,0,0,1-.088,1.583,5.709,5.709,0,0,1-.7,1.319,14.477,14.477,0,0,0-.791,1.231,2.1,2.1,0,0,0-.176,1.495,7.639,7.639,0,0,0-1.495,2.2,9.086,9.086,0,0,0-.791,2.55q-.352,0-.352-.176t-.352-.176v.879q-.528-.176-1.143.528a2.342,2.342,0,0,0-.616,1.583,6.653,6.653,0,0,0-2.111,1.407q0,.352.352,0,.352.352-.264.528a.919.919,0,0,1-.967-.176,1.38,1.38,0,0,0-.967.7q-.264.528-1.143.176a.682.682,0,0,0,.791.176,1.422,1.422,0,0,1,1.143.176,2.423,2.423,0,0,1-1.407.264,1.757,1.757,0,0,1-1.055-.44,9.237,9.237,0,0,1-2.55.352,5.956,5.956,0,0,0-2.2.352,8.913,8.913,0,0,0-3.693-.264,16.757,16.757,0,0,1-3.869.088,10.868,10.868,0,0,0-1.847-1.495,2.214,2.214,0,0,1-.967-2.023,1.732,1.732,0,0,1-.44-.616.406.406,0,0,0-.44-.264,6.014,6.014,0,0,0-.528-2.55,8.594,8.594,0,0,1-.7-2.55.58.58,0,0,1,0-.616,1.084,1.084,0,0,0,.176-.616q-.352-1.583-.528-2.99a25.712,25.712,0,0,1-.176-3.166q-.176-5.1-.088-10.113t.616-9.585q-1.055,0-1.055.352t.352,0q.352-.352.352.352-1.231-.176-1.231.879a1.418,1.418,0,0,1-.7,1.407q0,.352.176.088t.528-.088a2.608,2.608,0,0,0-1.583,2.023,1.877,1.877,0,0,1-1.055,1.671q-.176.352.088.528a.592.592,0,0,1,.264.528,1.574,1.574,0,0,1-1.055.879,1.2,1.2,0,0,0-.879,1.055q.528-.352.44.264a1.654,1.654,0,0,1-.44.967q-.352-.176-.088-.352t.088-.528q-.879,1.583-1.671,2.9a5.535,5.535,0,0,0-.791,2.9q-.7,0-.352-.528a10.857,10.857,0,0,0-1.231,1.935,5.44,5.44,0,0,0-.528,2.462q-.352-.352-.352-.176t-.352.352a2.338,2.338,0,0,1,.176,1.231q-.352.352-.352.088t-.352-.264a1.088,1.088,0,0,1-.352,1.231q-.528.352-.176,1.231h-.528a23.677,23.677,0,0,0-1.759,4.133,12.1,12.1,0,0,1-1.935,3.781,1.142,1.142,0,0,1,.352-.967,1.142,1.142,0,0,0,.352-.967,3.326,3.326,0,0,0-1.583,2.638,3.485,3.485,0,0,1-1.407,2.638q.352.879.088,1.143a3.947,3.947,0,0,0-.616.967q-.528-.352-.088-.967t.088-.967a2.819,2.819,0,0,0-.791,1.847,2.514,2.514,0,0,1-.967,1.847,1.255,1.255,0,0,1,.176-1.143.532.532,0,0,0,0-.791q-.528-.352-.44.176t-.264.352q-.352-.352-.176-.352t.352-.352q-.7-.176-.791.264a3.139,3.139,0,0,1-.264.791,1.084,1.084,0,0,1-.616-.176q-.264-.176-.088.352-.7-.176-.264-.528t.088-.7q-.528,0-.44.616t-.44.44a1.668,1.668,0,0,1,.088-1.583,5.008,5.008,0,0,0,.616-1.935,1.864,1.864,0,0,0-.791,1.319,1.775,1.775,0,0,1-.967,1.319q-.528-.352-.088-.791t.088-.616a.747.747,0,0,0-.528.791,1.307,1.307,0,0,1-.352.967q-.352-.879-.088-1.143a2.126,2.126,0,0,0,.44-.967,1.161,1.161,0,0,0-.879.967q-.176.791-1.055.44a1.094,1.094,0,0,0-.352.791.63.63,0,0,1-.352.616,3.719,3.719,0,0,1,.352-2.2,2.507,2.507,0,0,0,.176-2.023q-1.407.528-.7,1.583-.528-.528-.528-.088t-.352.44a1.477,1.477,0,0,0-.088-1.143q-.264-.44.44-.44-.176-.352-.352-.352t-.176-.352a7.6,7.6,0,0,0,.616-2.462,2.6,2.6,0,0,1,.967-1.935q0-.352-.176-.44t0-.264q2.462-5.98,4.837-11.344a85.288,85.288,0,0,1,5.54-10.465,34.836,34.836,0,0,1,1.847-4.133q1.143-2.2,2.374-4.133a77.8,77.8,0,0,1,3.869-8q2.111-3.781,4.045-7.826,1.935-2.99,3.781-5.98a29.907,29.907,0,0,1,4.309-5.452q.7.176,1.583.352.176,0,.088-.264a.4.4,0,0,1,.088-.44,1.822,1.822,0,0,0,1.759-.176,1.621,1.621,0,0,0,1.407.352q.7-.176,1.583.7a.563.563,0,0,0,.528-.352q.176-.352.879-.176-.176.879.7.791a2.107,2.107,0,0,1,1.407.264q-.528.7.088.7a1.307,1.307,0,0,1,.967.352.575.575,0,0,0-.176.7q0-.176.528.352a4.078,4.078,0,0,0-.088,1.407q.088.528.264,1.407a1.511,1.511,0,0,0-.879,1.583,7.189,7.189,0,0,0,.352,2.286q.352,6.683.264,13.806t-.264,13.279a2.7,2.7,0,0,0-.352,1.055v11.96q.7.528.352,2.111-.176.352.176.44t.176.616q3.869-6.507,7.475-13.1t7.3-13.191q3.693-6.6,7.563-12.927a124.444,124.444,0,0,1,8.442-12.135q-.176-.352,0-.44t.176-.44q3.518-4.221,6.683-8.354t6.683-8.53a6.906,6.906,0,0,0,2.2-2.111,6.906,6.906,0,0,1,2.2-2.111,1.35,1.35,0,0,0,.176-.528.507.507,0,0,1,.176-.352,2.046,2.046,0,0,0,.528-.352.717.717,0,0,1,.528-.176,19.343,19.343,0,0,1,3.43-3.869,27.382,27.382,0,0,0,3.43-3.517,1.453,1.453,0,0,0,1.319-.7.794.794,0,0,1,1.143-.352,3.062,3.062,0,0,1-.967,1.143A2.032,2.032,0,0,0-123.592-139.015Zm-4.045,4.4h.352v-.352h-.352Zm-5.8,11.432q-.352,0-.088.264t.088-.264q.352-.176.088-.352T-133.441-123.186Zm-.879.879q.352,0,.352-.176a.507.507,0,0,1,.176-.352q-.352-.176-.352.088A.6.6,0,0,1-134.32-122.307Zm-1.583,2.462q0,1.231.352,1.231v-.967a7.408,7.408,0,0,1,.176-1.319q-.528.176-.616.44a1.732,1.732,0,0,1-.44.616Zm-1.231,4.4q.352.176.352-.352t-.176-.352A.575.575,0,0,0-137.134-115.447Zm-1.055.352q.528,0,.528-.7Q-138.893-115.8-138.19-115.1Zm0,1.407q.352.176.352-.352t-.176-.352A.575.575,0,0,0-138.19-113.689Zm-1.935,1.055q.352.176.616-.264t-.088-.44q-.176.352-.352.352T-140.124-112.633Zm.528,1.055a.992.992,0,0,0,.088-.7q-.088-.352-.44-.176Q-140.476-111.578-139.6-111.578Zm-1.935.352v.352h.352a.155.155,0,0,1,.176-.176v-.352h-.352Zm1.231.176q.176.528.176,0T-140.3-111.051Zm-.879,2.286q.176,0,.176.264t.352.264v-.7a.466.466,0,0,0,.528-.528h-.528a.311.311,0,0,1-.352.352Q-141.355-109.116-141.179-108.764Zm-2.286,2.638a.742.742,0,0,1,.44-.616q.44-.264.088-.616a1.745,1.745,0,0,0-.616.528A.487.487,0,0,0-143.466-106.126Zm1.055-.176q-.7-.176-.44.088t.44-.088q0-.176.528-.176,0-.7-.352-.7,0,.176-.176.088t-.176.088q-.176.176,0,.264T-142.411-106.3Zm-.528.7v.352q.352.176.44-.264t-.264-.264Zm-.352.879q.176.528.176,0T-143.29-104.719Zm-38.693,21.105a1.2,1.2,0,0,1-.088-.791q.088-.44-.264-.264a4.075,4.075,0,0,1-.088.791Q-182.51-83.438-181.982-83.614Zm-13.367.528q.176.352.264-.088T-195.349-83.086Zm-2.462.7h.352v-.352h-.352Zm-1.759,1.231q-.352,0-.352.176,0-.176.176-.088T-199.57-81.152Zm17.06,1.407h.352V-80.1h-.352Zm.352.352q-.352,0-.352.176,0-.176.176-.088T-182.158-79.393Zm23.567,2.462q.176.528.176,0T-158.591-76.931Zm-24.271,1.759q.528.176.528-.791t-.352-.967a1.6,1.6,0,0,1,.088.879Q-182.686-75.7-182.862-75.172Zm-17.06-.352a.8.8,0,0,1-.088-.616q.088-.264-.264-.088A.709.709,0,0,0-199.922-75.524Zm0,1.407q.176.528.176,0T-199.922-74.117Zm17.588.352q-.352,0-.352.176,0-.176.176-.088T-182.334-73.765Zm-.176.7q-.352,0-.352.176,0-.176.176-.088T-182.51-73.062Zm-19.346.7h.352v-.352h-.352Zm.176.528a.282.282,0,0,0-.176-.264q-.176-.088-.176.264Zm19.17,0q-.352,0-.352.176,0-.176.176-.088T-182.51-71.83Zm0,1.231q0-.7-.528-.528-.176.352.088.352A.6.6,0,0,1-182.51-70.6Zm20.4.7a.844.844,0,0,1,.264-.616q.264-.264-.088-.44a2.046,2.046,0,0,0-.352.528A.348.348,0,0,0-162.109-69.9Zm-40.979.176q.528,0,.528-.7Q-203.087-70.6-203.087-69.72Zm20.226.352q.352.176.352-.352t-.352-.176Zm-23.215,1.055h.352q.176-.352-.264-.44t-.264.264A.155.155,0,0,1-206.077-68.313Zm2.111.176h.352v-.352h-.352Zm-6.507.176h.352v-.352h-.352Zm5.8.7q.176.352.352,0t-.176-.352q0,.176-.088.176T-204.67-67.258Zm21.984,1.231v-.528q0-.528-.352-.528a.487.487,0,0,1,.088.7Q-183.214-66.027-182.686-66.027Zm-23.04-.879q-.352,0-.352.176,0-.176.176-.088T-205.726-66.906Zm.7,1.231a.855.855,0,0,1,.176-.44q.176-.264-.176-.264-.176,0-.264.352T-205.022-65.675Zm40.275.352q.879.352.879-.7Q-164.395-66.027-164.747-65.323Zm-41.507-.176q-.352,0-.352.176,0-.176.176-.088T-206.253-65.5Zm-.7.7q.352.528.264,0T-206.957-64.8Zm.879.7q.176,0,.528-.7Q-206.077-64.971-206.077-64.092Zm23.567-.176q-.352-.176-.264-.352a.282.282,0,0,1,.264-.176q-.7-.352-.528.352T-182.51-64.268Zm-.528,1.407h.352v-.352h-.352Zm-30.075.879v-.528Q-213.464-62.157-213.112-61.981Zm46.607,1.055q-.176-.352.264-.791t.088-.791a4.612,4.612,0,0,1-.528.791Q-167.033-61.278-166.505-60.926Zm-16.356.7q.528,0,.44-.7t-.44-.7A1.476,1.476,0,0,1-182.862-60.223Zm-24.974.7a.282.282,0,0,0-.176-.264q-.176-.088-.176.264Zm25.326,1.055q.352.176.352-.352t-.352-.176Zm-26.381.176q.176,0,.528-.352Q-208.891-58.64-208.891-58.288Zm-.176.7h.352v-.352h-.352Zm-1.055,2.638q-.352,0-.176.088t.176-.088a4.594,4.594,0,0,0,.7-.967,1.016,1.016,0,0,0,0-1.143,4.42,4.42,0,0,1-.616,1.143Q-210.474-55.3-210.122-54.946Zm-.528-.879a.155.155,0,0,1,.176-.176q-.176-.528-.352-.352Q-210.826-55.826-210.65-55.826Zm-7.211.7h.352v-.352h-.352Zm6.507.879q-.176-.352.088-.528t-.088-.352a.406.406,0,0,1-.264.44Q-211.881-54.595-211.354-54.243Zm1.055.352q0-.528-.352-.528Q-210.65-53.891-210.3-53.891Zm-10.728,0h.352v-.352h-.352Zm49.773.352q.176.352.264-.088T-171.254-53.539Zm-47.135.7q-.352,0-.352.176,0-.176.176-.088T-218.389-52.836Zm47.486.352h.352v-.352h-.352Zm.176,1.055q-.352-.7-.176-.7Q-171.606-51.781-170.726-51.429Zm-51.883,1.055a.787.787,0,0,0,.44-.528,1.556,1.556,0,0,1,.44-.7q-.7-.176-.7.352A1.958,1.958,0,0,1-222.61-50.374Zm5.276-1.055q-.352,0-.352.176,0-.176.176-.088T-217.333-51.429Zm45.728.528q.352,0,.352-.176a.507.507,0,0,1,.176-.352Q-171.958-51.429-171.606-50.9Zm-48.014.528a.592.592,0,0,0,.528-.264q.176-.264,0-.44Q-219.62-51.253-219.62-50.374Zm7.035-.7q-.352,0-.352.176,0-.176.176-.088T-212.585-51.077Zm39.22.352v.352h.528V-50.9h-.352Zm-39.748.176q.176.528.176,0T-213.112-50.55Zm-4.573.352q-.352,0-.352.176,0-.176.176-.088T-217.685-50.2Zm45.728,0q-.352,0-.352.176,0-.176.176-.088T-171.958-50.2Zm-51.531.528q.176-.176.528,0t.352-.176Q-223.489-50.725-223.489-49.67Zm3.518,1.407a2.165,2.165,0,0,1,.352-.967q.352-.616-.176-.616.176.352-.352.879T-219.971-48.263Zm6.507-1.231q.528,0,.528-.352h-.352q0,.176-.088.176T-213.464-49.494Zm40.451.176q-.7,0-.44.264t.44-.264q.528,0,.264-.264T-173.013-49.318Zm-48.542,0q-.352,0-.352.176,0-.176.176-.088T-221.554-49.318Zm-.7,1.935q0-.352.176-.44t.176-.44q-.352-.176-.528.264T-222.258-47.384Zm1.935-.176h.352v-.352h-.352Zm-2.11,1.407a.488.488,0,0,1,.088-.616q.264-.264-.088-.44a5.747,5.747,0,0,1-.352.616Q-222.961-46.329-222.434-46.153Zm5.98,0a.466.466,0,0,0-.528-.528Q-217.333-46.153-216.454-46.153Zm.528,0a.348.348,0,0,0,.528-.176q.176-.352-.176-.352a.507.507,0,0,1-.352.176Q-216.1-46.5-215.926-46.153Zm89.7-88.113q.176-.528.176,0T-126.23-134.266Zm-2.99,3.166q-.176-.352,0-.264T-129.22-131.1Zm0,4.573q-.176-.352,0-.44a.952.952,0,0,0,.352-.44.348.348,0,0,1,.176.528A.563.563,0,0,1-129.22-126.528Zm0,0q-.352.7-.7.7A.622.622,0,0,1-129.22-126.528Zm-3.166,2.286v.176a.155.155,0,0,0,.176.176q-.176.352-.352,0T-132.386-124.241Zm-.352,1.759q.7.176.264.616t-.264.791l-1.055-.352a.542.542,0,0,1,.44-.616A.822.822,0,0,0-132.737-122.482Zm-.879,1.407a.8.8,0,0,0-.44.44.406.406,0,0,1-.44.264Q-134.144-121.075-133.617-121.075Zm.879.7q-.176-.352,0-.264T-132.737-120.372Zm0,0q.176.528-.088.264T-132.737-120.372Zm-3.166.528q0-.176.176,0Zm1.055,1.407q.528.176.176,1.055a.717.717,0,0,0-.528-.176q-.176-.352,0-.44A.952.952,0,0,0-134.848-118.437Zm-1.583,3.693q.176,0,.176.088t.176.088v.352q-.528,0-.528.352-.352-.176-.088-.264t.088-.44A.155.155,0,0,0-136.431-114.744Zm-60.149,34.3q.176-.176.176,0t.352.176a.507.507,0,0,0-.176.352h-.352Zm-7.563,15.125q-.352.7-.528.7Q-204.67-65.5-204.143-65.323Zm-7.211,14.949a1.157,1.157,0,0,0-.264.879q.088.352-.616.7a6.942,6.942,0,0,0,.264-1.055A.564.564,0,0,1-211.354-50.374Zm36.406,4.045h-.7q-.176-.528.264-.528T-174.947-46.329Zm-49.949.352h.352v.352h-.352Zm2.11,1.583q0-.352.176-.264a.282.282,0,0,1,.176.264Zm145.449-87.762q0-.7.352-.528v.352a.155.155,0,0,0-.176.176Zm-.352.176q-.352-.176-.088-.44T-77.688-131.98Zm.352-.176a.666.666,0,0,0-.088.616q.088.44-.264.264v-.7q.176,0,.176-.088T-77.337-132.156Zm-1.055,4.4q-.176,0-.176.528a.717.717,0,0,0,.176-.528,1.093,1.093,0,0,0,.352-.791,1.094,1.094,0,0,1,.352-.791q.528.352.352.7a.574.574,0,0,0,.176.7q-.352.176-.352,0t-.352,0a6.2,6.2,0,0,1-.7,4.133,12.036,12.036,0,0,0-1.407,4.309,1.671,1.671,0,0,0,.7-1.407q1.055,0,.967-.7a12.855,12.855,0,0,1-.088-1.583q.352-.176.352.264t.528.264q-.176-.7-.264-.7t-.088-.528q.352-.352.528-.088t.7-.264a25.673,25.673,0,0,1-1.407,3.869,17.058,17.058,0,0,0-1.231,3.693.847.847,0,0,0,.616-.7q.088-.528.791-.352a76.113,76.113,0,0,1-2.99,8.178q-1.583,3.605-3.518,7.475.879,0,.967-.7a1.757,1.757,0,0,1,.44-1.055q.528.352-.088,1.055t-.967,1.055a14.5,14.5,0,0,1-2.286,4.221,15.1,15.1,0,0,0-2.286,4.045q.176.352.352-.176t.352,0a.953.953,0,0,1-.44.7q-.44.352-.616,0a.488.488,0,0,0,.088.616.728.728,0,0,1,.088.791,21.848,21.848,0,0,1-3.078,4.837,15.168,15.168,0,0,0-2.726,4.661,2.269,2.269,0,0,0-.967.791,4.4,4.4,0,0,0-.44,1.055,4.057,4.057,0,0,1-.528,1.143,1.707,1.707,0,0,1-1.055.7q-.7,1.407-1.407,2.726t-1.407,2.726q-.352-.528-.528-.352a1.115,1.115,0,0,0-.264.528,3.437,3.437,0,0,1-.264.7q-.176.352-.528,0a6.96,6.96,0,0,1-.967,3.166,17.28,17.28,0,0,1-1.847,2.374q-1.055,1.143-2.111,2.2a8.648,8.648,0,0,0-1.759,2.638q-2.99,2.814-5.716,5.892a21.033,21.033,0,0,1-6.771,5.012q-.176,0-.528.7a17.4,17.4,0,0,1-2.638.879,4.8,4.8,0,0,0-2.286,1.231,1.211,1.211,0,0,0-1.231-.44,2.013,2.013,0,0,0-1.231.44,27.614,27.614,0,0,1-4.837-1.143q-2.374-.791-4.837-1.671.176-.352-.088-.352t-.264-.352a2.7,2.7,0,0,0-1.055.352q0-.528-.352-.528a.311.311,0,0,1-.352-.352,2.756,2.756,0,0,0-.528.7q-.352-.176-.264-.264a.7.7,0,0,0,.088-.44,6.215,6.215,0,0,1-2.462-3.869,22.357,22.357,0,0,1-.44-5.364,34.345,34.345,0,0,1,.7-5.892q.616-2.99,1.143-5.452.352-1.759.616-3.342t.616-3.166a17.184,17.184,0,0,1,1.055-3.605,34.022,34.022,0,0,0,1.231-3.43,19.386,19.386,0,0,0,.528-2.374,13.366,13.366,0,0,1,.528-2.2,4.62,4.62,0,0,1,.44-.7,4.621,4.621,0,0,0,.44-.7,1.2,1.2,0,0,0,.088-.791,1.2,1.2,0,0,1,.088-.791,2.348,2.348,0,0,1,.44-.616,2.348,2.348,0,0,0,.44-.616q.7-1.759,1.143-3.078a20.883,20.883,0,0,1,1.143-2.726q1.231-2.462,2.462-4.661a41.453,41.453,0,0,1,2.638-4.133q.176,0,.528.352a2.7,2.7,0,0,1,2.111-1.407,9.723,9.723,0,0,0,2.638-.7,1.26,1.26,0,0,1,1.231.7,1.418,1.418,0,0,0,1.407.7.965.965,0,0,1,.352.616.965.965,0,0,0,.352.616,7.4,7.4,0,0,1,3.518,1.935l2.814,2.814a4.576,4.576,0,0,1-.176,1.407,1.985,1.985,0,0,0-1.407.176.975.975,0,0,1-1.231-.176A23.446,23.446,0,0,0-120.25-97.6a37.612,37.612,0,0,0-2.726,5.8q-1.143,3.078-2.2,6.332t-2.286,6.419q-.352,0-.264-.352t-.264-.352l-.879,1.759a1.291,1.291,0,0,0,.352,1.759.791.791,0,0,1-.264.7A4.263,4.263,0,0,0-129.4-75a3.033,3.033,0,0,1,.44.879,3.243,3.243,0,0,1-.088,1.231h-.7q-.352,0-.264.352t-.264.352a3.574,3.574,0,0,1-.528,2.638,3.479,3.479,0,0,0-.352,2.814,9.566,9.566,0,0,0-.879,4.309,7.325,7.325,0,0,1-1.055,4.133q.176-1.055.264-2.374t.088-2.023q-.7,0-.616.7a1.016,1.016,0,0,1-.44,1.055,1.2,1.2,0,0,1,.264,1.583,4.787,4.787,0,0,0-.264,2.462q.7.176.7-1.055.352,0,.352.7a34.235,34.235,0,0,0,9.849-8.442,112.741,112.741,0,0,1,8.618-9.673q-.176-.352.088-.44t.088-.44a67.2,67.2,0,0,0,4.924-5.892q2.286-3.078,4.749-6.068a18.916,18.916,0,0,1,2.726-4.749,20.079,20.079,0,0,0,2.726-4.573,173.124,173.124,0,0,0,10.553-17.763,2.314,2.314,0,0,0,1.407-2.023,2.38,2.38,0,0,1,1.231-2.023,4.713,4.713,0,0,1,.879-2.462,5.908,5.908,0,0,0,1.055-2.286,1.707,1.707,0,0,0,1.055-.7A3.908,3.908,0,0,0-82.261-126a6.021,6.021,0,0,1,.44-1.231,1.151,1.151,0,0,1,1.143-.528v-1.055q.528-.176.7.176a1.15,1.15,0,0,0,.528.528,1.73,1.73,0,0,0,.791-1.759q-.088-1.231.791-1.407a1.127,1.127,0,0,1-.088,1.495A2.571,2.571,0,0,0-78.392-127.759Zm-2.111.528q.352.176.352-.352t-.352-.176Zm.352,1.231a.592.592,0,0,1,.264-.528.592.592,0,0,0,.264-.528.953.953,0,0,0-.7.44Q-80.678-126.176-80.151-126Zm-.528,1.231h.352v-.7h-.352Zm-9.5,34.3h.528q0-.7-.352-.7a.282.282,0,0,1-.176.264Q-90.352-90.825-90.176-90.473Zm-1.055,1.407q.7,0,.7-.352Q-91.231-89.77-91.231-89.066Zm-2.638,4.749q0-.352.088-.352t.088-.352h-.528A.709.709,0,0,0-93.869-84.318Zm-1.231,2.11q-.352-.352-.088-.616t-.264-.264v.616Q-95.452-82.031-95.1-82.207Zm-3.518,4.573h.352q0-.352.088-.352t.088-.176h-.528ZM-130.275-75.7h.352v-.352h-.352Zm1.055-.352q-.352.352.088.352T-129.22-76.051Zm28.14,1.935q.528.176.528-.176a1.561,1.561,0,0,1,.176-.7Q-101.08-75.172-101.08-74.117Zm-28.492-.176q-.352.352.088.352T-129.572-74.293Zm-.879,1.055q0-.528-.352-.528Q-130.8-73.237-130.451-73.237Zm.528,0h.352v-.352h-.352Zm28.316-.176q.176.352.264-.088T-101.607-73.413ZM-131.155-70.6q-.176-.352.176-.44t.176-.44q-.352-.176-.528.264T-131.155-70.6Zm-.7,1.935a.564.564,0,0,0,.616-.528,3.125,3.125,0,0,1,.264-.879.8.8,0,0,0-.879-.176,3.7,3.7,0,0,1-.088.879A.992.992,0,0,0-131.858-68.665Zm-.7,2.638q.352,0,.352.176t.352.176q.176-.879.264-1.583t-.44-.7a1.706,1.706,0,0,0-.264,1.055A1.157,1.157,0,0,1-132.562-66.027Zm.352,1.231q0-.7-.352-.7A.709.709,0,0,0-132.21-64.8Zm-.7.528a1.225,1.225,0,0,0,.088.528,1.1,1.1,0,0,1-.088.7q.7,0,.7-1.407-.352-.176-.352,0T-132.913-64.268Zm24.623.352q0-.352.176-.44t-.176-.088a.282.282,0,0,1-.176.264Q-108.643-64.092-108.291-63.916Zm-1.231,2.286q-.176-.879.44-.967t.616-.967a3.866,3.866,0,0,0-1.231.791Q-110.4-62.157-109.522-61.63Zm-2.111,1.759q.176.528.176,0T-111.632-59.871Zm-22.336.528q-.352,0-.352.176Q-133.969-59.519-133.969-59.343Zm21.281.528q.176.528.176,0T-112.688-58.816Zm-1.231,1.583q0-.176.264-.352t-.088-.352q0,.176-.264.352T-113.919-57.233Zm-1.055.879q-.352,0-.352.176Q-114.974-56.529-114.974-56.353Zm-1.055.879q.352.352.264-.088T-116.029-55.474Zm-1.935,2.286a2.035,2.035,0,0,1,.264-.44,2.035,2.035,0,0,0,.264-.44.451.451,0,0,0-.616.176A.487.487,0,0,0-117.964-53.188Zm-2.286,1.407q0-.176.7-.176,0-.7-.7-.528.176.176-.088.352T-120.25-51.781Zm-1.055.879a.952.952,0,0,1,.352-.44.952.952,0,0,0,.352-.44.7.7,0,0,1-.44-.088.358.358,0,0,0-.264-.088.787.787,0,0,0-.44.528Q-121.833-51.077-121.306-50.9Zm-.879.176h.352v-.352h-.352Zm44.672-79.144q0-.352.352-.176a.348.348,0,0,1,.176.528q-.352,0-.352-.176A.155.155,0,0,0-77.513-129.869Zm1.231.352q.352,0,.352.528Q-76.281-128.99-76.281-129.517Zm.176,1.231q-.352.352-.528.352Q-76.809-128.286-76.106-128.286Zm-.7.879h.352v.352h-.352Zm.176,2.286q.528,0,.176.7Q-76.985-124.769-76.633-125.121Zm-2.462,3.342h.352v.352H-79.1Zm-2.638,15.829q.7.176.264.616a3.235,3.235,0,0,1-.791.616q-.176-.7.176-.791A.416.416,0,0,0-81.734-105.95Zm-4.4,9.5q.176-.528.176,0T-86.13-96.453Zm-42.21,18.819q.528,0,.528.7h-.7q-.176-.352,0-.44A.282.282,0,0,0-128.341-77.634Zm-12.487,26.381v-.176q.7-.176,0,.352T-140.828-51.253Zm.7.176q0,.528-.352.528V-50.9l.176-.176ZM-28.443-96.629a1.184,1.184,0,0,0,1.055-.528q-.176-.176-.616,0t-.44.528h-.528q.879-.7,1.671-1.319a11.048,11.048,0,0,1,1.847-1.143.58.58,0,0,1,0-.616,1.439,1.439,0,0,0,.176-.791,13.847,13.847,0,0,0,3.957-3.254,48.885,48.885,0,0,0,3.078-4.309,3.3,3.3,0,0,0-1.495-.352h-1.671a.311.311,0,0,1-.352-.352q-4.045.352-7.914.791a79.552,79.552,0,0,0-7.914,1.319,1.433,1.433,0,0,1-1.055.352,1.433,1.433,0,0,0-1.055.352,76.328,76.328,0,0,0-14.07,4.221,24.893,24.893,0,0,0-3.605,1.143,15.141,15.141,0,0,0-3.254,1.671,8.735,8.735,0,0,0,.967,1.759,2.231,2.231,0,0,1,.44,1.759q-2.462,2.814-5.1,5.364t-5.1,5.364a.487.487,0,0,0,.7.088.761.761,0,0,0,.352-.616q5.452-1.055,9.321-1.583t8.442-1.055a48.979,48.979,0,0,1,5.716-.352,15.309,15.309,0,0,1,5.188.879q.352.176.264-.088t.264-.44q.528,0,.264.264a.488.488,0,0,0-.088.616q.879,0,2.023.088a17.1,17.1,0,0,1,2.023.264q0,.7-.528.352a3.431,3.431,0,0,0,1.847.791,7.393,7.393,0,0,1,2.2.616q-.176.528.44,1.055a3.218,3.218,0,0,0,1.319.7A6.539,6.539,0,0,1-29.5-81.5a1.247,1.247,0,0,0,.879,1.231q-.352.7,0,1.055a1.049,1.049,0,0,1,.176,1.055q-.7-.352-.7,1.055a72.541,72.541,0,0,0-22.248.264,211.3,211.3,0,0,0-21.193,4.661,7.086,7.086,0,0,1-.7,2.111q0,.352.528,0t.352.176q-.7.176-.528.528l.352.7A25.871,25.871,0,0,1-78.3-65.5a51.152,51.152,0,0,1-6.6,2.111.8.8,0,0,0-.088.616q.088.264-.264.44a2.616,2.616,0,0,0-1.319.264,1.884,1.884,0,0,1-1.319.088,2.388,2.388,0,0,0-1.495-1.671A2.934,2.934,0,0,1-91.055-65.5a2.277,2.277,0,0,0-.352-1.583,2.293,2.293,0,0,1-.176-1.935,2.731,2.731,0,0,1-.528-2.814q.528-1.583.879-2.99A187.348,187.348,0,0,1-78.392-90.3a4.621,4.621,0,0,1-.7-.44,3.081,3.081,0,0,0-.879-.44,11.818,11.818,0,0,1-.616-2.99,8.4,8.4,0,0,0-.967-3.166,3.6,3.6,0,0,0,.176-1.143,1.073,1.073,0,0,0-.7-.967,4.389,4.389,0,0,1,.967-1.495,4.208,4.208,0,0,0,.967-1.847,191.89,191.89,0,0,1,26.205-11.608,111.3,111.3,0,0,1,28.14-5.98.952.952,0,0,1,.44.352q.088.176.44.176a2.05,2.05,0,0,1,1.671-.44,3.593,3.593,0,0,1,1.671.44q.352-.176.352-.264t.352-.264a.311.311,0,0,1,.352.352q0,.352.352.176a6.291,6.291,0,0,1,3.254.44,5.707,5.707,0,0,0,2.374.616.709.709,0,0,1,.352.7,5.45,5.45,0,0,1,2.9,2.286,11.752,11.752,0,0,1,1.407,3.43,20.522,20.522,0,0,1,.528,3.869q.088,2.023.264,3.605a1.775,1.775,0,0,1-.791,1.583,1.618,1.618,0,0,0-.791,1.407h-.528a5.559,5.559,0,0,1-2.2,1.847,6.263,6.263,0,0,0-2.2,1.671,24.866,24.866,0,0,0-3.43,1.055q-1.847.7-3.254,1.407a2.872,2.872,0,0,0-2.55.616,5.807,5.807,0,0,1-2.726,1.143.962.962,0,0,1,.791-.44q.616-.088.44-.967-.352-.352-.616.176t-1.143.176a1.732,1.732,0,0,1,.616-.44,1.732,1.732,0,0,0,.616-.44,6.1,6.1,0,0,0-2.462,1.231,6.1,6.1,0,0,1-2.462,1.231A2.388,2.388,0,0,1-30.29-95.31,4.273,4.273,0,0,0-28.443-96.629Zm2.814-23.391q-.352.352-.352.176Q-25.629-119.844-25.629-120.02Zm-.879,22.16q-.528-.176-.264.088t.264-.088q.352,0,.176-.088T-26.509-97.86Zm.352,2.462q.879,0,.879-.7h-.528A1.013,1.013,0,0,1-26.157-95.4Zm.352-4.221q.176.528-.088.44t-.44.264q-.352-.176-.088-.44A.844.844,0,0,1-25.805-99.619Zm-.879.7q0,.7-.7.352Zm-2.286,2.286a28.819,28.819,0,0,1-3.254,2.2A22.579,22.579,0,0,1-35.83-92.76q1.583-1.055,3.254-2.023T-28.971-96.629Zm2.11,1.407q.176-.528.176,0T-26.861-95.222Zm-2.814,1.407a4.264,4.264,0,0,0-.528.616q-.176.264-.879.088a4.547,4.547,0,0,1,1.231-1.143,9.96,9.96,0,0,1,1.583-.791q0,.7-.528.791A1.575,1.575,0,0,0-29.675-93.815Zm-7.387,2.99a6.263,6.263,0,0,1,2.2-1.671q1.319-.616,2.726-1.319a3.932,3.932,0,0,1-2.111,1.759A29.294,29.294,0,0,0-37.061-90.825Zm7.387-2.99.352.352h-.352Zm1.759.176a37.078,37.078,0,0,1-3.518,2.286,12.554,12.554,0,0,1-4.045,1.583,1.682,1.682,0,0,1,.967-.7,1.571,1.571,0,0,0,.967-.879,1.6,1.6,0,0,0,1.231-.176,9.24,9.24,0,0,0,1.407-.879,7.692,7.692,0,0,1,1.495-.879A3.689,3.689,0,0,1-27.916-93.639Zm-3.869.528q.528,0,.528.352h-.528Zm-4.045.352A3.3,3.3,0,0,1-37.149-91.7q-.791.352-1.671.7A3.3,3.3,0,0,1-37.5-92.056Q-36.71-92.408-35.83-92.76Zm1.407,1.407a2.11,2.11,0,0,1,1.055-.791,6.029,6.029,0,0,0,1.231-.616,1.571,1.571,0,0,1-.967.879A7.721,7.721,0,0,0-34.423-91.353Zm0,0q0,.528-.264.264T-34.423-91.353Zm-3.342.7q-.352,0-.088-.264T-37.765-90.649Zm.7-.176q0,.176-.528.176,0-.176.088-.176t.088-.176q.176,0,.176.088T-37.061-90.825Zm-.7.176h.176a.358.358,0,0,1-.088.264Q-37.765-90.3-37.765-90.649Zm-.176.176a.406.406,0,0,1-.264.44,1.1,1.1,0,0,0-.44.264q-.352-.176,0-.352Zm2.286.879a.847.847,0,0,1-.7.616,1.575,1.575,0,0,0-.879.44q-.352-.352.44-.616A9.59,9.59,0,0,0-35.654-89.594ZM-9.449-68.313a5.835,5.835,0,0,1-.616,1.231,7.232,7.232,0,0,0-.616,1.055,11.333,11.333,0,0,0-1.407.088,1.323,1.323,0,0,0-1.055.791v-.879q-.528.352-.44.791t-.44.791a6.643,6.643,0,0,1-3.342.176A3.069,3.069,0,0,0-20-63.74q-.352.176-.352-.088a.6.6,0,0,0-.176-.44q-.352.352-.264.616t-.264.616q-.7.352-.791-.088a1.533,1.533,0,0,0-.44-.791q-.352-.176-.264.264a.666.666,0,0,1-.088.616.44.44,0,0,1-.7,0q-.352-.352-.352.176a.348.348,0,0,1-.528-.176,1.15,1.15,0,0,0-.528-.528q-.528-.176-.44.352t-.44.352q.352-.528-.088-.7a.932.932,0,0,0-.791,0q-.176.528.176.44t.176.264q-.352-.352-1.143.176t-.791-.7q-.352.176-.352.879-.879-.352-.7.088t-.352.44a3.007,3.007,0,0,0-.528-1.407q-.352.176-.088.528t-.088.528a.487.487,0,0,0-.7-.088,1.234,1.234,0,0,1-1.055.088l.352.352q-.352.528-.528,0t-.528-.352q-.352.176-.088.44t-.088.44q-.352,0-.352-.264t-.352-.44a.507.507,0,0,1-.352.176.731.731,0,0,0-.264.7.731.731,0,0,1-.264.7q-1.935.352-3.605.528a18.778,18.778,0,0,0-3.43.7q-.352,0-.176.352t0,.528q-.879-.528-2.286.352t-2.111-.176a.717.717,0,0,0-.176.528,2.7,2.7,0,0,0-1.847.352q-.967.528-1.671.879a30.888,30.888,0,0,0-7.035,1.759,30.888,30.888,0,0,1-7.035,1.759,5.749,5.749,0,0,0-.616.352,5.747,5.747,0,0,1-.616.352,41.7,41.7,0,0,0-9.5,2.814q-2.286.7-4.837,1.319a12.533,12.533,0,0,0-4.485,2.023,1.6,1.6,0,0,0-.879-.088q-.352.088-.879.264a.507.507,0,0,0-.176-.352,2.046,2.046,0,0,0-.528.352q-.176.176-.879,0a26.085,26.085,0,0,1-1.231-3.43,10.357,10.357,0,0,1-.176-4.309q.352,0,.352.088t.176.088q-.528-1.231.791-1.495a3.042,3.042,0,0,0,2.023-1.319q0-.352-.264,0t-.088-.352q8.442-2.99,17.675-5.892a118.9,118.9,0,0,1,19.434-4.309.952.952,0,0,1,.879-.264.845.845,0,0,0,.879-.44q.352,0,.352.176t.352.176q3.869-.528,8.618-1.055t9.673-.791q4.925-.264,9.673-.088A61.032,61.032,0,0,1-9.449-68.313Zm-1.759.879h.352v-.352h-.352Zm-23.743,6.507a.155.155,0,0,1,.176-.176.311.311,0,0,0-.352-.352Q-35.127-60.926-34.951-60.926Zm1.231-.528a.155.155,0,0,1,.176-.176.155.155,0,0,1,.176.176q0,.352-.088.176A.282.282,0,0,0-33.72-61.454ZM99.418-147.633h-.176q0,.176.088.176t.088-.176q.352-.176.352.088t.352.264a2.163,2.163,0,0,0-.967.7q-.44.528-.791.176a1.44,1.44,0,0,0,.528-.879,8.058,8.058,0,0,0-1.055.44,3.347,3.347,0,0,0-.879.616q.176.352.528,0a.44.44,0,0,1,.7,0,3.485,3.485,0,0,1-2.11,1.495,2.034,2.034,0,0,0-1.583,1.671,3.446,3.446,0,0,0-.791.352,1.31,1.31,0,0,1-.967,0,3.842,3.842,0,0,0-.879.791,1.884,1.884,0,0,1-1.055.616,5.424,5.424,0,0,1-2.462,2.111,4.359,4.359,0,0,0-2.286,2.286,1.831,1.831,0,0,0-1.055.176q.176.528-.528,1.143a2.023,2.023,0,0,1-1.055.616.622.622,0,0,1-.7.7q0,.176.088.176t.088.176q.176.352.352,0a.348.348,0,0,1,.528-.176,3.181,3.181,0,0,1-1.671,2.111,1.564,1.564,0,0,0-.967,1.935q-.528.352-.7.264a5.746,5.746,0,0,0-.879-.264A7.711,7.711,0,0,1,78.4-128.55a6.39,6.39,0,0,0-1.143,1.671q-.528,0-.528.352-.7,0-.879.352a1.15,1.15,0,0,1-.528.528,1.176,1.176,0,0,0-1.583.176,13.208,13.208,0,0,1-1.407,1.231q0,.528.352.176t.352,0a6.85,6.85,0,0,1-2.023,1.671,3.633,3.633,0,0,0-1.671,2.023q.352.176.44-.44t.264.264q.528.176.44-.352t.616-.352a1.219,1.219,0,0,1-1.143,1.495,2.6,2.6,0,0,1-1.847-.088,5.575,5.575,0,0,0-1.583,2.111q.176.352.528-.176t.7-.176a5.765,5.765,0,0,1-.7.879,5.764,5.764,0,0,0-.7.879,1.057,1.057,0,0,0-.7.7q0,.352.7.352,0,.352-.44.528t-.44.528a1.9,1.9,0,0,1-.7-.879,2.572,2.572,0,0,0-1.231.879q-.352.528-1.231.176,0,1.231,1.143.791t1.143-1.319a1.726,1.726,0,0,1-.879,2.111q-1.231.7-2.111,1.231v-.7a.564.564,0,0,0-.616.528.883.883,0,0,1-.44.7.416.416,0,0,1-.44-.352.416.416,0,0,0-.44-.352.962.962,0,0,1-.352,1.319,6.1,6.1,0,0,0-1.055.791,1.561,1.561,0,0,0,.176.7,1.133,1.133,0,0,1,0,.879q-.528,0-.528-.352a.563.563,0,0,0-.352-.528q-.7.352-.176.616t.528.616l-.616.616a1.364,1.364,0,0,1-.967.264,3.516,3.516,0,0,1-1.407,2.286,12.654,12.654,0,0,0-1.935,1.583.563.563,0,0,0,.528.352q.352,0,.352.528a1.118,1.118,0,0,0-.879.7,2.208,2.208,0,0,1-.528.879.155.155,0,0,1-.176-.176.155.155,0,0,0-.176-.176q-.528.176-.352.528a1.561,1.561,0,0,1,.176.7,1.576,1.576,0,0,0-1.055,1.055q-.176.7-1.231.7a1.929,1.929,0,0,1,.7-1.231.855.855,0,0,0-1.055.528,1.008,1.008,0,0,1-1.231.528v.879a1.426,1.426,0,0,0-1.407,1.231,8.268,8.268,0,0,0,2.111-1.583,10.783,10.783,0,0,1-1.055,1.935,12.654,12.654,0,0,1-1.583,1.935q-.7,0-.7-.352a.311.311,0,0,0-.352.352.311.311,0,0,1-.352.352q-.7,0-.352-.528-.528,0-.528.44t-.528.44q.352.879.616.264t.616-.264a8.752,8.752,0,0,1-2.111,3.693,14.515,14.515,0,0,1-3.342,2.462,1.075,1.075,0,0,1-.264.791.728.728,0,0,0-.088.791q-1.055,0-1.055.7h-.528q0,2.99-1.583,4.045a.717.717,0,0,0,.176.528q.176.176,0,.528a1.543,1.543,0,0,0-1.847.791,4.965,4.965,0,0,1-1.847,1.671,2.187,2.187,0,0,1-.088,1.407,9.828,9.828,0,0,1-.616,1.055q-.176,0-.528-.352-.352.176-.088.352t.088.528a4.411,4.411,0,0,1-2.462.528.563.563,0,0,0,.352.528.563.563,0,0,1,.352.528q0,.352-.176.44t0,.44a1.391,1.391,0,0,1-.879.176q.352,1.407-.7,1.759a4.368,4.368,0,0,0,.176-1.583,1.244,1.244,0,0,0-.528,1.759q-.7.176-.7.7v1.231a2.533,2.533,0,0,0-1.319,1.143,1.964,1.964,0,0,1-1.495.967,1.723,1.723,0,0,1-.352,1.583,6.988,6.988,0,0,1-1.055.879,3.14,3.14,0,0,0-.879.879,1.476,1.476,0,0,0,0,1.407.952.952,0,0,0-.44.352q-.088.176-.44,0v.879a1.209,1.209,0,0,0-1.055.791q-.176.616-1.055.616a17.487,17.487,0,0,0-1.583,2.726,3.252,3.252,0,0,1-2.462,1.847,1.875,1.875,0,0,1-.176.967.854.854,0,0,1-.528.352,1.115,1.115,0,0,0-.528.264,1.018,1.018,0,0,0-.176.7h-.879q0,.352.088.352t.088.352a14.34,14.34,0,0,1-2.55,1.847,10.471,10.471,0,0,0-2.374,1.847,3.459,3.459,0,0,0-1.847.616,5.487,5.487,0,0,1-2.2.791Q1.631-45.1.488-45.185t-2.55-.264A11.172,11.172,0,0,1-5.14-46.5a22.792,22.792,0,0,0-2.726-1.231,5.061,5.061,0,0,0-2.99-2.111,6.715,6.715,0,0,1-1.495-5.276q.264-3.342.616-6.683a5.873,5.873,0,0,0,.528-2.638h.352a23.351,23.351,0,0,1,1.319-7.123A42.043,42.043,0,0,0-7.69-78.338a4.469,4.469,0,0,0,.879-2.286,23.731,23.731,0,0,1,.528-2.814h.352a36.064,36.064,0,0,1,2.462-7.475,35.482,35.482,0,0,0,2.462-7.651q.528.352.352-.264t.352-.44a26.619,26.619,0,0,1,2.111-6.419,33.06,33.06,0,0,0,2.286-6.419,30.131,30.131,0,0,0,2.814-6.683q1.231-1.583,2.286-3.254a6.614,6.614,0,0,1,3.166-2.55.542.542,0,0,1,.616.44q.088.44.967.088a1.019,1.019,0,0,0,.176.7,4.806,4.806,0,0,1,2.111.791q.879.616,1.671,1.231t1.583,1.319a3.765,3.765,0,0,0,2.023.879,1.477,1.477,0,0,0,.616.967,1.477,1.477,0,0,1,.616.967q-1.407,2.111-2.814,4.309a21.6,21.6,0,0,0-2.286,4.837h-.528l-.264,1.583q-.088.528-.967.879a.575.575,0,0,1,.176.7,1.585,1.585,0,0,0,0,1.055.358.358,0,0,0-.264.088.358.358,0,0,1-.264.088,18.444,18.444,0,0,1-1.495,4.4,18.444,18.444,0,0,0-1.495,4.4,8.36,8.36,0,0,0-1.143,3.342,3.7,3.7,0,0,1-1.671,2.814q.352.352,0,1.231-.176,0-.528-.352-.528.352,0,.791t-.352.264q.7.528.352.967a1.007,1.007,0,0,0,0,1.143,8.152,8.152,0,0,0-1.319,3.078,20.815,20.815,0,0,1-.967,3.43.5.5,0,0,1-.616.264q-.44-.088-.44.264.176.528.352.264t.528.088q-.352.352-.528.352a29.986,29.986,0,0,1-1.231,5.716,30.673,30.673,0,0,0-1.231,5.364q-.352,0-.352.088t-.176.088a4.847,4.847,0,0,1-.528,3.254,5.651,5.651,0,0,0-.528,3.605q8.97-10.728,17.588-21.545T38.037-101.2q.352.176.44-.176t.616-.176a9.72,9.72,0,0,1,3.693-4.4A13.313,13.313,0,0,0,46.831-110q.528.176.616-.088a.406.406,0,0,1,.44-.264q-.176-.352,0-.528a.717.717,0,0,0,.176-.528,79.179,79.179,0,0,0,9.409-7.914,66.976,66.976,0,0,1,9.761-7.914,1.411,1.411,0,0,1,1.319-1.231,1.481,1.481,0,0,0,1.319-1.407,5.1,5.1,0,0,0,2.023-1.055q.791-.7,1.671-1.583,4.749-2.99,9.321-6.419a58.416,58.416,0,0,1,9.673-5.892,2.347,2.347,0,0,1,.44-.616l.616-.616a4.2,4.2,0,0,0,2.814-1.055,6.562,6.562,0,0,1,3.166-1.407q.176.352-.088.44T99.418-147.633Zm-4.749,2.99a.791.791,0,0,0,.791-.088q.44-.264.088-.616a.563.563,0,0,1-.528.352A.311.311,0,0,0,94.669-144.643ZM82.358-134.618a.155.155,0,0,1,.176-.176q.176,0,.176-.352a.348.348,0,0,0-.528.176Q82.006-134.618,82.358-134.618Zm.176,1.407q0-.879-.352-.7Q81.83-133.563,82.534-133.211Zm-1.935.176q-.176.879.176.528T80.6-133.035Zm-1.935,1.055a.588.588,0,0,0,.791.088,1.547,1.547,0,0,0,.616-.616.7.7,0,0,0-.879-.088Q78.665-132.331,78.665-131.98Zm-1.231,1.407q-.352,0-.352.176Q77.433-130.4,77.433-130.573ZM74.8-128.462q.352.352.352-.176t-.352-.352ZM71.1-125.3q.352.352.616-.176a.845.845,0,0,1,.791-.528q0-.7-.176-.7a.847.847,0,0,1-.7.616Q71.1-126,71.1-125.3ZM58.615-110.347a.717.717,0,0,0,.176-.528q0-.352-.352-.176Q58.439-110.347,58.615-110.347Zm-1.583,1.407a.592.592,0,0,0,.528-.264q.176-.264-.176-.44,0,.352-.264.352T57.032-108.94Zm-1.407,3.166q0-.352.264-.352t.088-.352q-.352-.176-.528.264T55.625-105.774Zm-1.935.176h.352v-.352H53.69Zm-.352,1.407v.352h.352a.155.155,0,0,1,.176-.176v-.352h-.352A.155.155,0,0,1,53.339-104.191Zm-.7.352q-.176.879.176.528T52.635-103.84Zm0,2.286q0-.352.264-.352t.088-.352h-.528Q52.459-101.553,52.635-101.553Zm-39.22,2.638a.466.466,0,0,0-.528-.528A.466.466,0,0,0,13.415-98.915ZM8.139-87.483q-.176-.528.176-.7t-.176-.528a.761.761,0,0,1-.352.616Q7.435-87.835,8.139-87.483Zm-.528,3.342a.965.965,0,0,0,.791-.879,1.757,1.757,0,0,1,.44-1.055H8.314a3,3,0,0,1-.44,1.055A1.424,1.424,0,0,0,7.611-84.142ZM6.028-80.624v-.7H5.5Q5.5-80.448,6.028-80.624Zm.879.352q-.352,0-.352.176Q6.907-80.1,6.907-80.272ZM5.325-76.579q0-.528-.088.176T5.325-76.579Zm-.176,1.055H5.5v-.352H5.149ZM29.42-73.589a.358.358,0,0,1-.264-.088.358.358,0,0,0-.264-.088q-.352.352.088.44T29.42-73.589Zm-27.437,4.4v.352h.528v-.528H2.159A.155.155,0,0,1,1.983-69.192ZM1.455-66.73q.352.176.352-.528t-.176-.7a1.084,1.084,0,0,1-.176.616A.58.58,0,0,0,1.455-66.73ZM1.1-63.213A1.51,1.51,0,0,0,1.367-64q.088-.616-.264-.791Q.752-63.564,1.1-63.213Zm99.545-84.772q.352-.176.352.352t-.352.176Zm-14.07,10.553q-.176-.352.7-.352Q87.282-137.432,86.579-137.432Zm0,0a.155.155,0,0,1-.176.176Q86.227-137.256,86.579-137.432Zm.352.879a1.606,1.606,0,0,1-1.055,1.495,1.843,1.843,0,0,0-1.231,1.143.622.622,0,0,1-.7-.7q.879,0,1.231-1.055T86.931-136.552Zm-9.673,9.673h.528a2.807,2.807,0,0,1-1.583,1.231.406.406,0,0,1,.264-.44.406.406,0,0,0,.264-.44Q77.258-126.528,77.258-126.879Zm-4.924,4.573a1.424,1.424,0,0,1-.264.879q-.264.352-.616,0Q71.454-122.482,72.333-122.307Zm-3.693,4.221A.358.358,0,0,1,68.9-118a.358.358,0,0,0,.264.088,1.576,1.576,0,0,1-1.055,1.055q-.176-.528.088-.7A1.328,1.328,0,0,0,68.64-118.086Zm-2.286,1.759a.358.358,0,0,1,.264.088.358.358,0,0,0,.264.088q0,.528-.528,0Zm-2.99,4.749q.176-.528.176,0T63.363-111.578Zm-2.638,1.231q0,.7-.879,1.055-.352-.528,0-.791A1.424,1.424,0,0,1,60.725-110.347Zm-3.869,5.1a1.018,1.018,0,0,0-.176.7q-.352,0-.264-.352A.416.416,0,0,1,56.856-105.247Zm-2.111,1.407q.528.352.176,1.055t-.7.7q-.352-.352.088-.7A1.27,1.27,0,0,0,54.746-103.84Zm-17.06,19.7h.879v.7Q37.686-83.262,37.686-84.142ZM32.409-76.4h.528q.176.352-.088.44a.406.406,0,0,0-.264.44Q32.409-75.524,32.409-76.4Zm78.616-33.416a1,1,0,0,1-.264,1.319,1.194,1.194,0,0,0-.44,1.319q-.176,0,.352-.528.352.176.088.352t-.088.528q-.352,0-.352-.176t-.352.176a.311.311,0,0,0,.352.352q.352,0,.176.352-.7,0-.879.879a2.1,2.1,0,0,0,0,1.231q.352,0,.176-.352a.348.348,0,0,1,.176-.528q.352.352.088,1.143a2.933,2.933,0,0,1-.616,1.143.58.58,0,0,1,0-.616,1.084,1.084,0,0,0,.176-.616q-1.055.528-.616,1.231t-.44,1.231q-.176.352.088.352a.6.6,0,0,1,.44.176q-.176.352-.879.352a3.435,3.435,0,0,1,.264.7.416.416,0,0,0,.44.352,1.307,1.307,0,0,0-.352.967q0,.616-.7.616a.592.592,0,0,1,.264-.528q.264-.176.088-.7a2.274,2.274,0,0,0-.791,1.759,8,8,0,0,0,.088,2.111,2.046,2.046,0,0,0-.528.352q-.176.176-.528,0a18.331,18.331,0,0,1-.791,3.078l-1.143,3.43a3.705,3.705,0,0,1,.616.088,4.941,4.941,0,0,0,.967.088,4.865,4.865,0,0,1,1.759-.791,1.989,1.989,0,0,1,1.583.088q.7-.352,1.671-.791a1.546,1.546,0,0,1,1.671.088q1.231-.352,3.342-.879A8.783,8.783,0,0,1,120-90.649a.155.155,0,0,0,.176.176q-.176.528.528.44t.528-.44h-1.055q0-.352-.088-.352T120-91.177q.879-.352,1.143,0t1.143,0q.176.528-.264.352t-.264.352q.352,0,1.407-.088a11.282,11.282,0,0,0,1.759-.264q0-.352-.088-.352t-.088-.352a.847.847,0,0,1,.616.7.952.952,0,0,1-.264.879,5.573,5.573,0,0,0-2.462-.176,3.419,3.419,0,0,0-2.286,1.231q.352.352.528-.176t.528-.352v.528q.352.176.264-.352t.44-.352q0,.176-.088.176t-.088.352a6.548,6.548,0,0,0,3.078-.44,2.92,2.92,0,0,1,2.726.088,3.059,3.059,0,0,1-1.671.264,2.987,2.987,0,0,0-1.847.44q.176.352.264.088t.44-.088a2.027,2.027,0,0,1-.7,1.407q.528.352.791.176a3.4,3.4,0,0,1,.967-.352q-.352-.352-.176-.528t-.352-.176q.176-.528.528-.176t.528-.352a1.205,1.205,0,0,1-.176,1.407q-.528.528.528,1.055.352,0,.088-.352t.44-.176a.311.311,0,0,0,.352.352.311.311,0,0,0-.352-.352q0-.176.528-.176.176-.352-.088-.44t.088-.44l.528.528q.352.352.352-.352.352,0,.352.7a1.827,1.827,0,0,0,1.407-.176.879.879,0,0,1,1.055,0,2.706,2.706,0,0,1-1.671.528,1.759,1.759,0,0,0-1.495.7.282.282,0,0,1,.176-.264.282.282,0,0,0,.176-.264q-.879.176-2.111.528a7.883,7.883,0,0,1-2.111.352v.7a25.422,25.422,0,0,0,2.55-.44,3.989,3.989,0,0,1,2.2.088,3.114,3.114,0,0,0,.967-.528.752.752,0,0,1,.967,0,2.955,2.955,0,0,1-2.726.879,2.394,2.394,0,0,0-2.55,1.055,4.7,4.7,0,0,0-1.759.352,1.364,1.364,0,0,1-1.583-.352q-.352.176-.352.44t-.352.44a11.187,11.187,0,0,0-2.99.44q-1.583.44-2.99.791.352.7.616.264a.6.6,0,0,1,.791-.264q-.176.7-1.143.528t-1.143.528a.879.879,0,0,0,1.055,0,1.827,1.827,0,0,1,1.407-.176,16.711,16.711,0,0,1-6.507,1.407,3.853,3.853,0,0,1-2.55.879,5.4,5.4,0,0,0-2.726.7q-.352.176-.088.616t-.616.088a.155.155,0,0,1,.176-.176.155.155,0,0,0,.176-.176q0-.352-.264-.176a.855.855,0,0,1-.44.176.311.311,0,0,0,.352.352v.528q-.528,0-.528-.176-.176,0-.176.528a6.03,6.03,0,0,1-1.143-.088,1.878,1.878,0,0,0-.967.088q0-.176.088-.176t.088-.352a.791.791,0,0,0-.7.264.592.592,0,0,1-.528.264,2.151,2.151,0,0,1-.352,1.671,3.251,3.251,0,0,0-.528,1.847q-.176,0-.176-.088t-.176-.088q-.352.176-.176.7a3.32,3.32,0,0,1,.176,1.055.282.282,0,0,0-.264.176q-.088.176-.44,0-.352.528-.088.616t.264.616q-.176,0-.176.088t-.352.088q-.176.352,0,.44t.176.44a.358.358,0,0,0-.264.088.358.358,0,0,1-.264.088,25.326,25.326,0,0,1-1.407,5.276,24.735,24.735,0,0,0-1.407,5.628.358.358,0,0,0-.264.088.358.358,0,0,1-.264.088A3.659,3.659,0,0,1,95.373-56a2.15,2.15,0,0,1-.967.791q-.616.264-.264,1.143-.176,0-.176-.088t-.352-.088q.352.352-.176,1.055t0,1.055a1,1,0,0,0-.7,1.231,1,1,0,0,1-.7,1.231q-.176-.352.088-.528t.088-.528q-.352,0-.528.44t-.352-.44q-.352.352-.088.616a.488.488,0,0,1,.088.616q-.879-.352-.7.176a.492.492,0,0,1-.352.7q.176.352.44.088a.488.488,0,0,1,.616-.088q-.352.879-.791.7t-.791.7q.7.879,0,1.407a3.49,3.49,0,0,0-1.055,1.231q-.176.528.264.616t.264.44q-.7-.176-.7.44t.352.791a.831.831,0,0,0-.7.879,1.184,1.184,0,0,1-.528,1.055q-.176-.879.176-1.055t0-1.055q.352-.176.264-.7a.952.952,0,0,1,.264-.879q-.879.176-.528,1.583a.311.311,0,0,0-.352.352q0,.352-.352.176a3.388,3.388,0,0,1-.176,2.814q-.7,1.407-1.231,2.638-.352,0-.176-.528t-.176-.528a6.824,6.824,0,0,0-.352.879.8.8,0,0,0,.176.879q0,.352-.352.176a.348.348,0,0,1-.176-.528,1.184,1.184,0,0,0-.528,1.055,1.088,1.088,0,0,1-.352-1.231q-.176-.352-.352.088a1.887,1.887,0,0,1-.352.616q-.528-.352-.264-.616t.088-.967q-.352.528-.616.44t-.44.44a1.79,1.79,0,0,1-.176-1.319,3.2,3.2,0,0,0,0-1.495A152.8,152.8,0,0,1,84.468-56.09q1.759-7.651,4.045-16.268a1.291,1.291,0,0,0-1.231-.088,2.946,2.946,0,0,0-1.055.616h1.055q0,.352-.44.352a.63.63,0,0,0-.616.352.416.416,0,0,1-.44-.352q-.088-.352-.616-.176-.352.176-.088.44t-.088.44a2.128,2.128,0,0,0-1.231.264,6.6,6.6,0,0,0-.7.616,3.422,3.422,0,0,0-1.319-.088q-.616.088-.791.967a2.006,2.006,0,0,0-1.759.088,3.261,3.261,0,0,1-1.759.44q0-.176.088-.176t.088-.352q-.352,0-.44.176t-.44,0a.406.406,0,0,0,.264.44q.264.088-.088.44-.7,0-.44-.352t-.616-.176a.406.406,0,0,0,.264.44q.264.088.088.616a3.2,3.2,0,0,0-2.55.352,6.293,6.293,0,0,1-2.55.879q-.176.352-.352.352T70.4-65.5a7.367,7.367,0,0,0-3.781.879,4.122,4.122,0,0,1-3.078.528q-.352,0-.176.088t.176.44a2.15,2.15,0,0,0-1.583.528,5.074,5.074,0,0,0-2.726.616,7.428,7.428,0,0,0-1.759,1.583q-.791.967-1.583,1.847a6.184,6.184,0,0,1-1.847,1.407q.176,1.407-1.407,1.759a21.469,21.469,0,0,0-3.342-1.495,3.487,3.487,0,0,1-2.286-2.55q-.528,0-.528.352a1.818,1.818,0,0,1-.791-1.231,1.341,1.341,0,0,0-.967-1.055,3,3,0,0,0,.528-1.847,2.5,2.5,0,0,1,.7-1.847q0-.352-.352-.176t-.528,0q-.176-.352.088-.352t.264-.352a2.756,2.756,0,0,0-.7-.528,2.756,2.756,0,0,1-.7-.528.813.813,0,0,1,.879-.528q0-.352-.528-.352A1.843,1.843,0,0,1,45.6-69.456,2.434,2.434,0,0,0,47.007-70.6a1.531,1.531,0,0,0,1.583-.176,2.572,2.572,0,0,1,1.583-.528Q56.856-80.1,63.627-88.714a168.175,168.175,0,0,1,14.686-16.356q5.452-5.452,10.992-10.816a48.208,48.208,0,0,1,12.927-8.882,2.376,2.376,0,0,1,2.2.7,4.21,4.21,0,0,0,2.023,1.231,6.568,6.568,0,0,0,2.2,2.2,5.072,5.072,0,0,1,2.023,2.374,1.553,1.553,0,0,1,1.319,1.319,1.7,1.7,0,0,1-.616,1.847q.352.352.44,0t.44-.176a1.317,1.317,0,0,0-.176,1.143,5.8,5.8,0,0,0,.352.967,1.391,1.391,0,0,0-.879-.176q-.352.352,0,.616t0,.616q-.352.176-.352-.176a.717.717,0,0,1,.176-.528q-.528-.176-.528.352v.879q.528-.528.7,0a.8.8,0,0,1-.176.879q-.528,0-.352-.176t-.176-.528q-.352.176-.176.791a1.351,1.351,0,0,1,0,.967.155.155,0,0,0,.176-.176Zm-.176-7.387h.352v-.352h-.352Zm.7,1.407a.932.932,0,0,1,0-.791q.176-.44-.352-.264a1.561,1.561,0,0,0-.176.7Q111.026-115.8,111.553-115.8Zm-.176,2.286q.352.352.44-.264t-.264-.616A1.391,1.391,0,0,0,111.377-113.513Zm-13.542,4.045q-.352,0-.352.176Q97.835-109.292,97.835-109.468Zm12.839.7a.717.717,0,0,0,.176-.528q0-.352-.352-.176Q110.5-108.764,110.674-108.764Zm-25.5,26.205q-.176.528.088.264t-.088-.264a10.525,10.525,0,0,1,3.166-.967,11.749,11.749,0,0,0,3.518-1.143q1.935-6.156,3.693-11.784t3.693-12.311a61.025,61.025,0,0,0-7.826,6.947q-3.781,3.957-7.475,7.651Q80.247-90.3,76.73-86.252T70.047-77.81q3.869-1.231,7.475-2.462T85.172-82.559Zm11.256-25.854q-.352,0-.352.176Q96.428-108.237,96.428-108.412ZM94.142-105.6a.466.466,0,0,0,.528-.528q-.352-.176-.352.088A.6.6,0,0,1,94.142-105.6Zm14.6.7q.352,0,.616-.616t-.264-.616a.592.592,0,0,1-.264.528Q108.563-105.423,108.739-104.895Zm-17.763,2.286q.352.176.7-.7A.622.622,0,0,0,90.976-102.609Zm-9.146.879q.176.352.264-.088T81.83-101.729Zm7.739.528q.176.352.264-.088T89.569-101.2Zm-.879.7q.528,0,.528-.352Q88.689-100.85,88.689-100.5Zm18.467.352h.352v-.352h-.352Zm-20.226.528a.348.348,0,0,0,.528-.176q.176-.352-.176-.352,0,.352-.176.352A.155.155,0,0,0,86.931-99.619Zm-.7.7q.352.528.264.088T86.227-98.915Zm-.176,1.055q.528,0,.528-.352h-.352q0,.176-.088.176T86.051-97.86Zm-1.759,1.583Zm21.457.7q.176.528.176,0T105.749-95.574Zm-23.04.528q0-.352.44-.176t.088-.352a.488.488,0,0,0-.616.088Q82.358-95.222,82.71-95.046ZM106.8-95.4q.176.528.176,0T106.8-95.4Zm-24.8,1.231q.176-.528.44-.352a1.084,1.084,0,0,0,.616.176q0-.7-.7-.44T82.006-94.167Zm23.391.176q.176.528.176,0T105.4-93.991Zm0,.7h.352v-.352H105.4Zm-23.743.176q.528,0,.528-.352Q81.654-93.463,81.654-93.111Zm20.929,0q.176.528.176,0T102.584-93.111Zm2.286.7q0-.176.264-.176t.088-.352a.348.348,0,0,0-.528.176Q104.518-92.408,104.87-92.408Zm-24.8,1.055a1.057,1.057,0,0,0-.7.7.622.622,0,0,0,.7-.7h.352V-91.7A.311.311,0,0,0,80.072-91.353Zm24.447-.176q.176.528.176,0T104.518-91.528Zm.352.879h.352V-91h-.352Zm-32.185.528q.176.528.176,0T72.685-90.121Zm45.728.352a.642.642,0,0,0,.791-.176q.264-.352.616,0,0-.528-.7-.352T118.412-89.77Zm-1.935-.352q-.352,0-.352.176Q116.478-89.946,116.478-90.121Zm.528.352q-.176.528.528.352t.7-.528a1.948,1.948,0,0,0-.616.088A1.948,1.948,0,0,1,117.005-89.77Zm-1.231.352q.352,0,.352.088t.352.088q.176-.352-.264-.44T115.774-89.418Zm4.573.176q0-.176-.352-.528Q119.643-89.066,120.347-89.242Zm-8.794-.176q-.176,0-.176-.088t-.176-.088q-.352.352-.088.44T111.553-89.418Zm2.462.352a.155.155,0,0,1,.176.176.155.155,0,0,0,.176.176,2.347,2.347,0,0,0,.616-.44q.264-.264.616.088,0-.879-.7-.44A2.742,2.742,0,0,1,114.015-89.066Zm4.045.528h.879q0-.879-.352-.879Q118.412-89.418,118.061-88.539Zm1.407-.7q.176.528.176,0T119.468-89.242Zm-42.386.528a.282.282,0,0,1,.176-.264q.176-.088-.176-.264a.282.282,0,0,1-.176.264Q76.73-88.89,77.082-88.714Zm39.924.528q.352-.352.879,0a1.35,1.35,0,0,1-.176-.528.507.507,0,0,0-.176-.352q.176.7-.352.528T117.005-88.187Zm-4.221-.352h.352v-.352h-.352Zm6.859,0H120v-.352h-.352Zm2.286.7a1.7,1.7,0,0,1,2.462,0,2.005,2.005,0,0,0-.7-1.055,3.415,3.415,0,0,1-1.055.264q-.7.088-1.231.176a1,1,0,0,0-.7.352q-.176.264.176.791l.528-.528q0,.352.264.352T121.93-87.835Zm-18.291-.7q.176.352.264-.088T103.639-88.539Zm3.869,0q.176.528.176,0T107.508-88.539Zm7.914.352q.352-.352.44,0t.44.176q0-.528-.616-.616T115.422-88.187Zm-12.663-.176q.176.528.176,0T102.759-88.363Zm8.266,0q.176.528.176,0T111.026-88.363Zm3.342,0q0,.879.7.879a.8.8,0,0,1-.088-.616q.088-.264-.264-.44Q114.719-88.363,114.367-88.363Zm-37.286.176Zm32.713,0q.176.528.176,0T109.794-88.187Zm.528.176h.352v-.352h-.352Zm-6.683.176q.528,0,.528-.352Q103.639-88.187,103.639-87.835Zm16.181.879a1.745,1.745,0,0,1-.176-.791q0-.44-.528-.44a1.094,1.094,0,0,1,.352.791Q119.468-86.956,119.819-86.956Zm-10.728-.879q.352.528.264.088T109.091-87.835Zm8.97,0q.176.528.176,0T118.061-87.835Zm5.98.7a.8.8,0,0,1-.44-.44.8.8,0,0,0-.44-.44,1.577,1.577,0,0,0,.264.791Q123.689-86.78,124.04-87.132Zm-10.377-.528q0,.352.264.088T113.664-87.659Zm9.146,0q.176.528.176,0T122.809-87.659Zm-9.849.176q.176.528.176,0T112.96-87.483Zm4.221.176h.528q0-.352-.528-.352ZM120-87.483q.176.528.176,0T120-87.483Zm-13.191.176q.176.352.264-.088T106.8-87.307Zm11.784.528q.528,0,.528-.7-.352-.176-.264.176A.427.427,0,0,1,118.588-86.78Zm3.166.176a1.169,1.169,0,0,0,.7-.264q.352-.264,0-.616,0,.352-.44.352T121.754-86.6Zm-11.96-.176a.155.155,0,0,1,.176-.176.311.311,0,0,0-.352-.352Q109.619-86.78,109.794-86.78Zm13.191-.352q.176.528.176,0T122.985-87.132Zm-17.236.176q.176.528.176,0T105.749-86.956Zm10.9,0ZM74.971-86.6h.352v-.352h-.352Zm.879-.176q.352.528.264.088T75.851-86.78Zm31.833,0q.176.528.176,0T107.684-86.78Zm9.5.176h.528q0-.352-.528-.352Zm1.055-.176a.155.155,0,0,0-.176-.176.155.155,0,0,0-.176.176.282.282,0,0,1,.264.176Q118.236-86.428,118.236-86.78Zm2.99,0q-.528,0-.528.352Q121.226-86.428,121.226-86.78Zm1.583.176q.176.528.176,0T122.809-86.6Zm1.759.176h.352v-.352h-.352Zm-49.949,0Zm41.858,0q0-.176-.264-.176t-.264.176q-.176.352.264.352T116.478-86.428Zm-1.231.176q.176.528.176,0T115.247-86.252Zm3.342,0q0,.352.176.352a.155.155,0,0,1,.176-.176.155.155,0,0,0,.176-.176Zm6.859,0q.176.528.176,0T125.447-86.252Zm-18.291.176q.176.528.176,0T107.156-86.076Zm16.884,0q.176.352.264-.088T124.04-86.076Zm.879,0q.176.528.176,0T124.92-86.076Zm-7.914.352h.352v-.352h-.352Zm5.276.176q0-.352.44-.176t.088-.352a.488.488,0,0,0-.616.088Q121.93-85.725,122.282-85.549Zm-15.3-.176q-.528-.352-.44,0T106.98-85.725Zm8.794.176Zm3.869.176q-.176.879,0,.176T119.643-85.373Zm3.342.528a.682.682,0,0,0,.791.176q.44-.176.44-.528a.682.682,0,0,0-.791-.176Q122.985-85.2,122.985-84.845Zm-10.728-.176v.352q.352.352.44-.088t-.264-.44A.155.155,0,0,1,112.257-85.021Zm8.97.176a1.378,1.378,0,0,1-.352.264,1.378,1.378,0,0,0-.352.264q.352.352.616.176T121.226-84.845Zm-1.407.176q.176.528.176,0T119.819-84.669Zm-9.849.352v.352h.352a.155.155,0,0,1,.176-.176v-.352h-.352A.155.155,0,0,1,109.97-84.318Zm8.09.352a.728.728,0,0,0,.791-.088q.264-.264-.264-.44,0,.352-.44.264T118.061-83.966Zm-7.387-.176q.176.528.176,0T110.674-84.142Zm5.1.176h.352v-.352h-.352ZM120-84.142Zm5.1-.176h-.7q-.352.7.176.528T125.1-84.318Zm-16.181.352q.176.528.176,0T108.915-83.966Zm7.563.352q.879,0,.879-.528A.813.813,0,0,0,116.478-83.614Zm-10.553,0v.352h.352q.352-.352-.176-.528A.155.155,0,0,1,105.925-83.614Zm1.407.176h.352v-.352h-.352Zm-34.472.879-.528-1.055v.791Q72.333-82.383,72.861-82.559Zm40.1-1.055q-.176.879.176.528T112.96-83.614Zm1.935.7a.6.6,0,0,0,.176-.44q0-.264-.352-.264Q114.719-82.911,114.895-82.911Zm-9.673-.352q.176.528.176,0T105.222-83.262Zm2.814.176v.352h.352q.352-.352-.176-.528A.155.155,0,0,1,108.036-83.086Zm5.1.7a3.139,3.139,0,0,1,.791-.264.542.542,0,0,0,.44-.616,5.8,5.8,0,0,1-.967.352Q112.784-82.735,113.136-82.383Zm-41.331,0a.717.717,0,0,0,.176-.528q0-.352-.352-.176Q71.63-82.383,71.805-82.383Zm31.306-.176q.352.528.264.088T103.111-82.559Zm8.618.352h.352v-.352h-.352Zm-39.924.176q.176,0,.176.088t.176.088q0-.176.088-.176t.088-.176q-.176,0-.176-.088t-.176-.088q0,.176-.088.176T71.805-82.031Zm40.627.879q0,.879.264.7t.44.352a.7.7,0,0,1,.879-.088.7.7,0,0,0,.879-.088q-.528-.879.088-.791t.616-.616a2.616,2.616,0,0,0-1.319.264,2.2,2.2,0,0,1-1.143.264q0-.7-.176-.7a.487.487,0,0,0-.088.7Q113.136-80.8,112.433-81.152Zm-41.682,0a1.561,1.561,0,0,1,.7-.176.563.563,0,0,0,.528-.352Q70.75-81.679,70.75-81.152Zm41.155.528h.352v-.352H111.9Zm.176.528h.352v-.352h-.352Zm-3.693.176q.176.528.176,0T108.387-79.921Zm1.583.7v-.352q0-.352-.176-.352,0,.176-.528.176a.311.311,0,0,0-.352-.352q0,.528.352.616A3.437,3.437,0,0,1,109.97-79.217Zm-2.462.7q.352.352.528-.44t-.352-.616q.176.352-.088.528T107.508-78.514Zm1.055-.352a.282.282,0,0,1,.176-.264.282.282,0,0,0,.176-.264.348.348,0,0,0-.528.176Q108.212-78.865,108.563-78.865Zm-4.573,0q.176.528.176,0T103.991-78.865Zm1.055.879q0-.176-.352-.528Q104.694-77.986,105.046-77.986Zm-1.407.352q.528.528.879-.352a.282.282,0,0,1-.264-.176.282.282,0,0,0-.264-.176q0,.352-.264.352T103.639-77.634Zm-34.3-.528q-.352,0-.352.176Q69.343-77.986,69.343-78.162Zm32.889.528q.176.528.176,0T102.232-77.634Zm.7.879q.879,0,.879-.352-.176-.352-.44-.176A1.328,1.328,0,0,0,102.935-76.755Zm1.407-.528q-.352,0-.352.176Q104.342-77.107,104.342-77.283ZM84.82-75.876a.155.155,0,0,0-.176-.176.155.155,0,0,0-.176.176.282.282,0,0,1,.264.176Q84.82-75.524,84.82-75.876Zm-6.332.528q.176.528.176,0T78.489-75.348Zm5.628.7q-.352,0-.352.176Q84.117-74.469,84.117-74.644Zm0,3.518q.879,0,.7-.352Q84.117-71.479,84.117-71.127Zm-.879.352q.528,0,.528-.352Q83.237-71.127,83.237-70.775Zm-3.869,0q.176.528.176,0T79.368-70.775Zm2.99.176q.176.528.176,0T82.358-70.6Zm-1.055.352h-.352a.155.155,0,0,0-.176.176q-.352.352.264.264T81.3-70.248Zm-3.693.352q.176.528.176,0T77.609-69.9Zm1.935.352h.7q.352,0,.176-.352h-.879Zm-1.055.176q.176.528.176,0T78.489-69.368Zm-.7.176q-.176.879,0,.176T77.785-69.192Zm-2.462,1.231a.282.282,0,0,1,.176-.264q.176-.088-.176-.264a.282.282,0,0,1-.176.264Q74.971-68.137,75.323-67.961Zm-1.935.528A.488.488,0,0,0,74-67.521q.264-.264-.088-.44,0,.352-.264.264T73.388-67.434Zm-2.99.879h-.352a.155.155,0,0,0-.176.176q-.176.528.352.352T70.4-66.554Zm-.7.176h-.352a.155.155,0,0,0-.176.176q-.176.528.352.352T69.695-66.378Zm-2.638,1.231q.528,0,.528-.352Q67.057-65.5,67.057-65.147Zm28.668,6.156a.155.155,0,0,0-.176-.176.155.155,0,0,0-.176.176.282.282,0,0,1,.264.176Q95.724-58.64,95.724-58.992Zm-1.055,1.759q.176.352.264-.088T94.669-57.233Zm-.176.7a.282.282,0,0,1,.264.176q.088.176.44,0,.176-.352-.264-.44T94.493-56.529Zm-2.814,3.342q0,.352.176.352a.155.155,0,0,1,.176-.176q0,.528.176.528,0-.352.264-.264t.264-.264q-.352.176-.44,0a.952.952,0,0,0-.44-.352A.155.155,0,0,1,91.679-53.188Zm-3.518,8.97.352-.7q-.352-.176-.528.264T88.162-44.218Zm-4.045,6.156a4.734,4.734,0,0,1,.264-1.495,1.61,1.61,0,0,0,.088-1.143,3.062,3.062,0,0,0-.616,1.319Q83.589-38.414,84.117-38.062Zm2.462-1.759q.176.528.176,0T86.579-39.821Zm-3.342,2.814q.352-.176.352.176t.352.176a.58.58,0,0,1,0-.616q.176-.264-.176-.616a2.035,2.035,0,0,1-.264.44A2.037,2.037,0,0,0,83.237-37.007Zm27.788-72.812q0-.528.352-.528V-110a.155.155,0,0,0-.176.176Zm-.879,4.045q.528.352.088.352T110.146-105.774Zm-2.462,8.97q.176-.528.176,0T107.684-96.8Zm-.879,3.342q.352.176.088.7t-.616.352a1.1,1.1,0,0,0,.264-.44A4.822,4.822,0,0,1,106.8-93.463Zm17.763,1.583q-.176.352-.879.352Q123.689-91.88,124.568-91.88Zm-1.935.528q.176-.528.176,0T122.633-91.353Zm7.211-.176q.176.352-.088.352t-.264.176q-.352,0-.176-.352A.348.348,0,0,1,129.844-91.528Zm-1.231.352a2.328,2.328,0,0,1-1.319.352h-1.671a1.318,1.318,0,0,1,1.319-.44Q127.91-91.177,128.613-91.177ZM123.161-91q.176-.528.176,0T123.161-91Zm11.608.176h.352v.352h-.352Zm-1.407.176h.352q0,.352-.528.352,0-.176.088-.176T133.362-90.649Zm-1.231.176q.528,0,.528.352h-.528Zm-6.156.352q.176-.528.176,0T125.975-90.121ZM130.9-90.3q0,.352-.44.352a1.745,1.745,0,0,0-.791.176q0-.352.44-.352A1.745,1.745,0,0,0,130.9-90.3Zm1.055,0q0,.352-.528.352Q131.427-90.3,131.955-90.3Zm-2.638.352q-.176.352-.44.352a1.417,1.417,0,0,0-.616.176q0,.7.352.7a.563.563,0,0,1-.528.352,1.013,1.013,0,0,0-.7.352.487.487,0,0,1-.088-.7.642.642,0,0,1,.791-.176q-.352-.7.176-1.055A.879.879,0,0,1,129.317-89.946Zm.176.7q.352-.528.264-.088T129.493-89.242Zm5.452.528q.176-.528.176,0T134.945-88.714Zm-5.628,0q.528,0,.528.352h-.528Zm-7.387.879a.311.311,0,0,1-.352-.352A.311.311,0,0,1,121.93-87.835Zm3.166-.352q.352,0,.264.44t-.44.088v-.352A.155.155,0,0,0,125.1-88.187Zm9.321.528q0,.528-.7.528Q133.714-88.363,134.417-87.659Zm-6.859,0q.176.352-.264.352t-.44.352q-.352-.352,0-.528A1.561,1.561,0,0,1,127.558-87.659Zm7.387.176q0-.176.352-.176Q135.3-87.483,134.945-87.483Zm-1.583.528a1.018,1.018,0,0,0-.7-.176q.176-.352.44-.352T133.362-86.956Zm-1.407,0q.352-.528.264-.088T131.955-86.956Zm.7.879Zm.879-.176h.352q0,.352-.528.352,0-.176.088-.176T133.538-86.252Zm-4.573,2.11a1.74,1.74,0,0,0-1.231.088,2.187,2.187,0,0,1-1.407.088,8.165,8.165,0,0,1,1.407-.44Q128.789-84.669,128.965-84.142Zm-5.1,1.407q.176-.528.176,0T123.865-82.735Zm-2.462.7q-.352,0-.352-.528Q121.4-82.559,121.4-82.031Zm4.4-.528a1.408,1.408,0,0,1-1.055.616,11.333,11.333,0,0,1-1.407.088A10.9,10.9,0,0,1,125.8-82.559Zm-4.4.528a1.013,1.013,0,0,0,.7.352,9.327,9.327,0,0,1-1.935.528q-1.055.176-2.286.352-.176-.352,0-.44t.176-.44q.352-.176.264.176a.427.427,0,0,0,.264.528.8.8,0,0,0,.44-.44,1.732,1.732,0,0,1,.44-.616q.352.7.528.352a2.756,2.756,0,0,1,.528-.7q.352.176.088.44a.72.72,0,0,0-.264.44A.855.855,0,0,0,121.4-82.031Zm-7.035,1.055q0,.352-.264.264t-.264.264q-.352-.176-.088-.352A1.084,1.084,0,0,1,114.367-80.976Zm2.462,1.055q-.528.528-.791.176T116.829-79.921Zm-2.111.352a1.013,1.013,0,0,1-.7.352Q114.015-79.569,114.719-79.569Zm-1.935.352q.352.352-.176.352T112.784-79.217Zm-2.814.7h.352q0,.352-.528.352,0-.176.088-.176T109.97-78.514ZM88.162-72.182q.176.352-.7.352Q87.458-72.182,88.162-72.182Zm2.286,24.8q.352,0,.264.616t-.44.264A1.392,1.392,0,0,1,90.448-47.384ZM82.182-36.3h.352v.352h-.352ZM83.589-34.9q.528,0,.44.7a1.7,1.7,0,0,1-.264.879,3.437,3.437,0,0,1-.264-.7A1.6,1.6,0,0,1,83.589-34.9Zm.879,0h.352v.352h-.352Z" transform="translate(1522.704 1403.249)" fill="url(#linear-gradient)"/>
    <path id="Path_45047" data-name="Path 45047" d="M-99.452.376c6.956,0,10.246-3.9,12.455-11.8h-6.2c-1.175,4.606-3.525,6.251-6.157,6.251-4.559,0-4.089-5.17-3.1-9.87,1.222-5.875,3.243-9.87,7.473-9.87,2.256,0,4.324,1.645,3.431,6.11l6.063.094c1.175-6.862-1.927-11.75-9.024-11.75-8.883,0-12.173,7.144-13.865,15.087C-109.98-7.755-109.228.376-99.452.376Zm25.427,0c9.212,0,12.126-7,13.771-14.9,1.645-7.661.8-15.933-8.93-15.933-9.118,0-12.408,6.862-14.1,14.758C-84.882-8.037-84.13.376-74.025.376Zm.141-5.546c-4.559,0-4.418-5.029-3.431-9.823,1.222-5.875,3.478-9.917,7.708-9.917,4.653,0,4.277,5.076,3.29,9.87C-67.539-9.212-69.607-5.17-73.884-5.17ZM-59.126,0h13.865l1.128-5.358h-7.849l5.264-24.722h-5.969Zm17.2,0h13.865l1.128-5.358H-34.78l5.264-24.722h-5.969Zm17.108,0H-7.567l1.175-5.546H-17.719l1.551-7.1H-6.016l1.175-5.405H-14.993l1.316-6.486H-2.3l1.175-5.546h-17.3ZM6.956.376c6.956,0,10.246-3.9,12.455-11.8h-6.2C12.032-6.815,9.682-5.17,7.05-5.17c-4.559,0-4.089-5.17-3.1-9.87,1.222-5.875,3.243-9.87,7.473-9.87,2.256,0,4.324,1.645,3.431,6.11l6.063.094c1.175-6.862-1.927-11.75-9.024-11.75-8.883,0-12.173,7.144-13.865,15.087C-3.572-7.755-2.82.376,6.956.376Zm25.1,0c6.956,0,10.246-3.9,12.455-11.8h-6.2C37.13-6.815,34.78-5.17,32.148-5.17c-4.559,0-4.089-5.17-3.1-9.87,1.222-5.875,3.243-9.87,7.473-9.87,2.256,0,4.324,1.645,3.431,6.11l6.063.094c1.175-6.862-1.927-11.75-9.024-11.75-8.883,0-12.173,7.144-13.865,15.087C21.526-7.755,22.278.376,32.054.376ZM45.966,0h5.969l6.439-30.08H52.358ZM66.693-31.678l16.638-3.713,1.034-4.841L67.774-36.566ZM68.761.376c9.212,0,12.126-7,13.771-14.9,1.645-7.661.8-15.933-8.93-15.933-9.118,0-12.408,6.862-14.1,14.758C57.9-8.037,58.656.376,68.761.376ZM68.9-5.17c-4.559,0-4.418-5.029-3.431-9.823,1.222-5.875,3.478-9.917,7.708-9.917,4.653,0,4.277,5.076,3.29,9.87C75.247-9.212,73.179-5.17,68.9-5.17ZM83.66,0h6.063l4.183-19.787L99.17,0h6.768l6.392-30.08h-5.969l-4.23,19.928L97.055-30.08H90.1Z" transform="translate(1482 1407)"/>
    <path id="Path_44927" data-name="Path 44927" d="M0,0,14.561,15.044,29.095,0" transform="translate(1341.365 1407.092) rotate(-90)" fill="none" stroke="#2b71b3" stroke-linecap="round" stroke-linejoin="round" stroke-width="6"/>
  </g>
</svg>
