<svg xmlns="http://www.w3.org/2000/svg" width="132.018" height="11.327" viewBox="0 0 132.018 11.327">
  <g id="Group_11839" data-name="Group 11839">
    <g id="Group_11712" data-name="Group 11712">
      <path id="Path_123" data-name="Path 123" d="M637.77,249.115c-.059-.083-.216-.079-.216-.079h-5.364l-5.77,7.289h5.034a1.447,1.447,0,0,0,.707-.153,5.848,5.848,0,0,0,.893-.831l4.739-5.967a.22.22,0,0,0-.025-.26" transform="translate(-574.597 -249.032)" fill="#fff"/>
      <path id="Path_124" data-name="Path 124" d="M621.128,249.363a2.393,2.393,0,0,0-1.3-.33H606.721l-5.78,7.293h5.244a1.136,1.136,0,0,0,.521-.109,1.325,1.325,0,0,0,.323-.28l1.774-2.2,6.7-.005a8.753,8.753,0,0,0,2.877-.364,4.056,4.056,0,0,0,1.532-1.05l1.424-1.8s.107-.142.241-.339c.236-.378-.187-.682-.453-.815m-5.711,1.257-1.208,1.5a1.025,1.025,0,0,1-.387.28,1.763,1.763,0,0,1-.624.133l-3.437-.005,1.778-2.244h3.7a.243.243,0,0,1,.216.138.2.2,0,0,1-.033.2" transform="translate(-583.25 -249.033)" fill="#fff"/>
      <path id="Path_125" data-name="Path 125" d="M632.272,249.94l.639-.809c.044-.059,0-.094-.039-.094H618.44a.192.192,0,0,0-.147.074l-.923,1.179h4.34c.044,0,.059.024.029.054l-4.754,5.976h5.182a1.364,1.364,0,0,0,1.12-.589l4.277-5.386a.167.167,0,0,1,.127-.054l3.913-.005a.856.856,0,0,0,.668-.344" transform="translate(-577.801 -249.032)" fill="#fff"/>
      <path id="Path_126" data-name="Path 126" d="M680.381,249.052a1.952,1.952,0,1,0,1.995,1.95,1.969,1.969,0,0,0-1.995-1.95m0,3.561a1.613,1.613,0,1,1,1.652-1.61,1.632,1.632,0,0,1-1.652,1.61" transform="translate(-556.948 -249.027)" fill="#fff"/>
      <path id="Path_127" data-name="Path 127" d="M607.766,250.556a.818.818,0,0,0-.054-.934,1.144,1.144,0,0,0-.378-.289,2.8,2.8,0,0,0-1.135-.265c-.407-.034-.628-.034-.9-.034h-9.125a16.872,16.872,0,0,0-2.338.161,4.023,4.023,0,0,0-1.463.477,5.9,5.9,0,0,0-1.429,1.262l-2.833,3.59c-.151.206-.693.77-.113,1.321a1.617,1.617,0,0,0,.765.354,6.124,6.124,0,0,0,.889.122c.118.011.24,0,.379,0l9.8.005a5.7,5.7,0,0,0,4.675-1.66c.078-.074.387-.413.387-.413l2.48-3.143c.059-.068.344-.457.4-.555m-5.9.127-3.084,3.885a2.044,2.044,0,0,1-.437.387,1.911,1.911,0,0,1-.845.158h-3.163a1.017,1.017,0,0,1-.549-.123.177.177,0,0,1-.05-.265l3.172-3.977a1.145,1.145,0,0,1,.4-.3,2.26,2.26,0,0,1,1.041-.158h3.006c.035,0,.269,0,.339.005a.245.245,0,0,1,.216.133.238.238,0,0,1-.044.26" transform="translate(-587.734 -249.033)" fill="#fff"/>
      <path id="Path_128" data-name="Path 128" d="M668.688,249.572a4.029,4.029,0,0,0-1.159.9l-1.827,2.283a.539.539,0,0,0-.1.678,1.417,1.417,0,0,0,.958.5,2.858,2.858,0,0,0,.462.025h6.075a1.846,1.846,0,0,1,.372.02.388.388,0,0,1,.192.146c.03.04,0,.074-.02.1l-.529.648a.535.535,0,0,1-.192.157.88.88,0,0,1-.418.094h-7.9a.642.642,0,0,0-.246.054,1.013,1.013,0,0,0-.251.221l-.721.928,11.084-.011c.136,0,.3-.005.461-.009s.3-.019.457-.035a1.961,1.961,0,0,0,.448-.054c.142-.024.289-.05.437-.079.225-.048.442-.107.634-.166s.387-.138.569-.2c.074-.044.151-.087.236-.127a2.283,2.283,0,0,0,.254-.123c.07-.048.143-.087.206-.131a2.49,2.49,0,0,0,.217-.153,1.453,1.453,0,0,0,.118-.1.46.46,0,0,0,.1-.122.418.418,0,0,0,.108-.1.945.945,0,0,0,.1-.109l1.782-2.224a.8.8,0,0,0,.186-.438.588.588,0,0,0-.092-.354c-.068-.107-.206-.269-.678-.387a4.748,4.748,0,0,0-.971-.108H673s-.216-.005-.269-.094a.157.157,0,0,1-.005-.175l.417-.56a.467.467,0,0,1,.28-.177,2.353,2.353,0,0,1,.536-.04h7.282a1.408,1.408,0,0,0,.442-.059.924.924,0,0,0,.309-.2l.752-.943-11.294,0a7.619,7.619,0,0,0-2.761.531" transform="translate(-562.045 -249.032)" fill="#fff"/>
      <path id="Path_129" data-name="Path 129" d="M658.415,249.5c.059-.088.138-.177.163-.216.054-.088.063-.133.028-.186a.183.183,0,0,0-.142-.064h-7l-6.469,4.165.285-3.492a.577.577,0,0,0-.226-.5.988.988,0,0,0-.6-.172h-6.611l-5.779,7.287H634.3a.538.538,0,0,0,.28-.078,4.166,4.166,0,0,0,.407-.442l4.159-5.215-.348,5.735,3.4-.005a2.128,2.128,0,0,0,.643-.088,3.318,3.318,0,0,0,.751-.4l8.23-5.307-4.627,5.8h5.2a1.3,1.3,0,0,0,.545-.094,1.137,1.137,0,0,0,.334-.284l5.025-6.285Z" transform="translate(-572.682 -249.032)" fill="#fff"/>
      <path id="Path_130" data-name="Path 130" d="M670.98,249.115c-.044-.083-.177-.079-.177-.079h-2.137l-4.439,5.589a1.717,1.717,0,0,1-.765.423,3.994,3.994,0,0,1-.914.072l-5.456.005a1.952,1.952,0,0,1-.457-.074.82.82,0,0,1-.339-.241c-.083-.122.039-.269.064-.3l4.007-5.014a.315.315,0,0,0,.009-.368c-.078-.109-.284-.088-.284-.088l-5.245.005-4.194,5.239c-.035.07-.575.678-.333,1.277a1.387,1.387,0,0,0,.844.654,6.454,6.454,0,0,0,1.582.109l9.006,0a12.108,12.108,0,0,0,2.062-.153,5.4,5.4,0,0,0,2-.789,5.188,5.188,0,0,0,1.111-1l4.031-5.044a.253.253,0,0,0,.02-.23" transform="translate(-566.501 -249.032)" fill="#fff"/>
      <path id="Path_131" data-name="Path 131" d="M680.94,251.73c-.007,0-.007-.013-.007-.02l-.009-.017a.247.247,0,0,1-.02-.1.368.368,0,0,0-.019-.107v-.09a.569.569,0,0,1,0-.058.24.24,0,0,0-.005-.047c0-.02,0-.033,0-.042a.378.378,0,0,1-.008-.047c0-.016-.008-.033-.008-.052l-.013-.04a.3.3,0,0,1-.013-.04c0-.012-.009-.021-.012-.032a.063.063,0,0,0-.011-.029c-.019-.019-.032-.039-.05-.059a.218.218,0,0,0-.056-.044.266.266,0,0,1-.033-.024.033.033,0,0,1-.026-.025l.008-.017c.018-.007.028-.019.047-.025s.027-.017.04-.027l.029-.029a.065.065,0,0,1,.016-.016.249.249,0,0,0,.024-.013.064.064,0,0,0,.011-.027.2.2,0,0,0,.019-.029c.007-.009.013-.016.02-.027l.019-.029a.317.317,0,0,1,.029-.068.077.077,0,0,1,.007-.032l.007-.043,0-.023c0-.007,0-.013,0-.024v-.028c0-.008,0-.023.007-.038a.252.252,0,0,0,0-.043c-.007-.015-.007-.021,0-.029a.03.03,0,0,0,0-.021.172.172,0,0,1-.013-.063.152.152,0,0,1-.009-.029.061.061,0,0,0-.008-.031c-.005-.008-.008-.021-.015-.032a.08.08,0,0,1-.017-.027c-.009-.005-.009-.009-.009-.015l-.007-.013-.02-.034a.371.371,0,0,1-.023-.035.077.077,0,0,1-.023-.02.14.14,0,0,0-.024-.017l-.012-.009a.022.022,0,0,1-.013-.013l-.019-.013-.024-.012c-.013-.007-.028-.013-.039-.02a.35.35,0,0,0-.04-.025.252.252,0,0,1-.037-.008.092.092,0,0,1-.033-.007l-.029-.015a.07.07,0,0,1-.027-.011h-.032a.13.13,0,0,0-.031,0H680.4a.378.378,0,0,0-.09-.009h-.1c-.023,0-.048,0-.078,0a.559.559,0,0,0-.072,0h-.083a.067.067,0,0,0-.044-.005h-.159a.775.775,0,0,0-.114.005.049.049,0,0,0-.036-.005h-.147c0,.005-.007.005-.014.005s-.017-.005-.017,0h-.074a.053.053,0,0,0-.054.02.13.13,0,0,0-.013.048v.063a.054.054,0,0,0,0,.054v.084a.065.065,0,0,0-.005.029v.033a.052.052,0,0,1,.005.028.046.046,0,0,1,0,.027.332.332,0,0,1-.009.043.084.084,0,0,0,0,.033.039.039,0,0,1,.005.025v.025a.21.21,0,0,0-.009.031.059.059,0,0,0,0,.03.079.079,0,0,1,.005.036.07.07,0,0,1-.005.032.106.106,0,0,0,0,.027.111.111,0,0,1,0,.029c-.005.013-.005.02-.009.032a.056.056,0,0,0,0,.027v.063a.152.152,0,0,0,.005.048.145.145,0,0,1-.005.047v.027a.05.05,0,0,0,.005.028.051.051,0,0,0-.009.039.077.077,0,0,0,0,.031.02.02,0,0,1,.005.016v.013a.043.043,0,0,0-.009.033.1.1,0,0,1,0,.035v.054a.273.273,0,0,0,.005.05l0,.009v.009a.052.052,0,0,0,0,.028v.09a.375.375,0,0,1,0,.052v.161a.131.131,0,0,1,0,.033v.068a.074.074,0,0,0,0,.05.2.2,0,0,1,0,.055.233.233,0,0,1,0,.052.145.145,0,0,0,.007.056c0,.011,0,.023,0,.037v.038a.071.071,0,0,0,0,.029.083.083,0,0,0,.019.027.109.109,0,0,0,.052.013.1.1,0,0,0,.063,0h.04a.152.152,0,0,0,.056-.007.062.062,0,0,0,.051-.016.106.106,0,0,0,.017-.055v-.1a.083.083,0,0,0,0-.036.033.033,0,0,1,0-.035v-.076a.033.033,0,0,1,0-.035c0-.007.005-.017,0-.027v-.033a.071.071,0,0,0,.005-.033.08.08,0,0,1-.005-.035v-.218a.418.418,0,0,1,0-.071.06.06,0,0,0,0-.043.053.053,0,0,1,.007-.032.034.034,0,0,0,.019-.011.067.067,0,0,0,.024-.007h.075a.751.751,0,0,1,.095,0c.035,0,.062,0,.094,0l.031,0h.025l.02,0a.07.07,0,0,0,.024,0l.02-.007a.033.033,0,0,1,.021,0,.084.084,0,0,0,.04.007h.045a.053.053,0,0,1,.039-.009.24.24,0,0,0,.046,0h.027a.029.029,0,0,1,.023.007h.024a.131.131,0,0,1,.043.007.251.251,0,0,1,.055.013.417.417,0,0,1,.05.025l.032.032a.154.154,0,0,1,.047.047.105.105,0,0,0,.009.032.082.082,0,0,0,.007.027.109.109,0,0,0,.012.034l.015.036a.1.1,0,0,0,0,.029c0,.013,0,.02,0,.03l0,.016,0,.013a.209.209,0,0,0,.007.043.2.2,0,0,0,.007.034v.039a.111.111,0,0,1,0,.046.083.083,0,0,0,.008.04v.023a.06.06,0,0,0,.007.035v.094a.077.077,0,0,0,0,.029c0,.021.009.039.013.062a.128.128,0,0,0,.02.047.062.062,0,0,0,.03.017.2.2,0,0,1,.035.007l.013,0,.013,0h.044a.085.085,0,0,0,.041.011.076.076,0,0,0,.04-.011.076.076,0,0,1,.035,0,.035.035,0,0,0,.031,0c.01,0,.022-.009.023-.019a.048.048,0,0,0,.005-.035c-.005-.009-.007-.019-.013-.031l-.009-.029m-.321-1.36v.1a.874.874,0,0,1-.07.137.226.226,0,0,1-.094.074.754.754,0,0,1-.124.039.093.093,0,0,1-.031,0l-.03,0a.033.033,0,0,1-.023,0h-.025a.266.266,0,0,1-.066.005.691.691,0,0,0-.07,0,.55.55,0,0,1-.068,0,.432.432,0,0,0-.059,0H679.9a.078.078,0,0,1-.029,0h-.1a.415.415,0,0,0-.063,0,.284.284,0,0,0-.046,0,.078.078,0,0,1-.046-.012.042.042,0,0,1-.016-.039.117.117,0,0,0,.005-.052.031.031,0,0,1-.005-.021.023.023,0,0,1,0-.023.1.1,0,0,0,.005-.039.1.1,0,0,1-.005-.039v-.027c.005-.007.005-.016.005-.032a.077.077,0,0,0-.005-.036V250.4l0-.012a.035.035,0,0,0,0-.031V250.1a.058.058,0,0,0,.007-.023.052.052,0,0,1,.048-.02.17.17,0,0,0,.059,0,.055.055,0,0,1,.03,0c.008,0,.015,0,.017,0h.036a.109.109,0,0,0,.029,0c.019,0,.032.005.04.005h.068a.085.085,0,0,0,.025-.005h.03a.026.026,0,0,0,.02,0,.307.307,0,0,0,.043.005h.046l.023-.005h.059a.192.192,0,0,1,.04,0,.247.247,0,0,0,.039,0,.125.125,0,0,0,.03.005h.033a.27.27,0,0,0,.045.008c.013.005.032.009.048.015l.027,0,.027.011a.287.287,0,0,1,.066.051.158.158,0,0,1,.045.06.172.172,0,0,1,.008.034.118.118,0,0,1,.012.039.074.074,0,0,1,.012.035c0,.011,0,.021.005.033v.023" transform="translate(-556.643 -248.775)" fill="#fff"/>
    </g>
  </g>
</svg>
