<svg xmlns="http://www.w3.org/2000/svg" width="102.018" height="11.327" viewBox="0 0 102.018 11.327">
  <g id="Group_11839" data-name="Group 11839" transform="translate(-330.515 -26.627)">
    <path id="orbea-logo" d="M12.1,0C7.94,0,1.983.62.308,4.964s3.847,4.964,8,4.964S18.426,9.307,20.1,4.964,16.192,0,12.1,0Zm3.661,4.964C14.7,7.756,11.29,8.129,8.995,8.129c-2.358,0-5.46-.372-4.406-3.165S9.057,1.8,11.352,1.8C13.71,1.8,16.813,2.172,15.758,4.964Zm42.008-2.42C58.572.62,55.966.31,54.043.31H42.129L38.344,9.618H50.568c2.11,0,5.15-.31,6.019-2.42.683-1.613-.869-2.234-2.544-2.42V4.716C55.594,4.53,57.207,3.971,57.766,2.544ZM52.553,6.7c-.372.931-1.551,1.055-2.42,1.055h-6.95l.869-2.11H50.94C51.809,5.647,52.926,5.833,52.553,6.7Zm.931-3.723c-.31.807-1.365.869-2.048.869H44.8l.745-1.8h6.577C52.864,2.11,53.794,2.234,53.484,2.978Zm-13.9.31C40.578.683,37.289.31,34.869.31H23.452L19.729,9.618h4.1L25.189,6.2h3.289l4.157,3.413H37.6L33.194,6.2C35.986,6.081,38.716,5.46,39.585,3.289ZM32.573,4.406H25.934l.931-2.358H33.5c.931,0,2.172.124,1.737,1.179C34.869,4.281,33.5,4.406,32.573,4.406ZM87.239.31H82.4L71.6,7.756H65.894c-1.861,0-4.1-.248-3.971-1.986h9.8l.745-1.8h-9.8c1.3-1.613,3.6-1.861,5.4-1.861h7.942l.745-1.8H69.059C65.15.31,59.5.869,57.952,4.964s3.661,4.654,7.508,4.654h8l2.792-1.924H86.309l.931,1.924h4.592ZM78.863,5.895l4.9-3.413L85.44,5.895Z" transform="translate(340 28.026)" fill="#fff"/>
  </g>
</svg>
