<svg xmlns="http://www.w3.org/2000/svg" width="102.018" height="11.327" viewBox="0 0 102.018 11.327">
<g id="Group_11839" data-name="Group 11839" transform="translate(-330.515 -26.627)">
    <path id="Path_134" data-name="Path 134" d="M668.919,171.58a.185.185,0,0,1,.186.186.178.178,0,0,1-.029.1l-.614.984a2.146,2.146,0,0,1-1.836,1.036H663.97a1.96,1.96,0,0,0-1.651.9l-4.767,7.627a1.023,1.023,0,0,1-.873.49h-1.947a.287.287,0,0,1-.289-.286.294.294,0,0,1,.049-.161l5.176-8.282a.185.185,0,0,0-.154-.289h-4.032a.288.288,0,0,1-.241-.444l.541-.864a2.143,2.143,0,0,1,1.812-1Zm-16.147,3.366a.293.293,0,0,0,.045-.154.288.288,0,0,0-.288-.288h-1.945a1.021,1.021,0,0,0-.868.482l-4.671,7.472a.288.288,0,0,0,.239.447h1.947a1.022,1.022,0,0,0,.873-.49Zm-.526-1.063a2.146,2.146,0,0,0,1.818-1l.539-.864a.282.282,0,0,0,.04-.147.287.287,0,0,0-.287-.288H640.585a2.144,2.144,0,0,0-1.829,1.023l-.526.841a.3.3,0,0,0-.043.152.287.287,0,0,0,.287.288Zm-7.382,4.508a2.143,2.143,0,0,0,1.843-1.046l.495-.792a.288.288,0,0,0-.244-.44h-9.209a2.142,2.142,0,0,0-1.784.952l-3.37,5.392a.29.29,0,0,0-.048.161.287.287,0,0,0,.287.287h1.947a1.023,1.023,0,0,0,.874-.49l1.912-3.057a2.142,2.142,0,0,1,1.794-.968Zm-25.256,1.182a.257.257,0,0,0-.045.146.262.262,0,0,0,.262.262l2.06,0a.978.978,0,0,0,.824-.451l2.972-4.741a1.962,1.962,0,0,1,1.656-.907h7.9a2.143,2.143,0,0,0,1.78-.947l.576-.93a.287.287,0,0,0-.252-.426H625.8a2.144,2.144,0,0,0-1.809.991Zm13.877-5.068a.977.977,0,0,0-.832.465l-3,4.8a1.732,1.732,0,0,1-1.49.849H614.1a.386.386,0,0,1-.285-.126l-1.548-1.739a.215.215,0,0,1,.157-.366h5.445a1.725,1.725,0,0,0,1.472-.823l2.857-4.572a.936.936,0,0,0-.8-1.415H608.574a1.859,1.859,0,0,0-1.619.942l-6.217,9.944a.288.288,0,0,0,.245.439h1.97a1.02,1.02,0,0,0,.863-.473l4.793-7.669a1.857,1.857,0,0,1,1.582-.88h7.648a.4.4,0,0,1,.339.621l-.5.807a1.726,1.726,0,0,1-1.457.8h-5.537a2.234,2.234,0,0,0-1.93.945l-.464.731a.7.7,0,0,0,.086.881l3.588,4.028a.647.647,0,0,0,.413.206l17.309,0a1.986,1.986,0,0,0,1.719-.991l4.362-6.974a.288.288,0,0,0-.246-.438h-2.031m-42.069-2.924a1.66,1.66,0,0,0-1.407.777l-.17.274-6.145,9.833a.287.287,0,0,0,.243.439h1.985a1.025,1.025,0,0,0,.851-.471l4.8-7.676a1.861,1.861,0,0,1,1.58-.877l7.615,0a.394.394,0,0,1,.407.407.409.409,0,0,1-.061.213l-.467.745a1.725,1.725,0,0,1-1.5.864h-5.671a2.186,2.186,0,0,0-1.862,1.038l-.629,1.006a.153.153,0,0,0,.13.233h9.7a1.661,1.661,0,0,0,1.438-.829L605.11,173a.936.936,0,0,0-.8-1.422Z" transform="translate(-245.241 -144.952)" fill="#fff"/>
  </g>
</svg>
