<svg xmlns="http://www.w3.org/2000/svg" width="429.91" height="80.106" viewBox="0 0 429.91 80.106">
  <path id="Path_45098" data-name="Path 45098" d="M-178.295-19.11q.52-.26.585-.13t.455.26q.26-.52-.065-.455t-.325-.195q.52,0,.52-.13l-.26-.26q-.26,0-.26.39l-.26.26a2.889,2.889,0,0,0-.91-.39,1.648,1.648,0,0,1-.78-.39q-.13,0-.065.195t-.195.325a.53.53,0,0,1-.39-.13.53.53,0,0,0-.39-.13q0-.26.13-.325t0-.195q-.13-.39-.195,0t-.325.26q-.13-.26,0-.26t0-.26a.514.514,0,0,1-.325-.065.514.514,0,0,0-.325-.065h-.13v.26q-.13,0-.13.065t-.26.065a.648.648,0,0,0,.13-.65q0,.13-.195.195t-.2-.325a1.028,1.028,0,0,1-.65-.13q-.39,0,0,.39h-.78a.53.53,0,0,1,.13-.39q.13-.13,0-.39-.26-.13-.26.195a.466.466,0,0,1-.26.455.345.345,0,0,1-.39-.39q-.13,0-.065.13t-.2.26q0-.26-.065-.26t-.065-.13a2.353,2.353,0,0,1-1.69-.325,3.182,3.182,0,0,0-2.08-.325,4.555,4.555,0,0,0-1.5-.65q-1.235-.39-1.625.13-.13.13-.39,0a1.154,1.154,0,0,0-.52-.13q.13-.39.26-.325l.39.195a1,1,0,0,0-.715-.455q-.455-.065-1.1-.195,0,.39.325.325a.886.886,0,0,1,.585.065q-.26.52-1.3.13a3.129,3.129,0,0,1-1.43-.91,1.28,1.28,0,0,1-.455.325,1.1,1.1,0,0,0-.455.455,4.223,4.223,0,0,1-1.04-.325,1.273,1.273,0,0,0-1.04.065.462.462,0,0,1-.065-.39q.065-.13-.2-.39a.53.53,0,0,0-.13.39q0,.26-.52.26v-.39q.52,0,.13-.39l-.13.39a.375.375,0,0,0-.26.13q-.13-.26-.585-.26t-.455-.39q-.26.52-.52.26a.985.985,0,0,0-.91-.13l.26.26q-.52.26-.52-.065a.466.466,0,0,0-.26-.455q-.52-.13-.325.13t-.195.26v-.52q-.26-.26-.26.39a.307.307,0,0,1-.325-.26q-.065-.26-.455-.26-.13.39-.65.26a1.16,1.16,0,0,0-.26.845.883.883,0,0,1-.65.845q0-.26-.065-.195a.265.265,0,0,0-.065.195v.13a8.227,8.227,0,0,0-.78,1.82,1.944,1.944,0,0,1-1.17,1.3q0,.26.26,0t.13.26q-.26-.13-.39,0a1.512,1.512,0,0,1-.39.26.687.687,0,0,1,.39.845q-.13.585-.91.325a1.164,1.164,0,0,0-.325.65.964.964,0,0,1-.455.65q-.26-.26.065-.325t.065-.325a.307.307,0,0,0-.325.26,1.15,1.15,0,0,1-.325.52,1.019,1.019,0,0,1-.2-.26q-.065-.13-.325-.13-.13,0-.065.065t-.195.195a1,1,0,0,0,.39.13,1,1,0,0,1,.39.13.566.566,0,0,1-.13.78,1.154,1.154,0,0,1-.13-.52q0-.26-.52-.13a1.732,1.732,0,0,1,.39.585q.13.325-.26.585.13.39.455.13t.2.26a.429.429,0,0,0-.455,0q-.195.13-.455-.13-.13,0-.13.195t-.26.195v-.39q-.13-.13-.195.13t.195.26q.13.52-.26.26t-.39.39q.13.26.26,0t.39,0a.658.658,0,0,1-.585.455,1,1,0,0,0-.715.455.53.53,0,0,1,.13-.39q.13-.13,0-.39a.6.6,0,0,0-.39.65.614.614,0,0,1-.52.65q.13-.39.26-.715a1.6,1.6,0,0,0,.13-.585,6.534,6.534,0,0,0-.91,1.69,8.843,8.843,0,0,1-.91,1.82q-.52-.13-.26-.585a.779.779,0,0,0,.13-.715,1.85,1.85,0,0,1-.39.325,1.352,1.352,0,0,1-.52.065.416.416,0,0,0,.39.26q.26,0,0,.65-.26.13-.195-.195t-.2-.195a2.311,2.311,0,0,0-.195.65.941.941,0,0,1-.585.65q.13-.39,0-.455a.7.7,0,0,1-.26-.325.893.893,0,0,0-.2.78q.065.52-.585.52-.13-.52.195-.585t.2-.325a.506.506,0,0,0-.52.325q-.13.325-.78.325a1.632,1.632,0,0,0,.39-.65q.13-.39-.52-.26a34.994,34.994,0,0,1,2.795-9.425q2.015-4.355,3.445-8.385-1.04-1.95-1.95-3.575a24.708,24.708,0,0,1-1.69-3.835,7.9,7.9,0,0,1,3.445-2.015q2.015-.585,3.835-1.235.52-.78.975-1.56t.845-1.43a2.085,2.085,0,0,1-.91-1.235,1.574,1.574,0,0,0-1.04-1.105q-.52-1.3-1.17-2.665a3.45,3.45,0,0,1,0-2.925,13.3,13.3,0,0,1,3.575-4.485q2.405-2.015,3.965-3.575a18.42,18.42,0,0,0,2.6-1.43,6.844,6.844,0,0,1,2.47-1.04.506.506,0,0,0,.52-.325q.13-.325.39.065a17.441,17.441,0,0,1,3.64-1.69,22.317,22.317,0,0,1,3.64-.91.375.375,0,0,0,.13-.26q4.42-.78,8.9-1.5a24.285,24.285,0,0,1,9.165.325v.39q.26-.26.455-.195a1.44,1.44,0,0,0,.455.065v.26a6.27,6.27,0,0,1,2.795,1.365,7.228,7.228,0,0,1,1.755,2.34,19.474,19.474,0,0,1,1.1,2.925q.455,1.56.975,3.25.26,3.25-1.69,4.42a21.8,21.8,0,0,1-3.705,3.835A20.4,20.4,0,0,1-174.4-42.38a103.976,103.976,0,0,1-12.22,5.525q-6.37,2.405-13,4.615A34.3,34.3,0,0,0-194.675-31a43.891,43.891,0,0,1,4.81,1.1.855.855,0,0,0,.65.195q.26-.065.39.455.52-.26.39-.26,4.29,1.43,9.165,2.925a27.5,27.5,0,0,1,8.645,4.355q.13.26.26.065t.26.065q.39.13,0,.52.39-.13.26-.26.26,0,.26.13t-.26.26a1.092,1.092,0,0,1,.715.455,1.879,1.879,0,0,0,.585.585q0,.13-.325,0a.822.822,0,0,1-.455-.39q-.26,0-.2.325t.325.325a.721.721,0,0,1-.91.13q.13.26,0,.39a.753.753,0,0,0-.13.52q-.26-.13-.13-.455a.689.689,0,0,0,0-.585q-.13.39-.325.13t-.455,0a1.28,1.28,0,0,0,.455.325q.2.065.065.715a.85.85,0,0,1-.39-.39q-.13-.26-.65-.13a1.255,1.255,0,0,1,.2.65,1.791,1.791,0,0,1-.2,1.04q-.26,0-.13-.455t-.13-.325q-.26-.13-.13.13a.553.553,0,0,1,0,.52q-.65-.13-.65-.39t-.39-.52q-.26,0,0,.13t0,.39a.23.23,0,0,1-.26-.26.23.23,0,0,0-.26-.26q-.26-.26-.26.39a7.1,7.1,0,0,0-1.495-.78q-.715-.26-1.625-.52.26.26.13.455l-.39.585a4.249,4.249,0,0,1-.455-.26.674.674,0,0,0-.585,0Zm-3.51-36.66q0,.39-.13.39a55.782,55.782,0,0,0-10.92,2.6,1.467,1.467,0,0,1,.13,1.04,29.851,29.851,0,0,1-2.08,4.745q-1.3,2.4-2.47,4.875,6.63-2.47,12.935-5.005a56.668,56.668,0,0,0,11.635-6.305,1.593,1.593,0,0,1,.845-.91,1.023,1.023,0,0,0,.585-1.04,3.84,3.84,0,0,0-2.34-.325,3.8,3.8,0,0,1-2.47-.455,2.82,2.82,0,0,1-1.43.39,2.4,2.4,0,0,1-1.82-.39q-.13.65-1.1.585A6.207,6.207,0,0,1-181.8-55.77Zm2.73,15.08q0-.13-.26.13A.375.375,0,0,1-179.075-40.69Zm-13.13,4.94q.26.39.26,0T-192.205-35.75Zm-6.5,2.73q.26.39.26,0T-198.705-33.02Zm6.5,3.25q.26.39.26,0T-192.205-29.77Zm10.27,2.86q-.26.26.065,0T-181.935-26.91Zm-16.51,1.95q-.26.26.065,0T-198.445-24.96Zm-3.51.26q.26.39.26,0T-201.955-24.7Zm3.25.26q0-.52-.26,0Q-198.705-24.57-198.705-24.44Zm5.98.13q.26.26.26-.065T-192.725-24.31Zm-5.85.39q.13.26.325.065t-.325-.065v-.26h-.26Zm3.38.26q.26-.26-.13-.325t-.39.195q.26-.13.325,0A.208.208,0,0,0-195.2-23.66Zm2.21-.26q0-.13-.26.13A.375.375,0,0,1-192.985-23.92Zm.52.13q-.39-.39-.325-.065T-192.465-23.79Zm-5.2.13q.26.26.26-.065T-197.665-23.66Zm2.86,0q.26.39.26,0T-194.8-23.66Zm-2.34.13q.26.26.26-.065T-197.145-23.53Zm2.6.13h.26v-.26h-.26Zm2.6,0h.39q.26-.52-.39-.26Zm.78.13h.26v-.26h-.26Zm2.34,0q.26.39.26,0T-188.825-23.27Zm.52.78h.26v-.26h-.26Zm16.77.13q.26.39.26,0T-171.535-22.36Zm-13.91.39q-.13.52.2.26T-185.445-21.97Zm.52.39h.26v-.26h-.26Zm1.56,0h.26v-.26h-.26Zm.39,0h.26v-.26h-.26Zm.78.13q.26,0,.26.13,0-.52-.26-.39Zm10.14.13h.26v-.26h-.26Zm-9.23.13q.26.26.26-.065T-181.285-21.19Zm.78.13q0-.13-.26.13A.375.375,0,0,1-180.505-21.06Zm-27.43.65a.562.562,0,0,0,.455-.26q.195-.26-.2-.26,0,.26-.13.26T-207.935-20.41Zm27.82-.39q0-.13-.26.13A.375.375,0,0,1-180.115-20.8Zm.26.13q.26.26.26-.065T-179.855-20.67Zm5.2-.13q0-.13-.26.13A.375.375,0,0,1-174.655-20.8Zm-4.29.52q.13-.52-.39-.39,0,.26.2.26T-178.945-20.28Zm.52.26q.13-.52-.26-.52A.749.749,0,0,0-178.425-20.02Zm5.33.26a1.512,1.512,0,0,1,.26-.39.375.375,0,0,0,.13-.26.334.334,0,0,0-.455.13A.36.36,0,0,0-173.1-19.76Zm-35.62-.39q.26.39.26,0T-208.715-20.15Zm28.47,0q.26.39.26,0T-180.245-20.15Zm5.46,0q.26.39.26,0T-174.785-20.15Zm-3.38.26q.26.39.26,0T-178.165-19.89Zm5.46.13a.562.562,0,0,1,.455.26q.2.26.325-.13-.26,0-.39-.325T-172.705-19.76Zm1.17-.13q-.26.26.065,0T-171.535-19.89Zm-2.47.26q.26.39.26,0T-174.005-19.63Zm.78.13q.26.39.26,0T-173.225-19.5Zm.39.26q.26.26.26-.065T-172.835-19.24Zm-1.56.26q.26.39.26,0T-174.4-18.98Zm2.08.13q.52,0,.39-.26h-.26A.375.375,0,0,1-172.315-18.85Zm-36.66.65q.52,0,.52-.26Q-208.715-18.59-208.975-18.2Zm-2.21,2.6q.13-.52-.39-.39A.345.345,0,0,0-211.185-15.6Zm-5.46,4.94q-.39-.13-.52,0t-.52,0q0,.39.585.325T-216.645-10.66Zm20.41-12.48q.26-.26.26-.13Zm.39.13q.26-.52.26,0Q-195.585-23.14-195.845-23.01Zm1.04.26q-.26-.13-.065-.325T-194.8-22.75Zm-11.44,0v-.13h.13A.115.115,0,0,1-206.245-22.75Zm11.44,0q.26-.13.195,0T-194.8-22.75Zm4.16.39a.905.905,0,0,0-.39.065.813.813,0,0,1-.52-.065.608.608,0,0,1,.455-.325.373.373,0,0,1,.455.2Zm-1.95.13q0-.26.325-.195t.065.325a.115.115,0,0,0-.13-.13Zm1.95-.13h.52q.26,0,0,.26,0-.26-.2-.195A.294.294,0,0,1-190.645-22.36Zm.78.26q0-.26.325-.195t.065.325a.115.115,0,0,0-.13-.13Zm1.04,0q.13.39-.065.195T-188.825-22.1Zm-1.95.26q.26-.52.26,0Q-190.515-21.97-190.775-21.84Zm2.21.13q.26-.26.26-.13Zm.52,0q.26-.39.26,0T-188.045-21.71Zm.52.13q.26-.39.26,0T-187.525-21.58Zm2.6.52a.375.375,0,0,0,.26.13q.13,0,0,.26a.425.425,0,0,0-.52-.13l.13-.26Zm.52.39q.26-.52.26,0Q-184.145-20.8-184.4-20.67Zm1.56-.13h.26v.26h-.26Zm1.04.26q.39.13.13.325T-181.8-20.54Zm-1.56.26q.26-.26.26-.13Zm4.03.52q0,.52-.195.26T-179.335-19.76Zm9.36.13q.26-.13.26.39,0-.13-.26-.13Zm-9.23.26q.26-.26.26-.13Zm.65.13q-.39.13-.2-.065T-178.555-19.24Zm0,0q.26,0,.26.13T-178.555-19.24Zm1.82,0q.26-.13.325,0t.325.13a.375.375,0,0,1-.13.26.753.753,0,0,0-.13.52q-.26-.26-.2-.455T-176.735-19.24Zm5.72.91q-.26,0-.325-.325a.493.493,0,0,1,.065-.455Q-170.625-18.72-171.015-18.33Zm-4.81-.52q.13-.26.26-.195a.208.208,0,0,1,.13.195q.13.26-.13.26A.23.23,0,0,1-175.825-18.85Zm.52.13q.39.26.065.26T-175.3-18.72Zm4.29.39q.52,0,.195.325T-171.015-18.33Zm-37.96.91q.26-.26.26-.13Zm-.26.26h.26v.26h-.26Zm-.26,1.04q.26-.39.26-.065T-209.495-16.12Zm-3.51,3.25q.13.13,0,.2t-.13.325q-.13,0-.13-.26a.375.375,0,0,1,.13-.26Zm-.91.91h.26v.26h-.26Zm88.92-35.88a.875.875,0,0,0,.78-.39q-.13-.13-.455,0t-.325.39h-.39q.65-.52,1.235-.975a8.166,8.166,0,0,1,1.365-.845.429.429,0,0,1,0-.455,1.064,1.064,0,0,0,.13-.585A10.235,10.235,0,0,0-119.73-53.1a36.135,36.135,0,0,0,2.275-3.185,2.438,2.438,0,0,0-1.105-.26h-1.235a.23.23,0,0,1-.26-.26q-2.99.26-5.85.585a58.8,58.8,0,0,0-5.85.975,1.059,1.059,0,0,1-.78.26,1.059,1.059,0,0,0-.78.26,56.417,56.417,0,0,0-10.4,3.12,18.4,18.4,0,0,0-2.665.845,11.192,11.192,0,0,0-2.4,1.235,6.457,6.457,0,0,0,.715,1.3,1.649,1.649,0,0,1,.325,1.3q-1.82,2.08-3.77,3.965T-155.285-39a.36.36,0,0,0,.52.065.562.562,0,0,0,.26-.455q4.03-.78,6.89-1.17t6.24-.78a36.2,36.2,0,0,1,4.225-.26,11.316,11.316,0,0,1,3.835.65q.26.13.2-.065t.195-.325q.39,0,.2.195a.36.36,0,0,0-.065.455q.65,0,1.5.065a12.637,12.637,0,0,1,1.495.195q0,.52-.39.26a2.536,2.536,0,0,0,1.365.585,5.465,5.465,0,0,1,1.625.455q-.13.39.325.78a2.379,2.379,0,0,0,.975.52,4.833,4.833,0,0,1,.13,1.17.922.922,0,0,0,.65.91q-.26.52,0,.78a.776.776,0,0,1,.13.78q-.52-.26-.52.78a53.619,53.619,0,0,0-16.445.195,156.188,156.188,0,0,0-15.665,3.445,5.238,5.238,0,0,1-.52,1.56q0,.26.39,0t.26.13q-.52.13-.39.39l.26.52a19.123,19.123,0,0,1-4.225,2.34,37.811,37.811,0,0,1-4.875,1.56.592.592,0,0,0-.065.455q.065.2-.2.325a1.933,1.933,0,0,0-.975.195,1.392,1.392,0,0,1-.975.065,1.765,1.765,0,0,0-1.1-1.235,2.169,2.169,0,0,1-1.235-1.365,1.683,1.683,0,0,0-.26-1.17,1.7,1.7,0,0,1-.13-1.43,2.019,2.019,0,0,1-.39-2.08q.39-1.17.65-2.21a138.482,138.482,0,0,1,9.49-11.44,3.414,3.414,0,0,1-.52-.325,2.277,2.277,0,0,0-.65-.325,8.735,8.735,0,0,1-.455-2.21,6.207,6.207,0,0,0-.715-2.34,2.657,2.657,0,0,0,.13-.845.793.793,0,0,0-.52-.715,3.244,3.244,0,0,1,.715-1.1,3.11,3.11,0,0,0,.715-1.365,141.838,141.838,0,0,1,19.37-8.58,82.269,82.269,0,0,1,20.8-4.42.7.7,0,0,1,.325.26q.065.13.325.13a1.515,1.515,0,0,1,1.235-.325,2.656,2.656,0,0,1,1.235.325q.26-.13.26-.195t.26-.195a.23.23,0,0,1,.26.26q0,.26.26.13a4.651,4.651,0,0,1,2.4.325,4.218,4.218,0,0,0,1.755.455.524.524,0,0,1,.26.52,4.028,4.028,0,0,1,2.145,1.69,8.687,8.687,0,0,1,1.04,2.535,15.169,15.169,0,0,1,.39,2.86q.065,1.495.2,2.665a1.312,1.312,0,0,1-.585,1.17,1.2,1.2,0,0,0-.585,1.04h-.39a4.109,4.109,0,0,1-1.625,1.365A4.63,4.63,0,0,0-115.5-49.14a18.379,18.379,0,0,0-2.535.78q-1.365.52-2.4,1.04a2.123,2.123,0,0,0-1.885.455,4.292,4.292,0,0,1-2.015.845.711.711,0,0,1,.585-.325q.455-.065.325-.715-.26-.26-.455.13t-.845.13a1.28,1.28,0,0,1,.455-.325,1.28,1.28,0,0,0,.455-.325,4.508,4.508,0,0,0-1.82.91,4.508,4.508,0,0,1-1.82.91,1.765,1.765,0,0,1,1.1-1.235A3.159,3.159,0,0,0-124.995-47.84Zm2.08-17.29q-.26.26-.26.13Q-122.915-65-122.915-65.13Zm-.65,16.38q-.39-.13-.195.065t.195-.065q.26,0,.13-.065T-123.565-48.75Zm.26,1.82q.65,0,.65-.52h-.39A.749.749,0,0,1-123.3-46.93Zm.26-3.12q.13.39-.065.325t-.325.195q-.26-.13-.065-.325A.624.624,0,0,1-123.045-50.05Zm-.65.52q0,.52-.52.26Zm-1.69,1.69a21.3,21.3,0,0,1-2.4,1.625,16.689,16.689,0,0,1-2.665,1.235q1.17-.78,2.4-1.495T-125.385-47.84Zm1.56,1.04q.13-.39.13,0T-123.825-46.8Zm-2.08,1.04a3.151,3.151,0,0,0-.39.455q-.13.2-.65.065a3.361,3.361,0,0,1,.91-.845,7.364,7.364,0,0,1,1.17-.585q0,.52-.39.585A1.164,1.164,0,0,0-125.9-45.76Zm-5.46,2.21a4.63,4.63,0,0,1,1.625-1.235q.975-.455,2.015-.975a2.906,2.906,0,0,1-1.56,1.3A21.65,21.65,0,0,0-131.365-43.55Zm5.46-2.21.26.26h-.26Zm1.3.13a27.408,27.408,0,0,1-2.6,1.69,9.28,9.28,0,0,1-2.99,1.17,1.243,1.243,0,0,1,.715-.52,1.161,1.161,0,0,0,.715-.65,1.184,1.184,0,0,0,.91-.13,6.829,6.829,0,0,0,1.04-.65,5.685,5.685,0,0,1,1.105-.65A2.727,2.727,0,0,1-124.6-45.63Zm-2.86.39q.39,0,.39.26h-.39Zm-2.99.26a2.44,2.44,0,0,1-.975.78q-.585.26-1.235.52a2.44,2.44,0,0,1,.975-.78Q-131.105-44.72-130.455-44.98Zm1.04,1.04a1.559,1.559,0,0,1,.78-.585,4.458,4.458,0,0,0,.91-.455,1.161,1.161,0,0,1-.715.65A5.707,5.707,0,0,0-129.415-43.94Zm0,0q0,.39-.2.195T-129.415-43.94Zm-2.47.52q-.26,0-.065-.2T-131.885-43.42Zm.52-.13q0,.13-.39.13,0-.13.065-.13t.065-.13q.13,0,.13.065T-131.365-43.55Zm-.52.13h.13a.265.265,0,0,1-.065.195Q-131.885-43.16-131.885-43.42Zm-.13.13a.3.3,0,0,1-.195.325.816.816,0,0,0-.325.195q-.26-.13,0-.26Zm1.69.65a.626.626,0,0,1-.52.455,1.164,1.164,0,0,0-.65.325q-.26-.26.325-.455A7.087,7.087,0,0,0-130.325-42.64Zm19.37,15.73a4.313,4.313,0,0,1-.455.91,5.346,5.346,0,0,0-.455.78,8.377,8.377,0,0,0-1.04.065.978.978,0,0,0-.78.585v-.65q-.39.26-.325.585t-.325.585a4.91,4.91,0,0,1-2.47.13,2.269,2.269,0,0,0-1.95.39q-.26.13-.26-.065a.441.441,0,0,0-.13-.325q-.26.26-.195.455t-.195.455q-.52.26-.585-.065a1.133,1.133,0,0,0-.325-.585q-.26-.13-.2.195a.493.493,0,0,1-.065.455.325.325,0,0,1-.52,0q-.26-.26-.26.13a.257.257,0,0,1-.39-.13.85.85,0,0,0-.39-.39q-.39-.13-.325.26t-.325.26q.26-.39-.065-.52a.689.689,0,0,0-.585,0q-.13.39.13.325t.13.195q-.26-.26-.845.13t-.585-.52q-.26.13-.26.65-.65-.26-.52.065t-.26.325a2.223,2.223,0,0,0-.39-1.04q-.26.13-.065.39t-.065.39a.36.36,0,0,0-.52-.065.912.912,0,0,1-.78.065l.26.26q-.26.39-.39,0t-.39-.26q-.26.13-.065.325t-.065.325q-.26,0-.26-.195t-.26-.325a.375.375,0,0,1-.26.13.54.54,0,0,0-.2.52.54.54,0,0,1-.195.52q-1.43.26-2.665.39a13.88,13.88,0,0,0-2.535.52q-.26,0-.13.26t0,.39q-.65-.39-1.69.26t-1.56-.13a.53.53,0,0,0-.13.39,1.992,1.992,0,0,0-1.365.26q-.715.39-1.235.65a22.831,22.831,0,0,0-5.2,1.3,22.831,22.831,0,0,1-5.2,1.3,4.251,4.251,0,0,0-.455.26,4.248,4.248,0,0,1-.455.26,30.819,30.819,0,0,0-7.02,2.08q-1.69.52-3.575.975a9.264,9.264,0,0,0-3.315,1.5,1.186,1.186,0,0,0-.65-.065q-.26.065-.65.2a.375.375,0,0,0-.13-.26,1.513,1.513,0,0,0-.39.26q-.13.13-.65,0a19.279,19.279,0,0,1-.91-2.535,7.656,7.656,0,0,1-.13-3.185q.26,0,.26.065t.13.065q-.39-.91.585-1.105a2.248,2.248,0,0,0,1.495-.975q0-.26-.195,0t-.065-.26q6.24-2.21,13.065-4.355a87.886,87.886,0,0,1,14.365-3.185.7.7,0,0,1,.65-.195.624.624,0,0,0,.65-.325q.26,0,.26.13t.26.13q2.86-.39,6.37-.78t7.15-.585q3.64-.195,7.15-.065A45.112,45.112,0,0,1-110.955-26.91Zm-1.3.65h.26v-.26h-.26Zm-17.55,4.81a.115.115,0,0,1,.13-.13.23.23,0,0,0-.26-.26Q-129.935-21.45-129.8-21.45Zm.91-.39a.115.115,0,0,1,.13-.13.115.115,0,0,1,.13.13q0,.26-.065.13A.208.208,0,0,0-128.895-21.84Zm45.63-16.77q.13-.39-.065-.195t.065.195v.26q-5.46,2.86-10.92,5.59t-11.31,5.07q-1.3,2.21-2.535,4.42t-2.275,4.55h-.39a9.289,9.289,0,0,1-1.105,3.055q-.845,1.5-1.755,2.8a15.335,15.335,0,0,1-1.17,2.535,17.7,17.7,0,0,0-1.17,2.4,2.231,2.231,0,0,0-.91.13l-.78.39a2.28,2.28,0,0,1-.26-.65q0-.13-.39-.39-.26-.26-.065-.26t.325-.26q0-.26-.065-.13t-.325.13a4.249,4.249,0,0,1-.065-1.235,4.984,4.984,0,0,1,.325-1.1q0-.13-.39-.13a2.541,2.541,0,0,0,.195-.52,2.541,2.541,0,0,1,.195-.52q-.26-.26-.39.26t-.52.39q.13-.26.325-.585a1.626,1.626,0,0,0,.195-.845q-.26-.13-.26.52a.6.6,0,0,1-.065-.715,1.973,1.973,0,0,0,.195-.715q-.13-.26-.26.065a1.6,1.6,0,0,0-.13.585,10.292,10.292,0,0,1,1.3-3.77q0-.13-.39-.13a17.815,17.815,0,0,0,.91-1.82q.39-.91.78-1.95-.39-.13-.26.26t-.26.13a7.212,7.212,0,0,1,1.235-2.8A6.179,6.179,0,0,0-114.6-26.52q.26,0,.325-.325t.455-.2a4.555,4.555,0,0,1,.26-1.43.966.966,0,0,1-.26-.715q0-.455-.52-.455,0-.65.26-.65a6.7,6.7,0,0,1-.715-.845,1.611,1.611,0,0,1-.195-1.235,3.659,3.659,0,0,1,2.21-1.17,5.769,5.769,0,0,0,2.47-1.04,60.6,60.6,0,0,1,3.445-6.435q1.885-3.055,3.575-6.305-.39-.91-.975-2.145A10.9,10.9,0,0,1-105.105-52a5.927,5.927,0,0,1,0-2.47,3.146,3.146,0,0,1,1.43-1.95q3.77-1.17,7.605-2.535t7.995-2.535a83.152,83.152,0,0,1,8.84-1.95,72.266,72.266,0,0,1,10.14-.91q4.03,0,5.72,2.665a24.9,24.9,0,0,1,2.73,6.045,11.642,11.642,0,0,1-3.965,5.2q-2.665,1.95-5.265,3.64a3.856,3.856,0,0,1-.845.845q-.585.455-.975.065,0,.26.065.26t.065.26q-2.6,1.43-5.07,3.055a28.432,28.432,0,0,1-5.07,2.665q0,.39-.52.65A5.081,5.081,0,0,1-83.265-38.61ZM-91.2-51.35a2.375,2.375,0,0,0-.195,1.17,3.05,3.05,0,0,1-.195,1.3,3.928,3.928,0,0,0-1.235,1.3,2.269,2.269,0,0,1-1.495,1.04,33.724,33.724,0,0,1-2.145,3.315,22.463,22.463,0,0,0-2.015,3.315q7.54-3.51,14.5-7.54a146.734,146.734,0,0,0,13.325-8.71h-.26A85.406,85.406,0,0,0-81.12-54.665,44.33,44.33,0,0,0-91.2-51.35Zm18.46,6.24q.39,0,.39-.26Q-72.735-45.37-72.735-45.11ZM-118.5-14.82q.13.39.13,0T-118.5-14.82Zm99.58-59.28q0-.52.26-.39v.26a.115.115,0,0,0-.13.13Zm-.26.13q-.26-.13-.065-.325T-19.175-73.97Zm.26-.13a.493.493,0,0,0-.065.455q.065.325-.2.2v-.52q.13,0,.13-.065T-18.915-74.1Zm-.78,3.25q-.13,0-.13.39a.53.53,0,0,0,.13-.39.808.808,0,0,0,.26-.585.808.808,0,0,1,.26-.585q.39.26.26.52a.425.425,0,0,0,.13.52q-.26.13-.26,0t-.26,0a4.58,4.58,0,0,1-.52,3.055,8.9,8.9,0,0,0-1.04,3.185,1.235,1.235,0,0,0,.52-1.04q.78,0,.715-.52a9.5,9.5,0,0,1-.065-1.17q.26-.13.26.195t.39.2q-.13-.52-.2-.52t-.065-.39q.26-.26.39-.065t.52-.195a18.978,18.978,0,0,1-1.04,2.86,12.608,12.608,0,0,0-.91,2.73.626.626,0,0,0,.455-.52q.065-.39.585-.26a56.259,56.259,0,0,1-2.21,6.045q-1.17,2.665-2.6,5.525.65,0,.715-.52a1.3,1.3,0,0,1,.325-.78q.39.26-.065.78t-.715.78a10.718,10.718,0,0,1-1.69,3.12,11.16,11.16,0,0,0-1.69,2.99q.13.26.26-.13t.26,0a.7.7,0,0,1-.325.52q-.325.26-.455,0a.36.36,0,0,0,.065.455.538.538,0,0,1,.065.585A16.149,16.149,0,0,1-29.64-40.5a11.212,11.212,0,0,0-2.015,3.445,1.677,1.677,0,0,0-.715.585,3.249,3.249,0,0,0-.325.78,3,3,0,0,1-.39.845,1.262,1.262,0,0,1-.78.52q-.52,1.04-1.04,2.015t-1.04,2.015q-.26-.39-.39-.26a.824.824,0,0,0-.195.39,2.54,2.54,0,0,1-.195.52q-.13.26-.39,0a5.145,5.145,0,0,1-.715,2.34,12.773,12.773,0,0,1-1.365,1.755q-.78.845-1.56,1.625a6.392,6.392,0,0,0-1.3,1.95q-2.21,2.08-4.225,4.355a15.546,15.546,0,0,1-5,3.7q-.13,0-.39.52a12.862,12.862,0,0,1-1.95.65,3.547,3.547,0,0,0-1.69.91.9.9,0,0,0-.91-.325,1.488,1.488,0,0,0-.91.325,20.412,20.412,0,0,1-3.575-.845q-1.755-.585-3.575-1.235.13-.26-.065-.26t-.195-.26a2,2,0,0,0-.78.26q0-.39-.26-.39a.23.23,0,0,1-.26-.26,2.037,2.037,0,0,0-.39.52q-.26-.13-.195-.195a.514.514,0,0,0,.065-.325,4.594,4.594,0,0,1-1.82-2.86,16.524,16.524,0,0,1-.325-3.965A25.384,25.384,0,0,1-67.99-26q.455-2.21.845-4.03.26-1.3.455-2.47t.455-2.34a12.7,12.7,0,0,1,.78-2.665,25.152,25.152,0,0,0,.91-2.535,14.33,14.33,0,0,0,.39-1.755,9.88,9.88,0,0,1,.39-1.625,3.415,3.415,0,0,1,.325-.52,3.415,3.415,0,0,0,.325-.52.886.886,0,0,0,.065-.585.886.886,0,0,1,.065-.585,1.735,1.735,0,0,1,.325-.455,1.735,1.735,0,0,0,.325-.455q.52-1.3.845-2.275a15.436,15.436,0,0,1,.845-2.015q.91-1.82,1.82-3.445a30.641,30.641,0,0,1,1.95-3.055q.13,0,.39.26a1.992,1.992,0,0,1,1.56-1.04,7.187,7.187,0,0,0,1.95-.52.931.931,0,0,1,.91.52,1.048,1.048,0,0,0,1.04.52.713.713,0,0,1,.26.455.713.713,0,0,0,.26.455,5.467,5.467,0,0,1,2.6,1.43l2.08,2.08a3.382,3.382,0,0,1-.13,1.04,1.467,1.467,0,0,0-1.04.13.721.721,0,0,1-.91-.13,17.331,17.331,0,0,0-2.73,3.575,27.8,27.8,0,0,0-2.015,4.29q-.845,2.275-1.625,4.68t-1.69,4.745q-.26,0-.195-.26t-.195-.26l-.65,1.3a.954.954,0,0,0,.26,1.3.585.585,0,0,1-.195.52,3.151,3.151,0,0,0-.455.39,2.242,2.242,0,0,1,.325.65,2.4,2.4,0,0,1-.065.91h-.52q-.26,0-.195.26t-.195.26a2.641,2.641,0,0,1-.39,1.95,2.572,2.572,0,0,0-.26,2.08,7.071,7.071,0,0,0-.65,3.185,5.414,5.414,0,0,1-.78,3.055q.13-.78.195-1.755t.065-1.5q-.52,0-.455.52a.751.751,0,0,1-.325.78.89.89,0,0,1,.195,1.17,3.538,3.538,0,0,0-.195,1.82q.52.13.52-.78.26,0,.26.52a25.305,25.305,0,0,0,7.28-6.24,83.337,83.337,0,0,1,6.37-7.15q-.13-.26.065-.325t.065-.325a49.672,49.672,0,0,0,3.64-4.355q1.69-2.275,3.51-4.485a13.982,13.982,0,0,1,2.015-3.51A14.842,14.842,0,0,0-34.9-48.49a127.971,127.971,0,0,0,7.8-13.13,1.71,1.71,0,0,0,1.04-1.495,1.759,1.759,0,0,1,.91-1.495,3.484,3.484,0,0,1,.65-1.82,4.367,4.367,0,0,0,.78-1.69,1.262,1.262,0,0,0,.78-.52,2.889,2.889,0,0,0,.39-.91,4.45,4.45,0,0,1,.325-.91.851.851,0,0,1,.845-.39v-.78q.39-.13.52.13a.85.85,0,0,0,.39.39,1.278,1.278,0,0,0,.585-1.3q-.065-.91.585-1.04a.833.833,0,0,1-.065,1.1A1.9,1.9,0,0,0-19.695-70.85Zm-1.56.39q.26.13.26-.26t-.26-.13Zm.26.91a.437.437,0,0,1,.2-.39.437.437,0,0,0,.195-.39.7.7,0,0,0-.52.325Q-21.385-69.68-20.995-69.55Zm-.39.91h.26v-.52h-.26ZM-28.4-43.29h.39q0-.52-.26-.52a.208.208,0,0,1-.13.195Q-28.535-43.55-28.4-43.29Zm-.78,1.04q.52,0,.52-.26Q-29.185-42.77-29.185-42.25Zm-1.95,3.51q0-.26.065-.26t.065-.26h-.39A.524.524,0,0,0-31.135-38.74Zm-.91,1.56q-.26-.26-.065-.455t-.195-.2v.455Q-32.3-37.05-32.045-37.18Zm-2.6,3.38h.26q0-.26.065-.26t.065-.13h-.39Zm-23.4,1.43h.26v-.26h-.26Zm.78-.26q-.26.26.065.26T-57.265-32.63Zm20.8,1.43q.39.13.39-.13a1.154,1.154,0,0,1,.13-.52Q-36.465-31.98-36.465-31.2Zm-21.06-.13q-.26.26.065.26T-57.525-31.33Zm-.65.78q0-.39-.26-.39Q-58.435-30.55-58.175-30.55Zm.39,0h.26v-.26h-.26Zm20.93-.13q.13.26.195-.065T-36.855-30.68Zm-21.84,2.08q-.13-.26.13-.325t.13-.325q-.26-.13-.39.195T-58.695-28.6Zm-.52,1.43a.417.417,0,0,0,.455-.39,2.31,2.31,0,0,1,.2-.65.589.589,0,0,0-.65-.13,2.735,2.735,0,0,1-.065.65A.733.733,0,0,0-59.215-27.17Zm-.52,1.95q.26,0,.26.13t.26.13q.13-.65.195-1.17t-.325-.52a1.261,1.261,0,0,0-.195.78A.855.855,0,0,1-59.735-25.22Zm.26.91q0-.52-.26-.52A.524.524,0,0,0-59.475-24.31Zm-.52.39a.905.905,0,0,0,.065.39.813.813,0,0,1-.065.52q.52,0,.52-1.04-.26-.13-.26,0T-59.995-23.92Zm18.2.26q0-.26.13-.325t-.13-.065a.208.208,0,0,1-.13.195Q-42.055-23.79-41.795-23.66Zm-.91,1.69q-.13-.65.325-.715t.455-.715a2.858,2.858,0,0,0-.91.585Q-43.355-22.36-42.7-21.97Zm-1.56,1.3q.13.39.13,0T-44.265-20.67Zm-16.51.39q-.26,0-.26.13Q-60.775-20.41-60.775-20.28Zm15.73.39q.13.39.13,0T-45.045-19.89Zm-.91,1.17q0-.13.2-.26t-.065-.26q0,.13-.195.26T-45.955-18.72Zm-.78.65q-.26,0-.26.13Q-46.735-18.2-46.735-18.07Zm-.78.65q.26.26.195-.065T-47.515-17.42Zm-1.43,1.69a1.5,1.5,0,0,1,.2-.325,1.5,1.5,0,0,0,.195-.325.334.334,0,0,0-.455.13A.36.36,0,0,0-48.945-15.73Zm-1.69,1.04q0-.13.52-.13,0-.52-.52-.39.13.13-.065.26T-50.635-14.69Zm-.78.65a.7.7,0,0,1,.26-.325.7.7,0,0,0,.26-.325.514.514,0,0,1-.325-.065.265.265,0,0,0-.195-.065.582.582,0,0,0-.325.39Q-51.805-14.17-51.415-14.04Zm-.65.13h.26v-.26h-.26Zm33.02-58.5q0-.26.26-.13a.257.257,0,0,1,.13.39q-.26,0-.26-.13A.115.115,0,0,0-19.045-72.41Zm.91.26q.26,0,.26.39Q-18.135-71.76-18.135-72.15Zm.13.91q-.26.26-.39.26Q-18.525-71.24-18-71.24Zm-.52.65h.26v.26h-.26Zm.13,1.69q.39,0,.13.52Q-18.655-68.64-18.395-68.9Zm-1.82,2.47h.26v.26h-.26Zm-1.95,11.7q.52.13.195.455a2.391,2.391,0,0,1-.585.455q-.13-.52.13-.585A.307.307,0,0,0-22.165-54.73Zm-3.25,7.02q.13-.39.13,0T-25.415-47.71Zm-31.2,13.91q.39,0,.39.52h-.52q-.13-.26,0-.325A.208.208,0,0,0-56.615-33.8Zm-9.23,19.5v-.13q.52-.13,0,.26T-65.845-14.3Zm.52.13q0,.39-.26.39v-.26l.13-.13Zm82.55-33.67a.875.875,0,0,0,.78-.39q-.13-.13-.455,0t-.325.39h-.39q.65-.52,1.235-.975a8.167,8.167,0,0,1,1.365-.845.429.429,0,0,1,0-.455,1.064,1.064,0,0,0,.13-.585A10.235,10.235,0,0,0,22.49-53.1a36.134,36.134,0,0,0,2.275-3.185,2.438,2.438,0,0,0-1.105-.26H22.425a.23.23,0,0,1-.26-.26q-2.99.26-5.85.585a58.8,58.8,0,0,0-5.85.975,1.059,1.059,0,0,1-.78.26,1.059,1.059,0,0,0-.78.26,56.418,56.418,0,0,0-10.4,3.12,18.4,18.4,0,0,0-2.665.845,11.192,11.192,0,0,0-2.4,1.235,6.456,6.456,0,0,0,.715,1.3,1.649,1.649,0,0,1,.325,1.3q-1.82,2.08-3.77,3.965T-13.065-39a.36.36,0,0,0,.52.065.562.562,0,0,0,.26-.455q4.03-.78,6.89-1.17t6.24-.78A36.2,36.2,0,0,1,5.07-41.6a11.316,11.316,0,0,1,3.835.65q.26.13.195-.065T9.3-41.34q.39,0,.2.195a.36.36,0,0,0-.065.455q.65,0,1.495.065a12.637,12.637,0,0,1,1.495.195q0,.52-.39.26a2.536,2.536,0,0,0,1.365.585,5.465,5.465,0,0,1,1.625.455q-.13.39.325.78a2.379,2.379,0,0,0,.975.52,4.833,4.833,0,0,1,.13,1.17.922.922,0,0,0,.65.91q-.26.52,0,.78a.776.776,0,0,1,.13.78q-.52-.26-.52.78A53.619,53.619,0,0,0,.26-33.215,156.188,156.188,0,0,0-15.4-29.77a5.238,5.238,0,0,1-.52,1.56q0,.26.39,0t.26.13q-.52.13-.39.39l.26.52a19.123,19.123,0,0,1-4.225,2.34A37.81,37.81,0,0,1-24.5-23.27a.592.592,0,0,0-.065.455q.065.2-.195.325a1.933,1.933,0,0,0-.975.195,1.392,1.392,0,0,1-.975.065,1.765,1.765,0,0,0-1.1-1.235,2.169,2.169,0,0,1-1.235-1.365,1.683,1.683,0,0,0-.26-1.17,1.7,1.7,0,0,1-.13-1.43,2.019,2.019,0,0,1-.39-2.08q.39-1.17.65-2.21a138.481,138.481,0,0,1,9.49-11.44,3.415,3.415,0,0,1-.52-.325,2.277,2.277,0,0,0-.65-.325,8.735,8.735,0,0,1-.455-2.21,6.207,6.207,0,0,0-.715-2.34,2.657,2.657,0,0,0,.13-.845.793.793,0,0,0-.52-.715,3.244,3.244,0,0,1,.715-1.1,3.11,3.11,0,0,0,.715-1.365,141.837,141.837,0,0,1,19.37-8.58,82.269,82.269,0,0,1,20.8-4.42.7.7,0,0,1,.325.26q.065.13.325.13a1.515,1.515,0,0,1,1.235-.325A2.656,2.656,0,0,1,22.3-65q.26-.13.26-.195t.26-.195a.23.23,0,0,1,.26.26q0,.26.26.13a4.651,4.651,0,0,1,2.4.325,4.218,4.218,0,0,0,1.755.455.524.524,0,0,1,.26.52A4.028,4.028,0,0,1,29.9-62.01a8.687,8.687,0,0,1,1.04,2.535,15.169,15.169,0,0,1,.39,2.86q.065,1.495.2,2.665a1.312,1.312,0,0,1-.585,1.17,1.2,1.2,0,0,0-.585,1.04h-.39a4.109,4.109,0,0,1-1.625,1.365,4.63,4.63,0,0,0-1.625,1.235,18.38,18.38,0,0,0-2.535.78q-1.365.52-2.4,1.04a2.123,2.123,0,0,0-1.885.455,4.292,4.292,0,0,1-2.015.845.711.711,0,0,1,.585-.325q.455-.065.325-.715-.26-.26-.455.13t-.845.13a1.28,1.28,0,0,1,.455-.325,1.28,1.28,0,0,0,.455-.325,4.508,4.508,0,0,0-1.82.91,4.508,4.508,0,0,1-1.82.91,1.765,1.765,0,0,1,1.1-1.235A3.158,3.158,0,0,0,17.225-47.84Zm2.08-17.29q-.26.26-.26.13Q19.305-65,19.305-65.13Zm-.65,16.38q-.39-.13-.195.065t.195-.065q.26,0,.13-.065T18.655-48.75Zm.26,1.82q.65,0,.65-.52h-.39A.749.749,0,0,1,18.915-46.93Zm.26-3.12q.13.39-.065.325t-.325.195q-.26-.13-.065-.325A.624.624,0,0,1,19.175-50.05Zm-.65.52q0,.52-.52.26Zm-1.69,1.69a21.3,21.3,0,0,1-2.4,1.625,16.689,16.689,0,0,1-2.665,1.235q1.17-.78,2.4-1.495T16.835-47.84ZM18.4-46.8q.13-.39.13,0T18.4-46.8Zm-2.08,1.04a3.151,3.151,0,0,0-.39.455q-.13.2-.65.065a3.361,3.361,0,0,1,.91-.845,7.364,7.364,0,0,1,1.17-.585q0,.52-.39.585A1.164,1.164,0,0,0,16.315-45.76Zm-5.46,2.21a4.63,4.63,0,0,1,1.625-1.235q.975-.455,2.015-.975a2.906,2.906,0,0,1-1.56,1.3A21.651,21.651,0,0,0,10.855-43.55Zm5.46-2.21.26.26h-.26Zm1.3.13a27.408,27.408,0,0,1-2.6,1.69,9.28,9.28,0,0,1-2.99,1.17,1.243,1.243,0,0,1,.715-.52,1.161,1.161,0,0,0,.715-.65,1.184,1.184,0,0,0,.91-.13,6.83,6.83,0,0,0,1.04-.65,5.685,5.685,0,0,1,1.1-.65A2.727,2.727,0,0,1,17.615-45.63Zm-2.86.39q.39,0,.39.26h-.39Zm-2.99.26a2.44,2.44,0,0,1-.975.78q-.585.26-1.235.52a2.44,2.44,0,0,1,.975-.78Q11.115-44.72,11.765-44.98Zm1.04,1.04a1.559,1.559,0,0,1,.78-.585,4.458,4.458,0,0,0,.91-.455,1.161,1.161,0,0,1-.715.65A5.707,5.707,0,0,0,12.805-43.94Zm0,0q0,.39-.195.195T12.805-43.94Zm-2.47.52q-.26,0-.065-.2T10.335-43.42Zm.52-.13q0,.13-.39.13,0-.13.065-.13t.065-.13q.13,0,.13.065T10.855-43.55Zm-.52.13h.13a.265.265,0,0,1-.065.195Q10.335-43.16,10.335-43.42Zm-.13.13a.3.3,0,0,1-.195.325.816.816,0,0,0-.325.195q-.26-.13,0-.26Zm1.69.65a.626.626,0,0,1-.52.455,1.164,1.164,0,0,0-.65.325q-.26-.26.325-.455A7.087,7.087,0,0,0,11.9-42.64Zm19.37,15.73a4.313,4.313,0,0,1-.455.91,5.346,5.346,0,0,0-.455.78,8.376,8.376,0,0,0-1.04.065.978.978,0,0,0-.78.585v-.65q-.39.26-.325.585t-.325.585a4.91,4.91,0,0,1-2.47.13,2.269,2.269,0,0,0-1.95.39q-.26.13-.26-.065a.441.441,0,0,0-.13-.325q-.26.26-.195.455t-.195.455q-.52.26-.585-.065a1.133,1.133,0,0,0-.325-.585q-.26-.13-.195.195a.493.493,0,0,1-.065.455.325.325,0,0,1-.52,0q-.26-.26-.26.13a.257.257,0,0,1-.39-.13.85.85,0,0,0-.39-.39q-.39-.13-.325.26t-.325.26q.26-.39-.065-.52a.689.689,0,0,0-.585,0q-.13.39.13.325t.13.195q-.26-.26-.845.13t-.585-.52q-.26.13-.26.65-.65-.26-.52.065t-.26.325a2.223,2.223,0,0,0-.39-1.04q-.26.13-.065.39t-.065.39a.36.36,0,0,0-.52-.065.912.912,0,0,1-.78.065l.26.26q-.26.39-.39,0t-.39-.26q-.26.13-.065.325t-.065.325q-.26,0-.26-.195t-.26-.325a.375.375,0,0,1-.26.13.54.54,0,0,0-.195.52.54.54,0,0,1-.195.52q-1.43.26-2.665.39a13.88,13.88,0,0,0-2.535.52q-.26,0-.13.26t0,.39q-.65-.39-1.69.26t-1.56-.13a.53.53,0,0,0-.13.39,1.992,1.992,0,0,0-1.365.26q-.715.39-1.235.65a22.831,22.831,0,0,0-5.2,1.3,22.831,22.831,0,0,1-5.2,1.3,4.249,4.249,0,0,0-.455.26,4.25,4.25,0,0,1-.455.26A30.819,30.819,0,0,0-16.835-13q-1.69.52-3.575.975a9.264,9.264,0,0,0-3.315,1.5,1.186,1.186,0,0,0-.65-.065q-.26.065-.65.2a.375.375,0,0,0-.13-.26,1.512,1.512,0,0,0-.39.26q-.13.13-.65,0a19.28,19.28,0,0,1-.91-2.535,7.655,7.655,0,0,1-.13-3.185q.26,0,.26.065t.13.065q-.39-.91.585-1.105a2.248,2.248,0,0,0,1.5-.975q0-.26-.195,0t-.065-.26q6.24-2.21,13.065-4.355A87.885,87.885,0,0,1,2.405-25.87a.7.7,0,0,1,.65-.195.624.624,0,0,0,.65-.325q.26,0,.26.13t.26.13q2.86-.39,6.37-.78t7.15-.585q3.64-.195,7.15-.065A45.112,45.112,0,0,1,31.265-26.91Zm-1.3.65h.26v-.26h-.26Zm-17.55,4.81a.115.115,0,0,1,.13-.13.23.23,0,0,0-.26-.26Q12.285-21.45,12.415-21.45Zm.91-.39a.115.115,0,0,1,.13-.13.115.115,0,0,1,.13.13q0,.26-.065.13A.208.208,0,0,0,13.325-21.84Zm26.26,5.07a4.064,4.064,0,0,0-2.21,1.04h-.13q0,.13.065.13t.065-.13q.26,0,.26-.13.26.39-.325.52t-.715.39a.939.939,0,0,1-.78-.325.7.7,0,0,0-.78-.2q0,.39.065.2t.325-.065q.13.39-.195.39t-.195.26q-.52-.13-.52.13a1.154,1.154,0,0,1-.13.52q-.39-.65-.975-.065a.829.829,0,0,1-1.235.065q.26.52,0,.585a.582.582,0,0,0-.39.325h-.26a.115.115,0,0,0,.13.13.115.115,0,0,0,.13-.13.53.53,0,0,1,.39.13,7.266,7.266,0,0,1-.78.455,4.45,4.45,0,0,1-.91.325q.13-.39-.065-.2t.065.2a.964.964,0,0,1-.65.455,1.476,1.476,0,0,0-.78.455q-.26-.26.065-.39t.325-.39q-.39-.13-.78.455a1.075,1.075,0,0,1-1.17.455q-.13.26.13.325t0,.195a3.817,3.817,0,0,0-1.43.26q0,.26.065.26t.065.26q-.26,0-.26.065t-.26.065q-.26,0-.26-.39a1.133,1.133,0,0,1-.585.325.4.4,0,0,0-.325.455q-.52-.26-.715,0a.685.685,0,0,1-.585.26.838.838,0,0,1,.39-.52,2.037,2.037,0,0,0,.52-.39.764.764,0,0,0,.65-.39q0-.26-.26,0l-.39.39a2.527,2.527,0,0,0-1.3.52q-.13.26.13.325t0,.325q-.26-.13-.26-.26t-.26.13q-.26.13-.065.195t.065.325a1,1,0,0,1-.39.13.375.375,0,0,0-.26.13q-.26.13-.26-.13a.23.23,0,0,0-.26-.26,1.563,1.563,0,0,0-1.04,1.04,4.833,4.833,0,0,0-1.17.13,2.657,2.657,0,0,1-1.17,0q0,.91-1.17.91v.65q-.39-.52-.65-.065a.844.844,0,0,1-.78.455q-.13-.52.325-.39t.325-.39q.39.13.195-.065t-.195.065a3.567,3.567,0,0,1-.455.2,3.566,3.566,0,0,0-.455.195l-.39-.39a.345.345,0,0,0,.39.39q0,.39.13.39a3.567,3.567,0,0,0-.2.455q-.065.2-.455.065.26-.52.065-.715A1.009,1.009,0,0,1,14.5-6.37q-.39-.13-.52,0a.53.53,0,0,1-.39.13.36.36,0,0,1-.065.455.36.36,0,0,0-.065.455q-.39-.52-.715,0a1.43,1.43,0,0,1-.715.65q-.39-.13-.195-.26a2.13,2.13,0,0,0,.325-.26q-.26-.26-.52.13-.26-.13-.065-.26t-.065-.26a4.26,4.26,0,0,0-.65.52,1.787,1.787,0,0,1-.91.39.524.524,0,0,1,.26-.52.85.85,0,0,0,.39-.39q-.26-.26-.39.13a.363.363,0,0,1-.52.26v-.65q-.26,0-.26.65A.514.514,0,0,1,9.1-5.265q-.065-.065-.2.195-.39-.26-.065-.325a.894.894,0,0,0,.455-.2q-.13-.26-.26-.065t-.39.065q.65-.65,1.17-1.235a3,3,0,0,1,1.56-.845.524.524,0,0,1,.26-.52.524.524,0,0,0,.26-.52,2.389,2.389,0,0,0,1.625-.845,3.857,3.857,0,0,1,1.5-1.1q-.26-.52-.78,0t-.78,0q-.26,0-.065.13t.065.39q-.13,0-.13-.065t-.26-.065a.8.8,0,0,1-.13.455.429.429,0,0,0,0,.455,3.028,3.028,0,0,0-2.21.65.592.592,0,0,1,.325-.325q.2-.065.195-.455a2.5,2.5,0,0,0-.975,1.04A2.5,2.5,0,0,1,9.3-7.41q-.52,0-.195-.2T9.3-8.06q-.65.26-.585.585a.619.619,0,0,1-.195.585h-.26q0-.39-.26-.2t-.39-.2A1.4,1.4,0,0,1,8.385-8a1.039,1.039,0,0,0,.65-.845,130.345,130.345,0,0,1,23.53-13.325q12.61-5.525,26-10.335a15.977,15.977,0,0,0,3.055-.91q1.625-.65,3.315-1.3a2.9,2.9,0,0,1-1.04-.39,1.091,1.091,0,0,0-1.04,0q-.26-.65-1.43-.455t-1.56-.455a3.2,3.2,0,0,1-2.015-.13,3.2,3.2,0,0,0-2.015-.13q-.13-.39-.39-.325t-.26-.195a4.169,4.169,0,0,1-1.495,0,6.816,6.816,0,0,0-1.625-.13,6.871,6.871,0,0,0-3.055-.845,7.757,7.757,0,0,1-3.185-.845q-.26-.13-.325,0t-.325.13a6.658,6.658,0,0,0-2.8-.845,3.474,3.474,0,0,1-2.535-1.235q-.39,0-.39.13a9.075,9.075,0,0,1-2.99-3.9q-1.04-2.47-2.21-4.68a1.3,1.3,0,0,0,.2-.91,2.06,2.06,0,0,1,.065-.91,22.444,22.444,0,0,1,7.6-5.135q4.485-1.885,8.645-3.7,3.38-1.04,6.37-1.69t5.85-1.43a16.754,16.754,0,0,0,2.08-.13q1.04-.13,2.47-.39a3.015,3.015,0,0,0,1.04.065,6.605,6.605,0,0,1,1.04-.065,1.047,1.047,0,0,0,.455.13,1.047,1.047,0,0,1,.455.13,2.221,2.221,0,0,1,1.885.325,5.947,5.947,0,0,0,1.755.845,4.268,4.268,0,0,1,1.17,1.495,12.138,12.138,0,0,1,.65,1.755l.52,1.82a4.6,4.6,0,0,0,.91,1.69,1.105,1.105,0,0,0,0,1.04.721.721,0,0,1-.13.91q-.65.13-.78-.26t-.78-.13a8.06,8.06,0,0,0-3.185-1.17,16.864,16.864,0,0,0-3.64-.13,26.294,26.294,0,0,0-3.705.52q-1.82.39-3.51.65a56.488,56.488,0,0,0-9.62,2.665,67.061,67.061,0,0,0-8.71,3.965,6.583,6.583,0,0,0,2.275.65q1.235.13,2.535.39,3.38.65,7.15,1.3t7.15,1.3a19.476,19.476,0,0,1,4.55.845,14.445,14.445,0,0,0,4.16.715,1.64,1.64,0,0,0,1.69.52,4.937,4.937,0,0,1,2.73,1.755,19.106,19.106,0,0,1,1.69,2.8v.65q.52,1.04.975,1.82a5.1,5.1,0,0,1,.455,2.47,26.048,26.048,0,0,1-8,3.965A88.223,88.223,0,0,0,61.945-24.7a47.875,47.875,0,0,0-5.2,1.625q-2.6.975-4.94,1.625A.959.959,0,0,1,50.9-21q-.52-.065-.78.585-.26-.13-.39.065t-.39-.065a17,17,0,0,1-4.355,1.95,15.289,15.289,0,0,0-4.1,1.82Q40.105-17.16,39.585-16.77Zm.26-7.41q.13.39.13,0T39.845-24.18Zm-.26.65q.13.39.13,0T39.585-23.53Zm15.08.65q.13.26.195-.065T54.665-22.88Zm-5.98,1.69a5.593,5.593,0,0,0,1.04-.13.89.89,0,0,0,.78-.65,5.707,5.707,0,0,1-.975.39A3,3,0,0,0,48.685-21.19Zm2.08-.13q.65,0,.52-.26A.749.749,0,0,0,50.765-21.32Zm-.78.26A.265.265,0,0,1,50.18-21a.514.514,0,0,0,.325.065.307.307,0,0,0-.26-.325Q49.985-21.32,49.985-21.06Zm-16.77.26q-.13,0-.13-.065t-.26-.065q-.26.26.065.325T33.215-20.8Zm15.73.13q.13.26.195-.065T48.945-20.67Zm-6.5.39Zm2.99.52q-.26.13-.13.13a.115.115,0,0,0,.13-.13,2.277,2.277,0,0,1,.715-.13q.325,0,.325-.52A1.955,1.955,0,0,0,45.435-19.76Zm-.91.39h-.26q0,.13-.065.13t-.065.13q.26-.13.325.13t.325,0q.52.13.325-.065t-.325.065q-.26,0-.26-.39.13,0,.52-.39Q44.525-19.76,44.525-19.37Zm-15.99.65q-.26,0-.26.13Q28.535-18.59,28.535-18.72Zm15.47.26h.26v-.26h-.26Zm-2.21,0v.26h.39v-.39h-.26A.115.115,0,0,1,41.8-18.46Zm-4.29.13v.26h.26a.115.115,0,0,1,.13-.13v-.26h-.26A.115.115,0,0,1,37.505-18.33Zm2.86.52a1.648,1.648,0,0,1-.78.39q-.52.13-.26.39a.882.882,0,0,1,.65-.26q.39,0,.39-.52.39.39.65-.26Q40.365-18.07,40.365-17.81Zm1.17.13q.13.39.13,0T41.535-17.68Zm-.65.39q-.39,0-.39.13Q40.885-17.16,40.885-17.29Zm-15.86.78q.39,0,.39-.26h-.26q0,.13-.065.13T25.025-16.51Zm-1.82.65q.39,0,.39-.26h-.26q0,.13-.065.13T23.205-15.86Zm12.48.26a.466.466,0,0,0,.52-.065q.26-.2,0-.325,0,.26-.39.13T35.685-15.6Zm-3.12,1.43q.78,0,.78-.52A.833.833,0,0,0,32.565-14.17Zm-12.35.52h.26v-.26h-.26Zm11.31.13a.208.208,0,0,1,.13-.195q.13-.065-.13-.195a.208.208,0,0,1-.13.195Q31.265-13.65,31.525-13.52Zm-1.69.65a1.059,1.059,0,0,0,.78-.26,1.154,1.154,0,0,0-.52-.13Q29.835-13.26,29.835-12.87Zm-11.96.26q.26.26.65-.13Q18.135-13.13,17.875-12.61Zm8.97,0h.26v-.26h-.26Zm2.21,0v.26q.26.26.325-.065t-.195-.325A.115.115,0,0,1,29.055-12.61Zm-4.16.39a.115.115,0,0,1,.13.13.115.115,0,0,0,.13.13.441.441,0,0,1,.325-.13.713.713,0,0,0,.455-.26Q25.155-12.61,24.9-12.22Zm-7.15-.13q-.26,0-.26.13Q17.745-12.22,17.745-12.35Zm10.27.39q.52,0,.52-.13a.441.441,0,0,0-.325-.13Q28.015-12.22,28.015-11.96Zm-12.09,0q0,.26.13.26t-.13.26q.39.13.52,0l.39-.39Q16.185-12.22,15.925-11.96Zm8.32.52h.26v-.26h-.26Zm-8.71.65q.13-.52-.195-.585a2.32,2.32,0,0,1-.585-.2A.689.689,0,0,0,15.535-10.79Zm5.46.65a.85.85,0,0,0,.39-.39q.13-.26.52,0,0-.65-.26-.65a1.472,1.472,0,0,1-.52.52Q20.735-10.4,21-10.14Zm4.94-.78q-.39,0-.39.26.39,0,.39-.26.65,0,.52-.26Q25.935-11.18,25.935-10.92Zm-1.17,0q-.26,0-.26.13Q24.765-10.79,24.765-10.92Zm-2.47.65a.208.208,0,0,1,.13-.195q.13-.065-.13-.195a.208.208,0,0,1-.13.195Q22.035-10.4,22.3-10.27Zm-.26.39q0-.39-.26-.39Q21.775-9.88,22.035-9.88Zm-2.6.78v.26h.39v-.39h-.26A.115.115,0,0,1,19.435-9.1Zm-1.3,1.17q.39,0,.325-.325t.455-.065q0-.26.065-.26t.065-.26h-.52a.416.416,0,0,1-.26.39Q18.005-8.32,18.135-7.93Zm1.17-.39q.13.39.13,0T19.305-8.32Zm-1.69.65a.882.882,0,0,1-.65.26.345.345,0,0,0-.39.39,2.137,2.137,0,0,1,.52.065.54.54,0,0,0,.52-.2v-.52q.26,0,.325-.325t-.195-.325A1.028,1.028,0,0,0,17.615-7.67Zm-5.33-.39v.26h.39v-.39h-.26A.115.115,0,0,1,12.285-8.06Zm7.54-.13q-.26,0-.26.13Q19.825-8.06,19.825-8.19Zm-.39.39q-.65,0-.455.195T19.435-7.8Zm-7.67.39q.13,0,.13.065t.13.065q0-.39-.26-.39Zm.91.52q0-.26.195-.2t.195-.2a.36.36,0,0,0-.455.065Q12.415-7.02,12.675-6.89Zm-.39.39q.13.65-.65.65a.653.653,0,0,0,.715.52q.585,0,.585-.65h-.39a2.258,2.258,0,0,1,.715-.455,1.434,1.434,0,0,0,.715-.715q-.13,0-.13-.065t-.26-.065A1.2,1.2,0,0,1,12.285-6.5Zm3.77-.52q-.13.65.26.26t-.26-.26q-.13-.26-.325-.26t-.2.39q.26,0,.26-.065T16.055-7.02Zm-.78.78q.39,0,.39-.26Q15.145-6.5,15.275-6.24Zm-5.33.65q.39,0,.455-.26a.582.582,0,0,1,.325-.39q-.26.13-.39,0a.53.53,0,0,0-.39-.13.864.864,0,0,1-.065.455Q9.815-5.85,9.945-5.59Zm.91-.13q.39,0,.39-.26h-.26q0,.13-.065.13T10.855-5.72Zm28.73-11.05a.441.441,0,0,0,.325.13q.2,0,.065.26Q39.325-16.12,39.585-16.77Zm-1.43.65h.78l-.78.39Zm-3.12,1.43h.26q0,.26-.65.52,0-.26.195-.26T35.035-14.69ZM32.175-13a.115.115,0,0,1,.13-.13A.115.115,0,0,1,32.175-13Zm-6.76,3.25q0,.39-.52.39Q24.9-9.75,25.415-9.75ZM11.375-8.58q0,.26-.52.26Q10.855-8.58,11.375-8.58Zm-1.04.52Zm10.53,0h.26v.39h-.39v-.26A.115.115,0,0,0,20.865-8.06ZM6.955-5.85v-.39a.638.638,0,0,0-.585.325q-.195.325-.455.065a4.677,4.677,0,0,0,.715-.585,3.221,3.221,0,0,1,.845-.585.882.882,0,0,0-.26.65A.524.524,0,0,1,6.955-5.85ZM18.4-6.89q-.26.39-.26.065T18.4-6.89Zm-10.14,0a.115.115,0,0,1-.13.13Q8-6.76,8.255-6.89Zm-.78.52a.115.115,0,0,1,.13-.13.115.115,0,0,1,.13.13Zm-.52.52q.13.39-.065.2T6.955-5.85Zm1.43.26q.26.13.13.2a.208.208,0,0,0-.13.2q-.26-.13-.13-.2A.208.208,0,0,0,8.385-5.59Zm.78.65q0,.26-.39.26Q8.775-4.94,9.165-4.94Zm3.51,0q.26,0,.26.39h-.39a.265.265,0,0,1,.065-.195A.265.265,0,0,0,12.675-4.94Zm.52.26q.13-.39.13,0T13.2-4.68Zm-4.68.26q.13-.39.13,0T8.515-4.42Zm.65,0q.26,0,.26.2A.441.441,0,0,1,9.3-3.9q-.26-.13-.195-.2A.514.514,0,0,0,9.165-4.42Zm-1.56.78q0-.13.26-.13Q7.865-3.64,7.605-3.64Zm75.14-1.04q.26-1.04.39-1.43a.257.257,0,0,0-.39.13,2.541,2.541,0,0,0-.195.52.964.964,0,0,1-.26.455q-.195.2-.585-.065.91-1.43,1.69-2.86a31.7,31.7,0,0,0,1.43-2.99,1.834,1.834,0,0,0-.585.585q-.325.455-.585.195.26-.65.65-.65a4.51,4.51,0,0,1,1.1-2.86,4.737,4.737,0,0,0,1.235-2.34,1.731,1.731,0,0,0-.39.585.856.856,0,0,1-.65.455.973.973,0,0,1,.325-1.17A.9.9,0,0,0,86-17.42a1.807,1.807,0,0,0,1.105-.91,7.636,7.636,0,0,1,.715-1.17,1.467,1.467,0,0,0-.13-1.04q.39-.13.39-1.17a.7.7,0,0,0,.325-.26.7.7,0,0,1,.325-.26,4.1,4.1,0,0,1,.65-2.015A5.024,5.024,0,0,0,90.155-26a14.975,14.975,0,0,0,2.535-4.29A16.99,16.99,0,0,1,95.1-34.58q.52-1.3,1.04-2.4a12.315,12.315,0,0,1,1.3-2.145v-.78a14.307,14.307,0,0,0,2.34-3.965,12.447,12.447,0,0,1,2.34-3.835,8.629,8.629,0,0,1,1.105-2.99,15.493,15.493,0,0,0,1.365-2.99,2.8,2.8,0,0,0,1.43-1.56,21.651,21.651,0,0,1,.91-2.08q-.78.13-1.69.195a2.788,2.788,0,0,1-1.43-.195,3.472,3.472,0,0,1-2.47.52,3.787,3.787,0,0,0-2.34.26q0-.26-.13-.26l-.39.39a9.4,9.4,0,0,1-2.665.13,4,4,0,0,0-2.4.52,10.638,10.638,0,0,0-4.94.13,15.1,15.1,0,0,1-5.2.39,1.944,1.944,0,0,0-1.17-1.3q-.26-1.3-.52-2.73a7.93,7.93,0,0,1,0-2.86q0-.26-.13-.26t-.26-.26a1.811,1.811,0,0,1,.13-.78,1.172,1.172,0,0,0,0-.78q.39-.65.845-1.3a2.385,2.385,0,0,1,1.235-.91h1.82a5.814,5.814,0,0,0,2.535,1.04,15.169,15.169,0,0,0,3.185.195q1.69-.065,3.315-.195t3.055-.13q5.72-.52,11.115-1.365a52.584,52.584,0,0,1,10.725-.585,3.927,3.927,0,0,1,1.82-.455l1.95.195a5.212,5.212,0,0,1,1.56-.325,3.512,3.512,0,0,1,1.56.195q.65-.39.715-.195t.715.065q.13.26,0,.26t-.13.26q.26,0,.325-.325t.325.195a.745.745,0,0,1,.91-.39q.13.26,0,.325a.7.7,0,0,0-.26.325,1.184,1.184,0,0,1,.91-.13q.39.13.65-.52.39,0,.26.39a.589.589,0,0,0,.13.65,2.372,2.372,0,0,1,1.235.065,1.75,1.75,0,0,0,1.235-.065.734.734,0,0,1,.065.52q-.065.26.585.13a.886.886,0,0,1,.065.585q-.065.325.195.195t.065-.325q-.195-.195.065-.455a1.9,1.9,0,0,1,.65.065q.13.065.39-.195a3.621,3.621,0,0,0,1.56.26q.26.39,0,.455a.307.307,0,0,0-.26.325,1.411,1.411,0,0,0,.52-.26q.13-.13.39.13.13-.26,0-.39a.53.53,0,0,1-.13-.39q.52.13.52,1.04-.26.26-.325.13t-.455-.13q.26.39.52.39h.78a.472.472,0,0,0,.325-.585q-.065-.455.455-.325.13.26,0,.39a1.512,1.512,0,0,0-.26.39q.13.26.52.13t.39.13q.26,0,.195-.26a2.138,2.138,0,0,1-.065-.52q.39-.13.325.2a3.012,3.012,0,0,0-.065.585.882.882,0,0,1,1.04.195,1.307,1.307,0,0,0,1.17.325q.13.26-.13.195a.316.316,0,0,0-.39.2q.26.26.455,0t.455,0q.39,0,.13-.2t0-.195a2.657,2.657,0,0,1,1.17,0,.886.886,0,0,1,.065.585q-.065.325.2.325t.13-.325q-.13-.325.26-.195a1.094,1.094,0,0,0,.13.91,1.848,1.848,0,0,1,.26,1.04,1.382,1.382,0,0,1-.845.195,1.994,1.994,0,0,0-.845.065,2.112,2.112,0,0,1,0,1.04q-.26,0-.26-.39a.345.345,0,0,0-.39-.39,1.6,1.6,0,0,1-1.17.78,9.874,9.874,0,0,1-1.625.13h-1.69a2.218,2.218,0,0,0-1.365.39q-.26.13-.26-.13a.749.749,0,0,0-.26-.52,5.146,5.146,0,0,1-1.885.65,15.237,15.237,0,0,1-2.015.13h-2.08a4.9,4.9,0,0,0-1.95.39q-.26.13-.325-.195t-.325-.325q-.39,0-.39.52a7.731,7.731,0,0,1-1.17-.065q-.39-.065-.78.455a2.1,2.1,0,0,0-1.755-.39,5.923,5.923,0,0,0-2.015.52,1.343,1.343,0,0,0-1.69-.13,3.582,3.582,0,0,1-2.08.39,22.225,22.225,0,0,0-2.21,4.29,26.31,26.31,0,0,1-2.21,4.42v.78q-1.3,2.21-2.47,4.615t-2.21,4.875q-.26-.13-.26.065t-.26.195v.65a13.99,13.99,0,0,0-1.17,1.625,6.518,6.518,0,0,0-.78,2.015q-1.3,2.21-2.535,4.42a46.868,46.868,0,0,0-2.275,4.68,4.861,4.861,0,0,0-1.17,2.015,3.32,3.32,0,0,1-1.43,1.885,1.988,1.988,0,0,1-.65,1.43,29.388,29.388,0,0,1-2.86,5.72,49.166,49.166,0,0,0-3.12,5.59,1.29,1.29,0,0,0-.455.39,1.29,1.29,0,0,1-.455.39q.26,1.17-.65,1.3a4.081,4.081,0,0,1-1.17,2.4,4.215,4.215,0,0,0-1.17,2.535,1.037,1.037,0,0,0-.585.455,1.092,1.092,0,0,1-.715.455q0,.13.26.26t-.13.26q-.26,0-.26-.39A5.126,5.126,0,0,0,86.32.065a4.908,4.908,0,0,1-.715,1.625A25.342,25.342,0,0,0,83.72,3.51,16.5,16.5,0,0,0,82.1,5.59h-.78a1.873,1.873,0,0,0-.26-1.43.416.416,0,0,0-.39.26q-.13.26-.65.13.26-.65.455-1.105a2.149,2.149,0,0,0-.065-1.365q.52-1.04,1.04-2.015a4.23,4.23,0,0,0,.52-2.015,3.161,3.161,0,0,0,.91-1.235A1.333,1.333,0,0,0,82.745-4.68Zm46.8-62.27a.592.592,0,0,0,.455.065q.195-.065.065-.325A.749.749,0,0,0,129.545-66.95Zm6.11,1.04q-.13.65.195.325T135.655-65.91Zm-.91.26q-.26.26.065,0T134.745-65.65Zm2.08.52q0-.26-.26,0Zm2.73,1.3a.437.437,0,0,1,.2-.39q.195-.13-.325-.13Q139.685-63.83,139.555-63.83Zm1.82,0q.13-.26-.065-.26a.441.441,0,0,1-.325-.13A.345.345,0,0,0,141.375-63.83Zm1.95,0q.26.26.26-.065T143.325-63.83Zm1.17,1.04q0-.13-.325-.195a.373.373,0,0,0-.455.195.894.894,0,0,0,.455.195Q144.5-62.53,144.5-62.79Zm-4.16,1.69q-.13.65.195.325T140.335-61.1ZM92.105-28.08q-.26.26.065.26T92.105-28.08Zm-4.68,10.4q.26,0,.13.13h.26q0-.39-.13-.39Zm-1.69,4.42.26.13q0-.39-.26-.39Zm-.52.52q.13.65-.065.845a1.481,1.481,0,0,0-.325.585q.65-.13.715-.585a3.221,3.221,0,0,1,.325-.975A1.447,1.447,0,0,0,85.215-12.74ZM83.4-4.94q.13-.39-.26-.39Q83.265-4.94,83.4-4.94Zm49.27-62.53q0,.26-.585.325a1.424,1.424,0,0,1-.975-.2q.13-.26.65-.325A1.3,1.3,0,0,1,132.665-67.47ZM138-65.65a.3.3,0,0,1,.325.195q.065.2-.195.325Q137.735-65.39,138-65.65Zm7.02,2.34a.115.115,0,0,1,.13-.13h.13Q145.275-63.31,145.015-63.31ZM85.085-14.17a2.527,2.527,0,0,1-.52,1.3q-.39-.26-.065-.78T85.085-14.17Zm-.91,1.69v.26q-.39.13-.26-.2T84.175-12.48Zm-1.04,2.73h.39a2.381,2.381,0,0,1-.52,1.1,3.665,3.665,0,0,0-.65,1.235q-.39-.52.195-1.1A1.74,1.74,0,0,0,83.135-9.75Zm-.39,5.07a1.29,1.29,0,0,0-.13.585q0,.325-.52.325Q82.1-4.68,82.745-4.68Zm-1.3.13q.39-.13.325.13a.824.824,0,0,1-.195.39Q81.705-4.03,81.445-4.55Zm-.52,1.17a.23.23,0,0,1,.26.26l-.13.13q-.13,0-.065-.13A.212.212,0,0,0,80.925-3.38Zm58.76-15.86q0-.39-.13-.325l-.39.195q.13.26.195.2a.514.514,0,0,1,.325-.065,4.439,4.439,0,0,1-1.95.585,5.38,5.38,0,0,0-2.08.585v-.39q.26,0,.13-.065t-.13.065a2.044,2.044,0,0,1-1.95.39q-1.3-.26-2.34-.52a.115.115,0,0,0-.13.13.115.115,0,0,0,.13.13q-1.3-.65-3.315-1.69a8.557,8.557,0,0,1-3.185-2.73q.39-.13.26-.455a1.732,1.732,0,0,0-.39-.585q-.13.39-.26.325t-.52.195q.13-.39.195-.65t-.585,0a.7.7,0,0,1,.26-.325q.13-.065.13-.325a3.324,3.324,0,0,1-1.56-2.73,3.434,3.434,0,0,0,.065-2.21,4.8,4.8,0,0,1-.065-2.34q.13,0,.13.39a1.548,1.548,0,0,0,.52-1.69q.26,0,.195-.2t.195-.325a13.942,13.942,0,0,1,1.17-5.4q1.17-2.795,2.21-5.395a3.573,3.573,0,0,1-.325,1.495q-.325.715-.715,1.43a10.436,10.436,0,0,0-.65,1.43,1.856,1.856,0,0,0,0,1.365.8.8,0,0,0,.195-.715q-.065-.455.585-.325a2.379,2.379,0,0,1,0-1.105.9.9,0,0,1,.78-.715,1.009,1.009,0,0,1-.195.715,1.009,1.009,0,0,0-.195.715q.91-.26.65-1.43h-.26v-.65q.26,0,.26-.13t.26-.26q0-.26-.13-.325t-.13-.325l.52.26q.13.26,0,.26t-.13.26q-.65.26-.26.65.52,0,.26-.65.26,0,.26-.2a1.047,1.047,0,0,1,.13-.455q-.65-.65-.065-1.1a1.622,1.622,0,0,0,.585-1.365q.39.39.195.585a1.009,1.009,0,0,0-.195.715.875.875,0,0,0-.39.78q.39-.13.39-.78a2.037,2.037,0,0,0,.39-.52,2.037,2.037,0,0,1,.39-.52q-.13-.26-.2-.065t-.325-.065a.977.977,0,0,1,.325-.52q.2-.13-.065-.65a2.037,2.037,0,0,1,.52-.39q.26-.13.13-.78h.52q-.26-.78.585-1.04a1.045,1.045,0,0,0,.715-1.3,2.034,2.034,0,0,0,1.3-.975q.39-.715.78-1.365a.819.819,0,0,0,.845-.455,5.241,5.241,0,0,1,.455-.845q1.04,0,1.04-.78a17.963,17.963,0,0,1,3.315-1.625,11.328,11.328,0,0,1,3.835-.585q.26.39.52.26a2.277,2.277,0,0,0,.65-.325,4.883,4.883,0,0,0,.52-.455q-.39-.13,0-.78a.524.524,0,0,1,.26.52.524.524,0,0,0,.52-.26.416.416,0,0,1,.39-.26q.13-.26,0-.39t0-.39a.823.823,0,0,0,.715-.065.823.823,0,0,1,.715-.065.53.53,0,0,1-.13.39q.91.13.455-.39t-.2-.78q.39,0,.26.39.65,0,.65-.26,0-.13-.52-.13a1.785,1.785,0,0,1,1.56-.39q1.04.13,1.04-.65a1.238,1.238,0,0,0,1.1,0,.569.569,0,0,1,.845.26q.39-.13.26-.26t.13-.39a1.848,1.848,0,0,1,1.04.26,1.091,1.091,0,0,0,1.04,0q0,.39.26.39a1.249,1.249,0,0,1,1.3.195,1.9,1.9,0,0,0,1.3.455v.39q1.17.65,2.275,1.3a7.394,7.394,0,0,1,1.885,1.56,5.611,5.611,0,0,1,2.08,1.365q.78.845,1.56,1.625a6.4,6.4,0,0,1,.26,3.12,15.237,15.237,0,0,1-.845,3.055,19.96,19.96,0,0,1-1.3,2.73q-.715,1.235-1.235,2.275a1.215,1.215,0,0,0-.78.975,1.229,1.229,0,0,1-.91.975q.13.39.26.26l-.2.39q-.065.13-.455,0,0,1.69-1.3,1.95.26.52-.13.585t-.26.585h-.13a.115.115,0,0,1-.13-.13,11.454,11.454,0,0,1-1.56,2.275,11.454,11.454,0,0,0-1.56,2.275.375.375,0,0,1-.26.13,1,1,0,0,0-.39.13,7.3,7.3,0,0,1-2.4,3.38,11.631,11.631,0,0,0-2.795,3.25q-.91-.26-1.17,1.04a.375.375,0,0,1-.13-.26,4.057,4.057,0,0,1-1.235,1.04,2.844,2.844,0,0,0-1.1,1.04,1.076,1.076,0,0,0-.91.195,1.074,1.074,0,0,0-.52.975q-.52-.13-.585.065t-.455-.065q-.26.13-.065.325t.065.325q-.26.26-.78-.13a.723.723,0,0,0-.39.585,1.29,1.29,0,0,1-.13.585q-.26,0-.13-.26a.837.837,0,0,0,0-.65q-.52.13-.39.52a.589.589,0,0,1-.13.65,4.456,4.456,0,0,1-.845-.065Q139.945-19.63,139.685-19.24Zm10.4-40.56q0,.13-.13.065t-.13.065Q150.085-59.67,150.085-59.8Zm-5.07,2.86q0,.13-.13.065t-.13.065Q145.015-56.81,145.015-56.94Zm-2.73,8.32q-.13-.26-.26-.585a6.744,6.744,0,0,1-.26-.845,10.578,10.578,0,0,0-3.51,3.25,30.006,30.006,0,0,1-2.99,3.77v.65a6.469,6.469,0,0,0-1.56,2.73,12.78,12.78,0,0,1-1.43,3.12.968.968,0,0,1,0,.715,1.064,1.064,0,0,0-.13.585.416.416,0,0,0-.26.39.416.416,0,0,1-.26.39q-.26,1.95-.455,3.835a20.855,20.855,0,0,1-.585,3.315,1.116,1.116,0,0,1,.39,1.17,2.623,2.623,0,0,0,.13,1.43,16.883,16.883,0,0,0,4.875-1.95,22.151,22.151,0,0,0,3.9-2.99q1.755-1.69,3.315-3.51t3.25-3.64q.13-.13,0-.195t0-.195a4.63,4.63,0,0,0,1.1-1.3,4.63,4.63,0,0,1,1.1-1.3,21.777,21.777,0,0,1,2.145-3.445q1.235-1.625,2.4-3.38a28.059,28.059,0,0,0,2.08-3.7,14.009,14.009,0,0,0,1.17-4.55,5.3,5.3,0,0,0-4.1-.195,7.267,7.267,0,0,0-3.315,1.885,9.121,9.121,0,0,0-4.29,4.55.721.721,0,0,0-.91.13l-.65.65q-.26-.52,0-.585t0-.585A7.133,7.133,0,0,1,142.285-48.62Zm-6.89-4.81q.26-.26,0-.39Zm-.65.52h.26a.115.115,0,0,1,.13-.13q.13,0,0-.26h-.39Zm-2.34,2.86a.416.416,0,0,0-.26-.39Q132.145-49.92,132.4-50.05Zm9.75.52h.26v-.26h-.26Zm.52.13q.26.39.26.065T142.675-49.4Zm-13.39,2.99v.26h.39v-.39h-.26A.115.115,0,0,1,129.285-46.41Zm33.8.91q0,.13-.13.065t-.13.065Q163.085-45.37,163.085-45.5Zm-1.17,1.95q.26.39.26,0T161.915-43.55Zm-1.04,1.69q.26,0,.52-.39t-.26-.39q.13.26-.065.39A.437.437,0,0,0,160.875-41.86Zm-1.95,0q.26-.26,0-.39Zm-.78,1.04q.26.39.26,0T158.145-40.82Zm1.69.39q.26.39.26,0T159.835-40.43Zm-34.45,1.17V-39q.26.26.325-.065t-.195-.325A.115.115,0,0,1,125.385-39.26Zm33.28.52q.39,0,.39-.26Q158.925-39,158.665-38.74Zm-34.71,5.46a4.242,4.242,0,0,1,.455-2.795,3.171,3.171,0,0,0,.325-2.535,16.733,16.733,0,0,1-.845,2.8A2.72,2.72,0,0,0,123.955-33.28Zm30.94-4.94q-.26.39.065.065T154.9-38.22Zm-29.64.91a.548.548,0,0,0,.455-.325q.195-.325-.195-.455a.257.257,0,0,1-.13.39A.257.257,0,0,0,125.255-37.31Zm29.25-.39q0,.13-.13.065t-.13.065Q154.5-37.57,154.505-37.7Zm3.64.52a.416.416,0,0,0-.26-.39Q157.885-37.05,158.145-37.18Zm-3.12.65q.26.39.26,0T155.025-36.53Zm-30.16.78h.26v-.26h-.26Zm30.42.26q0,.13-.13.065t-.13.065Q155.285-35.36,155.285-35.49Zm.91.26h.39q.13-.26-.39-.26Zm-31.85.26q.26.39.26,0T124.345-34.97Zm31.07.91q.26.39.26,0T155.415-34.06Zm-32.11,2.08q.26,0,.39-.455a.679.679,0,0,0-.13-.715,2.137,2.137,0,0,1-.065.52Q123.435-32.37,123.305-31.98Zm.65-1.04q.26.39.26,0T123.955-33.02Zm29.64.78q.26.39.26,0T153.6-32.24Zm-1.17.78h.26v-.26h-.26Zm1.04,0q0-.26-.26,0,.26,0,.26.13Zm-30.94.65q.39.13.39-.52Q122.525-31.33,122.525-30.81Zm28.6.39q0-.26.2-.26t.065-.26a.416.416,0,0,0-.39.26Q150.865-30.42,151.125-30.42Zm.39,0q0,.13-.13.065t-.13.065Q151.515-30.29,151.515-30.42Zm-1.43.13q0,.13-.13.065t-.13.065Q150.085-30.16,150.085-30.29Zm2.47,0q0,.13-.13.065t-.13.065Q152.555-30.16,152.555-30.29Zm-2.08.39q.26.39.26,0T150.475-29.9Zm-.65,1.3q.26.39.26,0T149.825-28.6Zm-1.17,1.56q.39-.13-.13-.65a.429.429,0,0,1,0,.455Q148.4-27.04,148.655-27.04Zm-25.48,0h.26v-.26h-.26Zm23.53,1.69q0-.26-.26,0,.26,0,.26.13Zm-20.28,3.25q.26.39.26.065T126.425-22.1Zm14.17,2.34h.26v-.26h-.26Zm-10.27.39q.26.39.26,0T130.325-19.37Zm4.16,0q.26.39.26,0T134.485-19.37Zm14.56-41.21q.26-.39.26,0T149.045-60.58Zm-4.16,2.47q.26-.39.26,0T144.885-58.11Zm-1.43.39q.65.26.13.52A.425.425,0,0,1,143.455-57.72Zm-1.17,9.1q.65.26,0,.52Zm-13.39.78q.26-.39.26,0T128.9-47.84Zm-1.3,1.82h.26v.26h-.26Zm-.52,1.17h.26v.26h-.26Zm-3.77,8.45q.26-.39.26,0T123.305-36.4Zm-.13.39q.26-.26.13.26T123.175-36.01Zm-.13.91q.26-.39.26,0T123.045-35.1Zm-.39,2.21q.26.26.065.39t-.065.39q-.26,0-.13-.325A1.49,1.49,0,0,0,122.655-32.89Zm-.52,4.81q0-.13.13-.065t.13-.065Q122.4-28.08,122.135-28.08Zm22.36,6.11h.26v.26h-.26Zm27.17,5.2a4.064,4.064,0,0,0-2.21,1.04h-.13q0,.13.065.13t.065-.13q.26,0,.26-.13.26.39-.325.52t-.715.39a.939.939,0,0,1-.78-.325.7.7,0,0,0-.78-.2q0,.39.065.2t.325-.065q.13.39-.195.39t-.2.26q-.52-.13-.52.13a1.154,1.154,0,0,1-.13.52q-.39-.65-.975-.065a.829.829,0,0,1-1.235.065q.26.52,0,.585a.582.582,0,0,0-.39.325h-.26a.115.115,0,0,0,.13.13.115.115,0,0,0,.13-.13.53.53,0,0,1,.39.13,7.266,7.266,0,0,1-.78.455,4.45,4.45,0,0,1-.91.325q.13-.39-.065-.2t.065.2a.964.964,0,0,1-.65.455,1.476,1.476,0,0,0-.78.455q-.26-.26.065-.39t.325-.39q-.39-.13-.78.455a1.075,1.075,0,0,1-1.17.455q-.13.26.13.325t0,.195a3.817,3.817,0,0,0-1.43.26q0,.26.065.26t.065.26q-.26,0-.26.065t-.26.065q-.26,0-.26-.39a1.133,1.133,0,0,1-.585.325.4.4,0,0,0-.325.455q-.52-.26-.715,0a.685.685,0,0,1-.585.26.838.838,0,0,1,.39-.52,2.037,2.037,0,0,0,.52-.39.764.764,0,0,0,.65-.39q0-.26-.26,0l-.39.39a2.527,2.527,0,0,0-1.3.52q-.13.26.13.325t0,.325q-.26-.13-.26-.26t-.26.13q-.26.13-.065.195t.065.325a1,1,0,0,1-.39.13.375.375,0,0,0-.26.13q-.26.13-.26-.13a.23.23,0,0,0-.26-.26,1.563,1.563,0,0,0-1.04,1.04,4.833,4.833,0,0,0-1.17.13,2.657,2.657,0,0,1-1.17,0q0,.91-1.17.91v.65q-.39-.52-.65-.065a.844.844,0,0,1-.78.455q-.13-.52.325-.39t.325-.39q.39.13.195-.065t-.195.065a3.568,3.568,0,0,1-.455.2,3.568,3.568,0,0,0-.455.195l-.39-.39a.345.345,0,0,0,.39.39q0,.39.13.39a3.567,3.567,0,0,0-.2.455q-.065.2-.455.065.26-.52.065-.715a1.009,1.009,0,0,1-.195-.715q-.39-.13-.52,0a.53.53,0,0,1-.39.13.36.36,0,0,1-.065.455.36.36,0,0,0-.065.455q-.39-.52-.715,0a1.43,1.43,0,0,1-.715.65q-.39-.13-.2-.26a2.13,2.13,0,0,0,.325-.26q-.26-.26-.52.13-.26-.13-.065-.26t-.065-.26a4.26,4.26,0,0,0-.65.52,1.787,1.787,0,0,1-.91.39.524.524,0,0,1,.26-.52.85.85,0,0,0,.39-.39q-.26-.26-.39.13a.363.363,0,0,1-.52.26v-.65q-.26,0-.26.65a.514.514,0,0,1-.325-.065q-.065-.065-.195.195-.39-.26-.065-.325a.894.894,0,0,0,.455-.2q-.13-.26-.26-.065t-.39.065q.65-.65,1.17-1.235a3,3,0,0,1,1.56-.845.524.524,0,0,1,.26-.52.524.524,0,0,0,.26-.52,2.389,2.389,0,0,0,1.625-.845,3.857,3.857,0,0,1,1.495-1.1q-.26-.52-.78,0t-.78,0q-.26,0-.065.13t.065.39q-.13,0-.13-.065t-.26-.065a.8.8,0,0,1-.13.455.429.429,0,0,0,0,.455,3.028,3.028,0,0,0-2.21.65.592.592,0,0,1,.325-.325q.2-.065.2-.455a2.5,2.5,0,0,0-.975,1.04,2.5,2.5,0,0,1-.975,1.04q-.52,0-.2-.2t.2-.455q-.65.26-.585.585a.619.619,0,0,1-.2.585h-.26q0-.39-.26-.2t-.39-.2a1.4,1.4,0,0,1,.78-.715,1.039,1.039,0,0,0,.65-.845,130.345,130.345,0,0,1,23.53-13.325q12.61-5.525,26-10.335a15.977,15.977,0,0,0,3.055-.91q1.625-.65,3.315-1.3a2.9,2.9,0,0,1-1.04-.39,1.091,1.091,0,0,0-1.04,0q-.26-.65-1.43-.455t-1.56-.455a3.2,3.2,0,0,1-2.015-.13,3.2,3.2,0,0,0-2.015-.13q-.13-.39-.39-.325t-.26-.195a4.169,4.169,0,0,1-1.5,0,6.816,6.816,0,0,0-1.625-.13,6.871,6.871,0,0,0-3.055-.845,7.757,7.757,0,0,1-3.185-.845q-.26-.13-.325,0t-.325.13a6.658,6.658,0,0,0-2.795-.845,3.474,3.474,0,0,1-2.535-1.235q-.39,0-.39.13a9.075,9.075,0,0,1-2.99-3.9q-1.04-2.47-2.21-4.68a1.3,1.3,0,0,0,.2-.91,2.06,2.06,0,0,1,.065-.91,22.444,22.444,0,0,1,7.605-5.135q4.485-1.885,8.645-3.7,3.38-1.04,6.37-1.69t5.85-1.43a16.754,16.754,0,0,0,2.08-.13q1.04-.13,2.47-.39a3.015,3.015,0,0,0,1.04.065,6.605,6.605,0,0,1,1.04-.065,1.047,1.047,0,0,0,.455.13,1.047,1.047,0,0,1,.455.13,2.221,2.221,0,0,1,1.885.325,5.947,5.947,0,0,0,1.755.845,4.268,4.268,0,0,1,1.17,1.495,12.138,12.138,0,0,1,.65,1.755l.52,1.82a4.6,4.6,0,0,0,.91,1.69,1.105,1.105,0,0,0,0,1.04.721.721,0,0,1-.13.91q-.65.13-.78-.26t-.78-.13a8.06,8.06,0,0,0-3.185-1.17,16.864,16.864,0,0,0-3.64-.13,26.294,26.294,0,0,0-3.705.52q-1.82.39-3.51.65a56.488,56.488,0,0,0-9.62,2.665,67.061,67.061,0,0,0-8.71,3.965,6.583,6.583,0,0,0,2.275.65q1.235.13,2.535.39,3.38.65,7.15,1.3t7.15,1.3a19.475,19.475,0,0,1,4.55.845,14.445,14.445,0,0,0,4.16.715,1.64,1.64,0,0,0,1.69.52,4.937,4.937,0,0,1,2.73,1.755,19.106,19.106,0,0,1,1.69,2.8v.65q.52,1.04.975,1.82a5.1,5.1,0,0,1,.455,2.47,26.048,26.048,0,0,1-8,3.965,88.223,88.223,0,0,0-8.775,3.185,47.874,47.874,0,0,0-5.2,1.625q-2.6.975-4.94,1.625a.959.959,0,0,1-.91.455q-.52-.065-.78.585-.26-.13-.39.065t-.39-.065a17,17,0,0,1-4.355,1.95,15.288,15.288,0,0,0-4.1,1.82Q172.185-17.16,171.665-16.77Zm.26-7.41q.13.39.13,0T171.925-24.18Zm-.26.65q.13.39.13,0T171.665-23.53Zm15.08.65q.13.26.195-.065T186.745-22.88Zm-5.98,1.69a5.593,5.593,0,0,0,1.04-.13.89.89,0,0,0,.78-.65,5.707,5.707,0,0,1-.975.39A3,3,0,0,0,180.765-21.19Zm2.08-.13q.65,0,.52-.26A.749.749,0,0,0,182.845-21.32Zm-.78.26a.265.265,0,0,1,.2.065.514.514,0,0,0,.325.065.307.307,0,0,0-.26-.325Q182.065-21.32,182.065-21.06Zm-16.77.26q-.13,0-.13-.065t-.26-.065q-.26.26.065.325T165.3-20.8Zm15.73.13q.13.26.195-.065T181.025-20.67Zm-6.5.39Zm2.99.52q-.26.13-.13.13a.115.115,0,0,0,.13-.13,2.277,2.277,0,0,1,.715-.13q.325,0,.325-.52A1.955,1.955,0,0,0,177.515-19.76Zm-.91.39h-.26q0,.13-.065.13t-.065.13q.26-.13.325.13t.325,0q.52.13.325-.065t-.325.065q-.26,0-.26-.39.13,0,.52-.39Q176.605-19.76,176.605-19.37Zm-15.99.65q-.26,0-.26.13Q160.615-18.59,160.615-18.72Zm15.47.26h.26v-.26h-.26Zm-2.21,0v.26h.39v-.39h-.26A.115.115,0,0,1,173.875-18.46Zm-4.29.13v.26h.26a.115.115,0,0,1,.13-.13v-.26h-.26A.115.115,0,0,1,169.585-18.33Zm2.86.52a1.648,1.648,0,0,1-.78.39q-.52.13-.26.39a.882.882,0,0,1,.65-.26q.39,0,.39-.52.39.39.65-.26Q172.445-18.07,172.445-17.81Zm1.17.13q.13.39.13,0T173.615-17.68Zm-.65.39q-.39,0-.39.13Q172.965-17.16,172.965-17.29Zm-15.86.78q.39,0,.39-.26h-.26q0,.13-.065.13T157.105-16.51Zm-1.82.65q.39,0,.39-.26h-.26q0,.13-.065.13T155.285-15.86Zm12.48.26a.466.466,0,0,0,.52-.065q.26-.2,0-.325,0,.26-.39.13T167.765-15.6Zm-3.12,1.43q.78,0,.78-.52A.833.833,0,0,0,164.645-14.17Zm-12.35.52h.26v-.26h-.26Zm11.31.13a.208.208,0,0,1,.13-.195q.13-.065-.13-.195a.208.208,0,0,1-.13.195Q163.345-13.65,163.605-13.52Zm-1.69.65a1.059,1.059,0,0,0,.78-.26,1.154,1.154,0,0,0-.52-.13Q161.915-13.26,161.915-12.87Zm-11.96.26q.26.26.65-.13Q150.215-13.13,149.955-12.61Zm8.97,0h.26v-.26h-.26Zm2.21,0v.26q.26.26.325-.065t-.195-.325A.115.115,0,0,1,161.135-12.61Zm-4.16.39a.115.115,0,0,1,.13.13.115.115,0,0,0,.13.13.441.441,0,0,1,.325-.13.713.713,0,0,0,.455-.26Q157.235-12.61,156.975-12.22Zm-7.15-.13q-.26,0-.26.13Q149.825-12.22,149.825-12.35Zm10.27.39q.52,0,.52-.13a.441.441,0,0,0-.325-.13Q160.1-12.22,160.1-11.96Zm-12.09,0q0,.26.13.26t-.13.26q.39.13.52,0l.39-.39Q148.265-12.22,148.005-11.96Zm8.32.52h.26v-.26h-.26Zm-8.71.65q.13-.52-.195-.585a2.32,2.32,0,0,1-.585-.2A.689.689,0,0,0,147.615-10.79Zm5.46.65a.85.85,0,0,0,.39-.39q.13-.26.52,0,0-.65-.26-.65a1.472,1.472,0,0,1-.52.52Q152.815-10.4,153.075-10.14Zm4.94-.78q-.39,0-.39.26.39,0,.39-.26.65,0,.52-.26Q158.015-11.18,158.015-10.92Zm-1.17,0q-.26,0-.26.13Q156.845-10.79,156.845-10.92Zm-2.47.65a.208.208,0,0,1,.13-.195q.13-.065-.13-.195a.208.208,0,0,1-.13.195Q154.115-10.4,154.375-10.27Zm-.26.39q0-.39-.26-.39Q153.855-9.88,154.115-9.88Zm-2.6.78v.26h.39v-.39h-.26A.115.115,0,0,1,151.515-9.1Zm-1.3,1.17q.39,0,.325-.325T151-8.32q0-.26.065-.26t.065-.26h-.52a.416.416,0,0,1-.26.39Q150.085-8.32,150.215-7.93Zm1.17-.39q.13.39.13,0T151.385-8.32Zm-1.69.65a.882.882,0,0,1-.65.26.345.345,0,0,0-.39.39,2.137,2.137,0,0,1,.52.065.54.54,0,0,0,.52-.2v-.52q.26,0,.325-.325t-.195-.325A1.028,1.028,0,0,0,149.7-7.67Zm-5.33-.39v.26h.39v-.39h-.26A.115.115,0,0,1,144.365-8.06Zm7.54-.13q-.26,0-.26.13Q151.905-8.06,151.905-8.19Zm-.39.39q-.65,0-.455.195T151.515-7.8Zm-7.67.39q.13,0,.13.065t.13.065q0-.39-.26-.39Zm.91.52q0-.26.2-.2t.195-.2a.36.36,0,0,0-.455.065Q144.5-7.02,144.755-6.89Zm-.39.39q.13.65-.65.65a.653.653,0,0,0,.715.52q.585,0,.585-.65h-.39a2.258,2.258,0,0,1,.715-.455,1.434,1.434,0,0,0,.715-.715q-.13,0-.13-.065t-.26-.065A1.2,1.2,0,0,1,144.365-6.5Zm3.77-.52q-.13.65.26.26t-.26-.26q-.13-.26-.325-.26t-.2.39q.26,0,.26-.065T148.135-7.02Zm-.78.78q.39,0,.39-.26Q147.225-6.5,147.355-6.24Zm-5.33.65q.39,0,.455-.26a.582.582,0,0,1,.325-.39q-.26.13-.39,0a.53.53,0,0,0-.39-.13.864.864,0,0,1-.065.455Q141.9-5.85,142.025-5.59Zm.91-.13q.39,0,.39-.26h-.26q0,.13-.065.13T142.935-5.72Zm28.73-11.05a.441.441,0,0,0,.325.13q.2,0,.065.26Q171.405-16.12,171.665-16.77Zm-1.43.65h.78l-.78.39Zm-3.12,1.43h.26q0,.26-.65.52,0-.26.2-.26T167.115-14.69ZM164.255-13a.115.115,0,0,1,.13-.13A.115.115,0,0,1,164.255-13ZM157.5-9.75q0,.39-.52.39Q156.975-9.75,157.5-9.75Zm-14.04,1.17q0,.26-.52.26Q142.935-8.58,143.455-8.58Zm-1.04.52Zm10.53,0h.26v.39h-.39v-.26A.115.115,0,0,0,152.945-8.06Zm-13.91,2.21v-.39a.638.638,0,0,0-.585.325q-.2.325-.455.065a4.676,4.676,0,0,0,.715-.585,3.221,3.221,0,0,1,.845-.585.882.882,0,0,0-.26.65A.524.524,0,0,1,139.035-5.85Zm11.44-1.04q-.26.39-.26.065T150.475-6.89Zm-10.14,0a.115.115,0,0,1-.13.13Q140.075-6.76,140.335-6.89Zm-.78.52a.115.115,0,0,1,.13-.13.115.115,0,0,1,.13.13Zm-.52.52q.13.39-.065.2T139.035-5.85Zm1.43.26q.26.13.13.2a.208.208,0,0,0-.13.2q-.26-.13-.13-.2A.208.208,0,0,0,140.465-5.59Zm.78.65q0,.26-.39.26Q140.855-4.94,141.245-4.94Zm3.51,0q.26,0,.26.39h-.39a.265.265,0,0,1,.065-.195A.265.265,0,0,0,144.755-4.94Zm.52.26q.13-.39.13,0T145.275-4.68Zm-4.68.26q.13-.39.13,0T140.6-4.42Zm.65,0q.26,0,.26.2a.441.441,0,0,1-.13.325q-.26-.13-.2-.2A.514.514,0,0,0,141.245-4.42Zm-1.56.78q0-.13.26-.13Q139.945-3.64,139.685-3.64Z" transform="translate(219.115 74.516)" fill="#d2ccdf"/>
</svg>
