<svg xmlns="http://www.w3.org/2000/svg" xmlns:xlink="http://www.w3.org/1999/xlink" width="210.251" height="61.005" viewBox="0 0 210.251 61.005">
  <defs>
    <filter id="Union_3" x="0" y="0" width="210.251" height="61.005" filterUnits="userSpaceOnUse">
      <feOffset dy="3" input="SourceAlpha"/>
      <feGaussianBlur stdDeviation="3" result="blur"/>
      <feFlood flood-opacity="0.396"/>
      <feComposite operator="in" in2="blur"/>
      <feComposite in="SourceGraphic"/>
    </filter>
  </defs>
  <g transform="matrix(1, 0, 0, 1, 0, 0)" filter="url(#Union_3)">
    <path id="Union_3-2" data-name="Union 3" d="M-7085.539-558.995a2.209,2.209,0,0,1-2.2-2.18l-.162-6.82-.292-10.594c0-.029,0-.06,0-.091,0-.3.015-.69.049-1.154.036-.492.054-.831.055-1.033,0-.021,0-.041,0-.059l-.771-.141a26.5,26.5,0,0,1-2.678,4.91q-1.006,1.5-2.665,3.952c-.36.533-1.25,1.838-2.309,3.393-2.018,2.964-4.733,6.952-5.449,8.026h-7.273l20.485-30.55h7.635l.648,23.357.1,2.022a1.254,1.254,0,0,0,1.256,1.2h49.015l-2.725,5.766Zm73.372-9.455,3.171-9.992-3.84-12.949,7.4.068,1.5,4.973a11.937,11.937,0,0,1,.451,2.272l.764.155a22.882,22.882,0,0,1,1.609-2.445l4.5-5.029h7.039l-12.021,13.012-3.171,9.934Zm-24.032,0,5.692-17.8h-8.239l1.631-5.146c9.723,0,17.282.013,22.488.036l-1.633,5.148-6.851-.04-5.692,17.8Zm-18.816,0,7.321-22.908h7.4l-7.321,22.908Zm-19.751,0-.552-23.355v-1.863a1.417,1.417,0,0,0-1.416-1.416h-50.982l2.405-5.916h51.276a5.8,5.8,0,0,1,5.792,5.79l.092,3.415.461,10.606c0,.038,0,.078,0,.12,0,.293-.017.67-.048,1.118-.039.524-.057.875-.056,1.072v.019l.773.142a26.382,26.382,0,0,1,2.678-4.91q1-1.5,2.665-3.952c1.038-1.533,1.894-2.815,2.55-3.815h7.274l-15.282,22.946Zm-42.677,0,5.69-17.8h-8.237l1.631-5.146c9.723,0,17.282.013,22.488.036l-1.633,5.148-6.851-.04-5.692,17.8Zm-31.292,0a2.217,2.217,0,0,1-1.961-1.087,2.626,2.626,0,0,1-.471-1.484,2.908,2.908,0,0,1,.151-.9l6.208-19.479h7.433l-5.691,17.8h8.437l5.69-17.8h7.4l-6.167,19.311a5.255,5.255,0,0,1-1.816,2.661,4.711,4.711,0,0,1-2.917.973Zm-12.354,0-4.343-8.9h-4.342l-2.828,8.9h-7.4l7.321-22.946h20.514a2.19,2.19,0,0,1,1.924,1.087,2.622,2.622,0,0,1,.471,1.484,2.935,2.935,0,0,1-.15.9l-2.226,6.945a5.25,5.25,0,0,1-1.816,2.661,4.592,4.592,0,0,1-2.881.973h-1.244l4.343,8.9Zm2.177-13.241,1.471-4.559h-9.68l-1.47,4.559Z" transform="translate(7189.69 607.5)" fill="#fff" stroke="rgba(0,0,0,0)" stroke-miterlimit="10" stroke-width="1"/>
  </g>
</svg>
