<svg xmlns="http://www.w3.org/2000/svg" xmlns:xlink="http://www.w3.org/1999/xlink" width="269.684" height="61.345" viewBox="0 0 269.684 61.345">
  <defs>
    <linearGradient id="linear-gradient" x1="0.136" y1="0.5" x2="0.876" y2="0.5" gradientUnits="objectBoundingBox">
      <stop offset="0" stop-color="#623093"/>
      <stop offset="1" stop-color="#1f73bb"/>
    </linearGradient>
    <filter id="Union_7" x="44.447" y="6.34" width="181.241" height="55.005" filterUnits="userSpaceOnUse">
      <feOffset dy="3" input="SourceAlpha"/>
      <feGaussianBlur stdDeviation="3" result="blur"/>
      <feFlood flood-opacity="0.396"/>
      <feComposite operator="in" in2="blur"/>
      <feComposite in="SourceGraphic"/>
    </filter>
  </defs>
  <g id="Group_11907" data-name="Group 11907" transform="translate(-52.658 -2997)">
    <rect id="Tucana_9vel_roja_2_" data-name="Tucana 9vel roja (2)" width="269.684" height="60.105" rx="30.052" transform="translate(52.658 2997)" fill="url(#linear-gradient)"/>
    <g transform="matrix(1, 0, 0, 1, 52.66, 2997)" filter="url(#Union_7)">
      <path id="Union_7-2" data-name="Union 7" d="M-7099.926-564.995a1.883,1.883,0,0,1-1.867-1.869l-.137-5.846-.247-9.08c0-.025,0-.051,0-.078,0-.259.013-.592.042-.989.031-.421.045-.712.047-.886,0-.018,0-.035,0-.05l-.653-.12a22.814,22.814,0,0,1-2.27,4.209q-.853,1.284-2.259,3.387c-.305.457-1.06,1.575-1.957,2.908-1.711,2.541-4.012,5.959-4.619,6.879h-6.165l17.365-26.186h6.472l.549,20.02.083,1.733a1.068,1.068,0,0,0,1.065,1.026h41.55l-2.31,4.943Zm62.2-8.1,2.688-8.565-3.255-11.1,6.275.059,1.27,4.263a10.271,10.271,0,0,1,.382,1.948l.647.133a19.531,19.531,0,0,1,1.364-2.1l3.813-4.311h5.967l-10.19,11.153-2.688,8.515Zm-20.372,0,4.825-15.257h-6.984l1.383-4.411c8.242,0,14.65.011,19.063.031l-1.384,4.413-5.807-.034-4.826,15.259Zm-15.951,0,6.206-19.636h6.271l-6.207,19.636Zm-16.743,0-.468-20.019v-1.6a1.208,1.208,0,0,0-1.2-1.214h-43.218l2.039-5.071h43.467a4.941,4.941,0,0,1,4.91,4.963l.078,2.927.391,9.091c0,.033,0,.067,0,.1,0,.251-.014.574-.041.958-.032.449-.048.75-.047.919v.016l.655.122a22.684,22.684,0,0,1,2.27-4.209q.85-1.286,2.259-3.387c.88-1.314,1.605-2.413,2.162-3.27h6.167l-12.955,19.668Zm-36.178,0,4.824-15.257h-6.982l1.382-4.411c8.242,0,14.65.011,19.063.031l-1.384,4.413-5.807-.034L-7120.7-573.1Zm-26.527,0a1.874,1.874,0,0,1-1.662-.931,2.273,2.273,0,0,1-.4-1.272,2.518,2.518,0,0,1,.128-.768l5.263-16.7h6.3l-4.824,15.257h7.152l4.824-15.257h6.272l-5.227,16.553a4.51,4.51,0,0,1-1.54,2.281,3.967,3.967,0,0,1-2.473.834Zm-10.473,0-3.681-7.629h-3.681l-2.4,7.629H-7180l6.206-19.668h17.39a1.852,1.852,0,0,1,1.631.932,2.268,2.268,0,0,1,.4,1.272,2.531,2.531,0,0,1-.127.768l-1.886,5.953a4.5,4.5,0,0,1-1.541,2.281,3.865,3.865,0,0,1-2.442.834h-1.054l3.682,7.629Zm1.845-11.349,1.247-3.908h-8.206l-1.247,3.908Z" transform="translate(7234.13 613.84)" fill="#fff" stroke="rgba(0,0,0,0)" stroke-miterlimit="10" stroke-width="1"/>
    </g>
  </g>
</svg>
